<svg width="23" height="24" viewBox="0 0 23 24" fill="none" xmlns="http://www.w3.org/2000/svg">
<path d="M11.2723 3.42858C9.04288 3.42858 6.86349 4.03182 5.00976 5.16204C3.15604 6.29225 1.71124 7.89866 0.85806 9.77813C0.00488414 11.6576 -0.218346 13.7257 0.2166 15.721C0.651545 17.7162 1.72513 19.5489 3.30159 20.9874C4.87806 22.4259 6.8866 23.4055 9.07321 23.8024C11.2598 24.1993 13.5263 23.9956 15.5861 23.2171C17.6458 22.4386 19.4063 21.1202 20.6449 19.4288C21.8836 17.7373 22.5447 15.7486 22.5447 13.7143C22.5412 10.9873 21.3525 8.37292 19.2393 6.44464C17.1261 4.51637 14.2609 3.4317 11.2723 3.42858ZM11.2723 22.2857C9.41445 22.2857 7.5983 21.783 6.05353 20.8412C4.50876 19.8994 3.30475 18.5607 2.59377 16.9945C1.88279 15.4282 1.69677 13.7048 2.05922 12.0421C2.42168 10.3794 3.31633 8.85212 4.63005 7.65338C5.94377 6.45464 7.61755 5.63829 9.43973 5.30756C11.2619 4.97683 13.1507 5.14658 14.8671 5.79533C16.5836 6.44408 18.0507 7.5427 19.0828 8.95227C20.115 10.3618 20.6659 12.019 20.6659 13.7143C20.6631 15.9868 19.6726 18.1655 17.9115 19.7724C16.1505 21.3793 13.7628 22.2832 11.2723 22.2857ZM16.6337 8.82216C16.7211 8.90176 16.7904 8.9963 16.8376 9.10035C16.8849 9.20441 16.9092 9.31594 16.9092 9.42859C16.9092 9.54123 16.8849 9.65277 16.8376 9.75682C16.7904 9.86088 16.7211 9.95541 16.6337 10.035L11.9369 14.3207C11.8497 14.4004 11.746 14.4635 11.632 14.5066C11.518 14.5497 11.3958 14.5719 11.2723 14.5719C11.1489 14.5719 11.0267 14.5497 10.9127 14.5066C10.7986 14.4635 10.695 14.4004 10.6077 14.3207C10.5205 14.2411 10.4512 14.1466 10.404 14.0425C10.3568 13.9385 10.3325 13.8269 10.3325 13.7143C10.3325 13.6017 10.3568 13.4902 10.404 13.3861C10.4512 13.2821 10.5205 13.1875 10.6077 13.1079L15.3045 8.82216C15.3918 8.74246 15.4954 8.67924 15.6094 8.63611C15.7235 8.59297 15.8457 8.57077 15.9691 8.57077C16.0926 8.57077 16.2148 8.59297 16.3289 8.63611C16.4429 8.67924 16.5465 8.74246 16.6337 8.82216ZM7.51489 0.857144C7.51489 0.629815 7.61386 0.411797 7.79002 0.251052C7.96619 0.090306 8.20512 0 8.45425 0H14.0904C14.3396 0 14.5785 0.090306 14.7546 0.251052C14.9308 0.411797 15.0298 0.629815 15.0298 0.857144C15.0298 1.08447 14.9308 1.30249 14.7546 1.46324C14.5785 1.62398 14.3396 1.71429 14.0904 1.71429H8.45425C8.20512 1.71429 7.96619 1.62398 7.79002 1.46324C7.61386 1.30249 7.51489 1.08447 7.51489 0.857144Z" fill="#321D4E"/>
</svg>
