<svg width="25" height="23" viewBox="0 0 25 23" fill="none" xmlns="http://www.w3.org/2000/svg">
<path d="M23.8198 14.6029L19.6048 12.2954V10.2222C19.6063 10.0714 19.5638 9.92291 19.4818 9.79195C19.3998 9.66099 19.2811 9.55225 19.138 9.47684L13.0698 6.32074V4.25926H14.937C15.1846 4.25926 15.422 4.16951 15.5971 4.00975C15.7722 3.85 15.8705 3.63333 15.8705 3.4074C15.8705 3.18148 15.7722 2.96481 15.5971 2.80506C15.422 2.6453 15.1846 2.55555 14.937 2.55555H13.0698V0.851851C13.0698 0.625926 12.9715 0.409255 12.7964 0.249501C12.6213 0.0897483 12.3839 0 12.1363 0C11.8887 0 11.6512 0.0897483 11.4762 0.249501C11.3011 0.409255 11.2027 0.625926 11.2027 0.851851V2.55555H9.3356C9.08801 2.55555 8.85055 2.6453 8.67548 2.80506C8.5004 2.96481 8.40204 3.18148 8.40204 3.4074C8.40204 3.63333 8.5004 3.85 8.67548 4.00975C8.85055 4.16951 9.08801 4.25926 9.3356 4.25926H11.2027V6.32074L5.13458 9.48217C4.99143 9.55758 4.87278 9.66632 4.79077 9.79728C4.70876 9.92823 4.66632 10.0767 4.6678 10.2275V12.3007L0.452777 14.6029C0.314625 14.6786 0.200314 14.7857 0.12097 14.9137C0.0416253 15.0417 -4.98841e-05 15.1863 4.48102e-08 15.3333V22.1481C4.48102e-08 22.3741 0.098357 22.5907 0.273434 22.7505C0.44851 22.9102 0.685965 23 0.933561 23H10.2692C10.5168 23 10.7542 22.9102 10.9293 22.7505C11.1044 22.5907 11.2027 22.3741 11.2027 22.1481V17.037C11.2027 16.8111 11.3011 16.5944 11.4762 16.4347C11.6512 16.2749 11.8887 16.1852 12.1363 16.1852C12.3839 16.1852 12.6213 16.2749 12.7964 16.4347C12.9715 16.5944 13.0698 16.8111 13.0698 17.037V22.1481C13.0698 22.3741 13.1682 22.5907 13.3433 22.7505C13.5184 22.9102 13.7558 23 14.0034 23H23.339C23.5866 23 23.8241 22.9102 23.9991 22.7505C24.1742 22.5907 24.2726 22.3741 24.2726 22.1481V15.3333C24.2726 15.1863 24.2309 15.0417 24.1516 14.9137C24.0723 14.7857 23.9579 14.6786 23.8198 14.6029ZM1.86712 15.8157L4.6678 14.2824V21.2963H1.86712V15.8157ZM12.1363 14.4815C11.3935 14.4815 10.6811 14.7507 10.1559 15.23C9.63068 15.7092 9.3356 16.3593 9.3356 17.037V21.2963H6.53492V10.7163L12.1363 7.7955L17.7376 10.7163V21.2963H14.937V17.037C14.937 16.3593 14.6419 15.7092 14.1167 15.23C13.5914 14.7507 12.8791 14.4815 12.1363 14.4815ZM22.4055 21.2963H19.6048V14.2824L22.4055 15.8157V21.2963Z" fill="#321D4E"/>
</svg>
