<svg width="30" height="30" viewBox="0 0 30 30" fill="none" xmlns="http://www.w3.org/2000/svg">
<path d="M24.375 3.71752H21.5625V2.78811C21.5625 2.54162 21.4637 2.30522 21.2879 2.13092C21.1121 1.95662 20.8737 1.8587 20.625 1.8587C20.3764 1.8587 20.1379 1.95662 19.9621 2.13092C19.7863 2.30522 19.6875 2.54162 19.6875 2.78811V3.71752H10.3125V2.78811C10.3125 2.54162 10.2137 2.30522 10.0379 2.13092C9.86212 1.95662 9.62366 1.8587 9.37502 1.8587C9.12638 1.8587 8.88792 1.95662 8.71211 2.13092C8.53629 2.30522 8.43752 2.54162 8.43752 2.78811V3.71752H5.62502C5.12774 3.71752 4.65082 3.91336 4.29919 4.26196C3.94756 4.61055 3.75002 5.08335 3.75002 5.57634V24.1645C3.75002 24.6575 3.94756 25.1303 4.29919 25.4789C4.65082 25.8275 5.12774 26.0234 5.62502 26.0234H24.375C24.8723 26.0234 25.3492 25.8275 25.7008 25.4789C26.0525 25.1303 26.25 24.6575 26.25 24.1645V5.57634C26.25 5.08335 26.0525 4.61055 25.7008 4.26196C25.3492 3.91336 24.8723 3.71752 24.375 3.71752ZM8.43752 5.57634V6.50575C8.43752 6.75225 8.53629 6.98864 8.71211 7.16294C8.88792 7.33724 9.12638 7.43516 9.37502 7.43516C9.62366 7.43516 9.86212 7.33724 10.0379 7.16294C10.2137 6.98864 10.3125 6.75225 10.3125 6.50575V5.57634H19.6875V6.50575C19.6875 6.75225 19.7863 6.98864 19.9621 7.16294C20.1379 7.33724 20.3764 7.43516 20.625 7.43516C20.8737 7.43516 21.1121 7.33724 21.2879 7.16294C21.4637 6.98864 21.5625 6.75225 21.5625 6.50575V5.57634H24.375V9.29398H5.62502V5.57634H8.43752ZM24.375 24.1645H5.62502V11.1528H24.375V24.1645ZM19.8821 14.2129C19.9692 14.2992 20.0384 14.4017 20.0855 14.5145C20.1327 14.6274 20.157 14.7483 20.157 14.8704C20.157 14.9926 20.1327 15.1135 20.0855 15.2264C20.0384 15.3392 19.9692 15.4417 19.8821 15.528L14.2571 21.1045C14.17 21.1909 14.0666 21.2594 13.9528 21.3062C13.839 21.353 13.717 21.377 13.5938 21.377C13.4706 21.377 13.3486 21.353 13.2348 21.3062C13.121 21.2594 13.0176 21.1909 12.9305 21.1045L10.118 18.3162C9.94207 18.1418 9.84325 17.9053 9.84325 17.6587C9.84325 17.412 9.94207 17.1755 10.118 17.0011C10.2939 16.8267 10.5325 16.7287 10.7813 16.7287C11.03 16.7287 11.2686 16.8267 11.4446 17.0011L13.5938 19.1329L18.5555 14.2129C18.6426 14.1265 18.746 14.0579 18.8598 14.0111C18.9736 13.9644 19.0956 13.9403 19.2188 13.9403C19.342 13.9403 19.464 13.9644 19.5778 14.0111C19.6916 14.0579 19.795 14.1265 19.8821 14.2129Z" fill="#321D4E"/>
</svg>
