<svg width="21" height="24" viewBox="0 0 21 24" fill="none" xmlns="http://www.w3.org/2000/svg">
<path d="M18.7872 22.2857H12.9796C13.9552 21.4909 14.8752 20.641 15.7343 19.7411C18.9575 16.3586 20.6659 12.7929 20.6659 9.42858C20.6659 6.92797 19.5773 4.52977 17.6395 2.76157C15.7017 0.993366 13.0734 0 10.333 0C7.5925 0 4.96427 0.993366 3.02646 2.76157C1.08865 4.52977 0 6.92797 0 9.42858C0 12.7929 1.70377 16.3586 4.93165 19.7411C5.7907 20.641 6.71073 21.4909 7.68632 22.2857H1.87872C1.62959 22.2857 1.39066 22.3761 1.21449 22.5368C1.03833 22.6975 0.939361 22.9156 0.939361 23.1429C0.939361 23.3702 1.03833 23.5882 1.21449 23.749C1.39066 23.9097 1.62959 24 1.87872 24H18.7872C19.0364 24 19.2753 23.9097 19.4515 23.749C19.6276 23.5882 19.7266 23.3702 19.7266 23.1429C19.7266 22.9156 19.6276 22.6975 19.4515 22.5368C19.2753 22.3761 19.0364 22.2857 18.7872 22.2857ZM1.87872 9.42858C1.87872 7.38263 2.76943 5.42046 4.35491 3.97375C5.94039 2.52704 8.09076 1.71429 10.333 1.71429C12.5752 1.71429 14.7255 2.52704 16.311 3.97375C17.8965 5.42046 18.7872 7.38263 18.7872 9.42858C18.7872 15.5604 12.2739 20.6786 10.333 22.0715C8.39202 20.6786 1.87872 15.5604 1.87872 9.42858ZM15.0298 9.42858C15.0298 8.58095 14.7543 7.75235 14.2382 7.04757C13.7221 6.34278 12.9886 5.79347 12.1304 5.4691C11.2721 5.14472 10.3278 5.05985 9.41667 5.22521C8.50558 5.39058 7.66869 5.79875 7.01183 6.39812C6.35497 6.99749 5.90764 7.76113 5.72641 8.59248C5.54519 9.42383 5.6382 10.2855 5.99369 11.0687C6.34918 11.8518 6.95118 12.5211 7.72357 12.992C8.49595 13.463 9.40403 13.7143 10.333 13.7143C11.5786 13.7143 12.7733 13.2628 13.6541 12.459C14.5349 11.6553 15.0298 10.5652 15.0298 9.42858ZM7.51489 9.42858C7.51489 8.92 7.68017 8.42284 7.98982 7.99997C8.29948 7.5771 8.7396 7.24752 9.25454 7.05289C9.76947 6.85827 10.3361 6.80734 10.8828 6.90656C11.4294 7.00578 11.9315 7.25069 12.3257 7.61031C12.7198 7.96993 12.9882 8.42811 13.0969 8.92692C13.2056 9.42573 13.1498 9.94276 12.9365 10.4126C12.7232 10.8825 12.362 11.2841 11.8986 11.5667C11.4352 11.8492 10.8903 12 10.333 12C9.58557 12 8.86878 11.7291 8.34028 11.2469C7.81179 10.7646 7.51489 10.1106 7.51489 9.42858Z" fill="#321D4E"/>
</svg>
