<svg width="21" height="26" viewBox="0 0 21 26" fill="none" xmlns="http://www.w3.org/2000/svg">
<path d="M18.5714 24.1428H12.8305C13.7949 23.2817 14.7043 22.361 15.5535 21.3861C18.7397 17.7217 20.4285 13.8589 20.4285 10.2142C20.4285 7.50526 19.3524 4.90723 17.4368 2.99168C15.5213 1.07614 12.9232 0 10.2142 0C7.50526 0 4.90723 1.07614 2.99168 2.99168C1.07614 4.90723 0 7.50526 0 10.2142C0 13.8589 1.68419 17.7217 4.87498 21.3861C5.72417 22.361 6.63363 23.2817 7.59801 24.1428H1.85714C1.61086 24.1428 1.37468 24.2406 1.20054 24.4147C1.0264 24.5889 0.928568 24.8251 0.928568 25.0713C0.928568 25.3176 1.0264 25.5538 1.20054 25.7279C1.37468 25.9021 1.61086 25.9999 1.85714 25.9999H18.5714C18.8176 25.9999 19.0538 25.9021 19.228 25.7279C19.4021 25.5538 19.4999 25.3176 19.4999 25.0713C19.4999 24.8251 19.4021 24.5889 19.228 24.4147C19.0538 24.2406 18.8176 24.1428 18.5714 24.1428ZM1.85714 10.2142C1.85714 7.9978 2.73761 5.87214 4.30488 4.30488C5.87214 2.73761 7.9978 1.85714 10.2142 1.85714C12.4307 1.85714 14.5564 2.73761 16.1236 4.30488C17.6909 5.87214 18.5714 7.9978 18.5714 10.2142C18.5714 16.857 12.1329 22.4017 10.2142 23.9106C8.29559 22.4017 1.85714 16.857 1.85714 10.2142ZM14.8571 10.2142C14.8571 9.29598 14.5848 8.39833 14.0746 7.63482C13.5645 6.87131 12.8394 6.27623 11.991 5.92482C11.1426 5.57342 10.2091 5.48147 9.30847 5.66062C8.40785 5.83976 7.58058 6.28195 6.93126 6.93126C6.28195 7.58058 5.83976 8.40785 5.66062 9.30847C5.48147 10.2091 5.57342 11.1426 5.92482 11.991C6.27623 12.8394 6.87131 13.5645 7.63482 14.0746C8.39833 14.5848 9.29598 14.8571 10.2142 14.8571C11.4456 14.8571 12.6265 14.3679 13.4972 13.4972C14.3679 12.6265 14.8571 11.4456 14.8571 10.2142ZM7.42854 10.2142C7.42854 9.66329 7.59192 9.1247 7.89802 8.66659C8.20411 8.20849 8.63918 7.85143 9.1482 7.64059C9.65722 7.42975 10.2173 7.37458 10.7577 7.48207C11.2981 7.58956 11.7944 7.85487 12.184 8.24446C12.5736 8.63404 12.8389 9.13041 12.9464 9.67078C13.0539 10.2112 12.9987 10.7713 12.7879 11.2803C12.5771 11.7893 12.22 12.2244 11.7619 12.5305C11.3038 12.8366 10.7652 13 10.2142 13C9.47543 13 8.76688 12.7065 8.24446 12.184C7.72203 11.6616 7.42854 10.9531 7.42854 10.2142Z" fill="#321D4E"/>
</svg>
