<svg width="26" height="26" viewBox="0 0 26 26" fill="none" xmlns="http://www.w3.org/2000/svg">
<path d="M9.56177 5.37214C9.3356 5.14657 9.05626 4.98159 8.74952 4.89244C8.44278 4.80329 8.11853 4.79283 7.80668 4.86204C7.49484 4.93124 7.20544 5.07788 6.96521 5.28842C6.72498 5.49895 6.54165 5.76661 6.43213 6.06668L0.113878 23.4458C0.0100847 23.7324 -0.023442 24.0397 0.0161127 24.3419C0.0556674 24.6442 0.167149 24.9325 0.341199 25.1827C0.51525 25.4329 0.74679 25.6378 1.01638 25.78C1.28597 25.9222 1.58575 25.9977 1.89055 26.0001C2.11496 25.9985 2.33739 25.9578 2.54777 25.8797L19.9257 19.5602C20.2258 19.4509 20.4936 19.2676 20.7043 19.0274C20.915 18.7873 21.0617 18.4979 21.1311 18.186C21.2004 17.8742 21.19 17.5499 21.101 17.2431C21.0119 16.9363 20.847 16.6568 20.6214 16.4306L9.56177 5.37214ZM8.55908 21.6475L4.34611 17.4345L5.93019 13.0759L12.9177 20.0634L8.55908 21.6475ZM1.9387 24.0549L3.62389 19.4314L6.56695 22.3745L1.9387 24.0549ZM14.9195 19.3363L6.65723 11.0741L8.22205 6.7564L19.2275 17.7619L14.9195 19.3363ZM15.401 7.70372C15.419 7.05272 15.5767 6.41319 15.8632 5.82835C16.5011 4.55362 17.7048 3.85186 19.2528 3.85186C20.0593 3.85186 20.5769 3.57621 20.8959 2.98399C21.0638 2.65267 21.1602 2.28971 21.1787 1.91871C21.1797 1.66331 21.2821 1.41876 21.4633 1.23885C21.6446 1.05893 21.8899 0.958396 22.1453 0.959354C22.4007 0.960312 22.6453 1.06269 22.8252 1.24395C23.0051 1.42522 23.1056 1.67054 23.1047 1.92593C23.1047 3.4739 22.0791 5.77779 19.2528 5.77779C18.4463 5.77779 17.9287 6.05344 17.6098 6.64566C17.4418 6.97699 17.3454 7.33994 17.3269 7.71094C17.3264 7.8374 17.301 7.96253 17.2522 8.07918C17.2034 8.19583 17.132 8.30172 17.0423 8.39081C16.9525 8.47989 16.8461 8.55042 16.7291 8.59838C16.6121 8.64633 16.4868 8.67077 16.3603 8.6703C16.2338 8.66982 16.1087 8.64445 15.9921 8.59561C15.8754 8.54678 15.7695 8.47545 15.6804 8.3857C15.5914 8.29594 15.5208 8.18952 15.4729 8.07251C15.4249 7.95549 15.4005 7.83018 15.401 7.70372ZM12.5121 3.85186V0.962965C12.5121 0.707571 12.6135 0.462637 12.7941 0.282046C12.9747 0.101455 13.2196 0 13.475 0C13.7304 0 13.9754 0.101455 14.1559 0.282046C14.3365 0.462637 14.438 0.707571 14.438 0.962965V3.85186C14.438 4.10726 14.3365 4.35219 14.1559 4.53278C13.9754 4.71337 13.7304 4.81483 13.475 4.81483C13.2196 4.81483 12.9747 4.71337 12.7941 4.53278C12.6135 4.35219 12.5121 4.10726 12.5121 3.85186ZM24.7489 13.7632C24.8383 13.8526 24.9092 13.9588 24.9576 14.0757C25.0059 14.1926 25.0308 14.3178 25.0307 14.4443C25.0307 14.5708 25.0057 14.696 24.9572 14.8128C24.9088 14.9296 24.8378 15.0358 24.7483 15.1252C24.6589 15.2146 24.5527 15.2855 24.4358 15.3338C24.3189 15.3822 24.1937 15.407 24.0672 15.407C23.9407 15.4069 23.8155 15.3819 23.6987 15.3335C23.5819 15.285 23.4757 15.214 23.3863 15.1246L21.4604 13.1986C21.2797 13.018 21.1782 12.7729 21.1782 12.5173C21.1782 12.2618 21.2797 12.0167 21.4604 11.836C21.6411 11.6554 21.8862 11.5538 22.1417 11.5538C22.3972 11.5538 22.6423 11.6554 22.823 11.836L24.7489 13.7632ZM25.3351 8.61733L22.4462 9.5803C22.2039 9.66107 21.9395 9.64227 21.711 9.52805C21.4826 9.41383 21.3089 9.21353 21.2281 8.97122C21.1473 8.72892 21.1661 8.46445 21.2803 8.23601C21.3946 8.00756 21.5949 7.83384 21.8372 7.75307L24.7261 6.79011C24.9684 6.70934 25.2328 6.72813 25.4613 6.84236C25.6897 6.95658 25.8634 7.15688 25.9442 7.39918C26.025 7.64149 26.0062 7.90596 25.892 8.1344C25.7777 8.36285 25.5774 8.53657 25.3351 8.61733Z" fill="#321D4E"/>
</svg>
