<svg xmlns="http://www.w3.org/2000/svg" xmlns:xlink="http://www.w3.org/1999/xlink" width="1080" zoomAndPan="magnify" viewBox="0 0 810 1012.49997" height="1350" preserveAspectRatio="xMidYMid meet" version="1.0"><defs><filter x="0%" y="0%" width="100%" height="100%" id="b71eeb92e0"><feColorMatrix values="0 0 0 0 1 0 0 0 0 1 0 0 0 0 1 0 0 0 1 0" color-interpolation-filters="sRGB"/></filter><mask id="a1cc3d583f"><g filter="url(#b71eeb92e0)"><rect x="-81" width="972" fill="#000000" y="-101.249997" height="1214.999964" fill-opacity="0.56"/></g></mask><clipPath id="8ae396ec56"><path d="M 1 108.921875 L 514.980469 108.921875 L 514.980469 655 L 1 655 Z M 1 108.921875 " clip-rule="nonzero"/></clipPath><clipPath id="8fcc0d0121"><rect x="0" width="516" y="0" height="656"/></clipPath><clipPath id="25fe843806"><path d="M 0.199219 38 L 809.800781 38 L 809.800781 923 L 0.199219 923 Z M 0.199219 38 " clip-rule="nonzero"/></clipPath><mask id="97e474b3a3"><g filter="url(#b71eeb92e0)"><rect x="-81" width="972" fill="#000000" y="-101.249997" height="1214.999964" fill-opacity="0.16"/></g></mask><clipPath id="4002af257d"><path d="M 69 54 L 740 54 L 740 822 L 69 822 Z M 69 54 " clip-rule="nonzero"/></clipPath><clipPath id="fcd42f06de"><path d="M 677.605469 -0.140625 L 821.210938 752.402344 L 131.992188 883.921875 L -11.613281 131.378906 Z M 677.605469 -0.140625 " clip-rule="nonzero"/></clipPath><clipPath id="5b5ea1a3b0"><path d="M 677.605469 -0.140625 L 821.210938 752.402344 L 131.992188 883.921875 L -11.613281 131.378906 Z M 677.605469 -0.140625 " clip-rule="nonzero"/></clipPath><clipPath id="3ad917e9c7"><rect x="0" width="810" y="0" height="885"/></clipPath></defs><g mask="url(#a1cc3d583f)"><g transform="matrix(1, 0, 0, 1, 147, 98)"><g clip-path="url(#8fcc0d0121)"><g clip-path="url(#8ae396ec56)"><path fill="#000000" d="M 65.394531 237.445312 C 62.480469 235.257812 59.207031 234.167969 55.929688 233.195312 C 51.199219 231.859375 46.46875 230.28125 41.371094 230.523438 C 40.523438 230.523438 39.675781 230.28125 38.945312 229.3125 C 40.886719 228.21875 42.828125 228.339844 44.769531 228.21875 C 52.535156 228.21875 58.597656 224.699219 64.058594 219.601562 C 69.761719 214.261719 73.882812 207.582031 77.765625 200.90625 C 81.527344 194.351562 84.804688 187.554688 87.230469 180.394531 C 87.472656 179.542969 87.835938 178.695312 88.320312 177.84375 C 89.292969 176.265625 90.625 176.390625 91.839844 177.84375 C 93.539062 180.03125 93.902344 182.699219 94.507812 185.25 C 95.84375 191.199219 98.027344 196.902344 100.453125 202.484375 C 100.695312 203.09375 100.9375 203.820312 101.542969 204.183594 C 103.484375 202.851562 104.941406 201.03125 106.640625 199.453125 C 114.28125 192.652344 122.773438 187.070312 131.75 181.972656 C 144.003906 175.054688 156.984375 169.46875 170.328125 164.980469 C 181.976562 161.09375 193.863281 157.816406 205.996094 155.390625 C 207.8125 155.027344 208.664062 155.027344 210.121094 154.054688 C 211.574219 153.082031 213.03125 150.414062 214.121094 148.957031 C 217.519531 144.34375 221.644531 140.339844 226.132812 136.820312 C 229.773438 133.90625 233.898438 131.597656 238.628906 130.871094 C 240.203125 130.628906 241.78125 130.507812 243.359375 130.507812 C 247.242188 130.507812 251.121094 130.140625 255.003906 130.265625 C 255.246094 130.265625 255.976562 113.632812 255.613281 105.503906 C 255.246094 95.546875 255.125 85.71875 255.246094 75.761719 C 255.246094 69.332031 255.492188 63.019531 255.855469 56.585938 C 256.21875 50.636719 256.460938 44.691406 256.703125 38.863281 C 257.066406 31.824219 257.550781 24.785156 258.039062 17.742188 C 258.28125 13.738281 259.007812 9.367188 259.25 8.152344 C 259.492188 6.941406 260.222656 2.933594 260.707031 1.355469 C 260.707031 0.992188 262.527344 0.871094 263.011719 0.871094 C 263.496094 0.871094 266.289062 1.355469 266.410156 1.722656 C 267.742188 8.152344 267.015625 14.222656 266.53125 20.898438 C 266.042969 26.605469 265.921875 32.308594 265.558594 38.015625 C 265.074219 45.539062 264.347656 53.066406 263.859375 60.46875 C 263.253906 69.207031 262.527344 77.949219 262.285156 86.6875 C 262.164062 92.636719 262.285156 98.582031 261.796875 104.53125 C 261.433594 110.964844 260.828125 128.078125 260.707031 130.265625 C 263.132812 130.386719 265.800781 130.386719 268.59375 130.75 C 273.324219 131.355469 278.054688 130.75 282.664062 131.476562 C 284.484375 131.84375 286.425781 132.207031 288.246094 132.570312 C 292.734375 133.542969 296.371094 135.726562 299.40625 139.246094 C 302.316406 142.644531 305.59375 145.558594 307.777344 149.5625 C 308.261719 150.414062 308.746094 151.261719 308.625 152.355469 C 308.503906 153.449219 308.867188 153.8125 309.960938 154.054688 C 317.117188 155.511719 323.789062 157.9375 330.582031 160.730469 C 333.253906 161.824219 336.164062 162.308594 338.953125 163.035156 C 348.539062 165.585938 357.636719 169.589844 366.613281 173.597656 C 389.296875 183.792969 409.679688 197.628906 428.238281 214.136719 C 447.773438 231.496094 464.390625 251.160156 477.613281 273.617188 C 488.167969 291.578125 496.78125 310.273438 502.242188 330.421875 C 503.332031 334.304688 504.183594 338.191406 504.910156 342.195312 C 505.636719 346.566406 507.09375 350.691406 507.699219 355.183594 C 508.308594 359.675781 508.914062 364.167969 509.398438 368.777344 C 510.246094 376.304688 510.855469 383.828125 511.097656 391.234375 C 511.339844 398.882812 511.460938 406.648438 510.976562 414.296875 C 510.734375 417.816406 510.613281 421.457031 510.367188 424.976562 C 509.277344 438.9375 507.335938 452.773438 504.0625 466.371094 C 499.9375 483.484375 494.71875 500.113281 487.441406 516.136719 C 486.226562 518.804688 485.015625 521.597656 483.679688 524.148438 C 483.195312 524.996094 483.4375 525.480469 484.164062 525.96875 C 490.835938 530.824219 498.238281 533.734375 506.488281 534.585938 C 508.792969 534.828125 510.976562 535.070312 513.160156 535.800781 C 513.644531 535.921875 514.007812 536.042969 514.371094 536.285156 C 514.980469 536.769531 514.859375 537.378906 514.128906 537.742188 C 513.765625 537.863281 513.28125 537.984375 512.796875 538.105469 C 499.9375 541.261719 488.652344 547.210938 478.828125 556.070312 C 470.09375 564.082031 463.300781 573.429688 459.539062 584.714844 C 458.082031 588.964844 456.140625 592.96875 455.050781 597.339844 C 455.050781 597.703125 454.6875 598.066406 454.324219 598.066406 C 453.714844 598.066406 453.714844 597.582031 453.59375 597.097656 C 453.230469 596.003906 453.351562 594.789062 453.351562 593.699219 C 453.351562 587.871094 450.078125 578.40625 446.316406 573.792969 C 444.980469 575.25 443.769531 576.707031 442.433594 578.160156 C 439.402344 581.683594 435.761719 584.714844 432.605469 587.992188 C 425.933594 594.667969 418.050781 599.769531 410.648438 605.472656 C 391.726562 620.28125 370.496094 630.71875 348.292969 639.214844 C 335.191406 644.191406 321.605469 647.226562 307.898438 649.777344 C 296.617188 651.839844 285.332031 653.175781 274.050781 654.269531 C 268.835938 654.753906 263.617188 654.996094 258.28125 654.996094 C 252.699219 654.996094 247.121094 654.148438 241.417969 653.78125 C 219.945312 652.324219 199.566406 646.257812 179.183594 639.945312 C 177.851562 639.582031 176.636719 639.09375 175.300781 638.609375 C 174.453125 638.367188 173.726562 637.761719 172.875 638.851562 C 172.390625 639.460938 170.933594 639.09375 170.570312 638.125 C 170.085938 636.667969 168.871094 636.304688 167.660156 635.816406 C 153.828125 630.71875 140.972656 623.558594 128.355469 616.03125 C 122.894531 612.753906 117.4375 609.355469 112.21875 605.59375 C 111.128906 604.746094 109.671875 604.988281 108.703125 604.378906 C 107.730469 603.773438 107.730469 602.316406 106.640625 601.589844 C 98.269531 595.398438 90.625 588.359375 83.226562 581.195312 C 77.765625 575.976562 72.429688 570.636719 67.210938 565.175781 C 58.476562 555.949219 50.472656 546.238281 43.921875 535.433594 C 41.007812 530.703125 37.613281 526.453125 34.820312 521.71875 C 25.359375 506.304688 18.324219 489.796875 12.984375 472.558594 C 9.226562 460.664062 6.796875 448.40625 4.613281 436.144531 C 3.28125 428.378906 2.066406 420.488281 1.582031 412.597656 C 1.21875 406.648438 0.734375 400.582031 1.21875 394.511719 C 1.582031 390.382812 1.582031 386.136719 1.824219 382.007812 C 2.550781 372.296875 3.765625 362.710938 5.585938 353.121094 C 8.859375 336.003906 13.714844 319.253906 20.507812 303.109375 C 21.839844 299.832031 23.296875 296.679688 25.117188 293.644531 C 29.121094 286.847656 32.152344 279.5625 36.277344 272.886719 C 42.949219 262.207031 50.105469 251.886719 58.597656 242.664062 C 60.539062 240.476562 62.601562 238.535156 64.90625 236.59375 Z M 378.625 420 C 379.351562 420.730469 379.472656 421.457031 379.472656 422.066406 C 380.078125 429.953125 380.683594 437.84375 381.292969 445.734375 C 381.414062 447.675781 381.292969 447.796875 383.355469 447.675781 C 387.113281 447.675781 390.996094 447.433594 394.757812 447.191406 C 401.1875 446.828125 407.496094 446.339844 413.925781 445.855469 C 421.082031 445.371094 428.117188 444.761719 435.277344 444.035156 C 436.246094 444.035156 436.609375 443.792969 436.730469 442.699219 C 436.730469 441.363281 436.976562 440.152344 437.097656 438.816406 C 437.460938 434.324219 437.703125 429.710938 438.1875 425.222656 C 438.792969 419.636719 439.035156 414.175781 439.28125 408.589844 C 439.644531 403.128906 439.765625 397.667969 439.886719 392.207031 C 440.007812 383.34375 440.007812 374.484375 439.886719 365.621094 C 439.886719 364.53125 439.402344 364.167969 438.429688 364.042969 C 436.976562 364.042969 435.398438 363.679688 433.941406 363.558594 C 427.511719 362.832031 421.082031 362.101562 414.652344 361.617188 C 407.980469 361.011719 401.308594 360.644531 394.636719 360.039062 C 391.117188 359.796875 387.480469 359.554688 383.960938 359.3125 C 382.992188 359.3125 382.382812 359.433594 382.261719 360.644531 C 382.261719 361.980469 382.140625 363.195312 381.898438 364.53125 C 381.292969 369.628906 380.683594 374.605469 380.078125 379.703125 C 380.078125 380.1875 380.078125 380.796875 379.230469 380.796875 C 378.867188 380.1875 378.746094 379.582031 378.625 378.851562 C 377.894531 372.785156 377.046875 366.59375 376.316406 360.523438 C 376.195312 359.3125 375.832031 358.824219 374.621094 358.824219 C 369.644531 358.582031 364.792969 358.21875 359.820312 357.855469 C 353.996094 357.488281 348.171875 357.003906 342.351562 356.640625 C 336.769531 356.277344 331.070312 355.914062 325.488281 355.546875 C 320.757812 355.304688 315.90625 355.0625 311.171875 354.820312 C 310.808594 355.183594 310.808594 355.546875 310.808594 355.914062 C 310.808594 358.097656 310.929688 360.402344 310.808594 362.589844 C 310.324219 368.292969 310.566406 373.996094 310.082031 379.703125 C 309.71875 383.828125 309.71875 388.078125 309.109375 392.207031 C 309.109375 392.691406 309.109375 393.175781 308.503906 393.175781 C 308.019531 393.175781 307.65625 392.933594 307.414062 392.570312 C 306.804688 391.71875 306.925781 390.628906 306.925781 389.65625 C 306.925781 379.339844 306.925781 369.019531 306.804688 358.824219 C 306.804688 357.855469 306.683594 357.003906 306.5625 356.15625 C 306.5625 354.941406 305.835938 354.699219 304.742188 354.699219 C 299.164062 354.699219 293.460938 354.335938 287.882812 354.210938 C 278.78125 354.089844 269.5625 353.96875 260.464844 353.96875 C 251.246094 353.96875 242.023438 354.089844 232.804688 354.210938 C 226.980469 354.210938 221.039062 354.335938 215.214844 354.457031 C 214.488281 354.457031 213.757812 354.578125 212.910156 354.699219 C 212.058594 354.699219 211.695312 355.183594 211.695312 356.035156 C 211.695312 358.21875 211.332031 360.402344 211.332031 362.589844 C 211.089844 367.808594 211.089844 372.90625 210.96875 378.125 C 210.605469 389.65625 210.847656 401.1875 210.484375 412.597656 C 210.242188 421.699219 210.484375 430.925781 210 440.03125 C 210 441.851562 210 443.671875 210 445.492188 C 210 446.707031 210.484375 447.070312 211.574219 447.070312 C 212.789062 447.070312 214 447.070312 215.214844 447.070312 C 223.222656 447.3125 231.226562 447.675781 239.113281 447.917969 C 245.664062 448.164062 252.214844 448.164062 258.765625 448.40625 C 262.40625 448.527344 265.921875 448.40625 269.5625 448.648438 C 280.601562 449.011719 291.640625 449.132812 302.679688 449.011719 C 304.378906 449.011719 304.257812 449.011719 304.5 447.191406 C 305.472656 437.117188 306.441406 426.921875 307.414062 416.84375 C 307.414062 415.753906 307.414062 414.417969 308.261719 413.324219 C 308.867188 414.417969 308.988281 415.390625 308.988281 416.359375 C 308.988281 419.878906 309.230469 423.523438 309.476562 427.042969 C 309.839844 433.597656 309.960938 440.273438 310.082031 446.949219 C 310.082031 449.253906 310.082031 449.132812 312.386719 449.132812 C 312.386719 449.132812 312.507812 449.132812 312.628906 449.132812 C 325.003906 449.132812 337.5 449.132812 349.871094 448.769531 C 357.273438 448.527344 364.792969 448.285156 372.195312 448.285156 C 372.679688 448.285156 373.285156 448.285156 373.769531 448.285156 C 374.863281 448.285156 375.347656 447.675781 375.46875 446.585938 C 376.195312 438.695312 377.046875 430.804688 377.773438 423.035156 C 377.773438 422.1875 378.015625 421.214844 378.5 420.246094 Z M 105.0625 594.667969 C 105.0625 593.941406 104.941406 593.699219 104.820312 593.335938 C 101.542969 583.503906 98.632812 573.429688 96.207031 563.230469 C 95.964844 562.261719 95.476562 561.898438 94.628906 561.53125 C 90.382812 559.710938 86.015625 558.011719 81.769531 556.191406 C 81.40625 556.070312 80.921875 555.828125 80.558594 555.707031 C 80.3125 555.707031 80.191406 555.464844 80.191406 555.21875 C 80.191406 554.855469 80.558594 554.734375 80.800781 554.734375 C 81.769531 554.855469 82.742188 555.097656 83.710938 555.34375 C 87.351562 556.191406 90.867188 557.042969 94.386719 557.890625 C 94.75 557.164062 94.507812 556.675781 94.386719 556.191406 C 91.71875 544.417969 88.925781 532.644531 86.863281 520.75 C 86.621094 519.171875 85.894531 518.683594 84.4375 518.199219 C 78.128906 516.257812 71.945312 514.316406 65.757812 512.371094 C 65.273438 512.25 64.542969 512.128906 64.300781 511.523438 C 64.785156 510.792969 65.515625 511.160156 66.121094 511.160156 C 70.367188 511.644531 74.613281 512.25 78.738281 512.738281 C 80.921875 512.980469 83.105469 513.585938 85.410156 513.222656 C 84.316406 506.546875 83.46875 499.871094 82.863281 493.195312 C 82.253906 486.640625 82.011719 479.964844 81.890625 473.410156 C 81.890625 466.855469 81.890625 460.179688 82.496094 453.136719 C 83.46875 454.59375 83.46875 455.6875 83.589844 456.78125 C 84.4375 462.484375 85.289062 468.191406 86.257812 473.894531 C 87.351562 481.175781 88.441406 488.460938 89.050781 495.863281 C 89.535156 501.449219 90.261719 507.03125 90.867188 512.617188 C 90.988281 513.949219 91.597656 514.4375 92.808594 514.558594 C 94.871094 514.800781 96.933594 515.042969 98.875 515.40625 C 109.308594 517.226562 119.863281 519.046875 130.296875 520.871094 C 133.085938 521.355469 135.996094 521.71875 138.910156 522.203125 C 140.121094 522.324219 140.242188 522.203125 140.121094 520.992188 C 140.121094 520.746094 140 520.382812 139.878906 520.140625 C 139.394531 516.742188 138.789062 513.222656 138.421875 509.703125 C 138.058594 504.484375 138.179688 499.140625 138.421875 493.921875 C 138.421875 493.4375 138.421875 492.832031 138.910156 492.464844 C 139.757812 492.832031 139.757812 493.679688 139.878906 494.410156 C 141.09375 498.292969 142.183594 502.175781 143.277344 506.0625 C 144.730469 511.160156 145.460938 516.5 146.308594 521.71875 C 146.550781 522.933594 146.914062 523.296875 148.128906 523.539062 C 155.648438 524.511719 163.171875 525.359375 170.8125 525.96875 C 177.363281 526.574219 183.792969 526.9375 190.34375 527.425781 C 195.441406 527.789062 200.535156 528.03125 205.628906 528.152344 C 207.9375 528.152344 207.9375 528.273438 208.179688 526.089844 C 208.179688 526.089844 208.421875 525.96875 208.542969 525.847656 C 208.90625 525.847656 209.027344 526.210938 209.027344 526.453125 C 209.511719 528.636719 209.753906 528.273438 211.453125 528.273438 C 216.792969 528.394531 222.128906 528.636719 227.46875 528.757812 C 244.695312 528.757812 261.921875 529 279.144531 528.152344 C 285.332031 527.789062 291.640625 527.546875 297.828125 527.179688 C 298.800781 527.179688 299.164062 526.695312 299.164062 525.847656 C 299.40625 521.960938 299.769531 518.078125 300.011719 514.195312 C 300.253906 510.1875 300.375 506.304688 300.617188 502.296875 C 300.984375 495.984375 301.46875 489.675781 301.832031 483.363281 C 302.074219 479.601562 302.195312 475.714844 302.4375 471.953125 C 302.679688 467.097656 302.921875 462.242188 303.289062 457.386719 C 303.410156 455.445312 302.925781 455.6875 301.589844 455.6875 C 299.285156 455.6875 296.980469 455.808594 294.796875 455.929688 C 279.632812 455.929688 264.46875 455.6875 249.304688 455.445312 C 242.632812 455.445312 236.082031 455.445312 229.40625 455.082031 C 225.164062 454.960938 220.917969 455.082031 216.671875 454.714844 C 214.730469 454.472656 212.667969 454.714844 210.726562 454.714844 C 209.996094 454.714844 209.632812 454.960938 209.632812 455.808594 C 209.632812 458.359375 209.390625 460.785156 209.390625 463.335938 C 209.269531 468.796875 209.148438 474.257812 208.90625 479.84375 C 208.664062 487.976562 208.664062 496.109375 208.421875 504.242188 C 208.421875 506.0625 207.9375 507.882812 208.421875 509.703125 C 208.542969 510.308594 208.058594 510.917969 207.328125 510.917969 C 206.480469 510.917969 206.359375 510.429688 206.359375 509.703125 C 206.359375 509.339844 206.359375 508.972656 206.359375 508.609375 C 206.359375 506.667969 206.359375 504.605469 206.359375 502.664062 C 205.875 496.351562 205.875 490.039062 205.628906 483.726562 C 205.265625 474.625 205.265625 465.398438 205.144531 456.292969 C 205.144531 456.171875 205.144531 455.929688 205.144531 455.808594 C 205.144531 454.839844 204.660156 454.472656 203.8125 454.472656 C 201.507812 454.472656 199.203125 454.230469 197.015625 454.230469 C 191.800781 454.230469 186.707031 453.988281 181.488281 453.746094 C 175.546875 453.503906 169.480469 453.136719 163.535156 452.894531 C 159.773438 452.652344 155.890625 452.53125 152.132812 452.289062 C 146.1875 451.925781 140.363281 451.5625 134.542969 451.195312 C 134.175781 451.804688 134.296875 452.289062 134.421875 452.894531 C 135.148438 458.964844 135.753906 464.914062 136.480469 470.980469 C 136.605469 472.316406 136.605469 473.773438 136.480469 475.109375 C 136.480469 475.59375 136.117188 476.199219 135.511719 476.078125 C 134.90625 476.078125 134.542969 475.714844 134.542969 474.988281 C 134.542969 474.5 134.542969 474.015625 134.542969 473.652344 C 134.542969 472.4375 134.421875 471.222656 134.175781 470.011719 C 133.328125 464.183594 132.480469 458.480469 131.75 452.652344 C 131.628906 451.316406 131.144531 450.953125 129.808594 450.832031 C 122.046875 450.226562 114.402344 449.496094 106.640625 448.648438 C 96.085938 447.554688 85.652344 446.21875 75.21875 444.640625 C 66.242188 443.183594 57.386719 441.851562 48.53125 439.664062 C 45.132812 438.816406 41.617188 437.84375 38.21875 436.996094 C 37.855469 437.480469 37.976562 437.964844 37.976562 438.453125 C 38.582031 444.15625 39.066406 449.738281 39.675781 455.445312 C 40.523438 463.578125 41.738281 471.710938 43.070312 479.84375 C 45.253906 492.34375 47.800781 504.847656 50.714844 517.105469 C 53.261719 527.789062 55.808594 538.589844 59.449219 549.03125 C 59.8125 550.121094 60.296875 551.09375 61.027344 552.066406 C 64.542969 556.191406 68.0625 560.195312 71.945312 564.082031 C 79.585938 571.972656 87.351562 579.738281 95.476562 587.023438 C 98.390625 589.691406 101.421875 592.242188 104.941406 594.914062 Z M 135.148438 347.535156 C 136.847656 347.535156 138.300781 347.535156 139.757812 347.535156 C 148.613281 347.050781 157.589844 346.445312 166.445312 346.203125 C 175.789062 345.957031 185.128906 345.472656 194.589844 345.472656 C 197.746094 345.472656 201.019531 345.230469 204.175781 345.230469 C 205.265625 345.230469 205.875 344.988281 205.875 343.773438 C 205.875 339.160156 206.359375 334.550781 206.722656 329.9375 C 207.207031 322.652344 207.8125 315.371094 208.542969 308.085938 C 209.269531 300.925781 209.875 293.886719 210.847656 286.847656 C 210.96875 285.632812 210.605469 285.148438 209.390625 285.148438 C 207.207031 284.902344 205.023438 284.660156 202.839844 284.296875 C 202.234375 284.296875 201.261719 284.296875 201.140625 283.570312 C 201.140625 282.71875 201.992188 282.71875 202.71875 282.597656 C 204.902344 282.113281 207.085938 281.625 209.148438 281.261719 C 211.332031 280.777344 211.453125 280.898438 211.695312 278.59375 C 212.058594 275.558594 212.304688 272.523438 212.667969 269.488281 C 213.515625 262.8125 214.242188 256.257812 215.09375 249.582031 C 216.183594 241.449219 217.15625 233.316406 218.367188 225.183594 C 218.488281 224.089844 218.367188 223.847656 217.277344 223.847656 C 211.453125 224.335938 205.628906 224.699219 199.808594 225.0625 C 193.984375 225.425781 188.160156 226.15625 182.21875 226.035156 C 177.851562 226.035156 173.605469 225.792969 169.238281 225.546875 C 166.082031 225.425781 163.050781 225.183594 159.894531 224.941406 C 159.289062 224.941406 158.199219 225.183594 158.199219 224.335938 C 158.199219 223.484375 159.167969 223.484375 159.773438 223.363281 C 165.113281 221.90625 170.570312 220.570312 175.910156 219.113281 C 181.488281 217.660156 187.070312 216.566406 192.773438 216.203125 C 201.261719 215.59375 209.753906 214.746094 218.246094 214.625 C 219.945312 214.625 219.945312 214.503906 220.1875 212.804688 C 221.644531 203.457031 223.222656 194.109375 224.917969 184.765625 C 225.164062 183.1875 225.039062 183.066406 223.464844 183.1875 C 215.820312 183.792969 208.179688 184.765625 200.65625 185.976562 C 189.011719 187.921875 177.484375 190.46875 166.203125 193.625 C 165.234375 193.867188 164.625 194.351562 164.382812 195.324219 C 164.019531 196.660156 163.535156 198.117188 163.171875 199.453125 C 159.167969 212.558594 156.257812 225.914062 153.101562 239.265625 C 152.011719 244.121094 150.796875 248.855469 150.070312 253.832031 C 150.070312 254.4375 149.585938 255.164062 150.554688 255.53125 C 151.644531 256.015625 152.011719 256.984375 152.253906 258.078125 C 153.222656 261.234375 154.074219 264.390625 155.285156 267.425781 C 157.710938 273.371094 161.472656 277.863281 168.023438 279.441406 C 169.964844 279.925781 171.785156 280.898438 173.484375 282.234375 C 174.089844 282.71875 174.210938 283.203125 173.484375 283.691406 C 172.511719 284.296875 171.542969 284.902344 170.449219 285.269531 C 163.898438 287.453125 158.441406 291.335938 154.195312 296.554688 C 150.796875 300.804688 148.128906 305.417969 147.15625 311 C 146.914062 312.214844 147.035156 313.429688 146.550781 314.519531 C 146.1875 315.492188 145.582031 315.734375 144.851562 315.128906 C 143.761719 314.15625 142.910156 313.1875 143.03125 311.609375 C 143.03125 311 143.03125 310.394531 142.789062 309.910156 C 142.183594 308.574219 141.941406 307.117188 141.457031 305.78125 C 141.214844 304.808594 140.972656 303.839844 140 302.625 C 138.300781 317.796875 136.359375 332.605469 135.269531 347.414062 Z M 141.699219 227.734375 C 138.058594 230.523438 135.027344 233.074219 131.265625 234.53125 C 125.5625 236.714844 120.226562 239.507812 115.375 243.390625 C 108.335938 249.097656 102.394531 255.773438 97.417969 263.417969 C 93.78125 268.882812 90.261719 274.34375 89.414062 281.140625 C 88.804688 285.753906 87.957031 290.367188 87.109375 295.101562 C 87.472656 295.101562 87.59375 295.222656 87.835938 295.222656 C 93.171875 294.371094 98.511719 294.128906 103.96875 293.886719 C 107.003906 293.886719 110.035156 293.15625 113.070312 293.402344 C 115.253906 293.523438 117.316406 293.644531 119.742188 294.855469 C 116.828125 296.191406 114.160156 297.164062 111.371094 297.40625 C 103.363281 298.132812 95.476562 299.347656 87.59375 300.320312 C 86.257812 300.441406 85.773438 300.925781 85.652344 302.261719 C 84.4375 309.789062 83.347656 317.3125 82.496094 324.839844 C 81.527344 333.457031 81.164062 342.074219 80.558594 350.8125 C 80.558594 352.636719 80.558594 352.511719 82.253906 352.390625 C 87.957031 351.785156 93.78125 350.933594 99.480469 350.449219 C 108.09375 349.722656 116.585938 349.113281 125.199219 348.386719 C 126.777344 348.386719 128.839844 348.871094 129.808594 347.65625 C 130.78125 346.566406 130.296875 344.625 130.417969 343.046875 C 131.144531 334.183594 131.992188 325.324219 133.207031 316.585938 C 133.933594 311.121094 134.542969 305.539062 135.996094 300.199219 C 136.605469 298.011719 135.996094 296.679688 134.421875 295.222656 C 130.539062 291.578125 126.292969 288.789062 121.316406 287.210938 C 120.347656 286.847656 119.621094 286.359375 118.890625 285.511719 C 118.527344 285.023438 118.648438 284.660156 119.253906 284.539062 C 119.742188 284.539062 120.226562 284.539062 120.589844 284.539062 C 123.746094 284.296875 126.898438 283.691406 129.6875 281.871094 C 131.75 280.414062 133.449219 278.59375 135.148438 276.648438 C 139.515625 271.429688 143.03125 265.605469 145.824219 259.414062 C 146.429688 258.078125 147.644531 257.109375 148.128906 255.773438 C 148.492188 254.4375 148.25 252.859375 148.371094 251.402344 C 148.976562 245.332031 149.949219 239.144531 150.917969 233.074219 C 152.496094 222.515625 154.4375 211.953125 157.226562 201.515625 C 157.710938 199.695312 158.199219 197.875 158.5625 196.050781 C 157.589844 195.808594 156.984375 196.050781 156.378906 196.175781 C 147.644531 198.117188 138.910156 199.207031 130.050781 200.542969 C 129.445312 200.542969 128.71875 201.03125 128.476562 200.300781 C 128.234375 199.574219 129.082031 199.453125 129.566406 199.085938 C 129.6875 199.085938 129.808594 198.964844 129.929688 198.84375 C 140.121094 193.867188 150.070312 188.285156 160.988281 185.128906 C 161.714844 184.886719 162.199219 184.644531 162.441406 183.914062 C 163.535156 180.394531 164.625 176.875 165.476562 173.234375 C 164.625 172.988281 164.019531 173.355469 163.414062 173.597656 C 160.257812 174.8125 156.984375 176.023438 153.828125 177.238281 C 135.996094 184.519531 119.378906 193.746094 104.335938 205.761719 C 102.878906 206.976562 102.878906 206.976562 103.96875 208.433594 C 109.066406 215.230469 115.496094 220.570312 123.378906 223.96875 C 125.5625 224.941406 127.746094 225.183594 130.050781 225.304688 C 131.023438 225.304688 131.992188 225.304688 132.964844 225.304688 C 135.875 225.546875 138.664062 226.15625 141.699219 227.613281 Z M 74.492188 364.410156 C 73.277344 364.410156 72.429688 364.410156 71.578125 364.53125 C 63.089844 365.742188 54.597656 366.230469 46.105469 366.59375 C 43.191406 366.714844 40.28125 366.957031 37.492188 367.078125 C 36.398438 367.078125 35.792969 367.445312 35.792969 368.65625 C 35.792969 373.511719 35.429688 378.246094 35.429688 383.101562 C 35.429688 387.472656 35.429688 391.839844 35.671875 396.089844 C 35.914062 400.214844 35.914062 404.34375 36.15625 408.46875 C 36.519531 415.023438 37.003906 421.578125 37.25 428.011719 C 37.25 430.199219 37.613281 430.441406 39.796875 430.683594 C 47.4375 431.167969 55.082031 432.261719 62.601562 433.476562 C 84.074219 437.238281 105.667969 439.90625 127.261719 441.851562 C 131.386719 442.214844 130.660156 442.214844 130.296875 438.816406 C 129.445312 429.953125 129.082031 421.09375 128.71875 412.234375 C 128.355469 400.460938 128.597656 388.804688 128.71875 377.03125 C 128.71875 376.425781 128.71875 375.820312 128.71875 375.210938 C 129.082031 370.234375 128.839844 365.136719 129.324219 360.160156 C 129.445312 358.824219 129.082031 358.582031 127.746094 358.703125 C 124.835938 358.945312 121.804688 359.066406 118.890625 359.433594 C 109.792969 360.28125 100.574219 361.253906 91.476562 362.101562 C 88.078125 362.464844 84.679688 362.953125 81.285156 363.316406 C 80.191406 363.316406 79.707031 363.800781 79.707031 365.015625 C 79.707031 366.351562 79.707031 367.808594 79.585938 369.144531 C 79.101562 375.699219 78.859375 382.375 78.859375 389.050781 C 78.859375 390.871094 78.859375 392.691406 78.859375 394.511719 C 78.859375 401.429688 78.738281 408.347656 79.222656 415.269531 C 79.585938 419.757812 78.859375 424.25 79.34375 428.742188 C 79.34375 429.226562 79.222656 429.46875 78.738281 429.46875 C 78.496094 429.46875 78.128906 429.347656 78.007812 428.984375 C 77.765625 428.132812 77.644531 427.164062 77.523438 426.3125 C 76.796875 420.851562 76.554688 415.269531 76.070312 409.683594 C 75.460938 402.28125 75.097656 394.996094 74.855469 387.59375 C 74.613281 381.160156 74.734375 374.726562 74.613281 368.414062 C 74.613281 367.078125 74.613281 365.867188 74.613281 364.410156 Z M 132.722656 411.140625 C 132.964844 417.332031 132.480469 423.523438 132.964844 429.589844 C 133.207031 433.355469 133.207031 437.238281 133.449219 441 C 133.449219 442.09375 133.8125 442.578125 135.027344 442.578125 C 137.332031 442.578125 139.636719 442.820312 141.820312 443.0625 C 149.339844 443.792969 156.863281 444.15625 164.382812 444.640625 C 168.996094 444.886719 173.484375 445.007812 178.09375 445.371094 C 186.707031 445.976562 195.441406 446.097656 204.054688 446.585938 C 205.144531 446.585938 205.386719 446.097656 205.265625 445.25 C 205.265625 443.550781 205.023438 441.851562 205.023438 440.273438 C 205.023438 428.375 204.78125 416.480469 204.539062 404.585938 C 204.417969 393.296875 204.539062 382.007812 204.539062 370.71875 C 204.539062 369.871094 204.539062 369.019531 204.539062 368.171875 C 205.023438 364.167969 204.660156 360.28125 204.902344 356.277344 C 204.902344 354.699219 204.902344 354.578125 203.324219 354.578125 C 199.929688 354.578125 196.652344 354.699219 193.257812 354.820312 C 189.132812 354.941406 184.886719 355.183594 180.761719 355.304688 C 175.179688 355.546875 169.480469 355.914062 163.898438 356.15625 C 159.53125 356.398438 155.042969 356.640625 150.675781 356.882812 C 146.550781 357.125 142.425781 357.367188 138.421875 357.734375 C 133.570312 358.21875 134.664062 357.125 134.175781 362.101562 C 133.8125 365.988281 133.8125 369.871094 133.570312 373.753906 C 133.328125 381.160156 132.964844 388.683594 132.722656 396.089844 C 132.601562 401.066406 132.722656 406.042969 132.722656 410.898438 Z M 212.425781 344.988281 C 213.273438 345.351562 213.878906 345.230469 214.488281 345.230469 C 225.648438 345.230469 236.6875 345.230469 247.847656 345.230469 C 253.0625 345.230469 258.160156 345.351562 263.375 345.472656 C 272.59375 345.714844 281.9375 346.082031 291.15625 346.324219 C 295.160156 346.445312 299.164062 346.6875 303.289062 346.929688 C 304.015625 346.929688 304.621094 346.929688 305.351562 346.929688 C 306.078125 346.929688 306.441406 346.566406 306.441406 345.835938 C 306.441406 344.503906 306.199219 343.289062 306.199219 341.953125 C 306.199219 336.128906 305.59375 330.421875 305.105469 324.597656 C 304.621094 318.042969 303.894531 311.609375 303.289062 305.054688 C 302.800781 300.320312 302.4375 295.585938 301.953125 290.730469 C 301.953125 289.757812 301.710938 289.152344 300.496094 289.152344 C 297.585938 289.152344 294.554688 288.789062 291.640625 288.667969 C 287.636719 288.546875 283.636719 288.300781 279.511719 288.179688 C 271.625 287.9375 263.859375 287.453125 255.976562 287.332031 C 248.089844 287.210938 240.082031 287.210938 232.199219 287.089844 C 231.589844 287.089844 230.984375 287.089844 230.378906 286.96875 C 226.617188 286.847656 222.976562 286.480469 219.21875 285.996094 C 218.246094 285.875 217.640625 286.238281 217.640625 287.332031 C 217.519531 289.03125 217.277344 290.851562 217.035156 292.550781 C 216.425781 298.5 215.820312 304.445312 215.09375 310.394531 C 214.242188 318.042969 213.636719 325.6875 213.03125 333.335938 C 212.667969 337.097656 212.546875 340.859375 212.179688 344.746094 Z M 371.585938 453.625 C 369.765625 453.625 368.3125 453.746094 366.734375 453.867188 C 358.726562 454.230469 350.722656 454.59375 342.835938 454.839844 C 335.4375 455.082031 327.914062 455.082031 320.515625 455.324219 C 317.601562 455.324219 314.691406 455.566406 311.78125 455.445312 C 310.566406 455.445312 310.203125 455.808594 310.203125 457.023438 C 310.203125 462.96875 310.203125 468.917969 309.71875 474.867188 C 309.476562 479.355469 309.351562 483.847656 309.109375 488.339844 C 308.746094 494.164062 308.382812 499.992188 307.898438 505.816406 C 307.65625 509.460938 307.292969 513.101562 307.046875 516.742188 C 306.804688 519.414062 306.683594 522.203125 306.441406 524.875 C 306.441406 525.847656 306.683594 526.332031 307.65625 526.210938 C 308.019531 526.210938 308.382812 526.210938 308.746094 526.210938 C 313.71875 525.847656 318.574219 525.359375 323.546875 524.875 C 330.703125 524.148438 337.863281 523.539062 345.140625 522.691406 C 352.90625 521.839844 360.667969 520.75 368.433594 519.535156 C 369.523438 519.414062 370.132812 519.050781 370.253906 517.714844 C 370.738281 512.25 371.34375 506.789062 371.828125 501.449219 C 372.558594 493.679688 373.164062 486.03125 373.648438 478.265625 C 374.132812 471.226562 374.5 464.183594 374.742188 457.023438 C 374.742188 455.929688 375.710938 454.59375 374.742188 453.746094 C 373.890625 452.894531 372.558594 453.746094 371.707031 453.746094 Z M 250.636719 223 C 243.117188 222.757812 235.59375 223 228.074219 223.242188 C 226.980469 223.242188 226.496094 223.605469 226.375 224.820312 C 225.769531 229.917969 224.917969 235.015625 224.191406 240.113281 C 223.222656 247.398438 222.128906 254.679688 221.160156 261.960938 C 220.429688 267.0625 219.824219 272.039062 219.21875 277.136719 C 218.976562 279.078125 219.097656 279.078125 220.917969 278.835938 C 225.890625 278.105469 230.863281 277.5 235.957031 277.621094 C 242.753906 277.621094 249.667969 277.621094 256.460938 278.105469 C 261.796875 278.46875 267.257812 278.46875 272.59375 278.835938 C 281.574219 279.441406 290.671875 280.171875 299.648438 280.777344 C 300.984375 280.777344 301.105469 280.777344 300.984375 279.441406 C 300.984375 277.984375 300.738281 276.40625 300.617188 274.949219 C 300.253906 269.367188 299.890625 263.90625 299.648438 258.320312 C 299.285156 252.375 299.042969 246.425781 298.800781 240.601562 C 298.554688 235.746094 298.3125 230.890625 298.191406 226.035156 C 298.191406 225.0625 297.828125 224.578125 296.738281 224.457031 C 287.273438 224.089844 277.8125 223.484375 268.226562 223.121094 C 262.40625 222.878906 256.460938 223.121094 250.636719 223.121094 Z M 238.992188 535.679688 C 237.171875 535.679688 235.351562 535.679688 233.53125 535.679688 C 226.859375 535.433594 220.1875 535.679688 213.394531 535.433594 C 211.332031 535.433594 211.332031 535.433594 211.695312 537.378906 C 214.121094 549.757812 215.335938 562.140625 216.425781 574.640625 C 216.671875 577.3125 216.914062 579.984375 217.277344 582.53125 C 217.519531 584.351562 217.519531 584.351562 219.339844 584.472656 C 229.53125 585.324219 239.839844 585.929688 250.03125 586.292969 C 261.675781 586.660156 273.324219 586.660156 284.96875 586.292969 C 287.394531 586.292969 289.820312 586.050781 292.25 585.929688 C 294.554688 585.6875 294.554688 585.6875 294.675781 583.257812 C 294.917969 579.375 295.28125 575.371094 295.644531 571.484375 C 296.371094 564.203125 297.101562 556.917969 297.707031 549.757812 C 298.191406 545.023438 298.433594 540.167969 298.800781 535.433594 C 298.921875 533.613281 298.921875 533.492188 297.101562 533.613281 C 293.339844 533.859375 289.699219 533.980469 285.941406 534.34375 C 278.78125 534.949219 271.503906 535.191406 264.347656 535.433594 C 255.855469 535.800781 247.484375 535.679688 238.992188 535.800781 Z M 370.980469 575.492188 C 371.34375 575.734375 371.707031 575.492188 372.070312 575.492188 C 380.078125 573.671875 388.085938 571.972656 395.972656 569.542969 C 402.523438 567.480469 408.953125 565.175781 415.625 563.597656 C 416.59375 563.351562 416.957031 562.867188 417.199219 562.019531 C 418.050781 558.253906 419.019531 554.492188 419.992188 550.730469 C 420.71875 547.574219 421.324219 548.058594 417.929688 546.722656 C 411.863281 544.054688 405.433594 542.355469 398.761719 541.625 C 396.578125 541.382812 394.394531 540.535156 392.453125 539.441406 C 393.058594 538.46875 393.910156 538.347656 394.636719 538.105469 C 403.007812 535.070312 411.015625 531.1875 418.777344 526.816406 C 429.210938 520.871094 438.429688 513.464844 444.738281 502.90625 C 444.859375 502.664062 445.101562 502.417969 445.222656 502.175781 C 448.015625 498.898438 449.710938 495.015625 451.289062 491.011719 C 452.503906 487.734375 453.351562 484.578125 452.503906 480.933594 C 452.015625 478.628906 452.503906 476.203125 453.472656 473.410156 C 455.292969 476.203125 456.628906 478.628906 457.355469 481.421875 C 458.445312 485.667969 459.539062 489.917969 460.753906 494.289062 C 461.238281 495.988281 461.238281 495.988281 462.9375 495.742188 C 466.574219 495.136719 470.09375 494.53125 473.734375 494.042969 C 474.582031 493.921875 474.703125 493.316406 474.824219 492.585938 C 475.066406 488.097656 475.308594 483.605469 475.671875 479.113281 C 475.917969 475.957031 475.917969 472.925781 476.402344 469.769531 C 477.492188 462 478.828125 454.109375 479.554688 446.21875 C 479.675781 445.007812 479.917969 443.671875 479.796875 442.335938 C 479.433594 442.335938 479.191406 442.214844 479.070312 442.335938 C 467.789062 444.398438 456.507812 446.097656 445.222656 447.433594 C 443.648438 447.675781 443.527344 447.796875 443.402344 449.496094 C 442.554688 457.628906 441.464844 465.640625 440.128906 473.652344 C 438.550781 483.847656 436.730469 493.921875 433.578125 503.753906 C 433.457031 504.363281 432.972656 504.847656 433.457031 505.574219 C 436.246094 505.089844 439.035156 504.605469 441.949219 504.242188 C 442.3125 504.242188 442.796875 503.996094 442.917969 504.484375 C 443.039062 504.96875 442.917969 505.332031 442.433594 505.695312 C 441.828125 506.0625 441.21875 506.425781 440.613281 506.546875 C 438.792969 507.03125 436.976562 507.761719 435.15625 508.003906 C 432.730469 508.367188 431.515625 509.582031 431.03125 512.007812 C 430.667969 513.707031 430.179688 515.527344 429.210938 516.984375 C 428.605469 516.863281 428.605469 516.5 428.605469 516.015625 C 428.605469 514.800781 428.605469 513.585938 428.847656 512.371094 C 429.089844 510.1875 429.089844 509.703125 426.664062 510.429688 C 410.890625 515.285156 395.121094 519.777344 379.109375 523.175781 C 377.167969 523.539062 377.167969 523.660156 377.046875 525.480469 C 376.5625 530.582031 376.074219 535.679688 375.46875 540.65625 C 374.132812 551.699219 373.164062 562.867188 371.464844 573.914062 C 371.464844 574.519531 371.222656 575.128906 371.464844 575.734375 Z M 40.039062 312.335938 C 38.945312 312.335938 38.21875 312.820312 37.492188 313.066406 C 33.125 314.519531 29 316.828125 24.269531 317.554688 C 22.691406 317.796875 21.960938 318.40625 21.476562 319.984375 C 18.566406 329.328125 15.777344 338.796875 13.714844 348.386719 C 11.164062 360.28125 9.589844 372.175781 8.617188 384.195312 C 8.253906 388.320312 8.253906 392.449219 7.890625 396.453125 C 7.40625 403.007812 7.890625 409.5625 8.253906 416.117188 C 8.617188 423.277344 9.589844 430.320312 10.800781 437.359375 C 12.378906 447.070312 13.957031 456.78125 16.382812 466.246094 C 21.597656 486.519531 29.121094 505.820312 39.796875 523.78125 C 43.070312 529.367188 46.46875 534.949219 50.59375 539.925781 C 52.046875 541.625 53.625 543.324219 55.203125 545.023438 C 53.867188 540.65625 52.414062 536.527344 51.199219 532.28125 C 45.496094 513.34375 40.765625 494.289062 37.003906 474.867188 C 34.578125 462.121094 32.757812 449.375 31.789062 436.507812 C 31.789062 435.296875 31.304688 434.808594 30.210938 434.445312 C 25.84375 433.230469 21.597656 431.777344 17.351562 430.441406 C 16.625 430.199219 15.898438 430.199219 15.410156 429.226562 C 16.625 428.621094 17.71875 428.984375 18.808594 428.984375 C 21.960938 429.226562 25.117188 429.589844 28.390625 429.832031 C 29.363281 429.832031 30.453125 430.441406 31.183594 429.710938 C 31.789062 429.105469 31.183594 428.132812 31.183594 427.285156 C 30.941406 421.09375 30.453125 414.78125 30.332031 408.589844 C 30.210938 398.273438 30.089844 387.835938 30.699219 377.519531 C 30.820312 374.726562 31.0625 372.054688 31.183594 369.265625 C 31.183594 368.292969 31.304688 367.320312 29.847656 367.566406 C 29.484375 367.566406 29 367.566406 28.878906 367.078125 C 28.878906 366.472656 29.242188 366.230469 29.605469 366.109375 C 31.304688 365.746094 31.667969 364.53125 31.546875 363.074219 C 31.546875 362.46875 31.789062 361.859375 31.789062 361.253906 C 33.003906 347.78125 35.550781 334.671875 38.097656 321.441406 C 38.703125 318.527344 39.1875 315.492188 39.796875 312.335938 Z M 458.445312 255.042969 C 458.203125 255.773438 458.445312 256.015625 458.445312 256.378906 C 462.207031 268.273438 465.484375 280.171875 468.878906 292.066406 C 470.214844 296.800781 471.550781 301.65625 472.882812 306.386719 C 473.125 307.238281 473.246094 308.085938 474.460938 308.453125 C 478.34375 309.421875 482.101562 311.121094 486.226562 311.121094 C 486.46875 311.121094 486.835938 311.121094 486.957031 311.609375 C 486.835938 311.851562 486.347656 311.972656 485.984375 311.972656 C 481.980469 312.457031 478.222656 311 474.339844 310.394531 C 473.976562 311.242188 474.339844 311.972656 474.582031 312.699219 C 479.3125 331.148438 483.679688 349.601562 486.105469 368.535156 C 486.105469 369.265625 486.226562 369.75 487.199219 369.871094 C 487.925781 369.871094 487.925781 370.597656 487.441406 370.84375 C 486.226562 371.570312 486.589844 372.542969 486.714844 373.632812 C 487.320312 379.21875 487.804688 384.800781 488.167969 390.382812 C 488.53125 395.359375 488.652344 400.460938 488.777344 405.4375 C 489.019531 414.175781 488.777344 422.914062 487.925781 431.652344 C 487.804688 433.597656 487.683594 435.539062 487.683594 437.359375 C 488.410156 437.601562 488.898438 437.359375 489.382812 437.359375 C 489.867188 437.359375 490.472656 437.117188 490.714844 437.722656 C 491.082031 438.453125 490.835938 439.058594 490.351562 439.542969 C 489.988281 439.90625 489.382812 440.152344 488.898438 440.152344 C 487.441406 440.152344 487.078125 441.121094 486.957031 442.457031 C 486.714844 446.21875 486.105469 449.984375 485.621094 453.746094 C 484.164062 465.882812 481.253906 477.535156 477.007812 488.945312 C 476.523438 490.402344 476.039062 491.738281 475.550781 493.316406 C 476.765625 493.316406 477.855469 493.316406 478.949219 493.316406 C 481.617188 493.074219 484.285156 492.710938 486.835938 492.464844 C 487.5625 492.464844 488.289062 492.464844 488.53125 493.316406 C 488.773438 494.164062 488.289062 494.773438 487.5625 495.136719 C 486.714844 495.5 485.863281 495.742188 485.015625 495.988281 C 478.34375 497.6875 471.425781 498.777344 464.753906 500.597656 C 462.9375 501.085938 462.9375 500.964844 463.664062 502.664062 C 467.058594 510.550781 473.246094 516.257812 479.433594 522.203125 C 481.011719 518.804688 482.710938 515.648438 484.164062 512.371094 C 489.019531 501.691406 492.777344 490.765625 495.8125 479.480469 C 499.9375 464.183594 502.96875 448.648438 504.0625 432.867188 C 504.546875 426.675781 504.910156 420.609375 505.03125 414.417969 C 505.152344 402.28125 505.394531 390.019531 504.667969 377.882812 C 504.304688 371.570312 503.816406 365.136719 503.332031 358.824219 C 502.96875 354.820312 502.484375 350.8125 501.632812 346.929688 C 500.058594 339.648438 497.511719 332.605469 495.203125 325.566406 C 488.046875 302.988281 477.128906 282.113281 463.785156 262.691406 C 462.085938 260.140625 460.386719 257.714844 458.203125 255.285156 Z M 308.140625 290.125 C 308.503906 294.128906 308.867188 297.890625 308.988281 301.777344 C 309.351562 308.9375 309.960938 316.21875 310.324219 323.382812 C 310.566406 329.328125 311.050781 335.398438 310.808594 341.347656 C 310.808594 342.925781 310.808594 344.503906 310.808594 346.203125 C 310.808594 347.171875 311.050781 347.535156 312.144531 347.65625 C 315.660156 347.78125 319.179688 348.023438 322.578125 348.386719 C 330.582031 348.992188 338.589844 349.722656 346.597656 350.449219 C 355.695312 351.300781 364.792969 352.148438 373.769531 353 C 375.347656 353.121094 375.347656 353.121094 375.347656 351.421875 C 375.347656 348.023438 375.105469 344.746094 374.984375 341.347656 C 374.621094 334.914062 374.132812 328.480469 373.527344 322.046875 C 372.800781 313.792969 371.828125 305.539062 370.738281 297.40625 C 370.496094 295.464844 370.738281 295.464844 368.554688 295.222656 C 362.609375 294.613281 356.664062 294.128906 350.601562 293.523438 C 341.257812 292.671875 332.039062 291.824219 322.699219 291.09375 C 317.84375 290.730469 312.992188 290.246094 307.898438 290.125 Z M 300.132812 585.203125 C 301.226562 585.6875 302.195312 585.445312 303.167969 585.445312 C 308.503906 584.960938 313.964844 584.59375 319.300781 583.988281 C 333.253906 582.53125 347.203125 580.46875 361.03125 577.796875 C 364.550781 577.070312 364.550781 577.070312 364.914062 573.671875 C 366.007812 563.839844 366.855469 554.007812 367.703125 544.175781 C 368.3125 538.226562 368.796875 532.28125 369.402344 526.210938 C 369.402344 525.117188 369.402344 524.875 368.191406 524.996094 C 367.949219 524.996094 367.703125 524.996094 367.460938 524.996094 C 350.964844 528.03125 334.34375 529.972656 317.722656 531.671875 C 314.207031 532.035156 310.566406 532.402344 307.046875 532.644531 C 306.078125 532.644531 305.59375 533.007812 305.472656 534.101562 C 304.863281 540.535156 304.257812 546.964844 303.652344 553.398438 C 303.167969 558.253906 302.558594 563.230469 301.953125 568.085938 C 301.347656 573.792969 300.738281 579.375 300.011719 585.082031 Z M 305.472656 225.183594 C 305.835938 229.191406 305.714844 232.832031 305.835938 236.472656 C 306.199219 245.332031 306.441406 254.074219 306.804688 262.933594 C 307.046875 267.546875 307.167969 272.039062 307.414062 276.648438 C 307.414062 277.984375 307.414062 279.199219 307.65625 280.535156 C 307.777344 281.382812 308.019531 281.625 308.867188 281.746094 C 311.050781 281.871094 313.234375 282.234375 315.417969 282.476562 C 327.1875 283.691406 338.832031 285.148438 350.476562 286.601562 C 356.300781 287.332031 362.125 288.058594 367.949219 288.667969 C 369.644531 288.910156 369.765625 288.910156 369.523438 287.089844 C 369.28125 285.148438 368.917969 283.324219 368.675781 281.503906 C 366.371094 265.96875 363.335938 250.675781 360.0625 235.378906 C 359.335938 231.738281 359.941406 232.589844 356.300781 231.980469 C 343.441406 229.917969 330.582031 227.976562 317.722656 226.519531 C 313.71875 226.035156 309.71875 225.667969 305.351562 225.304688 Z M 439.644531 355.425781 C 439.523438 353.605469 439.28125 351.785156 439.28125 349.964844 C 439.035156 343.894531 438.429688 337.828125 437.945312 331.757812 C 437.097656 322.652344 435.882812 313.671875 434.546875 304.566406 C 434.183594 302.503906 434.183594 302.382812 432 302.140625 C 415.257812 299.710938 398.519531 297.769531 381.777344 296.191406 C 380.683594 296.191406 379.472656 296.070312 378.378906 295.949219 C 377.652344 295.949219 377.410156 296.3125 377.53125 296.921875 C 377.53125 297.285156 377.652344 297.648438 377.773438 298.011719 C 379.59375 309.910156 380.929688 321.804688 381.898438 333.820312 C 382.382812 339.769531 382.503906 345.835938 382.867188 351.785156 C 382.867188 353.484375 382.992188 353.605469 384.6875 353.726562 C 389.054688 354.089844 393.421875 354.457031 397.910156 354.941406 C 407.496094 355.789062 417.078125 356.882812 426.664062 358.21875 C 430.546875 358.703125 434.546875 359.3125 438.429688 359.917969 C 439.402344 360.039062 439.886719 359.917969 439.765625 358.824219 C 439.765625 357.734375 439.765625 356.519531 439.765625 355.425781 Z M 435.882812 448.648438 C 435.398438 448.648438 435.035156 448.648438 434.792969 448.648438 C 430.058594 449.132812 425.207031 449.617188 420.476562 450.105469 C 408.222656 451.4375 395.972656 452.289062 383.597656 453.015625 C 381.898438 453.015625 381.898438 453.015625 381.777344 454.839844 C 381.777344 458.722656 381.777344 462.605469 381.535156 466.492188 C 381.171875 473.773438 380.683594 481.054688 380.078125 488.339844 C 379.351562 497.6875 378.5 506.910156 377.289062 516.257812 C 377.167969 517.714844 377.289062 517.957031 378.988281 517.714844 C 381.65625 517.226562 384.203125 516.742188 386.871094 516.136719 C 400.09375 513.585938 413.199219 510.308594 426.300781 507.152344 C 428.363281 506.667969 428.238281 506.667969 428.726562 504.363281 C 428.96875 503.269531 428.847656 502.296875 428.96875 501.207031 C 429.210938 498.050781 429.210938 495.015625 429.695312 491.859375 C 431.636719 478.871094 434.0625 466.003906 435.519531 452.894531 C 435.640625 451.5625 436.003906 450.226562 435.761719 448.648438 Z M 433.09375 298.5 C 433.335938 297.40625 433.09375 296.554688 432.972656 295.707031 C 431.515625 287.816406 429.9375 279.925781 428.117188 272.039062 C 425.933594 263.054688 423.75 254.195312 421.566406 245.210938 C 421.324219 244 420.71875 243.269531 419.382812 243.027344 C 415.382812 242.300781 411.378906 241.207031 407.375 240.476562 C 396.09375 238.292969 384.808594 236.472656 373.40625 234.53125 C 370.496094 234.046875 367.582031 233.558594 364.550781 233.074219 C 364.429688 234.410156 364.914062 235.5 365.15625 236.59375 C 369.039062 252.496094 372.4375 268.515625 375.347656 284.539062 C 375.589844 286.117188 375.347656 287.9375 376.316406 289.152344 C 377.167969 290.367188 379.230469 290.003906 380.808594 290.125 C 395.484375 291.945312 410.042969 294.25 424.480469 296.921875 C 427.269531 297.40625 430.179688 297.890625 432.972656 298.5 Z M 504.304688 537.132812 C 504.183594 537.132812 504.0625 537.011719 503.816406 537.011719 C 495.570312 536.648438 488.046875 534.101562 481.132812 529.488281 C 477.734375 527.179688 474.824219 524.511719 471.792969 521.839844 C 467.058594 517.472656 462.9375 512.617188 460.144531 506.789062 C 458.324219 503.027344 456.992188 499.265625 455.898438 495.257812 C 455.414062 493.558594 455.171875 491.859375 454.324219 490.160156 C 454.199219 490.523438 453.957031 490.644531 453.957031 490.886719 C 452.988281 495.742188 450.804688 500.113281 448.742188 504.484375 C 445.953125 510.308594 442.3125 515.527344 437.460938 519.777344 C 428.484375 527.546875 418.050781 532.765625 406.769531 536.527344 C 406.160156 536.769531 405.433594 536.769531 405.070312 537.378906 C 405.3125 537.378906 405.433594 537.5 405.554688 537.5 C 414.652344 539.441406 422.902344 542.839844 430.300781 548.664062 C 440.007812 556.3125 446.679688 566.144531 451.894531 577.191406 C 453.109375 579.859375 453.957031 582.652344 454.808594 585.566406 C 455.050781 585.324219 455.171875 585.203125 455.171875 585.082031 C 455.414062 584.351562 455.777344 583.625 456.019531 582.894531 C 460.144531 570.878906 466.453125 560.320312 476.28125 551.941406 C 484.042969 545.265625 492.535156 539.925781 502.726562 537.863281 C 503.332031 537.863281 503.941406 537.863281 504.304688 537.136719 Z M 254.398438 627.929688 C 256.824219 627.929688 259.25 627.929688 261.675781 627.929688 C 270.777344 627.929688 279.753906 627.078125 288.730469 626.351562 C 290.066406 626.351562 290.550781 625.742188 290.792969 624.53125 C 291.640625 619.917969 292.371094 615.183594 292.734375 610.570312 C 292.976562 607.535156 293.339844 604.5 293.460938 601.46875 C 293.582031 598.554688 293.582031 595.519531 293.945312 592.605469 C 294.066406 591.515625 293.703125 591.148438 292.492188 591.148438 C 289.699219 591.390625 286.910156 591.515625 284.121094 591.636719 C 275.871094 591.878906 267.5 592.242188 259.25 592.121094 C 254.15625 592.121094 249.0625 592.121094 243.964844 592.121094 C 235.835938 591.757812 227.710938 591.515625 219.582031 590.785156 C 217.882812 590.664062 217.640625 591.027344 217.761719 592.484375 C 218.367188 598.796875 218.855469 605.230469 219.339844 611.542969 C 219.703125 615.789062 220.066406 620.039062 220.429688 624.285156 C 220.671875 626.714844 220.792969 626.714844 223.222656 626.835938 C 233.53125 627.6875 243.84375 628.050781 254.277344 627.929688 Z M 211.9375 583.503906 C 212.425781 582.894531 212.183594 582.53125 212.183594 582.046875 C 211.574219 576.339844 210.847656 570.636719 210.242188 564.808594 C 209.511719 558.984375 209.027344 553.15625 208.785156 547.332031 C 208.664062 543.8125 208.785156 540.289062 208.664062 536.769531 C 208.664062 534.949219 208.664062 534.949219 206.964844 534.949219 C 198.109375 534.828125 189.375 534.222656 180.519531 533.613281 C 171.054688 532.886719 161.59375 532.035156 152.132812 530.945312 C 150.917969 530.824219 149.707031 530.335938 148.613281 530.945312 C 148.613281 531.066406 148.613281 531.1875 148.613281 531.1875 C 150.917969 545.023438 153.585938 558.742188 156.257812 572.457031 C 156.5 573.550781 157.105469 574.15625 158.199219 574.277344 C 160.625 574.761719 163.050781 575.371094 165.597656 575.855469 C 179.0625 578.769531 192.527344 581.195312 206.238281 582.894531 C 208.300781 583.136719 210.242188 583.625 212.183594 583.382812 Z M 481.617188 411.625 C 481.132812 404.949219 481.253906 398.394531 480.769531 391.839844 C 480.40625 385.527344 479.796875 379.097656 479.191406 372.785156 C 478.949219 370.71875 478.949219 370.71875 477.128906 370.355469 C 471.425781 369.265625 465.605469 368.171875 459.902344 367.199219 C 456.019531 366.472656 452.140625 365.988281 448.136719 365.378906 C 447.042969 365.136719 446.558594 365.378906 446.679688 366.59375 C 446.679688 367.199219 446.679688 367.808594 446.679688 368.414062 C 446.921875 376.546875 446.800781 384.558594 446.800781 392.691406 C 446.800781 395.96875 446.800781 399.246094 446.679688 402.523438 C 446.316406 409.5625 445.953125 416.601562 445.464844 423.644531 C 445.222656 427.285156 444.859375 430.925781 444.617188 434.566406 C 444.375 436.996094 444.253906 439.421875 444.011719 441.851562 C 444.011719 442.699219 444.132812 443.183594 445.101562 443.0625 C 445.34375 443.0625 445.710938 443.0625 445.953125 443.0625 C 456.75 441.972656 467.546875 440.515625 478.34375 439.058594 C 480.039062 438.816406 480.285156 438.816406 480.285156 436.875 C 480.285156 436.144531 480.527344 435.539062 480.527344 434.808594 C 480.890625 427.042969 481.253906 419.273438 481.617188 411.625 Z M 419.871094 239.75 C 419.871094 239.144531 419.871094 238.777344 419.871094 238.535156 C 417.078125 228.460938 414.046875 218.386719 410.648438 208.433594 C 410.164062 207.097656 409.4375 206.007812 408.34375 205.15625 C 397.183594 196.539062 385.417969 188.769531 372.921875 182.09375 C 364.429688 177.601562 355.816406 173.355469 346.960938 169.589844 C 346.109375 169.226562 345.140625 168.621094 343.804688 168.621094 C 345.988281 173.234375 347.808594 177.601562 349.386719 182.09375 C 349.871094 183.550781 350.722656 184.035156 352.054688 184.398438 C 363.945312 187.3125 375.46875 191.441406 386.871094 195.929688 C 387.113281 195.929688 387.238281 196.050781 387.480469 196.175781 C 387.84375 196.417969 388.207031 196.78125 388.085938 197.265625 C 387.964844 197.753906 387.480469 197.628906 387.113281 197.628906 C 385.902344 197.386719 384.6875 197.144531 383.597656 196.902344 C 376.316406 195.082031 369.160156 193.261719 361.882812 191.441406 C 358.726562 190.710938 355.574219 189.863281 352.417969 189.5 C 352.417969 189.863281 352.417969 189.984375 352.417969 190.105469 C 356.179688 201.757812 359.578125 213.410156 362.488281 225.183594 C 362.730469 226.15625 363.335938 226.519531 364.1875 226.640625 C 366.855469 227.125 369.402344 227.734375 371.949219 228.21875 C 384.324219 230.769531 396.820312 233.316406 409.195312 236.472656 C 412.710938 237.324219 416.230469 238.414062 419.992188 239.386719 Z M 297.828125 211.589844 C 297.585938 206.25 297.34375 200.785156 296.980469 195.445312 C 296.738281 191.683594 296.25 188.042969 296.007812 184.277344 C 296.007812 183.308594 295.644531 182.578125 294.433594 182.457031 C 290.066406 182.214844 285.574219 181.851562 281.207031 181.730469 C 275.023438 181.609375 268.835938 181.488281 262.648438 181.488281 C 253.308594 181.488281 244.085938 181.488281 234.746094 182.09375 C 233.410156 182.09375 232.925781 182.578125 232.804688 183.914062 C 232.441406 186.949219 231.835938 189.863281 231.347656 192.898438 C 230.257812 199.453125 229.285156 206.007812 228.195312 212.4375 C 227.953125 213.652344 228.195312 214.015625 229.40625 213.894531 C 230.984375 213.894531 232.441406 213.652344 234.019531 213.652344 C 244.9375 213.53125 255.976562 213.773438 266.894531 214.136719 C 270.167969 214.136719 273.445312 214.382812 276.71875 214.625 C 283.390625 215.109375 290.066406 215.59375 296.738281 216.203125 C 297.585938 216.203125 298.070312 215.960938 298.070312 215.109375 C 298.070312 213.894531 298.070312 212.683594 298.070312 211.46875 Z M 363.703125 580.953125 C 362.609375 581.195312 361.761719 581.316406 360.910156 581.4375 C 348.050781 584.109375 335.070312 586.414062 322.089844 588.113281 C 315.054688 588.964844 308.019531 589.8125 300.984375 590.300781 C 299.890625 590.300781 299.527344 590.664062 299.40625 591.757812 C 299.285156 594.0625 298.921875 596.492188 298.679688 598.796875 C 298.191406 603.773438 297.707031 608.75 296.859375 613.726562 C 296.25 617.609375 295.402344 621.496094 294.433594 625.257812 C 295.28125 625.742188 296.007812 625.378906 296.738281 625.257812 C 306.683594 624.042969 316.632812 622.707031 326.578125 621.007812 C 335.4375 619.429688 344.171875 617.730469 353.027344 615.910156 C 353.996094 615.667969 354.722656 615.546875 354.96875 614.453125 C 357.394531 606.320312 360.183594 598.433594 362.003906 590.179688 C 362.609375 587.265625 363.335938 584.230469 363.582031 580.832031 Z M 150.796875 572.578125 C 151.039062 571.972656 150.796875 571.605469 150.796875 571.242188 C 149.949219 567.480469 149.097656 563.839844 148.25 560.074219 C 146.066406 550.488281 144.003906 540.898438 142.304688 531.308594 C 142.0625 530.214844 141.699219 529.609375 140.363281 529.488281 C 138.421875 529.367188 136.605469 528.878906 134.785156 528.636719 C 121.195312 526.574219 107.609375 524.269531 94.265625 520.871094 C 93.78125 520.75 93.171875 520.261719 92.566406 520.625 C 92.203125 521.355469 92.566406 522.082031 92.566406 522.691406 C 94.507812 534.222656 96.691406 545.753906 98.875 557.164062 C 99.117188 558.375 99.722656 558.984375 101.058594 559.347656 C 111.976562 561.898438 122.894531 564.808594 133.691406 567.964844 C 139.273438 569.664062 144.972656 571.121094 150.796875 572.457031 Z M 413.683594 209.890625 C 413.441406 210.375 413.683594 210.738281 413.683594 211.105469 C 417.6875 220.691406 421.203125 230.402344 424.359375 240.234375 C 424.601562 241.085938 425.085938 241.691406 426.054688 241.933594 C 428.363281 242.664062 430.667969 243.511719 432.851562 244.605469 C 434.667969 245.453125 436.488281 246.304688 438.1875 247.15625 C 438.792969 247.519531 439.886719 247.761719 439.523438 248.730469 C 439.160156 249.824219 438.1875 248.976562 437.582031 248.730469 C 436.976562 248.609375 436.246094 248.246094 435.640625 248.003906 C 432.972656 247.03125 430.300781 246.183594 427.632812 245.332031 C 427.148438 245.210938 426.664062 244.847656 426.179688 245.332031 C 426.179688 245.820312 426.179688 246.304688 426.421875 246.910156 C 431.636719 263.785156 436.003906 280.898438 439.28125 298.257812 C 439.523438 299.710938 440.128906 300.199219 441.585938 300.5625 C 449.46875 302.140625 457.234375 303.839844 464.875 305.902344 C 465.484375 306.023438 465.96875 306.386719 466.695312 305.902344 C 466.574219 305.175781 466.453125 304.445312 466.332031 303.71875 C 465.121094 298.5 463.90625 293.15625 462.691406 287.9375 C 460.023438 275.800781 457.476562 263.664062 454.566406 251.644531 C 454.324219 250.429688 453.957031 249.339844 453.109375 248.367188 C 448.257812 242.542969 443.160156 236.835938 437.824219 231.496094 C 431.394531 225.183594 424.722656 218.992188 417.6875 213.289062 C 416.351562 212.195312 415.136719 210.984375 413.683594 210.132812 Z M 79.34375 301.289062 C 75.21875 302.019531 71.457031 302.019531 67.699219 302.988281 C 60.054688 305.054688 52.414062 307.601562 44.890625 310.273438 C 43.800781 310.636719 43.3125 311.121094 43.070312 312.214844 C 41.25 321.320312 39.554688 330.421875 38.339844 339.648438 C 37.734375 344.503906 37.125 349.480469 36.761719 354.335938 C 36.519531 357.367188 36.035156 360.402344 36.277344 363.4375 C 37.734375 363.4375 38.824219 362.710938 40.039062 362.34375 C 50.957031 358.582031 61.875 354.820312 73.519531 353.484375 C 74.855469 353.363281 74.976562 352.636719 74.976562 351.421875 C 74.976562 344.136719 75.339844 336.976562 75.824219 329.816406 C 76.3125 323.019531 77.039062 316.339844 78.128906 309.664062 C 78.617188 306.996094 78.980469 304.324219 79.34375 301.289062 Z M 56.050781 229.191406 C 56.050781 229.433594 56.050781 229.554688 56.171875 229.554688 C 57.144531 229.796875 58.234375 230.160156 59.207031 230.402344 C 69.273438 232.832031 76.675781 238.535156 81.042969 248.125 C 83.589844 253.707031 85.652344 259.414062 87.351562 265.238281 C 87.59375 265.96875 87.59375 266.816406 88.199219 267.425781 C 88.441406 267.0625 88.5625 266.941406 88.683594 266.816406 C 92.929688 259.414062 97.90625 252.496094 103.605469 246.183594 C 109.671875 239.628906 116.585938 234.410156 124.835938 231.253906 C 125.199219 231.132812 125.929688 231.253906 125.929688 230.402344 C 125.5625 229.796875 124.957031 229.796875 124.351562 229.675781 C 122.652344 229.433594 120.953125 228.703125 119.378906 228.097656 C 113.796875 225.914062 109.308594 222.269531 104.941406 218.265625 C 103.484375 216.929688 102.273438 215.59375 101.058594 214.015625 C 96.570312 207.707031 92.929688 200.90625 91.355469 193.261719 C 90.988281 191.804688 90.625 190.347656 90.261719 188.769531 C 90.261719 188.285156 90.261719 187.675781 89.535156 187.554688 C 89.414062 187.796875 89.292969 188.164062 89.171875 188.40625 C 86.378906 196.417969 82.375 203.820312 77.523438 210.859375 C 73.519531 216.566406 69.03125 221.785156 63.085938 225.667969 C 60.78125 227.246094 58.234375 228.339844 55.6875 229.433594 Z M 215.214844 626.109375 C 217.640625 626.109375 217.640625 626.109375 217.398438 624.285156 C 216.550781 617.855469 215.699219 611.300781 214.972656 604.867188 C 214.488281 600.617188 214 596.246094 213.394531 592 C 213.152344 590.179688 213.03125 590.179688 211.332031 590.058594 C 207.8125 589.691406 204.175781 589.328125 200.65625 588.964844 C 187.191406 587.265625 173.726562 584.960938 160.382812 581.925781 C 159.894531 581.925781 159.53125 581.804688 159.046875 581.683594 C 158.441406 581.683594 158.199219 581.925781 158.199219 582.53125 C 158.199219 582.894531 158.199219 583.261719 158.320312 583.625 C 160.746094 594.425781 163.050781 605.109375 166.082031 615.789062 C 166.566406 617.609375 167.417969 618.460938 169.359375 618.945312 C 178.09375 620.886719 186.828125 622.464844 195.5625 623.800781 C 202.234375 624.773438 208.785156 625.621094 215.09375 626.230469 Z M 162.6875 616.882812 C 162.929688 616.277344 162.6875 615.910156 162.441406 615.425781 C 159.046875 604.867188 156.257812 594.0625 153.585938 583.382812 C 152.738281 579.738281 153.585938 580.46875 149.707031 579.617188 C 134.90625 575.976562 120.226562 571.851562 105.910156 566.265625 C 104.214844 565.539062 102.394531 564.929688 100.695312 564.203125 C 100.210938 564.808594 100.453125 565.296875 100.695312 565.660156 C 102.878906 576.21875 105.546875 586.535156 108.703125 596.734375 C 108.945312 597.582031 109.429688 598.191406 110.15625 598.675781 C 113.191406 600.859375 116.222656 602.921875 119.378906 605.109375 C 119.984375 605.472656 120.589844 605.714844 121.195312 605.835938 C 128.71875 607.414062 136.238281 608.992188 143.519531 611.296875 C 149.339844 613.121094 155.164062 615.183594 161.230469 616.640625 C 161.714844 616.761719 162.199219 617.125 162.808594 616.761719 Z M 357.757812 225.667969 C 358.121094 225.0625 357.878906 224.820312 357.757812 224.457031 C 355.332031 213.289062 352.539062 202.121094 349.628906 190.953125 C 349.265625 189.5 348.539062 188.890625 347.082031 188.648438 C 332.886719 185.976562 318.453125 184.644531 304.136719 183.308594 C 303.167969 183.308594 302.921875 183.429688 303.046875 184.519531 C 304.136719 193.019531 304.742188 201.394531 304.984375 210.011719 C 304.984375 211.953125 305.109375 214.015625 305.109375 215.960938 C 305.109375 216.929688 305.351562 217.414062 306.441406 217.414062 C 306.804688 217.414062 307.167969 217.414062 307.535156 217.539062 C 320.878906 218.992188 334.222656 221.179688 347.445312 223.726562 C 350.84375 224.335938 354.238281 225.0625 357.757812 225.667969 Z M 440.492188 303.597656 C 440.492188 304.082031 440.492188 304.445312 440.492188 304.6875 C 441.097656 308.816406 441.828125 312.941406 442.433594 317.070312 C 443.648438 325.566406 444.617188 334.0625 445.34375 342.679688 C 445.832031 348.265625 446.074219 353.847656 446.4375 359.554688 C 446.4375 361.132812 446.195312 361.375 448.5 361.859375 C 454.445312 362.832031 460.265625 364.042969 466.210938 365.378906 C 470.214844 366.351562 474.339844 367.199219 478.34375 368.171875 C 478.707031 367.199219 478.34375 366.230469 478.34375 365.378906 C 477.855469 362.101562 477.492188 358.945312 476.886719 355.667969 C 474.460938 340.617188 471.183594 325.808594 468.03125 311 C 467.667969 309.300781 466.816406 308.695312 465.242188 308.332031 C 457.113281 306.632812 448.984375 305.175781 440.492188 303.839844 Z M 415.746094 566.75 C 415.015625 566.628906 414.652344 566.75 414.167969 566.996094 C 400.09375 571.605469 386.023438 575.855469 371.585938 579.132812 C 370.253906 579.496094 369.765625 580.226562 369.523438 581.4375 C 368.070312 590.058594 365.398438 598.433594 362.125 606.566406 C 361.03125 609.234375 360.0625 611.90625 359.089844 614.578125 C 359.578125 614.820312 359.941406 614.699219 360.304688 614.578125 C 373.285156 611.664062 386.144531 608.386719 398.882812 604.257812 C 400.703125 603.652344 403.007812 603.410156 404.339844 602.195312 C 405.675781 600.859375 406.039062 598.675781 406.769531 596.855469 C 410.042969 588.359375 412.347656 579.617188 414.652344 570.878906 C 415.015625 569.542969 415.503906 568.328125 415.625 566.75 Z M 69.640625 240.84375 C 67.820312 244 65.148438 246.425781 62.84375 249.097656 C 62.117188 249.824219 61.753906 250.675781 61.632812 251.644531 C 61.148438 254.316406 60.417969 256.863281 59.328125 259.292969 C 58.113281 262.085938 56.902344 264.875 55.808594 267.667969 C 51.320312 279.441406 48.289062 291.703125 45.011719 303.960938 C 45.011719 304.203125 45.011719 304.566406 45.253906 304.808594 C 50.59375 303.355469 55.929688 301.898438 61.390625 300.5625 C 67.210938 299.105469 73.035156 297.890625 78.980469 296.679688 C 80.191406 296.433594 80.679688 295.949219 80.921875 294.855469 C 81.285156 293.15625 81.648438 291.457031 82.011719 289.757812 C 82.742188 286.238281 82.863281 282.476562 84.558594 279.199219 C 84.804688 278.59375 84.558594 278.226562 84.558594 277.621094 C 82.863281 269.609375 80.558594 261.71875 77.765625 253.953125 C 76.433594 250.308594 74.855469 246.789062 72.550781 243.511719 C 71.824219 242.421875 71.09375 241.449219 69.882812 240.722656 Z M 288.972656 631.8125 C 288.003906 631.8125 287.273438 631.8125 286.546875 631.933594 C 276.113281 633.027344 265.679688 633.753906 255.125 633.875 C 244.207031 633.875 233.410156 633.511719 222.492188 632.660156 C 221.523438 632.660156 221.28125 632.785156 221.402344 633.753906 C 221.886719 638.003906 222.25 642.25 222.734375 646.378906 C 222.980469 648.441406 222.855469 648.441406 224.917969 648.804688 C 229.894531 649.777344 234.746094 650.625 239.839844 650.992188 C 243.964844 651.355469 248.210938 651.71875 252.335938 651.597656 C 257.796875 651.597656 263.253906 651.113281 268.714844 650.746094 C 273.566406 650.382812 278.417969 649.777344 283.269531 649.292969 C 284.363281 649.292969 284.847656 648.804688 284.96875 647.59375 C 285.332031 645.527344 285.820312 643.585938 286.304688 641.644531 C 287.152344 638.367188 288.003906 635.210938 288.972656 631.8125 Z M 263.496094 155.390625 C 258.039062 155.148438 251.851562 155.632812 245.664062 156.117188 C 243.117188 156.359375 240.570312 156.480469 237.898438 156.847656 C 236.445312 156.96875 236.324219 157.089844 236.324219 158.667969 C 236.324219 160.246094 236.324219 161.824219 236.082031 163.402344 C 235.59375 166.191406 235.109375 169.105469 234.625 171.898438 C 234.382812 173.355469 234.625 173.476562 235.957031 173.476562 C 237.050781 173.476562 238.265625 173.355469 239.355469 173.355469 C 245.179688 173.355469 251.125 173.355469 256.945312 173.355469 C 262.769531 173.355469 268.472656 173.597656 274.292969 173.839844 C 280.601562 174.203125 286.910156 174.691406 293.21875 175.296875 C 294.308594 175.296875 294.554688 175.054688 294.554688 174.082031 C 294.308594 172.019531 293.945312 170.078125 293.824219 168.011719 C 293.582031 165.101562 292.855469 162.308594 293.097656 159.394531 C 293.21875 157.453125 293.21875 157.453125 291.398438 157.210938 C 282.421875 155.996094 273.445312 155.511719 263.496094 155.632812 Z M 303.894531 152.960938 C 304.257812 152.234375 303.894531 151.992188 303.894531 151.628906 C 301.105469 147.5 298.070312 143.375 294.3125 140.097656 C 292.003906 138.152344 289.09375 137.667969 286.304688 137.0625 C 282.785156 136.210938 279.144531 136.210938 275.386719 136.089844 C 269.5625 135.847656 263.859375 135.726562 258.039062 136.210938 C 249.910156 136.820312 241.902344 138.03125 233.773438 138.882812 C 232.199219 139.125 230.742188 139.609375 229.40625 140.582031 C 225.164062 143.738281 221.523438 147.5 218.125 151.503906 C 217.640625 152.113281 216.792969 152.476562 216.792969 153.691406 C 245.90625 148.226562 275.023438 146.894531 304.015625 152.839844 Z M 353.269531 620.402344 C 352.417969 620.039062 351.933594 620.402344 351.449219 620.402344 C 343.441406 622.222656 335.4375 624.042969 327.429688 625.621094 C 316.511719 627.808594 305.472656 629.628906 294.3125 630.960938 C 293.339844 630.960938 292.613281 631.207031 292.25 632.417969 C 291.035156 636.546875 289.578125 640.550781 288.246094 644.558594 C 287.882812 645.769531 287.273438 647.105469 287.394531 648.5625 C 288.609375 648.5625 289.699219 648.441406 290.792969 648.320312 C 302.921875 646.742188 314.933594 644.316406 326.824219 641.644531 C 333.007812 640.1875 339.074219 638.488281 345.019531 636.304688 C 345.746094 636.0625 346.597656 635.9375 346.597656 634.726562 C 346.597656 634.238281 347.203125 633.753906 347.566406 633.269531 C 350.722656 629.507812 351.933594 625.015625 353.269531 620.402344 Z M 230.621094 157.816406 C 230.136719 157.816406 230.015625 157.695312 229.894531 157.695312 C 212.304688 160.125 195.078125 163.886719 177.972656 168.863281 C 176.03125 169.46875 173.605469 169.46875 172.269531 170.925781 C 170.933594 172.382812 170.570312 174.8125 170.085938 176.875 C 169.480469 178.9375 168.628906 180.878906 168.386719 183.1875 C 169.238281 182.945312 169.84375 182.820312 170.570312 182.699219 C 188.527344 177.96875 206.722656 175.054688 225.164062 174.082031 C 226.375 174.082031 226.859375 173.597656 227.101562 172.382812 C 228.074219 167.527344 228.921875 162.671875 230.621094 157.9375 Z M 347.082031 183.308594 C 347.082031 182.820312 347.203125 182.699219 347.082031 182.578125 C 345.746094 177.84375 344.050781 173.355469 342.351562 168.742188 C 341.988281 167.890625 341.378906 167.648438 340.652344 167.40625 C 333.980469 165.585938 327.671875 162.792969 320.636719 162.1875 C 315.296875 161.824219 310.203125 160.003906 304.984375 159.03125 C 302.921875 158.667969 300.863281 158.058594 298.554688 157.9375 C 298.921875 159.273438 299.40625 160.488281 299.648438 161.824219 C 300.375 165.949219 301.105469 170.078125 301.710938 174.203125 C 301.953125 175.539062 302.4375 176.144531 303.652344 176.023438 C 303.894531 176.023438 304.257812 176.023438 304.5 176.144531 C 315.417969 177.480469 326.335938 178.9375 337.132812 181.121094 C 340.289062 181.730469 343.5625 182.457031 346.839844 183.1875 Z M 413.5625 596.613281 C 414.53125 596.492188 415.015625 595.882812 415.503906 595.519531 C 422.296875 591.148438 428.363281 586.050781 434.425781 580.832031 C 437.703125 578.160156 440.734375 575.371094 443.648438 572.335938 C 445.101562 570.757812 445.101562 571.121094 444.011719 569.421875 C 439.886719 563.109375 434.792969 557.769531 428.96875 553.035156 C 427.148438 551.578125 425.328125 550.242188 423.144531 549.273438 C 422.417969 553.644531 421.8125 557.769531 421.082031 562.140625 C 423.023438 562.019531 424.601562 561.410156 426.179688 560.925781 C 426.785156 560.804688 427.390625 560.5625 427.996094 560.683594 C 428.605469 560.683594 428.726562 561.167969 428.363281 561.652344 C 428.117188 562.140625 427.511719 562.261719 427.027344 562.382812 C 425.449219 562.988281 423.871094 563.472656 422.296875 563.960938 C 421.082031 564.324219 420.476562 565.050781 420.234375 566.386719 C 418.414062 576.460938 416.472656 586.535156 413.5625 596.613281 Z M 145.339844 303.109375 C 147.765625 298.742188 150.3125 294.734375 153.707031 291.335938 C 157.105469 287.9375 161.109375 285.511719 165.476562 283.203125 C 160.382812 280.535156 158.5625 279.078125 156.136719 275.679688 C 154.195312 272.886719 152.859375 269.851562 151.769531 266.695312 C 151.160156 264.632812 150.433594 262.570312 149.707031 260.386719 C 149.339844 260.871094 149.21875 261.113281 149.097656 261.476562 C 146.792969 268.03125 143.03125 273.617188 138.542969 278.714844 C 135.753906 281.871094 132.601562 284.417969 128.476562 285.632812 C 127.746094 285.875 126.777344 285.875 126.050781 286.480469 C 134.542969 289.636719 141.335938 294.734375 145.339844 303.234375 Z M 220.917969 647.957031 C 220.1875 643.222656 219.582031 638.851562 218.855469 634.363281 C 218.488281 632.296875 218.488281 632.296875 216.550781 632.054688 C 202.597656 630.71875 188.648438 628.65625 174.9375 625.742188 C 173.117188 625.378906 171.300781 624.773438 169.238281 624.652344 C 169.601562 627.078125 170.691406 629.140625 171.179688 631.328125 C 171.542969 632.660156 172.269531 633.390625 173.605469 633.996094 C 184.886719 638.246094 196.410156 641.886719 208.179688 644.921875 C 212.304688 646.015625 216.425781 647.105469 220.917969 647.957031 Z M 24.390625 312.09375 C 26.574219 311.242188 28.515625 310.273438 30.574219 309.664062 C 33.730469 308.574219 36.882812 307.480469 40.160156 306.511719 C 41.128906 306.144531 41.617188 305.78125 41.859375 304.6875 C 42.707031 301.046875 43.554688 297.40625 44.527344 293.765625 C 47.4375 282.234375 50.351562 270.703125 54.839844 259.777344 C 54.839844 259.535156 55.082031 259.171875 54.839844 258.929688 C 53.867188 259.65625 53.261719 260.75 52.414062 261.71875 C 45.617188 269.972656 38.945312 278.46875 33.367188 287.695312 C 32.636719 288.910156 32.03125 290.125 31.667969 291.457031 C 30.332031 295.949219 29.121094 300.441406 27.421875 304.6875 C 26.453125 307.238281 25.480469 309.789062 24.511719 312.335938 Z M 401.429688 606.199219 C 400.582031 605.957031 400.21875 606.199219 399.851562 606.445312 C 387.238281 611.054688 374.257812 614.820312 361.277344 617.976562 C 358.484375 618.582031 356.90625 619.796875 355.9375 622.585938 C 354.480469 626.957031 352.417969 631.207031 348.902344 634.363281 C 348.902344 634.363281 348.902344 634.605469 348.902344 634.96875 C 367.703125 627.683594 385.296875 618.460938 401.550781 606.199219 Z M 167.660156 631.691406 C 167.78125 631.328125 167.902344 631.207031 167.902344 631.207031 C 167.296875 629.507812 166.566406 627.808594 166.203125 625.984375 C 165.71875 624.164062 164.75 623.316406 162.929688 622.832031 C 152.011719 620.039062 141.09375 616.761719 130.902344 611.664062 C 130.660156 611.542969 130.296875 611.421875 129.929688 611.785156 C 142.183594 619.066406 154.4375 626.230469 167.78125 631.570312 Z M 47.195312 199.085938 C 54.230469 198.359375 60.660156 195.6875 67.089844 192.898438 C 67.332031 192.898438 67.699219 192.652344 67.820312 192.410156 C 68.183594 191.925781 68.0625 191.5625 67.578125 191.441406 C 67.210938 191.441406 66.847656 191.441406 66.484375 191.441406 C 56.292969 191.199219 46.105469 191.683594 35.914062 192.167969 C 33.003906 192.289062 30.210938 192.167969 27.300781 191.441406 C 25.84375 191.074219 24.511719 191.074219 23.054688 191.441406 C 22.328125 191.683594 22.207031 192.167969 22.449219 192.898438 C 23.175781 194.476562 24.390625 195.6875 26.085938 196.175781 C 31.910156 197.996094 37.734375 199.574219 43.921875 199.453125 C 45.011719 199.453125 46.105469 199.453125 47.074219 199.328125 Z M 47.4375 139.125 C 48.167969 140.460938 49.136719 141.671875 49.742188 143.007812 C 52.414062 148.226562 55.566406 153.203125 58.964844 157.9375 C 63.210938 163.765625 68.910156 168.136719 74.855469 172.140625 C 74.976562 172.140625 75.097656 172.382812 75.21875 172.382812 C 75.460938 172.382812 75.703125 172.503906 75.824219 172.382812 C 76.070312 172.261719 76.191406 171.777344 76.070312 171.535156 C 75.703125 170.925781 75.21875 170.199219 74.855469 169.589844 C 70.488281 163.035156 66.242188 156.359375 61.027344 150.292969 C 57.507812 146.164062 53.867188 142.160156 50.835938 137.667969 C 50.351562 136.941406 49.5 136.695312 48.652344 136.695312 C 46.953125 136.695312 46.46875 137.425781 47.195312 139.003906 Z M 103 164.492188 C 104.578125 156.726562 105.910156 148.835938 106.640625 140.824219 C 107.125 135.242188 107.730469 129.65625 109.308594 124.195312 C 109.550781 123.34375 109.550781 122.375 109.550781 121.523438 C 109.550781 121.039062 109.550781 120.554688 108.945312 120.433594 C 108.457031 120.433594 108.09375 120.433594 107.730469 120.917969 C 107.125 121.644531 106.882812 122.496094 106.640625 123.34375 C 104.820312 129.898438 103.121094 136.574219 102.273438 143.375 C 101.300781 150.65625 101.421875 158.058594 102.152344 165.585938 C 103 165.34375 103 164.859375 103.121094 164.371094 Z M 103 164.492188 " fill-opacity="1" fill-rule="nonzero"/></g></g></g></g><g clip-path="url(#25fe843806)"><g mask="url(#97e474b3a3)"><g transform="matrix(1, 0, 0, 1, 0.000000000000000028, 38)"><g clip-path="url(#3ad917e9c7)"><g clip-path="url(#4002af257d)"><g clip-path="url(#fcd42f06de)"><g clip-path="url(#5b5ea1a3b0)"><path fill="#d9d9d9" d="M 503.164062 812.945312 C 492.246094 815.351562 481.210938 817.132812 470.054688 818.289062 C 442.847656 821.367188 415.480469 821.875 388.101562 819.789062 C 367.167969 818.257812 346.492188 816.351562 325.929688 811.660156 C 302.121094 806.128906 278.085938 801.125 255.054688 792.84375 C 228.867188 783.375 203.707031 771.601562 181.027344 754.960938 C 162.488281 741.273438 145.972656 725.410156 130.785156 707.992188 C 116.992188 691.933594 105.21875 674.515625 96.808594 655.152344 C 92.265625 644.96875 88.917969 634.230469 85.410156 623.523438 C 79.984375 607.007812 76.25 590.003906 73.644531 572.949219 C 71.8125 560.785156 70.949219 548.597656 70.242188 536.378906 C 69.328125 519.652344 69.410156 503.058594 70.621094 486.414062 C 72.078125 466.792969 75.382812 447.472656 79.183594 428.21875 C 87.300781 388.152344 99.011719 349.023438 113.847656 310.925781 C 121.695312 290.738281 129.605469 270.863281 138.359375 251.152344 C 149.535156 226.265625 162.925781 202.746094 179.027344 180.660156 C 193.097656 161.558594 209.152344 144.355469 227.011719 128.921875 C 250.171875 108.898438 275.890625 92.9375 303.496094 80.03125 C 316.039062 74.226562 329.105469 69.457031 342.507812 65.597656 C 352.523438 62.714844 362.753906 60.109375 373.003906 58.480469 C 389.121094 56.054688 405.445312 54.726562 421.695312 54.714844 C 441.484375 54.511719 461.101562 55.96875 480.804688 58.710938 C 509.355469 62.691406 537.09375 70.074219 563.480469 81.453125 C 586.46875 91.207031 608.347656 102.796875 628.695312 117.441406 C 645.089844 129.265625 659.589844 143.074219 672.789062 158.59375 C 684.722656 172.570312 695.332031 187.285156 703.921875 203.363281 C 711.5 217.519531 717.726562 232.257812 722.316406 247.796875 C 727.363281 264.875 731.4375 281.972656 734.320312 299.625 C 735.953125 309.878906 736.769531 320.125 737.429688 330.402344 C 738.113281 341.648438 738.609375 352.765625 738.949219 363.914062 C 739.496094 390.628906 737.070312 417.09375 730.671875 443.179688 C 728.5625 451.710938 725.949219 460.171875 723.308594 468.476562 C 720.058594 478.6875 718.179688 489.285156 716.300781 499.882812 C 713.058594 519.515625 712.132812 539.359375 713.175781 559.3125 C 713.539062 564.605469 714.085938 570.027344 715.070312 575.203125 C 715.550781 577.710938 716.65625 580.101562 717.578125 582.363281 C 721.214844 592.070312 724.542969 601.835938 727.085938 611.753906 C 730.480469 624.433594 732.121094 637.285156 731.035156 650.332031 C 729.027344 675.582031 721.246094 698.679688 705.597656 718.894531 C 693.214844 734.910156 678.164062 748.019531 661.039062 758.765625 C 644.222656 769.449219 626.175781 777.933594 607.457031 784.59375 C 594.078125 789.421875 580.507812 794.121094 566.820312 798.195312 C 559.445312 800.417969 551.851562 802.355469 544.226562 804.132812 C 531.113281 806.960938 517.335938 810.566406 503.164062 812.945312 Z M 503.164062 812.945312 " fill-opacity="1" fill-rule="nonzero"/></g></g></g></g></g></g></g></svg>