<svg xmlns="http://www.w3.org/2000/svg" xmlns:xlink="http://www.w3.org/1999/xlink" width="1080" zoomAndPan="magnify" viewBox="0 0 810 1012.49997" height="1350" preserveAspectRatio="xMidYMid meet" version="1.0"><defs><filter x="0%" y="0%" width="100%" height="100%" id="529d240329"><feColorMatrix values="0 0 0 0 1 0 0 0 0 1 0 0 0 0 1 0 0 0 1 0" color-interpolation-filters="sRGB"/></filter><clipPath id="7651ea5ab7"><path d="M 0.199219 53 L 809.800781 53 L 809.800781 989 L 0.199219 989 Z M 0.199219 53 " clip-rule="nonzero"/></clipPath><mask id="2e084dd1e6"><g filter="url(#529d240329)"><rect x="-81" width="972" fill="#000000" y="-101.249997" height="1214.999964" fill-opacity="0.16"/></g></mask><clipPath id="c8c4de792f"><path d="M 15 58 L 723 58 L 723 869 L 15 869 Z M 15 58 " clip-rule="nonzero"/></clipPath><clipPath id="23504af141"><path d="M 658.039062 0.761719 L 809.796875 796.011719 L 82.289062 934.839844 L -69.464844 139.589844 Z M 658.039062 0.761719 " clip-rule="nonzero"/></clipPath><clipPath id="46f420926b"><path d="M 658.039062 0.761719 L 809.796875 796.011719 L 82.289062 934.839844 L -69.464844 139.589844 Z M 658.039062 0.761719 " clip-rule="nonzero"/></clipPath><clipPath id="39f74e55e1"><rect x="0" width="810" y="0" height="936"/></clipPath><mask id="2df529d85f"><g filter="url(#529d240329)"><rect x="-81" width="972" fill="#000000" y="-101.249997" height="1214.999964" fill-opacity="0.53"/></g></mask><clipPath id="4d0ae51ec4"><path d="M 0.628906 236 L 172 236 L 172 450 L 0.628906 450 Z M 0.628906 236 " clip-rule="nonzero"/></clipPath><clipPath id="e6d1284fd3"><path d="M 200 0.730469 L 225 0.730469 L 225 50 L 200 50 Z M 200 0.730469 " clip-rule="nonzero"/></clipPath><clipPath id="142e7e6a58"><path d="M 34 660 L 235 660 L 235 670.902344 L 34 670.902344 Z M 34 660 " clip-rule="nonzero"/></clipPath><clipPath id="b3cdbffa63"><path d="M 291 276 L 549.355469 276 L 549.355469 440 L 291 440 Z M 291 276 " clip-rule="nonzero"/></clipPath><clipPath id="770ee6fe35"><rect x="0" width="551" y="0" height="672"/></clipPath></defs><g clip-path="url(#7651ea5ab7)"><g mask="url(#2e084dd1e6)"><g transform="matrix(1, 0, 0, 1, 0.000000000000000028, 53)"><g clip-path="url(#39f74e55e1)"><g clip-path="url(#c8c4de792f)"><g clip-path="url(#23504af141)"><g clip-path="url(#46f420926b)"><path fill="#d9d9d9" d="M 473.785156 859.605469 C 462.253906 862.148438 450.597656 864.03125 438.8125 865.25 C 410.078125 868.5 381.167969 869.039062 352.25 866.832031 C 330.140625 865.214844 308.296875 863.203125 286.578125 858.25 C 261.429688 852.402344 236.046875 847.121094 211.714844 838.371094 C 184.058594 828.371094 157.476562 815.933594 133.523438 798.359375 C 113.941406 783.898438 96.496094 767.144531 80.453125 748.746094 C 65.886719 731.785156 53.449219 713.386719 44.566406 692.933594 C 39.765625 682.175781 36.230469 670.835938 32.527344 659.527344 C 26.792969 642.078125 22.851562 624.121094 20.101562 606.105469 C 18.164062 593.253906 17.253906 580.382812 16.507812 567.476562 C 15.539062 549.808594 15.625 532.28125 16.90625 514.699219 C 18.445312 493.976562 21.933594 473.570312 25.949219 453.234375 C 34.523438 410.910156 46.894531 369.582031 62.5625 329.339844 C 70.851562 308.015625 79.207031 287.023438 88.453125 266.203125 C 100.261719 239.917969 114.402344 215.070312 131.410156 191.742188 C 146.273438 171.566406 163.234375 153.394531 182.09375 137.09375 C 206.554688 115.945312 233.726562 99.085938 262.882812 85.453125 C 276.132812 79.320312 289.933594 74.28125 304.09375 70.207031 C 314.667969 67.160156 325.472656 64.410156 336.304688 62.6875 C 353.324219 60.125 370.566406 58.722656 387.730469 58.710938 C 408.636719 58.5 429.359375 60.039062 450.167969 62.933594 C 480.324219 67.136719 509.625 74.933594 537.496094 86.953125 C 561.777344 97.253906 584.886719 109.496094 606.378906 124.964844 C 623.695312 137.457031 639.011719 152.042969 652.957031 168.4375 C 665.558594 183.199219 676.765625 198.742188 685.839844 215.722656 C 693.84375 230.675781 700.421875 246.242188 705.269531 262.65625 C 710.601562 280.695312 714.90625 298.757812 717.949219 317.402344 C 719.671875 328.234375 720.535156 339.054688 721.234375 349.910156 C 721.953125 361.789062 722.480469 373.53125 722.839844 385.308594 C 723.417969 413.523438 720.855469 441.480469 714.09375 469.035156 C 711.867188 478.042969 709.109375 486.984375 706.320312 495.753906 C 702.882812 506.539062 700.898438 517.734375 698.914062 528.925781 C 695.492188 549.664062 694.511719 570.625 695.617188 591.699219 C 695.996094 597.292969 696.574219 603.019531 697.617188 608.484375 C 698.125 611.136719 699.292969 613.660156 700.261719 616.050781 C 704.105469 626.300781 707.621094 636.617188 710.304688 647.09375 C 713.890625 660.484375 715.625 674.058594 714.476562 687.839844 C 712.355469 714.511719 704.136719 738.910156 687.613281 760.261719 C 674.53125 777.179688 658.632812 791.027344 640.542969 802.375 C 622.78125 813.664062 603.71875 822.621094 583.949219 829.65625 C 569.8125 834.757812 555.484375 839.722656 541.027344 844.027344 C 533.234375 846.371094 525.210938 848.417969 517.160156 850.296875 C 503.308594 853.285156 488.757812 857.089844 473.785156 859.605469 Z M 473.785156 859.605469 " fill-opacity="1" fill-rule="nonzero"/></g></g></g></g></g></g></g><g mask="url(#2df529d85f)"><g transform="matrix(1, 0, 0, 1, 95, 145)"><g clip-path="url(#770ee6fe35)"><path fill="#000000" d="M 38.785156 463.484375 C 42.765625 458.402344 46.355469 453.027344 50.402344 448 C 59.6875 436.089844 70.175781 425.15625 78.859375 412.789062 C 89.75 397.835938 103.320312 385.085938 113.90625 369.855469 C 116.292969 366.894531 118.402344 363.65625 121.125 361.003906 C 121.445312 360.792969 121.683594 360.527344 121.792969 360.152344 C 122.15625 358.964844 120.773438 357.988281 119.753906 358.589844 C 119.324219 358.8125 118.945312 359.105469 118.582031 359.425781 C 110.707031 367.035156 104.96875 376.472656 98.324219 385.101562 C 90.628906 395.601562 82.308594 405.582031 74.070312 415.648438 C 61.976562 429.710938 49.3125 443.335938 38.226562 458.246094 C 35.867188 461.347656 33.382812 464.375 30.703125 467.210938 C 29.082031 469.304688 21.917969 474.804688 26.179688 477.082031 C 27.8125 477.683594 30.15625 476.175781 28.984375 474.386719 C 32.265625 470.757812 35.855469 467.421875 38.773438 463.484375 Z M 38.785156 463.484375 " fill-opacity="1" fill-rule="nonzero"/><path fill="#000000" d="M 155.054688 278.992188 C 158.433594 275.304688 162.019531 271.785156 165.289062 268.015625 C 165.652344 267.457031 164.757812 266.859375 164.378906 267.402344 C 162.132812 270.027344 159.617188 272.511719 157.230469 275.039062 C 145.976562 285.972656 134.613281 296.863281 124.460938 308.839844 C 118.234375 316.199219 112.203125 323.726562 106.308594 331.347656 C 101.714844 336.863281 96.828125 342.097656 92.011719 347.445312 C 77.824219 362.132812 66.835938 379.433594 53.601562 394.917969 C 44.175781 405.625 35.8125 417.199219 26.277344 427.8125 C 22.867188 431.609375 19.265625 435.503906 15.523438 439.035156 C 14.855469 439.679688 14.171875 440.304688 13.527344 440.976562 C 12.789062 441.757812 11.683594 442.734375 11.949219 443.9375 C 12.160156 444.886719 13.652344 444.886719 13.863281 443.9375 C 14.796875 442.21875 16.726562 441.160156 18.050781 439.71875 C 33.984375 424.851562 45.992188 406.492188 59.839844 389.777344 C 70.132812 377.617188 80.9375 365.902344 91.242188 353.742188 C 101.660156 341.121094 112.160156 328.570312 123.359375 316.632812 C 134.332031 304.429688 143.867188 291 155.066406 279.003906 Z M 155.054688 278.992188 " fill-opacity="1" fill-rule="nonzero"/><path fill="#000000" d="M 317.300781 405.472656 C 311.15625 400.585938 306.589844 394.273438 301.214844 388.523438 C 294.902344 381.484375 289.207031 373.847656 282.40625 367.257812 C 278.191406 363.042969 273.527344 359.328125 268.90625 355.570312 C 263.960938 351.496094 259.355469 347.042969 254.632812 342.714844 C 242.820312 331.949219 232.699219 319.523438 221.613281 308.046875 C 214.839844 300.703125 207.707031 293.679688 200.890625 286.390625 C 194.917969 279.828125 189.820312 272.554688 183.914062 265.9375 C 181.175781 262.835938 178.382812 259.78125 175.339844 256.972656 C 174.753906 255.800781 172.800781 255.871094 172.3125 257.113281 C 171.710938 258.898438 173.875 259.78125 174.796875 261.023438 C 177.183594 263.507812 179.375 265.949219 181.597656 268.605469 C 186.316406 274.078125 190.601562 279.898438 195.292969 285.386719 C 198.992188 289.644531 203 293.609375 206.953125 297.644531 C 215.582031 307.054688 224.558594 316.101562 233.71875 324.980469 C 241.816406 333.246094 249.972656 341.429688 258.082031 349.679688 C 263.863281 356.074219 270.285156 361.828125 276.375 367.914062 C 284.375 376.027344 291.636719 384.820312 299.957031 392.625 C 305.09375 397.402344 309.648438 402.804688 314.996094 407.355469 C 319.53125 411.417969 324.992188 414.546875 328.652344 419.488281 C 330.296875 421.515625 333.117188 419.085938 331.679688 417.144531 C 327.882812 412.144531 322.101562 409.339844 317.300781 405.472656 Z M 317.300781 405.472656 " fill-opacity="1" fill-rule="nonzero"/><path fill="#000000" d="M 290.644531 462.617188 C 291.414062 462.546875 292.011719 461.792969 292.011719 461.054688 C 292.011719 460.3125 291.425781 459.558594 290.644531 459.488281 C 287.097656 459.195312 283.566406 459.449219 280.019531 459.292969 C 276.554688 459.128906 273.164062 458.511719 269.757812 457.914062 C 265.328125 457.0625 260.804688 457.03125 256.339844 456.585938 C 254.355469 456.390625 251.84375 455.945312 250.335938 457.578125 C 249.84375 458.21875 249.902344 459.140625 250.472656 459.714844 C 251.675781 460.898438 252.847656 459.351562 254.257812 459.6875 C 258.140625 460.1875 262.046875 460.453125 265.929688 460.957031 C 270.316406 461.613281 274.628906 462.785156 279.070312 462.964844 L 279.011719 462.964844 C 282.894531 463.191406 286.789062 462.839844 290.660156 462.617188 Z M 290.644531 462.617188 " fill-opacity="1" fill-rule="nonzero"/><path fill="#000000" d="M 26.902344 567.554688 C 26.414062 551.832031 26.472656 536.113281 26.539062 520.390625 C 26.050781 509.195312 25.71875 497.984375 25.5625 486.773438 C 26.023438 486.3125 26.136719 485.765625 26.039062 485.25 C 26.121094 485.195312 26.21875 485.125 26.289062 485.039062 C 27.492188 483.9375 26.582031 481.675781 24.933594 481.773438 C 20.621094 482.136719 16.179688 482.234375 11.894531 483.03125 C 10.332031 483.394531 10.175781 485.765625 11.683594 486.339844 C 12.605469 486.6875 13.820312 486.910156 14.644531 486.242188 C 17.199219 486.085938 19.769531 485.921875 22.324219 485.753906 C 20.898438 500.203125 22.546875 514.890625 22.714844 529.398438 C 22.9375 539.535156 22.839844 549.699219 23.457031 559.835938 C 24.472656 569.117188 24.054688 578.472656 24 587.800781 C 24.292969 603.605469 22.800781 619.351562 21.878906 635.117188 C 21.472656 646.3125 22.996094 657.46875 22.769531 668.667969 C 22.769531 669.363281 23.371094 669.953125 24.054688 669.953125 C 24.738281 669.953125 25.355469 669.363281 25.339844 668.667969 C 25.269531 665.566406 25.339844 662.46875 25.339844 659.367188 C 24.976562 641.734375 26.609375 624.128906 25.980469 606.496094 C 25.800781 599.09375 25.648438 591.679688 25.898438 584.28125 C 26.148438 578.695312 26.847656 573.125 26.875 567.539062 Z M 26.902344 567.554688 " fill-opacity="1" fill-rule="nonzero"/><path fill="#000000" d="M 13.152344 478.6875 C 19.519531 472.964844 24.238281 465.816406 29.292969 458.972656 C 40.476562 445.945312 50.417969 431.929688 61.433594 418.75 C 66.628906 412.3125 71.890625 405.933594 77.363281 399.71875 C 81.859375 394.429688 85.992188 388.855469 90.503906 383.578125 C 96.535156 376.332031 101.546875 368.304688 107.84375 361.28125 C 111.488281 356.925781 115.289062 352.695312 119.097656 348.492188 C 119.617188 347.90625 120.132812 347.320312 120.703125 346.789062 C 122.113281 345.996094 121.753906 343.746094 120.214844 343.371094 C 119.167969 343.078125 118.261719 343.800781 117.621094 344.542969 C 116.753906 345.4375 115.914062 346.355469 115.0625 347.265625 C 112.398438 350.042969 109.703125 352.792969 107.089844 355.628906 C 99.425781 363.25 93.226562 372.089844 86.777344 380.703125 C 80.15625 389.316406 74.558594 398.628906 67.898438 407.21875 C 61.585938 416.039062 54.453125 424.222656 47.386719 432.445312 C 41.996094 438.742188 37.011719 445.359375 31.722656 451.742188 C 27.167969 456.964844 23.257812 462.671875 19.113281 468.203125 C 16.390625 471.804688 13.164062 475 10.066406 478.269531 C 8.402344 479.945312 6.714844 481.941406 7.175781 484.480469 C 7.300781 485.765625 9.253906 485.667969 9.367188 484.480469 C 9.4375 483.796875 9.296875 483.058594 9.6875 482.457031 C 10.652344 481.035156 11.976562 479.929688 13.179688 478.714844 Z M 13.152344 478.6875 " fill-opacity="1" fill-rule="nonzero"/><g clip-path="url(#4d0ae51ec4)"><path fill="#000000" d="M 3.417969 448.179688 C 3.277344 447.886719 3.054688 447.59375 3.179688 447.257812 C 3.210938 447.132812 3.292969 446.964844 3.390625 446.785156 C 3.417969 446.769531 3.515625 446.601562 3.613281 446.449219 C 6.210938 442.917969 9.03125 439.484375 11.753906 436.046875 C 25.128906 420.203125 38.285156 404.171875 50.570312 387.460938 C 63.066406 370.972656 76.191406 354.984375 89.109375 338.816406 C 101.953125 322.777344 113.542969 305.757812 126.332031 289.671875 C 137.417969 276.074219 149.3125 263.160156 161.363281 250.398438 C 164.28125 247.519531 166.671875 244.042969 170.035156 241.65625 C 172.871094 239.453125 169.785156 235.25 166.867188 236.953125 C 163.445312 238.992188 160.945312 242.1875 158.125 244.9375 C 144.414062 258.566406 133.453125 274.832031 120.902344 289.660156 C 110.023438 302.839844 98.882812 315.808594 89.007812 329.769531 C 77.882812 345.03125 68.191406 361.269531 56.449219 376.152344 C 44.847656 390.699219 32.878906 404.957031 21.554688 419.726562 C 16.109375 426.371094 10.457031 432.835938 5.375 439.777344 C 3.851562 442.316406 -1.019531 446.253906 1.476562 449.296875 C 2.273438 450.402344 3.992188 449.242188 3.417969 448.167969 Z M 3.417969 448.179688 " fill-opacity="1" fill-rule="nonzero"/></g><path fill="#000000" d="M 195.054688 259.152344 C 190.070312 254.308594 185.058594 249.503906 179.878906 244.855469 C 179.292969 244.324219 178.398438 244.269531 177.8125 244.855469 C 177.253906 245.414062 177.253906 246.363281 177.8125 246.921875 C 180.828125 249.9375 183.828125 252.964844 186.945312 255.871094 C 193.101562 261.804688 199.425781 267.570312 205.386719 273.714844 C 212.398438 280.945312 218.707031 288.792969 225.382812 296.316406 C 244.496094 316.464844 261.421875 338.496094 280.96875 358.292969 C 286.398438 363.867188 291.84375 369.410156 297.542969 374.699219 C 303.390625 380.117188 309.578125 385.183594 315.332031 390.714844 C 325.578125 400.5 335.058594 411.027344 344.371094 421.695312 C 347.207031 424.390625 351.019531 420.257812 348.464844 417.605469 C 341.832031 410.820312 335.214844 404.019531 328.804688 397.011719 C 320.105469 387.070312 310.472656 378.066406 300.824219 369.074219 C 284.890625 353.171875 267.101562 339.238281 251.871094 322.636719 C 244.21875 314.285156 237.445312 305.183594 229.894531 296.738281 C 219.113281 283.460938 207.425781 270.933594 195.042969 259.136719 Z M 195.054688 259.152344 " fill-opacity="1" fill-rule="nonzero"/><path fill="#000000" d="M 296.3125 453.207031 C 291.007812 447.679688 285.171875 442.722656 279.585938 437.5 C 270.019531 429.5 261.53125 420.410156 253.097656 411.253906 C 240.492188 398.785156 228.746094 385.476562 216.113281 373.039062 C 211.910156 369.003906 207.886719 364.773438 203.390625 361.046875 C 197.609375 356.355469 191.914062 351.566406 186.789062 346.148438 C 184.109375 343.410156 181.429688 340.648438 178.648438 338.007812 C 178.46875 337.660156 178.175781 337.378906 177.8125 337.210938 C 177.628906 337.042969 177.449219 336.863281 177.269531 336.695312 C 176.835938 336.289062 176.234375 336.152344 175.703125 336.289062 C 174.699219 335.816406 173.691406 335.371094 172.605469 335.089844 C 166.769531 333.625 160.667969 334.503906 154.730469 333.847656 C 149.175781 333.289062 143.6875 332.101562 138.144531 331.488281 C 132.964844 330.832031 127.628906 331.613281 122.546875 330.414062 C 122.28125 330.328125 122.046875 330.203125 121.890625 329.964844 C 121.488281 329.519531 120.746094 329.503906 120.285156 329.867188 C 118.933594 331.109375 120.761719 332.703125 122.046875 333.007812 C 127.140625 334.433594 132.546875 333.761719 137.753906 334.476562 C 143.394531 335.144531 148.9375 336.472656 154.59375 337.074219 C 159.910156 337.6875 165.132812 337.238281 170.441406 338.132812 C 172.476562 338.46875 174.210938 339.640625 176.121094 340.285156 C 178.859375 343.382812 181.625 346.46875 184.375 349.554688 C 191.300781 357.722656 200.082031 363.933594 207.582031 371.515625 C 217.632812 380.871094 226.835938 391.035156 236.398438 400.878906 C 242.125 406.476562 248.183594 411.25 253.992188 416.863281 C 259.226562 421.820312 264.296875 426.945312 269.660156 431.761719 C 278.191406 439.246094 286.273438 447.273438 293.578125 455.957031 C 295.460938 457.757812 298.03125 454.980469 296.3125 453.222656 Z M 296.3125 453.207031 " fill-opacity="1" fill-rule="nonzero"/><path fill="#000000" d="M 343.226562 599.039062 C 343.410156 587.410156 344.804688 575.875 345 564.175781 C 345.183594 551.34375 344.164062 538.542969 344.050781 525.710938 C 343.828125 513.773438 344.246094 501.835938 344.527344 489.898438 C 344.695312 474.023438 344.148438 458.136719 344.46875 442.261719 C 344.5 438.714844 344.664062 435.167969 344.832031 431.621094 C 344.777344 429.960938 345.574219 426.597656 343.046875 426.625 C 342.097656 426.722656 341.523438 427.910156 342.027344 428.691406 C 341.121094 440.933594 341.105469 453.207031 341.355469 465.492188 C 341.539062 479.75 341.59375 494.019531 342.125 508.273438 C 342.808594 529.328125 340.867188 550.324219 340.757812 571.378906 C 340.421875 581.839844 340.464844 592.296875 339.972656 602.753906 C 339.625 611.367188 338.691406 619.925781 338.535156 628.597656 C 338.394531 633.945312 338.480469 639.304688 338.242188 644.636719 C 337.949219 646.160156 338.730469 647.710938 340.363281 647.949219 C 341.691406 648.128906 343.046875 647.152344 343.199219 645.796875 C 343.785156 640.617188 343.617188 635.394531 343.546875 630.203125 C 343.296875 619.8125 343.117188 609.425781 343.214844 599.039062 Z M 343.226562 599.039062 " fill-opacity="1" fill-rule="nonzero"/><path fill="#000000" d="M 547.234375 440.585938 C 539.488281 438.855469 531.472656 438.15625 523.570312 437.277344 C 508.253906 435.421875 492.933594 433.410156 477.660156 431.175781 C 468.390625 429.863281 459.035156 429.808594 449.691406 429.417969 C 442.503906 428.941406 435.410156 427.753906 428.273438 426.75 C 421.152344 425.882812 413.992188 425.226562 406.910156 423.984375 C 400.65625 422.6875 394.484375 420.789062 388.046875 420.578125 C 381.277344 420.398438 374.488281 420.691406 367.71875 420.523438 C 363.445312 420.453125 359.144531 420.507812 354.886719 420.816406 C 354.328125 420.859375 353.867188 421.261719 353.867188 421.847656 C 353.867188 422.40625 354.328125 422.882812 354.886719 422.867188 C 357.707031 422.882812 360.511719 422.785156 363.320312 422.785156 C 371.542969 422.980469 379.78125 422.589844 387.992188 422.785156 C 394.386719 423.160156 400.542969 425.285156 406.910156 426.164062 C 414.675781 427.210938 422.550781 427.417969 430.285156 428.800781 C 440.128906 430.671875 449.886719 432.992188 459.886719 433.96875 C 470.761719 435.097656 481.511719 437.054688 492.375 438.242188 C 507.847656 439.550781 523.375 440.640625 538.535156 444.007812 C 537.503906 444.453125 536.902344 445.863281 537.65625 446.910156 C 538.046875 449.980469 537.753906 453.109375 537.65625 456.195312 C 536.917969 466.777344 536.902344 477.402344 536.457031 488 C 535.410156 504.546875 534.835938 521.117188 535.925781 537.691406 C 536.667969 551.875 539.292969 565.894531 540.101562 580.078125 C 540.574219 589.085938 538.636719 598.046875 539.292969 607.082031 C 539.320312 607.988281 540.101562 608.699219 540.996094 608.5625 C 541.847656 608.449219 542.335938 607.679688 542.277344 606.871094 C 542.015625 603.703125 541.789062 600.519531 541.789062 597.335938 C 541.789062 591.234375 542.726562 585.160156 542.347656 579.058594 C 542 567.667969 541.484375 556.300781 540.882812 544.921875 C 540.703125 531.953125 539.683594 518.980469 540.03125 506.011719 C 540.210938 498.863281 540.882812 491.726562 541.050781 484.566406 C 541.300781 473.1875 541.46875 461.808594 541.75 450.414062 C 541.59375 448.515625 541.984375 445.890625 540.519531 444.46875 C 541.957031 444.800781 543.382812 445.152344 544.804688 445.542969 C 548.28125 447.289062 550.613281 442.164062 547.222656 440.570312 Z M 547.234375 440.585938 " fill-opacity="1" fill-rule="nonzero"/><path fill="#000000" d="M 127.824219 251.191406 C 128.1875 259.125 127.867188 267.136719 129.109375 274.984375 C 129.472656 276.464844 131.707031 276.113281 131.707031 274.636719 C 131.625 270.320312 131.5 266.007812 131.527344 261.691406 C 131.527344 252.546875 131.386719 243.402344 130.898438 234.273438 C 130.757812 229.050781 129.863281 223.871094 129.863281 218.648438 C 129.90625 217 131.414062 214.277344 128.972656 213.761719 C 125.171875 213.578125 126.625 223.785156 126.707031 226.339844 C 127.296875 234.621094 127.589844 242.898438 127.824219 251.191406 Z M 127.824219 251.191406 " fill-opacity="1" fill-rule="nonzero"/><path fill="#000000" d="M 229.628906 280.148438 C 230.128906 280.148438 230.550781 279.773438 230.617188 279.285156 C 230.855469 277.273438 231.191406 275.261719 231.457031 273.253906 C 233.019531 257.980469 231.777344 242.550781 231.609375 227.222656 C 231.402344 220.546875 231.066406 213.859375 230.4375 207.214844 C 230.242188 204.980469 230.019531 202.757812 229.765625 200.527344 C 229.667969 199.675781 228.832031 199.074219 228.007812 199.183594 C 227.269531 199.28125 226.625 199.96875 226.652344 200.734375 C 226.75 202.953125 226.847656 205.175781 227.042969 207.394531 C 227.546875 213.453125 227.785156 219.5 228.023438 225.601562 C 228.550781 243.445312 229.667969 261.316406 228.621094 279.144531 C 228.609375 279.6875 229.097656 280.148438 229.628906 280.148438 Z M 229.628906 280.148438 " fill-opacity="1" fill-rule="nonzero"/><path fill="#000000" d="M 277.449219 216.414062 C 277.367188 213.777344 273.527344 213.816406 273.457031 216.414062 C 272.339844 233.210938 273.539062 249.992188 274.628906 266.746094 C 274.964844 272.472656 275.257812 278.222656 275.859375 283.933594 C 276.472656 289.980469 277.742188 295.96875 278.007812 302.042969 C 278.035156 303.789062 280.632812 303.730469 280.648438 302.042969 C 280.648438 295.789062 279.640625 289.589844 279.292969 283.347656 C 278.984375 269.289062 278.441406 255.1875 277.5625 241.125 C 277.199219 232.890625 277.5625 224.636719 277.449219 216.398438 Z M 277.449219 216.414062 " fill-opacity="1" fill-rule="nonzero"/><path fill="#000000" d="M 233.410156 287.816406 C 233.160156 288.570312 233.789062 289.421875 234.585938 289.40625 C 237.152344 290.105469 239.484375 291.808594 242.027344 292.910156 C 244.789062 294.085938 247.542969 295.3125 250.363281 296.347656 C 259.632812 299.808594 269.253906 302.363281 278.203125 306.664062 C 280.242188 307.488281 281.5 304.484375 279.503906 303.578125 C 272.382812 300.351562 264.871094 298.160156 257.46875 295.691406 C 249.984375 293.386719 242.878906 290.132812 235.730469 287.003906 C 234.890625 286.726562 233.691406 286.78125 233.410156 287.800781 Z M 233.410156 287.816406 " fill-opacity="1" fill-rule="nonzero"/><path fill="#000000" d="M 129.988281 212.378906 C 130.578125 213.441406 132.292969 213.1875 132.546875 212.015625 C 140.324219 212.042969 147.835938 210.003906 155.402344 208.46875 C 169.128906 205.59375 182.9375 202.535156 196.773438 200.148438 C 204.285156 198.429688 211.921875 197.285156 219.53125 196.003906 C 220.832031 195.582031 224.601562 196.460938 224.40625 194.425781 C 224.320312 193.78125 223.734375 193.40625 223.121094 193.445312 C 213.234375 194.117188 203.351562 195.332031 193.617188 197.246094 C 179.238281 199.703125 165.023438 202.691406 150.753906 205.746094 C 145.808594 206.890625 140.894531 208.316406 135.828125 208.75 C 134.847656 208.902344 133.160156 208.875 131.761719 209.097656 C 131.859375 209.054688 131.957031 208.988281 132.042969 208.917969 C 134.652344 206.65625 136.929688 204.03125 139.234375 201.476562 C 142.027344 198.429688 144.554688 195.148438 147.414062 192.175781 C 148.699219 190.792969 150.222656 189.664062 151.507812 188.296875 C 152.066406 187.679688 152.105469 186.757812 151.507812 186.160156 C 150.613281 185.238281 149.480469 185.976562 148.6875 186.605469 C 147.414062 187.457031 146.117188 188.503906 144.957031 189.71875 C 141.480469 193.308594 138.550781 197.382812 135.199219 201.085938 C 133.523438 202.984375 131.804688 204.824219 129.988281 206.597656 C 129.402344 207.199219 129.390625 208.191406 129.988281 208.792969 C 130.269531 209.070312 130.6875 209.222656 131.09375 209.238281 C 129.640625 209.613281 128.773438 210.425781 130.003906 212.378906 Z M 129.988281 212.378906 " fill-opacity="1" fill-rule="nonzero"/><path fill="#000000" d="M 226.402344 193.167969 C 226.402344 194.703125 228.539062 195.277344 229.265625 193.949219 C 229.558594 193.460938 229.472656 192.917969 229.335938 192.398438 C 229.042969 190.820312 228.777344 189.230469 228.441406 187.652344 C 227.769531 184.46875 227.015625 181.300781 226.152344 178.160156 C 225.871094 177.167969 225.339844 174.222656 223.890625 175.800781 C 223.582031 176.457031 223.972656 177.195312 224.070312 177.878906 C 225.074219 182.917969 226.09375 188.03125 226.386719 193.167969 Z M 226.402344 193.167969 " fill-opacity="1" fill-rule="nonzero"/><path fill="#000000" d="M 161.476562 182.292969 C 159.980469 182.542969 157.734375 182.613281 158.179688 184.734375 C 158.992188 187.207031 163.179688 185.167969 165.035156 185 C 173.902344 183.183594 182.8125 181.1875 191.871094 180.492188 C 200.402344 180.519531 208.488281 177.710938 216.835938 176.484375 C 217.632812 176.371094 218.191406 175.632812 218.082031 174.835938 C 217.984375 174.125 217.355469 173.566406 216.628906 173.578125 C 213.515625 173.691406 210.472656 174.402344 207.398438 174.90625 C 201.3125 176.300781 195.097656 176.359375 188.882812 176.652344 C 182.585938 177.042969 176.429688 178.5625 170.300781 180.015625 C 167.339844 180.742188 164.421875 181.550781 161.460938 182.292969 Z M 161.476562 182.292969 " fill-opacity="1" fill-rule="nonzero"/><path fill="#000000" d="M 228.734375 176.121094 C 228.441406 176.820312 228.707031 177.683594 229.375 178.0625 C 231.554688 179.234375 233.800781 180.28125 236.007812 181.382812 C 239.332031 183.058594 242.792969 184.414062 246.230469 185.851562 C 249.441406 187.179688 252.554688 188.867188 255.976562 189.636719 C 256.730469 189.773438 257.496094 189.230469 257.691406 188.503906 C 257.875 187.847656 257.59375 187.066406 256.964844 186.746094 C 254.984375 185.78125 252.902344 185 250.921875 184.050781 C 244.191406 181.132812 237.335938 178.5625 230.757812 175.296875 C 229.992188 174.949219 229.042969 175.367188 228.71875 176.121094 Z M 228.734375 176.121094 " fill-opacity="1" fill-rule="nonzero"/><path fill="#000000" d="M 260.164062 190.78125 C 260.386719 193.210938 262.46875 194.914062 264.058594 196.558594 C 268.386719 200.554688 272.382812 204.867188 275.941406 209.574219 C 276.023438 209.671875 276.125 209.753906 276.207031 209.839844 C 265.539062 205.691406 254.523438 202.550781 243.464844 199.632812 C 241.59375 198.988281 239.777344 198.234375 237.992188 197.398438 C 235.828125 196.421875 233.886719 194.828125 231.554688 194.3125 C 229.125 193.824219 228.816406 197.316406 231.234375 196.824219 C 234.332031 198.304688 237.179688 200.429688 240.421875 201.699219 C 244.484375 203.511719 248.867188 204.421875 253.058594 205.875 C 261.882812 208.820312 270.664062 211.917969 279.320312 215.324219 C 281.652344 215.980469 282.824219 212.546875 280.605469 211.613281 C 279.628906 211.207031 278.636719 210.816406 277.660156 210.425781 C 279.25 210.425781 280.703125 208.566406 279.460938 206.863281 C 276.179688 202.703125 272.492188 198.878906 268.527344 195.359375 C 266.921875 193.753906 264.785156 192.386719 263.835938 190.292969 C 263.292969 188.238281 260.148438 188.65625 260.164062 190.78125 Z M 260.164062 190.78125 " fill-opacity="1" fill-rule="nonzero"/><path fill="#000000" d="M 224.335938 117.3125 C 222.644531 124.867188 223.316406 132.574219 222.882812 140.222656 C 222.800781 146.046875 222.6875 151.867188 222.578125 157.675781 C 222.382812 161.390625 223.105469 165.078125 223.203125 168.777344 C 223.273438 169.277344 223.734375 169.65625 224.238281 169.601562 C 224.769531 169.542969 225.089844 169.082031 225.0625 168.566406 C 224.992188 166.125 225.007812 163.695312 224.742188 161.25 C 224.644531 157.507812 224.9375 153.78125 224.796875 150.039062 C 224.851562 146.367188 225.300781 142.695312 225.1875 138.996094 C 225.4375 131.820312 224.53125 124.65625 225.859375 117.523438 C 225.996094 116.503906 224.476562 116.320312 224.320312 117.300781 Z M 224.335938 117.3125 " fill-opacity="1" fill-rule="nonzero"/><path fill="#000000" d="M 258.894531 142.75 C 258.277344 152.914062 257.777344 163.078125 257.273438 173.246094 C 257.300781 175.394531 256.003906 177.894531 257.09375 179.863281 C 257.886719 180.980469 259.703125 179.972656 259.1875 178.71875 C 259.464844 174.90625 260.011719 171.121094 259.757812 167.226562 C 259.882812 159.074219 260.121094 150.933594 260.539062 142.792969 C 260.539062 141.703125 258.933594 141.703125 258.894531 142.765625 Z M 258.894531 142.75 " fill-opacity="1" fill-rule="nonzero"/><path fill="#000000" d="M 152.679688 133.675781 C 152.289062 146.257812 151.339844 158.835938 151.4375 171.429688 C 151.464844 174.515625 151.519531 177.613281 151.507812 180.699219 C 151.464844 181.71875 151.480469 183.144531 152.695312 183.492188 C 153.976562 183.953125 155.136719 182.320312 154.410156 181.230469 C 154.355469 178.242188 154.285156 175.253906 154.230469 172.253906 C 154.046875 159.660156 154.550781 147.066406 155.054688 134.484375 C 155.136719 132.601562 155.054688 130.730469 155.152344 128.84375 C 155.179688 128.523438 155.039062 128.230469 154.816406 128.007812 C 161.351562 127.058594 167.816406 125.425781 174.308594 124.222656 C 180.421875 122.910156 186.636719 122.226562 192.792969 121.179688 C 198.796875 119.757812 204.800781 118.386719 210.863281 117.230469 C 214.996094 116.292969 219.101562 115.164062 223.371094 115.203125 C 223.761719 115.175781 223.988281 114.953125 224.070312 114.6875 C 225.382812 114.800781 226.808594 113.683594 226.277344 112.007812 C 224.949219 106.15625 224.140625 100.167969 222.589844 94.347656 C 221.292969 88.539062 219.167969 82.980469 217.621094 77.257812 C 216.347656 71.601562 215.46875 65.863281 213.753906 60.320312 C 213.5 59.246094 213.097656 58.210938 212.734375 57.152344 C 218.164062 64.132812 222.9375 71.851562 227.785156 79.265625 C 232.839844 86.246094 238.046875 93.074219 242.890625 100.265625 C 243.183594 100.613281 243.714844 100.671875 244.09375 100.433594 C 245.292969 99.496094 243.28125 97.738281 242.863281 96.71875 C 239.917969 92.113281 237.167969 87.40625 234.125 82.855469 C 230.058594 76.851562 227.113281 70.164062 222.996094 64.1875 C 220.230469 60.195312 217.339844 56.230469 214.003906 52.683594 C 214.210938 48.691406 208.179688 50.6875 210.121094 53.898438 C 210.148438 53.925781 210.164062 53.953125 210.191406 53.980469 C 205.597656 59.886719 200.179688 65.152344 195.308594 70.847656 C 187.445312 80.007812 179.515625 89.125 172.421875 98.898438 C 167.96875 104.804688 163.472656 110.667969 159.03125 116.585938 C 157.679688 118.472656 156.367188 120.382812 155.191406 122.394531 C 154.914062 122.855469 155.164062 123.5 155.625 123.734375 C 156.058594 123.957031 156.617188 123.820312 156.894531 123.414062 C 157.804688 122.101562 158.667969 120.746094 159.617188 119.476562 C 162.621094 115.457031 165.761719 111.5625 168.75 107.539062 C 174.671875 99.539062 180.714844 91.636719 187.027344 83.957031 C 194.121094 74.339844 201.996094 65.320312 210.457031 56.871094 C 211.992188 64.550781 212.34375 72.398438 213.976562 80.078125 C 216.867188 91.132812 220.257812 102.066406 222.382812 113.304688 C 222.421875 113.433594 222.492188 113.542969 222.546875 113.65625 C 216.949219 114.128906 211.558594 116.070312 205.988281 116.753906 C 197.75 117.984375 189.625 119.867188 181.34375 120.902344 C 173.148438 122.128906 165.078125 124.042969 156.953125 125.605469 C 155.945312 125.898438 152.359375 126.023438 152.484375 127.394531 C 152.496094 127.730469 152.722656 128.007812 153.015625 128.148438 C 152.917969 128.285156 152.832031 128.453125 152.820312 128.636719 C 152.695312 130.3125 152.734375 131.988281 152.695312 133.664062 Z M 152.679688 133.675781 " fill-opacity="1" fill-rule="nonzero"/><path fill="#000000" d="M 201.058594 163.375 C 203.515625 160.664062 204.871094 157.160156 205.847656 153.699219 C 206.992188 150.429688 208.042969 146.785156 206.660156 143.4375 C 204.214844 136.621094 199.355469 131.597656 191.746094 131.625 C 183.957031 132.574219 175.523438 135.28125 172.773438 143.535156 C 168.933594 157.035156 173.34375 167.617188 188.453125 168.398438 C 193.128906 169.113281 197.808594 166.613281 201.046875 163.386719 Z M 198.824219 160.636719 C 196.703125 162.980469 193.644531 164.851562 190.449219 165.089844 C 190.546875 164.574219 190.546875 164 190.519531 163.511719 C 190.546875 161.683594 190.546875 159.867188 190.574219 158.039062 C 190.628906 156.226562 190.6875 154.394531 190.726562 152.582031 C 192.695312 152.414062 194.664062 152.273438 196.648438 152.289062 C 198.601562 152.230469 200.558594 152.230469 202.511719 152.257812 C 201.605469 155.191406 200.753906 158.179688 198.824219 160.652344 Z M 201.4375 140 C 202.917969 142.765625 204.242188 145.835938 203.546875 148.949219 C 203.378906 148.894531 203.210938 148.867188 203.042969 148.867188 C 198.953125 148.867188 194.886719 149.078125 190.8125 149.398438 C 190.9375 144.789062 191.019531 140.195312 191.046875 135.589844 C 191.132812 135.464844 191.1875 135.324219 191.230469 135.199219 C 191.453125 135.003906 191.636719 134.75 191.675781 134.445312 C 195.574219 134.542969 199.480469 136.550781 201.421875 140 Z M 175.773438 152.761719 C 175.855469 144.621094 177.785156 139.457031 185.660156 136.0625 C 186.414062 136.414062 187.125 135.964844 187.835938 135.574219 C 187.835938 135.6875 187.824219 135.785156 187.808594 135.894531 C 187.726562 137.25 187.699219 138.605469 187.640625 139.960938 C 187.53125 143.210938 187.335938 146.464844 187.167969 149.71875 C 186.078125 149.816406 185.003906 149.914062 183.914062 150.011719 C 182.378906 150.125 180.8125 150.066406 179.277344 149.96875 C 178.246094 149.800781 176.820312 149.761719 176.625 151.101562 C 176.527344 151.882812 177.085938 152.59375 177.855469 152.707031 C 180.910156 153.210938 183.96875 153.109375 187.027344 152.875 C 186.859375 156.882812 186.816406 160.902344 187.097656 164.910156 C 180.589844 164.058594 175.496094 160.414062 175.773438 152.761719 Z M 175.773438 152.761719 " fill-opacity="1" fill-rule="nonzero"/><path fill="#000000" d="M 252.164062 125.566406 C 244.332031 122.003906 236.523438 118.402344 228.789062 114.632812 C 227.394531 113.960938 226.359375 115.988281 227.699219 116.726562 C 232.753906 119.449219 237.894531 122.019531 243.03125 124.558594 C 248.308594 126.90625 253.683594 129.070312 258.808594 131.75 C 259.507812 132.125 260.441406 131.777344 260.707031 131.007812 C 261.140625 129.808594 259.941406 129.207031 258.992188 128.902344 C 256.6875 127.828125 254.46875 126.625 252.148438 125.578125 Z M 252.164062 125.566406 " fill-opacity="1" fill-rule="nonzero"/><path fill="#000000" d="M 244.609375 137.125 C 242.515625 136.636719 240.644531 138.15625 239.359375 139.652344 C 237.335938 142.027344 235.867188 144.914062 235.183594 147.960938 C 234.261719 153.964844 233.664062 164.253906 239.847656 167.589844 C 244.246094 169.179688 248.6875 166.054688 250.738281 162.257812 C 253.042969 159.144531 254.117188 155.441406 254.132812 151.589844 C 254.300781 147.539062 253.78125 140.867188 248.589844 140.53125 C 248.40625 140.53125 248.226562 140.53125 248.042969 140.53125 C 248.238281 140.125 248.128906 139.566406 247.652344 139.371094 C 247.359375 139.289062 247.109375 139.273438 246.886719 139.316406 C 247.054688 138.214844 245.574219 137.390625 244.59375 137.125 Z M 243.144531 139.929688 C 243.757812 139.441406 244.371094 139.847656 244.902344 140.238281 C 245.167969 140.40625 245.488281 140.460938 245.78125 140.421875 C 245.753906 140.503906 245.726562 140.585938 245.699219 140.683594 C 245.113281 140.976562 245.027344 141.816406 245.433594 142.277344 C 245.378906 142.863281 245.363281 143.421875 245.308594 143.828125 C 245.140625 146.5625 245.027344 149.300781 244.957031 152.035156 C 242.640625 151.867188 240.308594 151.714844 237.976562 151.8125 C 237.921875 151.8125 237.867188 151.828125 237.808594 151.839844 C 238.074219 147.386719 239.582031 142.792969 243.144531 139.945312 Z M 241.355469 165.480469 C 238.214844 164.238281 237.90625 158.917969 237.808594 155.414062 C 237.867188 155.414062 237.921875 155.429688 237.992188 155.441406 C 240.253906 155.539062 242.515625 155.695312 244.777344 155.917969 C 244.652344 157.84375 244.46875 159.757812 244.105469 161.65625 C 244.105469 162.71875 243.074219 164.378906 243.15625 165.550781 C 242.597656 165.621094 242 165.605469 241.371094 165.480469 Z M 249.734375 143.28125 C 251.089844 145.042969 251.296875 147.457031 251.367188 149.632812 C 251.367188 152.398438 251.410156 155.273438 250.417969 157.898438 C 249.453125 159.996094 248.140625 162.523438 246.285156 164.085938 C 246.789062 162.117188 247.023438 159.242188 247.121094 156.183594 C 247.277344 156.195312 247.414062 156.210938 247.570312 156.238281 C 248.601562 156.378906 249.609375 155.636719 249.746094 154.578125 C 249.914062 152.914062 248.589844 152.441406 247.207031 152.230469 C 247.234375 148.433594 247.179688 144.816406 247.332031 142.625 C 248.199219 142.652344 249.078125 142.722656 249.746094 143.269531 Z M 249.734375 143.28125 " fill-opacity="1" fill-rule="nonzero"/><path fill="#000000" d="M 252.792969 119.351562 C 253.976562 120.941406 254.929688 122.882812 256.660156 123.957031 C 257.707031 124.515625 259.171875 123.777344 259.226562 122.535156 C 259.074219 119.644531 257.007812 117.214844 255.863281 114.617188 C 254.382812 111.796875 252.707031 109.074219 250.992188 106.382812 C 250.265625 105.234375 248.644531 104.929688 247.527344 105.667969 C 246.523438 106.324219 246.0625 107.761719 246.660156 108.851562 C 248.644531 112.382812 250.585938 115.945312 252.792969 119.351562 Z M 252.792969 119.351562 " fill-opacity="1" fill-rule="nonzero"/><g clip-path="url(#e6d1284fd3)"><path fill="#000000" d="M 201.6875 14.902344 C 203.449219 16.019531 205.625 16.257812 207.566406 16.941406 C 208.011719 17.066406 208.445312 17.21875 208.894531 17.359375 C 208.894531 27.425781 209.226562 37.507812 210.261719 47.519531 C 210.582031 49.863281 213.949219 49.488281 213.808594 47.167969 C 213.597656 42.839844 213.320312 38.511719 213.125 34.199219 C 213.097656 29.046875 212.929688 23.910156 212.773438 18.757812 C 215.484375 19.761719 218.207031 20.726562 221.097656 21.089844 C 223.609375 21.578125 225.203125 18.15625 223.164062 16.5625 C 222.605469 16.105469 221.921875 15.949219 221.207031 15.992188 C 220.035156 16.003906 218.890625 15.796875 217.757812 15.53125 C 216.054688 15.042969 214.351562 14.539062 212.648438 14.066406 C 212.566406 10.449219 212.507812 6.832031 212.539062 3.1875 C 213.445312 0.703125 209.605469 -0.359375 209.058594 2.210938 C 208.976562 5.8125 208.90625 9.414062 208.878906 13.019531 C 207.425781 12.628906 205.960938 12.25 204.496094 11.914062 C 204.160156 10.546875 202.300781 10.042969 201.296875 11.035156 C 200.054688 12.082031 200.429688 13.996094 201.660156 14.902344 Z M 201.6875 14.902344 " fill-opacity="1" fill-rule="nonzero"/></g><path fill="#000000" d="M 240.195312 277.804688 C 240.851562 279.914062 244.066406 278.433594 242.90625 276.574219 C 242.890625 270.878906 243.449219 265.183594 243.507812 259.488281 C 243.644531 256.078125 243.5625 252.714844 243.546875 249.351562 C 243.660156 249.390625 243.757812 249.421875 243.882812 249.449219 C 246.003906 249.839844 248.140625 250.160156 250.277344 250.4375 C 249.804688 259.851562 249.089844 269.289062 250.054688 278.640625 C 245.867188 278.042969 242.265625 277.957031 242.265625 279.71875 C 242.265625 280.902344 243.871094 281.40625 244.789062 280.972656 C 246.660156 281.140625 248.546875 281.433594 250.433594 281.8125 C 250.433594 281.839844 250.433594 281.867188 250.433594 281.882812 C 250.597656 282.957031 251.941406 282.984375 252.34375 282.214844 C 254.648438 282.746094 256.9375 283.375 259.171875 284.085938 C 259.171875 284.394531 259.171875 284.714844 259.171875 285.023438 C 259.089844 285.625 259.128906 286.25 259.589844 286.683594 C 260.527344 287.691406 262.34375 286.921875 262.300781 285.566406 C 262.300781 285.441406 262.300781 285.316406 262.285156 285.191406 C 265.441406 286.125 266.585938 280.570312 262.550781 280.695312 C 262.398438 280.695312 262.214844 280.695312 262.007812 280.679688 C 261.824219 277.59375 261.769531 274.453125 261.796875 271.355469 C 261.714844 256.847656 266.015625 235.082031 259.257812 222.265625 C 258.433594 220.464844 257.148438 219.039062 255.625 218.269531 C 255.320312 217.699219 254.621094 217.28125 253.839844 217.53125 C 253.753906 217.574219 253.671875 217.613281 253.601562 217.671875 C 252.246094 217.53125 250.808594 217.894531 249.398438 218.898438 C 243.757812 222.878906 240.753906 236.269531 240.238281 242.984375 C 239.820312 250.105469 240.03125 257.253906 239.945312 264.375 C 240 268.828125 239.570312 273.378906 240.167969 277.789062 Z M 259.242188 231.996094 C 261.742188 247.675781 259.324219 263.785156 259.257812 279.578125 C 259.257812 279.816406 259.257812 280.050781 259.257812 280.289062 C 257.328125 279.941406 254.871094 279.4375 252.441406 279.019531 C 252.371094 276.28125 252.304688 273.558594 252.402344 270.824219 C 252.777344 264.164062 253.085938 257.503906 253.40625 250.84375 C 254.816406 251.027344 256.226562 251.191406 257.652344 251.375 C 258.78125 251.527344 259.882812 250.71875 260.039062 249.558594 C 260.191406 248.429688 259.367188 247.3125 258.222656 247.171875 C 256.6875 246.976562 255.152344 246.808594 253.617188 246.640625 C 254.019531 238.390625 254.4375 230.152344 254.96875 221.914062 C 256.503906 223.351562 257.972656 226.523438 259.242188 231.980469 Z M 252.21875 221.0625 C 252.023438 222.597656 252.039062 224.246094 251.871094 225.210938 C 251.410156 231.214844 250.851562 237.230469 250.558594 243.25 C 250.53125 244.269531 250.5 245.289062 250.460938 246.304688 C 248.433594 246.082031 246.425781 245.816406 244.398438 245.582031 C 244.105469 245.550781 243.828125 245.582031 243.578125 245.664062 C 243.644531 242.371094 243.882812 239.089844 244.582031 235.78125 C 246.144531 228.335938 249.121094 221.875 252.234375 221.0625 Z M 252.21875 221.0625 " fill-opacity="1" fill-rule="nonzero"/><path fill="#000000" d="M 287.238281 646.761719 C 280.730469 648.242188 274.363281 650.277344 268.082031 652.539062 C 259.96875 655.695312 251.5625 658.140625 243.730469 661.964844 C 242 662.789062 240.351562 663.765625 238.703125 664.757812 C 239.050781 664.449219 239.304688 664.015625 239.316406 663.429688 C 239.359375 656.226562 238.492188 649.035156 238.578125 641.832031 C 238.730469 628.078125 239.640625 614.3125 238.96875 600.5625 C 238.523438 585.0625 239.277344 569.566406 238.996094 554.082031 C 239.21875 541.585938 239.75 529.105469 239.527344 516.609375 C 239.414062 510.351562 238.914062 504.113281 238.746094 497.871094 C 238.632812 488.585938 239.039062 479.289062 238.953125 470.003906 C 240.308594 469.222656 240.097656 467.769531 239.164062 467.03125 C 239.570312 466.667969 239.863281 466.164062 239.933594 465.5625 C 240.042969 463.652344 238.257812 462.296875 237.363281 460.761719 C 235.144531 457.675781 232.503906 454.9375 229.921875 452.175781 C 226.527344 448.347656 223.121094 444.550781 219.421875 441.019531 C 212.089844 433.730469 204.425781 426.804688 196.453125 420.230469 C 191.480469 415.761719 186.945312 410.859375 182.15625 406.226562 C 174.445312 398.421875 167.523438 389.902344 160.75 381.304688 C 152.722656 372.3125 144.582031 363.40625 136.175781 354.761719 C 134.472656 353.058594 132.769531 351.355469 131.066406 349.652344 C 130.617188 349.191406 129.863281 349.191406 129.402344 349.652344 C 128.941406 350.113281 128.972656 350.851562 129.402344 351.3125 C 138.296875 360.90625 147.570312 370.148438 156.464844 379.753906 C 165.425781 391.1875 175.480469 401.675781 185.394531 412.269531 C 194.625 423.257812 204.578125 433.605469 214.367188 444.089844 C 218.386719 448.109375 222.253906 452.300781 226.207031 456.390625 C 229.542969 459.628906 232.878906 462.882812 235.492188 466.75 C 235.6875 467.042969 235.9375 467.253906 236.21875 467.40625 C 234.933594 469 235.546875 472.292969 235.296875 474.207031 C 235.226562 476.664062 235.210938 479.121094 235.101562 481.578125 C 234.304688 493.515625 234.863281 505.4375 235.40625 517.363281 C 235.757812 527.652344 235.308594 537.957031 235.660156 548.246094 C 236.078125 557.753906 237.375 567.191406 237.265625 576.726562 C 237.460938 587.226562 236.21875 597.699219 236.035156 608.183594 C 235.421875 626.601562 236.34375 645.03125 235.671875 663.445312 C 235.730469 665.023438 237.179688 665.511719 238.226562 665.066406 C 237.65625 665.425781 237.460938 666.179688 237.808594 666.78125 C 238.171875 667.410156 238.941406 667.550781 239.539062 667.242188 C 240.9375 666.515625 242.179688 665.859375 243.617188 665.164062 C 248.617188 662.566406 254.339844 660.640625 259.660156 658.601562 C 268.90625 654.96875 278.191406 651.410156 287.921875 649.300781 C 289.554688 648.828125 288.855469 646.382812 287.238281 646.800781 Z M 287.238281 646.761719 " fill-opacity="1" fill-rule="nonzero"/><path fill="#000000" d="M 325.871094 650.417969 C 323.121094 650.277344 320.382812 650.167969 317.632812 650.027344 C 310.820312 649.621094 303.992188 649.523438 297.179688 649.441406 C 297.082031 642.726562 296.605469 635.996094 297.152344 629.28125 C 298.742188 612.359375 298.730469 595.253906 297.710938 578.304688 C 296.941406 569.382812 295.210938 560.589844 294.527344 551.652344 C 292.628906 531.171875 292.78125 510.546875 292.890625 489.984375 C 292.988281 483.183594 292.65625 476.371094 293.242188 469.597656 C 294.511719 469.597656 295.78125 469.640625 297.054688 469.765625 C 298.699219 470.785156 300.601562 470.8125 301.550781 468.871094 C 302.175781 467.40625 301.324219 465.746094 299.816406 465.296875 C 296.566406 464.335938 293.117188 465.074219 289.792969 465.296875 C 286.121094 465.660156 282.460938 465.996094 278.789062 466.332031 C 272.101562 466.539062 265.386719 466.527344 258.796875 465.269531 C 253.460938 464.699219 241.734375 460.800781 242.878906 470.046875 C 242.878906 471.875 245.628906 472.054688 245.851562 470.242188 C 246.1875 468.246094 245.292969 467.265625 247.972656 467.292969 C 252.332031 467.292969 256.730469 468.648438 261.058594 469.277344 C 266.808594 470.28125 272.644531 470.351562 278.46875 470.367188 C 282.476562 470.3125 286.511719 469.820312 290.53125 469.640625 C 290.492188 469.976562 290.460938 470.296875 290.421875 470.574219 C 290.03125 473.632812 290.058594 476.71875 290.042969 479.789062 C 290.15625 495.191406 289.777344 510.589844 290.394531 525.992188 C 291.0625 540.734375 293.394531 555.339844 294.46875 570.066406 C 295.152344 579.996094 294.332031 589.949219 294.46875 599.890625 C 294.46875 606.59375 294.695312 613.292969 294.75 619.996094 C 294.457031 629.796875 294.023438 639.585938 293.898438 649.386719 C 293.214844 649.386719 292.542969 649.371094 291.859375 649.359375 C 290.519531 649.359375 290.394531 651.382812 291.707031 651.535156 C 292.417969 651.578125 293.144531 651.605469 293.855469 651.648438 C 293.855469 651.914062 293.855469 652.164062 293.855469 652.429688 C 293.925781 654.71875 297.179688 654.539062 297.21875 652.429688 C 297.21875 652.21875 297.21875 652.011719 297.21875 651.800781 C 306.769531 652.164062 316.347656 652.011719 325.898438 652.625 C 326.5 652.652344 327.015625 652.09375 327.003906 651.519531 C 327.003906 650.894531 326.5 650.445312 325.898438 650.417969 Z M 325.871094 650.417969 " fill-opacity="1" fill-rule="nonzero"/><path fill="#000000" d="M 503.101562 614.257812 C 491.386719 616.882812 479.542969 618.78125 467.773438 621.097656 C 454.273438 623.960938 440.894531 627.367188 427.421875 630.371094 C 415.960938 632.796875 404.148438 634.78125 392.726562 637.628906 C 381.179688 640.394531 369.796875 643.84375 358.152344 646.230469 C 353.894531 646.914062 349.621094 647.554688 345.292969 647.683594 C 343.382812 647.960938 343.871094 650.738281 345.644531 650.570312 C 357.289062 650.570312 368.472656 646.832031 379.585938 643.773438 C 391.148438 640.519531 402.792969 637.503906 414.449219 634.601562 C 428.496094 631.472656 442.851562 629.964844 456.96875 627.226562 C 466.070312 625.34375 475.089844 623.066406 484.167969 621.085938 C 493.660156 618.933594 503.28125 617.523438 512.875 615.933594 C 520.105469 614.746094 527.15625 613.058594 534.515625 612.652344 C 535.617188 612.566406 536.402344 611.410156 536.261719 610.347656 C 536.554688 604.957031 507.484375 613.585938 503.113281 614.269531 Z M 503.101562 614.257812 " fill-opacity="1" fill-rule="nonzero"/><g clip-path="url(#142e7e6a58)"><path fill="#000000" d="M 233.535156 660.597656 C 231.359375 660.597656 229.179688 660.695312 227.015625 660.792969 C 214.253906 661.460938 201.492188 661.894531 188.730469 662.089844 C 178.230469 662.328125 167.746094 663.039062 157.246094 663.054688 C 150.625 662.914062 144.050781 662.117188 137.445312 661.8125 C 132.222656 661.742188 127.015625 662.160156 121.851562 662.929688 C 103.949219 666.125 85.785156 667.703125 67.648438 668.863281 C 56.980469 668.597656 46.339844 667.816406 35.671875 668.289062 C 35.113281 668.289062 34.652344 668.738281 34.652344 669.296875 C 34.652344 669.851562 35.113281 670.300781 35.671875 670.3125 C 38.660156 670.382812 41.648438 670.46875 44.652344 670.441406 C 52.066406 670.398438 59.480469 670.761719 66.894531 670.886719 C 77.726562 670.832031 88.3125 668.246094 99.089844 667.464844 C 111.125 666.769531 123.121094 665.359375 135.15625 664.855469 C 143.269531 664.703125 151.394531 665.175781 159.519531 665.300781 C 167.605469 665.566406 175.691406 665.917969 183.773438 665.457031 C 193.253906 664.882812 202.664062 663.457031 212.105469 662.480469 C 219.226562 661.742188 226.386719 661.894531 233.535156 661.964844 C 233.914062 661.964844 234.222656 661.65625 234.222656 661.28125 C 234.222656 660.902344 233.914062 660.597656 233.535156 660.597656 Z M 233.535156 660.597656 " fill-opacity="1" fill-rule="nonzero"/></g><path fill="#000000" d="M 177.128906 575.316406 C 177.492188 566.074219 177.421875 556.902344 176.722656 547.671875 C 176.777344 538.863281 176.359375 530.09375 175.367188 521.339844 C 174.808594 511.777344 174.054688 502.183594 171.445312 492.929688 C 170.691406 489.925781 169.921875 486.898438 168.667969 484.050781 C 167.425781 481.257812 165.511719 478.871094 164.085938 476.1875 C 161.027344 469.054688 155.738281 462.546875 148.296875 459.785156 C 146.394531 458.75 144.707031 457.3125 142.667969 456.542969 C 140.964844 455.902344 139.164062 455.777344 137.363281 455.707031 C 130.128906 455.160156 122.574219 455.875 115.984375 459.070312 C 106.085938 464.140625 98.167969 472.65625 92.585938 482.179688 C 86.859375 491.460938 84.640625 502.214844 83.242188 512.894531 C 81.664062 519.636719 79.863281 526.351562 79.136719 533.265625 C 78.578125 540.636719 78.496094 548.0625 78.355469 555.464844 C 78.609375 565.277344 79.890625 575.039062 79.765625 584.867188 C 79.710938 591.917969 78.914062 598.84375 78.496094 605.90625 C 78.175781 613.742188 77.628906 621.433594 76.945312 629.28125 C 76.570312 635.058594 75.621094 640.796875 75.523438 646.605469 C 75.285156 652.011719 76.652344 657.289062 77.324219 662.605469 C 77.394531 663 77.714844 663.292969 78.105469 663.292969 C 78.511719 663.292969 78.914062 662.929688 78.886719 662.507812 C 78.636719 657.566406 77.296875 652.734375 77.433594 647.765625 C 77.769531 636.234375 80.378906 624.867188 80.296875 613.308594 C 80.199219 605.628906 80.742188 597.964844 81.46875 590.3125 C 82.125 582.464844 82.390625 574.589844 82.613281 566.730469 C 82.601562 559.375 83.074219 552.027344 83.691406 544.699219 C 83.886719 534.910156 85.015625 525.207031 87.027344 515.628906 C 87.765625 511.597656 87.933594 507.476562 88.578125 503.429688 C 89.414062 499.226562 90.699219 495.09375 92.445312 491.183594 C 97.933594 480.699219 106.128906 471.832031 115.777344 464.90625 C 122.9375 459.949219 131.917969 458.457031 140.476562 458.695312 C 143.226562 458.945312 145.515625 460.871094 148.058594 461.820312 C 154.691406 463.789062 159.6875 469.445312 162.230469 475.753906 C 163.597656 478.980469 165.777344 481.789062 166.90625 485.125 C 168.472656 490.082031 168.988281 495.300781 169.894531 500.414062 C 171.054688 507.199219 171.261719 513.984375 171.417969 520.878906 C 171.558594 526.617188 172.226562 532.289062 172.171875 538.054688 C 172.046875 545.339844 172.617188 552.601562 173.332031 559.863281 C 173.636719 568.433594 173.820312 577.019531 174.683594 585.566406 C 175.382812 599.863281 174.742188 614.160156 173.636719 628.429688 C 172.171875 638.789062 172.171875 649.230469 172.019531 659.675781 C 172.019531 660.722656 172.898438 661.589844 173.929688 661.589844 C 174.964844 661.589844 175.84375 660.722656 175.84375 659.675781 C 175.84375 657.316406 175.96875 654.96875 175.941406 652.609375 C 175.914062 647.667969 175.773438 642.726562 175.800781 637.796875 C 175.953125 632.699219 176.261719 627.589844 175.996094 622.496094 C 175.730469 614.886719 175.898438 607.261719 176.09375 599.652344 C 176.792969 591.570312 177.128906 583.472656 177.042969 575.359375 Z M 177.128906 575.316406 " fill-opacity="1" fill-rule="nonzero"/><path fill="#000000" d="M 191.0625 535.972656 C 191.089844 536.351562 191.273438 536.65625 191.523438 536.867188 C 192.277344 540.902344 193.183594 544.894531 194.105469 548.886719 C 193.996094 549.109375 193.953125 549.347656 194.007812 549.585938 C 194.691406 552.851562 195.238281 556.160156 196.003906 559.414062 C 195.894531 561.984375 204.480469 562.109375 206.335938 562.402344 C 209.101562 562.78125 209.84375 561.160156 209.785156 558.71875 C 209.980469 553.621094 210.472656 548.148438 213.863281 544.042969 C 214.589844 543.164062 215.289062 541.976562 215.679688 540.804688 C 216.476562 540.246094 216.933594 539.183594 216.476562 538.191406 C 216.277344 537.730469 216.113281 537.273438 215.929688 536.8125 C 214.574219 533.070312 212.886719 525.109375 209.257812 521.507812 C 209.367188 520.183594 209.480469 518.84375 209.535156 517.515625 C 209.589844 514.738281 209.453125 507.628906 205.347656 508.246094 C 204.144531 508.550781 203.460938 509.597656 203.085938 510.84375 C 202.832031 510.980469 202.625 511.203125 202.457031 511.539062 C 201.953125 512.644531 202.484375 513.84375 202.554688 514.988281 C 202.582031 515.113281 202.597656 515.238281 202.625 515.367188 C 202.652344 515.671875 202.707031 515.964844 202.792969 516.257812 C 203.027344 517.472656 203.320312 518.703125 203.78125 519.859375 C 203.742188 519.859375 203.699219 519.875 203.65625 519.890625 C 199.734375 521.300781 193.871094 528.851562 192.5 532.761719 C 192.460938 532.886719 192.445312 533.011719 192.429688 533.152344 C 192.25 533.207031 192.054688 533.277344 191.871094 533.375 C 190.921875 533.894531 190.882812 535.066406 191.046875 536 Z M 206.296875 519.414062 C 206.101562 518.898438 205.933594 518.367188 205.78125 517.824219 C 206.003906 517.695312 206.226562 517.53125 206.449219 517.292969 C 206.421875 517.949219 206.367188 518.675781 206.296875 519.414062 Z M 204.84375 528.140625 C 205.222656 530.5 205.695312 532.847656 206.140625 535.191406 C 206.171875 535.316406 206.210938 535.441406 206.253906 535.554688 C 205.054688 535.582031 203.851562 535.554688 202.664062 535.441406 C 202.859375 534.324219 203.125 533.222656 203.503906 532.023438 C 203.910156 530.75 204.367188 529.453125 204.84375 528.140625 Z M 200.53125 540.230469 C 200.53125 540.230469 200.65625 540.230469 200.726562 540.230469 C 200.429688 542.605469 200.753906 545.144531 200.585938 547.476562 C 200.667969 551.289062 200.710938 555.183594 201.492188 558.925781 C 201.492188 558.953125 201.507812 558.96875 201.519531 558.980469 C 200.640625 558.898438 199.773438 558.773438 198.910156 558.605469 C 198.351562 551.109375 196.019531 543.804688 194.34375 536.488281 C 195.921875 537.1875 197.554688 537.773438 199.230469 538.207031 C 199.230469 538.332031 199.203125 538.445312 199.1875 538.570312 C 199.105469 539.394531 199.734375 540.148438 200.542969 540.230469 Z M 206.492188 559.304688 C 205.90625 559.277344 205.304688 559.246094 204.703125 559.21875 C 204.800781 558.996094 204.871094 558.757812 204.859375 558.464844 C 204.566406 554.695312 204.171875 550.925781 204.171875 547.128906 C 204.242188 544.460938 203.824219 541.667969 204.4375 539.058594 C 204.789062 539.085938 205.125 539.101562 205.472656 539.113281 C 206.269531 539.183594 207.09375 539.15625 207.886719 539.171875 C 207.496094 539.714844 207.273438 540.414062 207.09375 541.042969 C 206.519531 543.164062 206.085938 545.339844 205.695312 547.503906 C 205.542969 548.328125 206.210938 549.125 207.007812 549.238281 C 207.160156 549.265625 207.316406 549.238281 207.46875 549.238281 C 206.730469 552.128906 206.546875 555.199219 206.476562 559.304688 Z M 209.535156 544 C 209.730469 542.953125 209.96875 541.921875 210.289062 540.886719 C 210.792969 540.453125 210.917969 539.9375 210.804688 539.476562 C 211.210938 539.589844 211.617188 539.714844 211.992188 539.925781 C 211 541.390625 210.207031 542.730469 209.535156 544 Z M 211.195312 535.5 C 210.597656 535.386719 209.980469 535.359375 209.367188 535.414062 C 209.453125 535.164062 209.480469 534.898438 209.4375 534.632812 C 208.894531 531.714844 208.277344 528.8125 207.679688 525.894531 C 208.628906 527.539062 209.3125 529.632812 209.828125 530.808594 C 210.34375 532.355469 210.777344 533.933594 211.210938 535.5 Z M 205.835938 511.582031 C 206.335938 512.808594 206.4375 514.164062 206.476562 515.476562 C 206.226562 515.226562 205.878906 515.085938 205.542969 515.085938 C 205.484375 515.085938 205.417969 515.085938 205.359375 515.085938 C 205.261719 513.898438 205.445312 512.683594 205.847656 511.566406 Z M 203.183594 524.636719 C 202.761719 525.585938 202.332031 526.535156 201.96875 527.5 C 201.003906 529.925781 200.195312 532.425781 199.691406 534.980469 C 198.980469 534.828125 198.265625 534.648438 197.554688 534.394531 C 197.050781 534.269531 196.550781 534.058594 196.035156 533.835938 C 196.4375 533.109375 196.730469 532.246094 197.179688 531.660156 C 199.035156 529.371094 200.765625 526.453125 203.183594 524.621094 Z M 203.183594 524.636719 " fill-opacity="1" fill-rule="nonzero"/><path fill="#000000" d="M 62.691406 542.128906 C 62.691406 542.128906 62.664062 542.101562 62.648438 542.089844 C 62.566406 540.550781 62.4375 539.003906 62.132812 537.480469 C 61.125 532.886719 58.726562 527.304688 53.699219 526.144531 C 54.269531 526.117188 54.84375 525.765625 54.96875 525.125 C 55.988281 519.539062 57.230469 510.019531 52.457031 505.941406 C 51.269531 505.035156 49.46875 504.851562 48.449219 506.109375 C 45.949219 509.320312 47.929688 522.695312 49.496094 526.4375 C 49.539062 526.507812 49.578125 526.5625 49.621094 526.617188 C 44.972656 528.753906 43.226562 536.113281 42.402344 540.804688 C 42.179688 541.808594 43.671875 542.160156 43.925781 541.179688 C 44.425781 539.183594 44.902344 537.160156 45.515625 535.191406 C 46.453125 532.300781 47.847656 530.164062 49.425781 528.964844 C 48.546875 533.125 48.140625 537.382812 47.414062 541.570312 C 44.007812 542.019531 40.992188 543.011719 42.136719 545.257812 C 42.722656 546.222656 43.953125 546.222656 44.804688 545.636719 C 45.992188 545.285156 47.261719 545.1875 48.488281 545.046875 C 50.234375 544.882812 51.996094 544.796875 53.738281 544.8125 C 53.585938 545.507812 53.574219 546.320312 53.363281 546.863281 C 52.917969 549.363281 52.484375 551.890625 52.191406 554.417969 C 51.769531 557.769531 51.421875 561.117188 50.976562 564.457031 C 50.890625 565.097656 51.410156 565.699219 52.050781 565.769531 C 52.707031 565.835938 53.265625 565.347656 53.363281 564.691406 C 53.851562 561.355469 54.214844 558.003906 54.621094 554.652344 C 54.996094 551.375 55.542969 548.121094 56.003906 544.851562 C 57.007812 544.964844 58.136719 545.1875 59.058594 545.0625 C 57.46875 551.21875 57.175781 557.671875 56.167969 563.9375 C 55.933594 565.726562 55.652344 567.511719 55.289062 569.285156 C 55.066406 570.320312 55.667969 571.367188 56.714844 571.617188 C 57.707031 571.855469 58.851562 571.226562 59.046875 570.195312 C 59.410156 568.351562 59.632812 566.492188 59.828125 564.621094 C 60.441406 558.816406 60.929688 553.007812 61.769531 547.226562 C 61.796875 547.101562 61.824219 546.976562 61.851562 546.847656 C 62.4375 546.597656 62.898438 546.039062 62.84375 545.328125 C 62.816406 544.867188 62.789062 544.390625 62.761719 543.929688 C 63.152344 543.402344 63.109375 542.617188 62.703125 542.117188 Z M 52.398438 526.046875 C 52.457031 525.863281 52.46875 525.667969 52.441406 525.460938 C 52.59375 525.78125 52.859375 525.976562 53.152344 526.089844 C 52.886719 526.058594 52.636719 526.046875 52.386719 526.046875 Z M 50.820312 508.007812 C 54.578125 510.449219 53.265625 520.195312 52.414062 524.105469 C 52.359375 523.714844 52.191406 523.351562 51.9375 523.085938 C 51.3125 518.101562 50.320312 513.035156 50.820312 508.007812 Z M 54.789062 541.140625 C 54.117188 541.179688 52.609375 541.195312 50.863281 541.292969 C 51.074219 539.519531 51.3125 537.730469 51.519531 535.960938 C 51.632812 535.121094 51.730469 534.285156 51.828125 533.445312 C 52.316406 535.566406 52.902344 537.664062 53.515625 539.757812 C 53.824219 540.789062 54.96875 541.363281 55.960938 541.054688 C 58.78125 539.953125 56.308594 536.320312 56.042969 534.269531 C 55.511719 532.355469 55.082031 530.554688 54.675781 528.601562 C 56.113281 529.480469 57.453125 531.210938 58.527344 533.960938 C 59.492188 536.378906 59.6875 538.945312 59.6875 541.542969 C 58.320312 540.972656 56.101562 541.363281 54.789062 541.167969 Z M 54.789062 541.140625 " fill-opacity="1" fill-rule="nonzero"/><path fill="#000000" d="M 43.953125 570 C 44.636719 570.640625 45.640625 570.667969 46.519531 570.863281 C 48.769531 571.242188 51.058594 571.394531 53.347656 571.507812 C 54.925781 571.703125 55.890625 569.621094 54.703125 568.558594 C 54.035156 567.917969 53.070312 568.128906 52.230469 568.058594 C 51.519531 568.015625 50.753906 567.988281 49.941406 567.933594 C 49.941406 567.695312 49.941406 567.441406 49.871094 567.207031 C 49.734375 565.683594 49.648438 564.121094 49.566406 562.542969 C 49.273438 557.542969 49.273438 552.53125 49.144531 547.519531 C 49.144531 546.304688 47.527344 545.703125 46.71875 546.597656 C 46.4375 546.878906 46.339844 547.242188 46.324219 547.617188 C 46.257812 549.53125 46.1875 551.441406 46.199219 553.371094 C 46.285156 558.117188 46.199219 562.960938 46.96875 567.652344 C 46.730469 567.625 46.507812 567.582031 46.269531 567.554688 C 45.667969 563.671875 44.804688 559.835938 44.160156 555.953125 C 43.464844 552.128906 42.613281 548.328125 41.789062 544.519531 C 41.621094 543.765625 40.9375 543.21875 40.140625 543.34375 C 39.359375 543.472656 38.855469 544.226562 38.96875 544.992188 C 39.234375 547.015625 39.625 549.042969 40 551.050781 C 41.046875 556.761719 42.039062 562.488281 43.140625 568.183594 C 43.199219 568.449219 43.28125 568.65625 43.40625 568.839844 C 43.40625 569.246094 43.574219 569.648438 43.953125 569.984375 Z M 43.953125 570 " fill-opacity="1" fill-rule="nonzero"/><path fill="#000000" d="M 95.738281 540.035156 C 96.621094 526.242188 97.5 512.183594 100.960938 498.722656 C 101.476562 496.699219 102.21875 494.742188 103.167969 492.886719 C 103.949219 491.503906 104.730469 490.121094 105.5 488.726562 C 105.808594 488.167969 105.652344 487.457031 105.09375 487.121094 C 104.535156 486.785156 103.839844 486.996094 103.488281 487.527344 C 101.839844 490.039062 100.25 492.648438 99.230469 495.496094 C 95.320312 507.253906 94.59375 519.695312 93.4375 531.9375 C 92.554688 540.371094 92.863281 548.859375 92.402344 557.320312 C 92.109375 564.425781 91.605469 571.519531 91.550781 578.625 C 92.011719 588.761719 90.546875 598.773438 89.777344 608.839844 C 89.359375 617.257812 90.265625 625.664062 90.992188 634.042969 C 91.605469 641.105469 92.613281 648.15625 92.289062 655.261719 C 92.289062 657.511719 92.25 659.757812 92.261719 662.007812 C 92.261719 662.84375 92.917969 663.554688 93.769531 663.570312 C 96.03125 663.390625 95.25 660.570312 95.347656 658.964844 C 95.238281 655.613281 95.054688 652.277344 94.832031 648.925781 C 93.503906 635.171875 93.058594 621.320312 93.574219 607.527344 C 93.828125 601.609375 94.289062 595.703125 94.035156 589.769531 C 93.589844 582.171875 92.988281 574.578125 93.671875 566.96875 C 94.300781 557.992188 95.363281 549.042969 95.738281 540.035156 Z M 95.738281 540.035156 " fill-opacity="1" fill-rule="nonzero"/><path fill="#000000" d="M 165.621094 661.714844 C 166.824219 661.726562 168.039062 660.695312 167.984375 659.4375 C 167.871094 656.5625 167.675781 653.6875 167.367188 650.808594 C 166.585938 644.972656 166.613281 639.09375 166.222656 633.246094 C 164.6875 622.957031 165.105469 612.527344 165.273438 602.167969 C 165.007812 594.667969 164.296875 587.199219 164.339844 579.703125 C 163.90625 563.6875 162.523438 547.714844 162.3125 531.6875 C 162.230469 523.855469 162.566406 516.023438 161.28125 508.257812 C 160.554688 503.21875 160.359375 498.109375 159.296875 493.125 C 158.597656 490.023438 157.300781 487.105469 156.171875 484.148438 C 154.398438 479.957031 151.996094 475.769531 148.589844 472.710938 C 145.515625 470.394531 141.734375 469.011719 137.949219 468.441406 C 134.09375 468.117188 130.226562 469.222656 126.570312 470.339844 C 124.015625 471.078125 121.445312 471.789062 119.042969 472.976562 C 114.742188 474.933594 111.210938 478.183594 108.347656 481.898438 C 107.886719 482.835938 106.367188 483.589844 106.953125 484.746094 C 108.460938 486.5625 109.6875 483.460938 110.695312 482.597656 C 112.160156 480.851562 113.878906 479.261719 115.75 477.917969 C 115.484375 489.730469 114.042969 501.417969 115.007812 513.257812 C 115.300781 518.382812 114.855469 523.519531 115.246094 528.644531 C 115.609375 533.738281 116.585938 538.78125 117.171875 543.863281 C 117.3125 544.785156 118.625 544.558594 118.539062 543.695312 C 118.375 541.417969 118.148438 539.144531 117.980469 536.867188 C 117.6875 533.070312 117.4375 529.273438 117.410156 525.472656 C 117.757812 516.859375 117.324219 508.246094 117.507812 499.628906 C 117.800781 491.964844 118.734375 484.3125 118.316406 476.636719 C 118.316406 476.523438 118.316406 476.425781 118.289062 476.34375 C 119.308594 475.769531 120.371094 475.28125 121.472656 474.863281 C 123.804688 474.082031 126.21875 473.285156 128.691406 472.628906 C 128.761719 473.410156 128.832031 474.179688 128.914062 474.945312 C 129.417969 479.273438 128.914062 483.617188 129.179688 487.957031 C 129.332031 492.707031 129.960938 497.425781 130.074219 502.1875 C 130.507812 512.292969 129.960938 522.402344 130.171875 532.511719 C 130.828125 541.488281 130.253906 550.453125 130.3125 559.441406 C 130.589844 565.53125 130.101562 571.605469 130.058594 577.691406 C 130.394531 585.300781 130.871094 592.882812 130.730469 600.503906 C 130.730469 609.621094 129.363281 618.699219 130.15625 627.8125 C 130.351562 631.613281 129.976562 635.394531 129.933594 639.179688 C 130.199219 646.410156 130.171875 653.671875 130.96875 660.875 C 131.007812 661.226562 131.316406 661.492188 131.664062 661.492188 C 132.015625 661.492188 132.378906 661.167969 132.351562 660.804688 C 132.253906 658.335938 132.308594 655.863281 132.460938 653.40625 C 133.339844 645.363281 133.746094 637.226562 133.605469 629.140625 C 133.382812 625.386719 132.644531 621.671875 132.460938 617.914062 C 132.222656 612.609375 132.503906 607.304688 132.8125 602 C 133.046875 596.722656 133.632812 591.445312 133.550781 586.152344 C 133.132812 579.589844 133.453125 573.015625 133.144531 566.4375 C 132.265625 558.535156 131.777344 550.632812 131.945312 542.6875 C 131.402344 533.167969 132.417969 523.6875 132.613281 514.164062 C 132.714844 506.109375 132.613281 498.054688 131.875 490.023438 C 131.527344 485.347656 131.832031 480.640625 131.429688 475.980469 C 131.300781 474.679688 131.105469 473.394531 130.910156 472.113281 C 132.949219 471.664062 135.003906 471.371094 137.042969 471.328125 C 140.9375 471.886719 145.070312 473.285156 147.804688 476.214844 C 151.953125 481.703125 154.84375 488.222656 156.839844 494.785156 C 158.238281 501.082031 159.046875 507.492188 160.09375 513.859375 C 161.28125 524.273438 159.925781 534.828125 159.355469 545.257812 C 158.976562 551.21875 159.199219 557.195312 159.1875 563.15625 C 159.453125 575.707031 160.945312 588.203125 161.878906 600.714844 C 162.035156 605.78125 161.351562 610.808594 161.390625 615.878906 C 161.183594 621.8125 161.058594 627.746094 161.714844 633.664062 C 161.921875 637.839844 161.714844 642.042969 162.160156 646.214844 C 162.507812 650.125 163.082031 654.019531 163.375 657.945312 C 163.25 659.675781 163.585938 661.601562 165.679688 661.699219 Z M 165.621094 661.714844 " fill-opacity="1" fill-rule="nonzero"/><path fill="#000000" d="M 144.917969 588.066406 C 144.875 586.988281 144.652344 585.636719 143.492188 585.214844 C 141.996094 584.53125 140.558594 586.472656 141.621094 587.714844 C 141.636719 587.871094 141.648438 588.007812 141.664062 588.164062 C 141.664062 588.246094 141.664062 588.34375 141.664062 588.429688 C 138.339844 583.988281 139.804688 575.164062 141.371094 570.152344 C 141.675781 569.902344 141.816406 569.550781 141.832031 569.175781 C 142.304688 568.992188 142.652344 568.558594 142.652344 568.03125 C 142.652344 567.359375 142.097656 566.757812 141.425781 566.757812 C 141.242188 566.757812 141.078125 566.800781 140.921875 566.855469 C 140.839844 566.550781 140.753906 566.257812 140.644531 565.976562 C 140.476562 565.558594 139.972656 565.347656 139.539062 565.515625 C 138.746094 565.867188 139.066406 566.871094 139.09375 567.554688 C 138.355469 568.183594 138.144531 569.285156 138.285156 570.195312 C 136.511719 575.652344 135.253906 586.890625 139.960938 591.039062 C 142.347656 592.617188 145.097656 590.855469 144.902344 588.066406 Z M 144.917969 588.066406 " fill-opacity="1" fill-rule="nonzero"/><path fill="#000000" d="M 127.394531 585.078125 C 128.675781 580.148438 127.433594 575.039062 124.949219 570.695312 C 125.355469 568.226562 122.800781 566.589844 120.859375 568.296875 C 118.636719 569.773438 119.308594 573.222656 122.113281 573.238281 C 124.363281 577.789062 124.921875 583.695312 122.085938 588.105469 C 121.792969 587.996094 121.585938 587.742188 121.417969 587.476562 C 121 586.90625 120.160156 586.753906 119.558594 587.101562 C 117.816406 588.246094 119.671875 590.535156 121.039062 591.109375 C 124.726562 592.574219 126.777344 587.980469 127.394531 585.078125 Z M 127.394531 585.078125 " fill-opacity="1" fill-rule="nonzero"/><path fill="#000000" d="M 109.714844 490.121094 C 109.785156 489.523438 109.394531 488.964844 108.792969 488.867188 C 108.195312 488.769531 107.648438 489.199219 107.539062 489.789062 C 106.867188 493.347656 106.265625 496.921875 105.875 500.523438 C 104.914062 508.273438 106.574219 515.992188 106.855469 523.742188 C 106.867188 529.691406 106.726562 535.625 106.769531 541.570312 C 106.769531 542.046875 107.148438 542.453125 107.621094 542.453125 C 108.039062 542.453125 108.445312 542.144531 108.5 541.710938 C 108.738281 539.242188 108.851562 536.753906 108.921875 534.285156 C 109.074219 529.035156 109.351562 523.757812 108.890625 518.507812 C 108.292969 511.832031 107.496094 505.105469 108.613281 498.429688 C 108.992188 495.664062 109.351562 492.886719 109.703125 490.109375 Z M 109.714844 490.121094 " fill-opacity="1" fill-rule="nonzero"/><path fill="#000000" d="M 108.222656 563.519531 C 108.222656 562.457031 106.6875 562.527344 106.660156 563.492188 C 106.589844 566.089844 106.660156 568.699219 106.660156 571.3125 C 106.589844 584.058594 105.570312 596.777344 105.710938 609.523438 C 105.710938 617.175781 105.179688 624.796875 105.011719 632.4375 C 104.953125 638.3125 105.472656 644.191406 105.402344 650.082031 C 105.402344 653.40625 105.25 656.730469 105.234375 660.050781 C 105.234375 660.820312 105.847656 661.460938 106.617188 661.476562 C 107.382812 661.476562 108.011719 660.863281 108.039062 660.09375 C 108.097656 657.523438 108.304688 654.957031 108.335938 652.375 C 108.65625 644.359375 106.8125 636.429688 106.660156 628.414062 C 106.53125 615.25 107.902344 602.109375 107.832031 588.929688 C 108.152344 580.457031 108.765625 571.996094 108.222656 563.519531 Z M 108.222656 563.519531 " fill-opacity="1" fill-rule="nonzero"/><path fill="#000000" d="M 120.371094 660.695312 C 120.496094 661.6875 121.976562 661.460938 121.863281 660.511719 C 121.457031 657.078125 121.066406 653.644531 120.902344 650.179688 C 120.59375 644.09375 121.234375 638.035156 121.515625 631.960938 C 121.445312 620.039062 121.039062 608.101562 121.164062 596.175781 C 121.164062 595.128906 119.644531 595.171875 119.601562 596.148438 C 119.042969 606.550781 119.726562 616.992188 119.671875 627.410156 C 119.699219 638.507812 119.140625 649.636719 120.355469 660.695312 Z M 120.371094 660.695312 " fill-opacity="1" fill-rule="nonzero"/><path fill="#000000" d="M 139.679688 483.210938 C 139.707031 482.527344 139.722656 481.84375 139.777344 481.171875 C 139.832031 480.503906 139.875 479.832031 139.929688 479.164062 C 140.027344 477.878906 140.113281 476.59375 140.183594 475.308594 C 140.226562 474.582031 139.570312 473.96875 138.871094 473.953125 C 138.226562 473.953125 137.613281 474.429688 137.53125 475.085938 C 137.390625 476.160156 137.25 477.234375 137.140625 478.324219 C 137.082031 478.855469 137.042969 479.386719 136.984375 479.929688 C 136.929688 480.460938 136.859375 480.992188 136.832031 481.523438 C 136.777344 482.609375 136.71875 483.714844 136.664062 484.804688 C 136.636719 485.347656 136.59375 485.890625 136.609375 486.4375 C 136.609375 486.910156 136.621094 487.386719 136.636719 487.859375 C 136.648438 488.949219 136.679688 490.039062 136.691406 491.128906 C 136.691406 491.671875 136.761719 492.203125 136.789062 492.746094 C 136.832031 493.222656 136.859375 493.683594 136.902344 494.15625 C 137.054688 496.238281 137.207031 498.316406 137.363281 500.398438 C 137.390625 501.976562 137.433594 503.554688 137.402344 505.132812 C 137.363281 506.625 137.335938 508.121094 137.304688 509.597656 C 137.238281 512.710938 137.25 515.828125 137.167969 518.925781 C 137.082031 521.96875 137.011719 525 137 528.042969 C 137 529.550781 137.011719 531.074219 137.042969 532.582031 C 137.042969 533.304688 137.082031 534.019531 137.070312 534.746094 C 137.054688 535.441406 137.042969 536.15625 137.027344 536.851562 C 137.027344 537.203125 137.304688 537.496094 137.65625 537.496094 C 138.003906 537.496094 138.269531 537.214844 138.285156 536.867188 C 138.355469 535.316406 138.394531 533.753906 138.492188 532.203125 C 138.6875 528.796875 138.925781 525.390625 139.066406 521.984375 C 139.207031 518.550781 139.359375 515.113281 139.539062 511.664062 C 139.636719 509.960938 139.765625 508.273438 139.890625 506.570312 C 139.960938 505.691406 140.042969 504.808594 140.070312 503.917969 C 140.085938 503.078125 140.113281 502.242188 140.128906 501.390625 C 140.128906 500.902344 140.15625 500.414062 140.128906 499.921875 C 140.113281 499.503906 140.085938 499.101562 140.070312 498.679688 C 140.027344 497.855469 139.988281 497.019531 139.960938 496.195312 C 139.875 494.5625 139.765625 492.929688 139.667969 491.296875 C 139.636719 489.941406 139.625 488.601562 139.597656 487.261719 C 139.597656 486.578125 139.582031 485.890625 139.597656 485.207031 C 139.625 484.523438 139.652344 483.839844 139.679688 483.15625 Z M 139.679688 483.210938 " fill-opacity="1" fill-rule="nonzero"/><path fill="#000000" d="M 141.734375 603.226562 C 141.734375 602.054688 140 602.070312 139.972656 603.199219 C 139.792969 612.664062 139.722656 622.144531 139.695312 631.613281 C 139.554688 640.042969 139.890625 648.449219 141.285156 656.785156 C 141.382812 657.652344 142.722656 657.46875 142.613281 656.617188 C 142.066406 652.722656 141.703125 648.800781 141.621094 644.863281 C 141.410156 630.96875 141.984375 617.105469 141.734375 603.214844 Z M 141.734375 603.226562 " fill-opacity="1" fill-rule="nonzero"/><path fill="#000000" d="M 151.9375 634.390625 C 152.191406 642.140625 153.710938 649.75 154.398438 657.457031 C 154.410156 657.734375 154.703125 657.929688 154.96875 657.902344 C 155.261719 657.859375 155.445312 657.609375 155.417969 657.328125 C 155.191406 654.371094 155.054688 651.394531 154.871094 648.4375 C 154.285156 636.011719 154.621094 623.457031 153.824219 611.03125 C 153.351562 604.496094 153.90625 597.949219 153.769531 591.402344 C 153.210938 581.9375 152.46875 572.484375 152.695312 563.003906 C 152.34375 551.875 151.421875 540.832031 151.214844 529.664062 C 151.058594 520.546875 151.296875 511.429688 151.296875 502.3125 C 151.296875 501.863281 150.933594 501.488281 150.488281 501.472656 C 150.027344 501.472656 149.664062 501.835938 149.648438 502.285156 C 149.609375 503.46875 149.550781 504.65625 149.496094 505.84375 C 149.300781 516.425781 149.273438 527.039062 149.773438 537.621094 C 150.25 546.667969 151.8125 555.671875 151.253906 564.75 C 150.402344 573.238281 150.195312 581.738281 150.933594 590.242188 C 151.226562 597.183594 151.394531 604.121094 151.96875 611.058594 C 152.289062 618.835938 151.367188 626.613281 151.925781 634.390625 Z M 151.9375 634.390625 " fill-opacity="1" fill-rule="nonzero"/><g clip-path="url(#b3cdbffa63)"><path fill="#000000" d="M 292.332031 278.585938 C 295.488281 279.757812 298.632812 280.933594 301.828125 281.992188 C 307.175781 283.738281 312.507812 285.511719 317.871094 287.199219 C 321.808594 288.21875 325.789062 289.042969 329.710938 290.0625 C 338.730469 292.742188 347.792969 295.257812 356.785156 298.007812 C 362.789062 299.851562 368.457031 302.601562 374.390625 304.679688 C 381.375 307.054688 388.160156 309.957031 395.113281 312.414062 C 404.355469 315.613281 413.628906 318.65625 422.953125 321.601562 C 423.902344 321.953125 424.980469 321.503906 425.523438 320.679688 C 426.949219 323.222656 428.707031 325.566406 430.605469 327.773438 C 438.074219 336.933594 446.257812 345.449219 454.34375 354.0625 C 461.894531 362.09375 469.785156 369.800781 478.230469 376.890625 C 486.386719 384.207031 495.195312 390.757812 503.449219 397.960938 C 511.953125 405.332031 519.898438 413.316406 528.289062 420.816406 C 531.933594 424.140625 535.6875 427.378906 538.691406 431.316406 C 540.867188 434.191406 542.796875 437.289062 545.726562 439.496094 C 547.792969 441.074219 550.238281 438.140625 548.464844 436.382812 C 546.0625 434.332031 544.5 431.59375 542.640625 429.09375 C 540.703125 426.46875 538.425781 424.097656 535.996094 421.933594 C 521.238281 409.714844 506.382812 397.640625 491.914062 385.058594 C 472.523438 367.046875 453.226562 348.855469 435.605469 329.074219 C 433.441406 326.488281 431.136719 324.003906 429.195312 321.253906 C 428.300781 319.898438 427.476562 318.503906 426.667969 317.105469 C 426.304688 316.492188 425.480469 316.269531 424.867188 316.632812 C 424.585938 316.785156 424.378906 317.066406 424.28125 317.359375 C 420.398438 315.949219 416.449219 314.734375 412.511719 313.503906 C 400.097656 309.496094 387.347656 306.453125 374.753906 302.742188 C 370.078125 301.371094 365.609375 299.445312 361.058594 297.714844 C 352.261719 294.488281 343.351562 291.515625 334.429688 288.640625 C 329.140625 287.199219 323.734375 286.167969 318.402344 284.871094 C 309.871094 282.3125 301.4375 279.464844 292.960938 276.742188 C 291.675781 276.367188 291.230469 278.179688 292.347656 278.585938 Z M 292.332031 278.585938 " fill-opacity="1" fill-rule="nonzero"/></g><path fill="#000000" d="M 379.640625 614.367188 C 379.808594 616.003906 378.972656 619.019531 381.21875 619.394531 C 382.433594 619.617188 383.382812 618.167969 382.753906 617.121094 C 382.855469 614.269531 382.894531 611.410156 382.980469 608.5625 C 385.199219 584.6875 384.949219 560.644531 383.175781 536.742188 C 382.839844 531.058594 382.519531 525.042969 383.019531 519.304688 C 383.707031 513.0625 385.339844 506.960938 385.742188 500.675781 C 386.457031 493.097656 386.902344 485.25 390.367188 478.324219 C 391.679688 475.753906 393.03125 472.808594 396.046875 471.957031 C 396.578125 471.777344 397.125 471.609375 397.667969 471.46875 C 397.585938 473.132812 397.515625 474.804688 397.457031 476.46875 C 397.09375 487.203125 396.746094 497.957031 397.125 508.691406 C 397.292969 511.566406 397.457031 514.445312 397.613281 517.320312 C 394.652344 517.683594 391.707031 518.058594 388.746094 517.90625 C 388.71875 517.375 388.300781 516.886719 387.78125 516.746094 C 386.398438 516.382812 385.660156 518.15625 386.289062 519.21875 C 386.917969 520.503906 388.507812 520.628906 389.777344 520.699219 C 392.445312 520.714844 395.113281 520.433594 397.78125 520.167969 C 398.269531 528.796875 398.730469 537.425781 399.078125 546.054688 C 397.847656 546.09375 396.621094 546.136719 395.40625 546.234375 C 392.238281 546.402344 389.023438 547.101562 385.839844 546.613281 C 384.90625 545.605469 383.773438 547.226562 384.835938 547.953125 C 385.605469 548.453125 386.59375 548.441406 387.476562 548.539062 C 391.371094 548.636719 395.265625 548.289062 399.160156 548.246094 C 399.441406 555.449219 399.652344 562.667969 399.734375 569.886719 C 399.847656 575.386719 400.097656 580.875 400.027344 586.375 C 399.859375 592.335938 399.203125 598.269531 398.757812 604.21875 C 398.535156 607.304688 398.351562 610.375 398.171875 613.460938 C 396.914062 613.710938 395.671875 614.046875 394.46875 614.507812 C 393.367188 615.023438 391.121094 615.277344 391.707031 616.980469 C 391.941406 617.539062 392.613281 617.902344 393.199219 617.707031 C 394.792969 617.1875 396.382812 616.644531 398.003906 616.253906 C 397.988281 616.53125 397.976562 616.8125 397.945312 617.089844 C 397.792969 618.335938 397.488281 620.09375 399.148438 620.371094 C 401.0625 620.527344 400.964844 618.613281 401.03125 617.257812 C 401.074219 616.757812 401.128906 616.238281 401.171875 615.722656 C 403.824219 615.386719 406.492188 615.21875 409.117188 614.664062 C 410.527344 614.1875 413.628906 614.4375 413.277344 612.246094 C 413.082031 611.519531 412.328125 611.128906 411.617188 611.296875 C 410.375 611.632812 409.117188 611.855469 407.859375 612.105469 C 405.722656 612.457031 403.558594 612.652344 401.410156 612.929688 C 401.453125 612.332031 401.480469 611.730469 401.507812 611.128906 C 402.148438 600.085938 401.675781 589.015625 401.984375 577.957031 C 402.164062 571.351562 402.402344 564.71875 401.925781 558.117188 C 401.675781 554.820312 401.285156 551.527344 400.90625 548.246094 C 401.019531 548.246094 401.117188 548.246094 401.226562 548.246094 C 404.398438 548.230469 407.609375 546.960938 410.765625 547.785156 C 411.433594 547.964844 412.148438 547.5625 412.328125 546.890625 C 412.691406 545.007812 410.207031 545.105469 408.9375 545.019531 C 406.351562 545.019531 403.851562 545.773438 401.285156 545.929688 C 401.074219 545.929688 400.867188 545.941406 400.65625 545.957031 C 400.238281 542.296875 399.859375 538.652344 399.691406 534.96875 C 399.691406 529.957031 399.691406 524.957031 399.609375 519.957031 C 400.738281 519.859375 401.855469 519.777344 402.988281 519.722656 C 405.445312 519.722656 407.886719 519.679688 410.332031 519.792969 C 411.167969 519.820312 411.855469 519.078125 411.855469 518.269531 C 411.855469 517.460938 411.15625 516.761719 410.332031 516.746094 C 408.710938 516.71875 407.105469 516.71875 405.488281 516.746094 C 403.503906 516.679688 401.523438 516.84375 399.539062 517.070312 C 399.457031 512.9375 399.328125 508.804688 399.105469 504.65625 C 399.191406 494.589844 399.691406 484.523438 399.886719 474.457031 C 399.75 473.71875 400.054688 472.167969 399.847656 471.105469 C 401.773438 471.023438 403.617188 471.582031 404.929688 473.355469 C 408.894531 478.210938 412.21875 483.839844 413.53125 490.023438 C 414.828125 499.558594 415.289062 509.292969 415.511719 518.980469 C 415.734375 531.351562 415.847656 543.722656 414.96875 556.0625 C 413.90625 569.984375 413.824219 584 413.25 597.964844 C 413.179688 602.429688 413.460938 606.871094 413.445312 611.339844 C 413.320312 612.441406 413.039062 613.808594 414.492188 614.074219 C 415.261719 614.171875 415.890625 613.644531 416.042969 612.902344 C 416.515625 610.179688 416.449219 607.402344 416.546875 604.652344 C 416.671875 599.472656 416.8125 594.292969 416.894531 589.097656 C 416.949219 572.441406 415.664062 555.769531 416.644531 539.113281 C 417.273438 529.84375 418.445312 520.585938 418.515625 511.289062 C 418.625 505.285156 417.800781 499.335938 416.949219 493.402344 C 416.378906 488.90625 414.785156 484.605469 412.761719 480.574219 C 410.695312 476.746094 408.796875 472.628906 405.640625 469.554688 C 401.6875 465.980469 394.667969 467.308594 390.757812 470.367188 C 383.371094 478.058594 382.964844 489.523438 382.824219 499.601562 C 382.855469 506.75 381.511719 513.773438 381.082031 520.878906 C 380.789062 530.207031 381.472656 539.546875 381.375 548.875 C 381.582031 564.691406 381.289062 580.523438 380.3125 596.328125 C 380.3125 602.320312 379.363281 608.28125 379.640625 614.300781 Z M 379.640625 614.367188 " fill-opacity="1" fill-rule="nonzero"/><path fill="#000000" d="M 443.589844 532.945312 C 443.914062 539.996094 443.4375 547.046875 443.816406 554.097656 C 444.371094 559.484375 444.472656 564.902344 444.371094 570.320312 C 444.511719 579.882812 444.332031 589.53125 445.488281 599.039062 C 445.742188 600.785156 445.964844 602.53125 446.273438 604.261719 C 446.355469 604.734375 446.773438 605.085938 447.277344 605.027344 C 447.78125 604.957031 448.085938 604.511719 448.046875 604.023438 C 447.710938 600.714844 447.222656 597.40625 447.136719 594.082031 C 446.984375 582.144531 447.890625 570.179688 447.417969 558.242188 C 446.800781 552.335938 446.800781 546.390625 446.566406 540.453125 C 445.867188 533.238281 445.574219 526.117188 445.992188 518.910156 C 447.152344 519.902344 449.554688 518.980469 450.992188 518.925781 C 453.449219 518.492188 455.835938 517.753906 458.25 517.109375 C 458.292969 524.230469 458.515625 531.367188 458.390625 538.488281 C 458.363281 540.175781 458.320312 541.863281 458.28125 543.554688 C 456.019531 543.472656 453.757812 543.234375 451.523438 542.996094 C 450.542969 542.898438 449.539062 542.730469 448.5625 542.730469 C 447.109375 542.757812 446.96875 544.882812 448.394531 545.089844 C 451.660156 545.496094 454.929688 546.054688 458.210938 546.25 C 458.054688 552.363281 457.929688 558.492188 458.027344 564.621094 C 458.015625 570.710938 459.1875 576.699219 459.632812 582.746094 C 460.011719 588.972656 459.773438 595.214844 459.925781 601.441406 C 457.496094 602.207031 455.082031 603.117188 452.652344 603.644531 C 451.230469 603.953125 448.855469 603.714844 449.0625 605.824219 C 449.621094 608.351562 452.863281 606.761719 454.578125 606.507812 C 456.492188 605.976562 458.335938 605.320312 460.191406 604.707031 C 460.332031 604.929688 460.570312 605.097656 460.863281 605.097656 C 461.367188 605.054688 461.589844 604.722656 461.671875 604.246094 C 463.335938 603.742188 465.011719 603.339844 466.796875 603.15625 C 470.386719 602.726562 473.695312 606.214844 473.164062 600.15625 C 472.953125 594.152344 473.484375 588.148438 473.207031 582.160156 C 472.523438 573.113281 471.808594 564.035156 472.367188 554.949219 C 472.535156 551.414062 472.703125 547.867188 472.871094 544.335938 C 473.847656 544.167969 474.921875 543.820312 474.769531 542.617188 C 474.671875 541.894531 473.945312 541.292969 473.191406 541.417969 C 473.136719 541.417969 473.082031 541.445312 473.011719 541.445312 C 473.21875 537.535156 473.472656 533.613281 473.804688 529.71875 C 475.148438 516.386719 475.789062 502.714844 472.382812 489.621094 C 470.148438 482.988281 469.785156 474.484375 463.347656 470.367188 C 458.546875 467.167969 453.757812 470.199219 450.710938 474.207031 C 447.261719 478.15625 445.253906 483.15625 444.945312 488.390625 C 444.207031 494.855469 444.429688 501.363281 444.582031 507.839844 C 444.863281 516.21875 443.339844 524.496094 443.589844 532.929688 Z M 471.210938 555.964844 C 471.042969 564.691406 470.972656 573.433594 470.914062 582.160156 C 470.847656 588.21875 470.050781 594.234375 470.078125 600.296875 C 467.144531 599.679688 464.296875 600.15625 461.476562 600.964844 C 460.875 595.019531 461.15625 589.015625 461.085938 583.039062 C 461.03125 578.445312 460.570312 573.867188 460.429688 569.273438 C 460.332031 561.621094 460.542969 553.96875 460.710938 546.332031 C 464.226562 546.402344 467.632812 545.523438 471.042969 544.726562 C 471.140625 548.484375 471.238281 552.238281 471.195312 555.980469 Z M 461.574219 473.03125 C 464.8125 474.667969 466.363281 478.183594 467.496094 481.4375 C 468.652344 485.125 469.898438 488.878906 470.484375 492.71875 C 472.03125 504.027344 471.070312 515.53125 470.859375 526.898438 C 470.707031 531.867188 470.832031 536.851562 470.972656 541.824219 C 469.183594 542.199219 467.410156 542.660156 465.636719 543.039062 C 464.03125 543.359375 462.414062 543.5 460.777344 543.539062 C 460.972656 534.535156 461.085938 525.53125 460.582031 516.523438 C 461.855469 516.246094 463.140625 516.023438 464.4375 515.9375 C 465.832031 515.855469 467.230469 515.828125 468.625 515.855469 C 471.25 515.828125 471.238281 511.890625 468.625 511.859375 C 465.652344 511.777344 462.777344 512.222656 459.941406 512.878906 C 459.871094 510.117188 459.746094 507.367188 459.621094 504.601562 C 459.285156 493.90625 458.65625 483.210938 458.753906 472.503906 C 459.632812 472.347656 460.582031 472.476562 461.589844 473.03125 Z M 447.640625 492.203125 C 448.296875 487.609375 448.964844 482.820312 451.800781 478.953125 C 453.085938 477.292969 454.636719 474.875 456.519531 473.507812 C 455.988281 486.828125 457.234375 500.132812 457.679688 513.453125 C 455.375 514.054688 453.070312 514.738281 450.769531 515.335938 C 449.554688 515.769531 447.375 515.519531 446.214844 516.246094 C 446.257812 515.8125 446.285156 515.378906 446.328125 514.945312 C 446.746094 507.351562 446.398438 499.769531 447.652344 492.21875 Z M 447.640625 492.203125 " fill-opacity="1" fill-rule="nonzero"/><path fill="#000000" d="M 495.292969 523.03125 C 495.097656 530.445312 494.933594 537.859375 495.128906 545.257812 C 495.378906 551.777344 496.160156 558.257812 496.175781 564.789062 C 496.160156 573.363281 495.9375 581.9375 496.773438 590.464844 C 497.109375 592.265625 496.246094 595.480469 498.464844 596.21875 C 498.464844 596.261719 498.464844 596.316406 498.464844 596.359375 C 499.105469 598.984375 502.414062 597.363281 504.21875 597.085938 C 507.734375 596.300781 511.269531 595.421875 514.871094 595.019531 C 521.445312 595.046875 522.355469 596.289062 522.230469 588.859375 C 522.199219 579.507812 521.015625 570.195312 521.152344 560.839844 C 521.054688 551.207031 522.800781 541.683594 523.09375 532.0625 C 523.21875 522.976562 523.527344 513.828125 522.816406 504.769531 C 522.171875 497.984375 520.457031 491.335938 518.320312 484.886719 C 516.742188 481.0625 516.308594 474.707031 511.839844 473.1875 C 510.066406 472.738281 508.265625 473.367188 506.578125 473.925781 C 499.398438 475.617188 496.117188 483.363281 496.019531 490.152344 C 495.742188 496.460938 496.507812 502.785156 496.300781 509.097656 C 496.175781 513.746094 495.390625 518.367188 495.28125 523.015625 Z M 500.210938 594.402344 C 500.140625 594.195312 500.027344 594.011719 499.875 593.859375 C 499.832031 593.816406 499.777344 593.773438 499.722656 593.734375 C 498.96875 582.425781 499.273438 571.003906 498.730469 559.679688 C 498.28125 553.84375 497.90625 548.007812 497.585938 542.160156 C 498.046875 542.355469 498.660156 542.269531 499.175781 542.160156 C 502.152344 542.117188 505.125 542.3125 508.097656 542.507812 C 508.320312 544.78125 508.546875 547.058594 508.742188 549.335938 C 508.992188 556.105469 508.714844 562.890625 509.132812 569.648438 C 509.203125 577.441406 508.976562 585.105469 508.070312 592.867188 C 508.070312 592.882812 508.070312 592.894531 508.070312 592.921875 C 505.445312 593.425781 502.835938 594.027344 500.210938 594.390625 Z M 519.882812 565.921875 C 519.703125 574.648438 519.730469 583.375 519.128906 592.070312 C 516.65625 591.808594 514.214844 591.960938 511.769531 592.296875 C 511.796875 590.230469 511.867188 588.148438 511.785156 586.082031 C 511.644531 578.808594 511.15625 571.546875 510.429688 564.300781 C 510.164062 557.601562 510.652344 550.882812 510.207031 544.183594 C 510.179688 543.667969 510.152344 543.148438 510.125 542.632812 C 512.859375 542.800781 515.597656 542.953125 518.332031 542.898438 C 520.359375 542.871094 520.359375 539.828125 518.332031 539.796875 C 515.554688 539.855469 512.761719 539.910156 509.984375 539.839844 C 509.59375 532.609375 509.105469 525.390625 508.921875 518.128906 C 508.921875 517.265625 508.9375 516.398438 508.949219 515.519531 C 510.976562 515.378906 512.984375 515.269531 515.011719 515.226562 C 516.519531 515.210938 518.039062 515.183594 519.546875 515.101562 C 519.546875 515.101562 519.574219 515.101562 519.589844 515.101562 C 519.671875 517.683594 519.757812 520.28125 519.925781 522.863281 C 520.957031 537.203125 520.0625 551.554688 519.882812 565.90625 Z M 511.308594 475.726562 C 514.464844 476.734375 516.65625 487.566406 517.496094 490.90625 C 518.949219 497.71875 519.269531 504.644531 519.492188 511.582031 C 519.4375 511.582031 519.378906 511.582031 519.324219 511.582031 C 518.976562 511.609375 518.625 511.652344 518.292969 511.679688 C 515.191406 511.820312 512.105469 512.042969 509.035156 512.390625 C 509.160156 508.089844 509.398438 503.792969 509.425781 499.476562 C 509.339844 491.617188 509.425781 483.769531 509.398438 475.910156 C 510.023438 475.753906 510.667969 475.671875 511.324219 475.714844 Z M 499.316406 486.589844 C 500.042969 483.167969 501.953125 479.398438 505.097656 477.558594 C 505.65625 477.347656 506.214844 477.097656 506.773438 476.859375 C 506.714844 479.316406 506.605469 481.773438 506.4375 484.230469 C 506.15625 489.394531 506.367188 494.5625 506.382812 499.726562 C 506.410156 504.054688 506.339844 508.398438 506.324219 512.742188 C 506.242188 512.742188 506.15625 512.753906 506.074219 512.769531 C 503.964844 513.007812 501.84375 513.160156 499.734375 513.300781 C 498.953125 513.300781 498.003906 513.523438 497.402344 513.96875 C 497.695312 511.136719 497.988281 508.285156 498.085938 505.4375 C 498.421875 499.15625 498.183594 492.789062 499.34375 486.578125 Z M 497.179688 516.050781 C 497.65625 516.691406 498.703125 516.691406 499.191406 516.050781 C 501.578125 516.035156 503.953125 515.882812 506.324219 515.714844 C 506.351562 518.757812 506.421875 521.800781 506.617188 524.832031 C 506.871094 529.828125 507.332031 534.800781 507.832031 539.769531 C 507.777344 539.769531 507.707031 539.769531 507.652344 539.769531 C 505 539.660156 502.359375 539.519531 499.707031 539.671875 C 499.050781 539.714844 498.101562 539.769531 497.5 540.132812 C 497.25 535.441406 497.027344 530.75 496.832031 526.046875 C 496.636719 522.695312 496.871094 519.359375 497.195312 516.035156 Z M 497.179688 516.050781 " fill-opacity="1" fill-rule="nonzero"/><path fill="#000000" d="M 18.664062 455.71875 C 20.1875 455.734375 21.710938 455.734375 23.230469 455.847656 C 24.140625 455.902344 24.894531 455.050781 24.894531 454.183594 C 24.894531 453.054688 23.777344 452.300781 22.699219 452.566406 C 19.335938 452.675781 15.972656 452.675781 12.605469 452.773438 C 10.761719 453.054688 2.328125 452.382812 2.425781 454.703125 C 2.425781 455.21875 2.777344 455.679688 3.277344 455.816406 C 8.363281 455.539062 13.542969 455.636719 18.679688 455.734375 Z M 18.664062 455.71875 " fill-opacity="1" fill-rule="nonzero"/></g></g></g></svg>