<svg xmlns="http://www.w3.org/2000/svg" xmlns:xlink="http://www.w3.org/1999/xlink" width="1080" zoomAndPan="magnify" viewBox="0 0 810 1012.49997" height="1350" preserveAspectRatio="xMidYMid meet" version="1.0"><defs><filter x="0%" y="0%" width="100%" height="100%" id="145540ed61"><feColorMatrix values="0 0 0 0 1 0 0 0 0 1 0 0 0 0 1 0 0 0 1 0" color-interpolation-filters="sRGB"/></filter><clipPath id="7c6e666318"><path d="M 0.199219 39 L 809.800781 39 L 809.800781 974 L 0.199219 974 Z M 0.199219 39 " clip-rule="nonzero"/></clipPath><mask id="0664f2ea9f"><g filter="url(#145540ed61)"><rect x="-81" width="972" fill="#000000" y="-101.249997" height="1214.999964" fill-opacity="0.16"/></g></mask><clipPath id="38ad71ea77"><path d="M 15 57 L 723 57 L 723 868 L 15 868 Z M 15 57 " clip-rule="nonzero"/></clipPath><clipPath id="7387079212"><path d="M 658.039062 -0.0585938 L 809.796875 795.191406 L 82.289062 934.019531 L -69.464844 138.769531 Z M 658.039062 -0.0585938 " clip-rule="nonzero"/></clipPath><clipPath id="39f17f77c0"><path d="M 658.039062 -0.0585938 L 809.796875 795.191406 L 82.289062 934.019531 L -69.464844 138.769531 Z M 658.039062 -0.0585938 " clip-rule="nonzero"/></clipPath><clipPath id="8c831da6c4"><rect x="0" width="810" y="0" height="935"/></clipPath><mask id="b50722adb7"><g filter="url(#145540ed61)"><rect x="-81" width="972" fill="#000000" y="-101.249997" height="1214.999964" fill-opacity="0.45"/></g></mask><clipPath id="197bd0dbaa"><path d="M 0.390625 2 L 607 2 L 607 643 L 0.390625 643 Z M 0.390625 2 " clip-rule="nonzero"/></clipPath><clipPath id="8fc85fc4aa"><rect x="0" width="608" y="0" height="646"/></clipPath></defs><g clip-path="url(#7c6e666318)"><g mask="url(#0664f2ea9f)"><g transform="matrix(1, 0, 0, 1, 0.000000000000000028, 39)"><g clip-path="url(#8c831da6c4)"><g clip-path="url(#38ad71ea77)"><g clip-path="url(#7387079212)"><g clip-path="url(#39f17f77c0)"><path fill="#d9d9d9" d="M 473.785156 858.785156 C 462.253906 861.328125 450.597656 863.210938 438.8125 864.429688 C 410.078125 867.679688 381.167969 868.21875 352.25 866.011719 C 330.140625 864.394531 308.296875 862.382812 286.578125 857.429688 C 261.429688 851.585938 236.046875 846.300781 211.714844 837.550781 C 184.058594 827.550781 157.476562 815.113281 133.523438 797.539062 C 113.941406 783.078125 96.496094 766.324219 80.453125 747.925781 C 65.886719 730.964844 53.449219 712.566406 44.566406 692.113281 C 39.765625 681.355469 36.230469 670.015625 32.527344 658.707031 C 26.792969 641.257812 22.851562 623.300781 20.101562 605.285156 C 18.164062 592.433594 17.253906 579.5625 16.507812 566.65625 C 15.539062 548.988281 15.625 531.460938 16.90625 513.878906 C 18.445312 493.15625 21.933594 472.75 25.949219 452.414062 C 34.523438 410.089844 46.894531 368.761719 62.5625 328.519531 C 70.851562 307.195312 79.207031 286.203125 88.453125 265.382812 C 100.261719 239.097656 114.402344 214.25 131.410156 190.921875 C 146.273438 170.746094 163.234375 152.574219 182.09375 136.273438 C 206.554688 115.125 233.726562 98.265625 262.882812 84.632812 C 276.132812 78.5 289.933594 73.460938 304.09375 69.386719 C 314.667969 66.339844 325.472656 63.589844 336.304688 61.867188 C 353.324219 59.304688 370.566406 57.902344 387.730469 57.890625 C 408.636719 57.679688 429.359375 59.21875 450.167969 62.113281 C 480.324219 66.316406 509.625 74.113281 537.496094 86.132812 C 561.777344 96.433594 584.886719 108.675781 606.378906 124.144531 C 623.695312 136.636719 639.011719 151.222656 652.957031 167.617188 C 665.558594 182.378906 676.765625 197.921875 685.839844 214.902344 C 693.84375 229.855469 700.421875 245.425781 705.269531 261.835938 C 710.601562 279.875 714.90625 297.9375 717.949219 316.582031 C 719.671875 327.414062 720.535156 338.234375 721.234375 349.089844 C 721.953125 360.96875 722.480469 372.714844 722.839844 384.488281 C 723.417969 412.703125 720.855469 440.660156 714.09375 468.214844 C 711.867188 477.226562 709.109375 486.164062 706.320312 494.933594 C 702.882812 505.71875 700.898438 516.914062 698.914062 528.105469 C 695.492188 548.84375 694.511719 569.804688 695.617188 590.878906 C 695.996094 596.472656 696.574219 602.199219 697.617188 607.664062 C 698.125 610.316406 699.292969 612.839844 700.261719 615.230469 C 704.105469 625.480469 707.621094 635.796875 710.304688 646.273438 C 713.890625 659.664062 715.625 673.242188 714.476562 687.019531 C 712.355469 713.691406 704.136719 738.089844 687.613281 759.441406 C 674.53125 776.359375 658.632812 790.207031 640.542969 801.554688 C 622.78125 812.84375 603.71875 821.800781 583.949219 828.835938 C 569.8125 833.9375 555.484375 838.902344 541.027344 843.207031 C 533.234375 845.550781 525.210938 847.597656 517.160156 849.476562 C 503.308594 852.464844 488.757812 856.269531 473.785156 858.785156 Z M 473.785156 858.785156 " fill-opacity="1" fill-rule="nonzero"/></g></g></g></g></g></g></g><g mask="url(#b50722adb7)"><g transform="matrix(1, 0, 0, 1, 90, 149)"><g clip-path="url(#8fc85fc4aa)"><g clip-path="url(#197bd0dbaa)"><path fill="#000000" d="M 606.03125 535.644531 C 604.324219 526.449219 601.964844 517.3125 602.613281 507.816406 C 603.226562 498.804688 601.15625 490.074219 599.640625 481.300781 C 596.191406 464.007812 593.253906 446.613281 590.066406 429.273438 C 585.433594 405.179688 576.015625 382.359375 571.339844 358.289062 C 568.3125 342.558594 567.558594 326.503906 564.324219 310.796875 C 563.46875 306.648438 561.382812 303.085938 560.042969 299.210938 C 558.027344 293.367188 557.554688 287.046875 554.464844 281.554688 C 551.230469 275.808594 551.351562 269.714844 552.871094 263.519531 C 558.460938 253.308594 532.492188 242.800781 524.730469 240.761719 C 518.941406 240.019531 519.402344 235.980469 517.683594 231.140625 C 514.964844 223.253906 514 215.015625 512.476562 206.867188 C 510.988281 198.925781 511.675781 190.15625 505.40625 183.589844 C 504.785156 182.9375 505.238281 181.984375 505.566406 181.242188 C 508.367188 174.832031 508.1875 167.796875 509.800781 161.125 C 512.605469 145.949219 517.457031 131.527344 522.820312 117.074219 C 523.109375 116.148438 523.941406 115.027344 522.980469 114.15625 C 519.984375 111.441406 521.410156 108.445312 522.292969 105.484375 C 525.878906 93.917969 517.113281 95.855469 516.671875 90.09375 C 517.683594 83.324219 518.105469 76.320312 522.269531 70.511719 C 525.070312 66.613281 525.972656 62.253906 526.644531 57.675781 C 527.28125 53.355469 527.441406 48.671875 529.316406 44.894531 C 532.203125 39.0625 531.046875 32.597656 533.375 26.808594 C 533.578125 26.296875 533.425781 25.53125 533.207031 24.976562 C 532.546875 23.324219 533.175781 20.765625 530.84375 20.257812 C 528.578125 19.769531 527.722656 21.832031 526.769531 23.472656 C 526.128906 24.574219 526.089844 26.414062 523.800781 26.042969 C 523.464844 22.011719 526.253906 7.785156 520.800781 7.667969 C 518.6875 7.433594 517.976562 9.257812 517.191406 10.632812 C 515.535156 15.714844 514.375 21.097656 512.777344 26.234375 C 512.476562 27.289062 512.710938 28.921875 510.238281 28.417969 C 510.253906 20.636719 516.378906 13.152344 512.902344 5.542969 C 511.472656 2.425781 505.648438 2.671875 505.316406 6.316406 C 504.160156 11.796875 502.066406 17.109375 502.546875 22.886719 C 502.714844 24.894531 502.824219 27.023438 500.726562 28.824219 C 498.796875 20.992188 501.980469 13.734375 500.597656 5.902344 C 499.96875 0.707031 495.289062 3.199219 494.609375 6.957031 C 488.300781 16.722656 493.945312 27.839844 487.886719 37.917969 C 487.246094 32.421875 486.328125 26.773438 479.898438 27.667969 C 476.707031 27.871094 477.59375 30.523438 477.320312 32.421875 C 475.941406 42.894531 473.847656 54.78125 480.734375 63.824219 C 484.398438 68.8125 488.996094 76.121094 485.761719 82.148438 C 481.515625 90.371094 482.714844 99.605469 478.753906 107.847656 C 476.308594 111.980469 474.425781 116.320312 474.589844 121.40625 C 474.65625 123.585938 473.84375 126.0625 472.695312 127.957031 C 468.3125 135.199219 466.601562 143.402344 464.019531 151.269531 C 462.492188 156.601562 454.03125 155.964844 448.679688 164.019531 C 445.210938 168.347656 440.460938 170.992188 436.226562 174.316406 C 435.433594 174.9375 434.34375 175.851562 433.40625 175.355469 C 428.332031 172.6875 423.214844 174.847656 418.148438 175.09375 C 397.6875 176.589844 378.03125 177.636719 357.3125 176.605469 C 360.347656 166.335938 366.046875 135.105469 352.34375 131.46875 C 347.230469 130.988281 344.703125 125.761719 340.039062 124.582031 C 335.316406 124.183594 330.734375 122.363281 325.839844 123.542969 C 322.8125 124.273438 319.671875 124.664062 316.5625 124.863281 C 304.636719 125.621094 294.613281 129.902344 288.125 140.386719 C 284.261719 148.242188 275.464844 135.570312 261.433594 137.6875 C 245.113281 138.554688 229.332031 150.425781 228.886719 167.597656 C 229.648438 174.25 216.34375 172.257812 211.964844 173.007812 C 188.890625 172.492188 165.863281 175.023438 142.773438 175.5 C 137.210938 175.417969 129.714844 177.4375 126.328125 171.824219 C 114.019531 154.613281 105.828125 135.042969 99.449219 115.1875 C 96.164062 110.726562 94.539062 105.597656 93.15625 100.3125 C 92.402344 97.421875 93.433594 93.039062 88.15625 93.144531 C 86.617188 92.164062 87.390625 88.054688 86.925781 86.425781 C 88.40625 85.515625 89.285156 86.867188 90.589844 87.171875 C 102.417969 90.796875 99.53125 78.925781 106.429688 72.289062 C 110.171875 73.925781 117.113281 80.953125 119.683594 75.175781 C 121.671875 69.652344 122.007812 64.328125 119.128906 58.882812 C 115.761719 51.679688 116.203125 60.21875 112.796875 58.003906 C 110.148438 57.113281 110.449219 55.402344 110.867188 53.148438 C 112.542969 46.453125 110.144531 47.695312 104.679688 45.691406 C 108.585938 37.382812 101.214844 39.0625 103.273438 33.941406 C 105.9375 28.660156 99.632812 20.496094 94.773438 24.898438 C 92.996094 26.75 91.160156 28.121094 88.910156 29.234375 C 87.75 29.808594 87.566406 32.183594 85.792969 31.75 C 84.234375 31.375 82.871094 30.253906 81.390625 29.515625 C 78.011719 25.269531 75.167969 20.386719 71.371094 28.328125 C 84.507812 26.828125 72.542969 36.25 76.753906 46.882812 C 83.238281 39.683594 70.894531 42.761719 82.902344 34.230469 C 84.726562 37.40625 81.175781 40.265625 82.667969 43.496094 C 86.050781 42.339844 88.6875 38.683594 92.722656 40.304688 C 93.746094 43.089844 90.726562 44.847656 91.335938 47.894531 C 98.570312 43.644531 99.980469 48.488281 106.90625 49.671875 C 111.359375 51.503906 107.101562 57.386719 105.3125 59.746094 C 107.128906 60.972656 108.460938 59.894531 109.855469 59.761719 C 112.507812 59.285156 113.546875 62 111.816406 63.785156 C 109.949219 66.515625 107.792969 66.066406 105.492188 64.261719 C 102.765625 62.09375 100.183594 64.714844 102.464844 67.359375 C 104.136719 70.933594 103.742188 72.445312 100.320312 73.683594 C 97.980469 74.53125 95.546875 75.25 93.328125 73.085938 C 92.824219 72.59375 91.75 72.410156 91.136719 73.308594 C 90.085938 75.863281 93.726562 78.355469 96.246094 77.640625 C 97.496094 77.328125 98.796875 77.765625 99.339844 79.136719 C 99.96875 80.722656 98.984375 82.027344 98.105469 83.09375 C 94.40625 88.3125 85.140625 79.683594 88.496094 75.890625 C 90.613281 73.085938 90.902344 70.789062 88.101562 68.492188 C 83.8125 67.800781 75.15625 68.777344 76.683594 75.289062 C 83.402344 65.757812 93.378906 71.828125 85.992188 74.84375 C 84.542969 75.183594 82.324219 73.273438 81.53125 75.203125 C 81.109375 76.058594 81.566406 77.179688 82.339844 77.222656 C 85.515625 77.390625 84.796875 80.101562 85.492188 81.8125 C 86.035156 83.144531 85.410156 84.390625 84.078125 84.820312 C 82.21875 85.351562 81.308594 83.140625 81.003906 81.648438 C 78.519531 76.382812 74.734375 80.503906 74.785156 84.628906 C 71.570312 83.109375 74.453125 76.171875 72.429688 73.433594 C 66.640625 75.410156 73.84375 82.902344 68.816406 84.617188 C 68.054688 84.71875 67.015625 85.019531 66.507812 84.199219 C 65.53125 82.617188 66.644531 80.011719 63.699219 79.324219 C 59.664062 78.390625 64.609375 75.738281 63.042969 74.214844 C 65.839844 73.925781 67.550781 71.480469 67.765625 68.933594 C 68.164062 66.582031 63.8125 66.03125 65.109375 63.035156 C 62.003906 64.890625 60.097656 61.726562 57.574219 61.300781 C 53.925781 61.03125 55.28125 65.078125 56.96875 67.121094 C 50.433594 67.535156 47.441406 79.605469 41.226562 75.261719 C 40.039062 73.738281 43.09375 73.285156 42.152344 71.792969 C 39.867188 71.550781 36.820312 73.417969 36.992188 75.972656 C 37.542969 79.949219 42.183594 77.003906 43.351562 80.699219 C 38.628906 82.621094 35.210938 86.554688 31.457031 90.496094 C 27.035156 82.476562 30.917969 81.5 34.285156 75.417969 C 32.445312 76.84375 29.015625 75.734375 28.675781 78.914062 C 28.277344 82.613281 28.304688 86.414062 28.652344 90.121094 C 29.089844 94.78125 34.050781 92.859375 36.085938 90.273438 C 40.839844 85.910156 45.300781 85.066406 50.9375 88.941406 C 47.546875 79.375 56.441406 84.636719 60.207031 80.425781 C 58.75 84.796875 58.152344 89.414062 53.386719 91.425781 C 53.546875 93.203125 51.136719 93.019531 50.910156 94.761719 C 57.855469 96.664062 62.589844 92.355469 67.175781 88.859375 C 70.300781 93.417969 70.476562 97.890625 68.433594 102.597656 C 67.148438 107.921875 68.585938 114.050781 67.105469 119.308594 C 63.316406 136.90625 86.6875 140.878906 93.113281 153.871094 C 96.273438 161.34375 101.070312 168.011719 103.632812 175.746094 C 101.1875 177.234375 101.261719 177.25 100.078125 182.238281 C 96.179688 198.664062 92.925781 215.207031 91.253906 232.015625 C 90.917969 235.402344 89.472656 237.457031 86.28125 238.335938 C 81.082031 239.613281 61.148438 250.261719 60.195312 255.378906 C 59.097656 265.726562 54.472656 275.402344 54.421875 285.933594 C 54.0625 289.734375 50.65625 292.441406 50.308594 296.308594 C 43.054688 322.429688 40.664062 349.496094 33.625 375.652344 C 26.109375 403.765625 17.871094 431.597656 13.683594 460.515625 C 10.226562 482.328125 10.71875 505.289062 2.527344 526.058594 C 0.859375 529.445312 0.414062 533.144531 0.816406 537.019531 C 1.460938 543.222656 1.835938 549.460938 2.121094 555.695312 C 2.308594 559.863281 2.679688 560.816406 6.773438 561.601562 C 14.113281 563.011719 21.339844 565.070312 28.859375 565.554688 C 31.886719 565.75 34.925781 566.234375 37.691406 568.230469 C 35.964844 570.582031 32.0625 570.242188 31.933594 573.707031 C 31.183594 581.039062 33.96875 590.414062 42.902344 589.726562 C 60.4375 592.035156 54.796875 580.839844 56.292969 569.488281 C 59.644531 592.417969 61.347656 614.238281 67.027344 636.777344 C 67.53125 639.351562 69.054688 640.492188 71.601562 641.136719 C 85.582031 644.453125 99.730469 641.726562 113.820312 641.097656 C 121.886719 639.9375 119.882812 628.636719 120.144531 622.597656 C 119.359375 608.667969 120.773438 594.648438 118.453125 580.773438 C 118.234375 577.570312 118.1875 575.171875 122.492188 575.226562 C 170.765625 574.941406 219.023438 576.835938 267.3125 576.3125 C 339.113281 575.640625 411.199219 579.144531 482.816406 572.453125 C 487.632812 571.914062 488.285156 572.488281 488.484375 577.246094 C 488.449219 594.535156 489.449219 611.820312 489.789062 629.109375 C 489.378906 637.359375 491.820312 637 499.101562 637.714844 C 512.289062 639.015625 525.28125 636.605469 538.355469 635.683594 C 543.660156 633.863281 543.652344 626.382812 543.613281 621.664062 C 542.734375 606.027344 546.921875 590.726562 546.617188 575.082031 C 546.882812 567.753906 546.851562 567.753906 554.183594 567.25 C 568.472656 566.089844 582.84375 564.695312 596.9375 561.800781 C 600.417969 561.054688 602.804688 559.058594 603.027344 555.792969 C 603.5 548.859375 607.664062 542.714844 606.035156 535.644531 Z M 89.699219 37.730469 C 88.777344 37.0625 88.53125 35.289062 90.175781 35.378906 C 91.566406 35.679688 91.191406 38.496094 89.699219 37.730469 Z M 97.132812 43.160156 C 95.445312 42.734375 95.683594 41.332031 95.71875 40.152344 C 95.753906 38.972656 94.457031 37.917969 95.445312 36.601562 C 97.351562 35.707031 98.613281 37.027344 99.535156 38.234375 C 100.664062 39.796875 99.621094 43.882812 97.132812 43.160156 Z M 96.078125 28.546875 C 95.675781 27.769531 96.367188 26.761719 97.195312 26.738281 C 99.710938 26.667969 100.605469 28.410156 101.09375 30.511719 C 98.554688 31.777344 97.085938 30.488281 96.078125 28.546875 Z M 112.394531 66.585938 C 113.910156 65.023438 113.828125 62.746094 115.394531 61.335938 C 116.710938 64.570312 120.070312 67.667969 118.1875 71.285156 C 117.226562 73.453125 116.148438 74.546875 113.578125 73.015625 C 109.601562 70.648438 109.214844 69.871094 112.394531 66.585938 Z M 46.613281 79.636719 C 47.304688 78.386719 49.773438 76.964844 49.859375 79.363281 C 48.898438 80.34375 47.78125 80.351562 46.613281 79.636719 Z M 51.246094 74.628906 C 51.089844 74.324219 51.597656 73.34375 52.027344 73.125 C 54.652344 71.796875 55.300781 74.8125 57.132812 75.566406 C 54.777344 76.894531 52.589844 77.238281 51.246094 74.628906 Z M 59.867188 71.992188 C 56.648438 66.636719 70.953125 66.9375 62.863281 74.066406 C 62.863281 74.066406 62.859375 74.066406 62.859375 74.0625 C 62.132812 74.394531 61.40625 74.722656 60.664062 75.058594 C 58.71875 74.511719 60.503906 73.015625 59.867188 71.992188 Z M 551.351562 285.242188 C 563.703125 310.191406 562.582031 338.195312 567.96875 364.890625 C 570.269531 376.925781 574.800781 388.339844 577.992188 400.121094 C 586.359375 427.636719 590.425781 456.109375 595.953125 484.28125 C 599.136719 497.972656 597.527344 512.046875 599.175781 525.914062 C 599.386719 529.484375 598.855469 529.984375 595.328125 529.773438 C 591.382812 529.539062 587.457031 529.003906 583.511719 528.769531 C 578.621094 528.476562 577.890625 528.195312 577.714844 523.644531 C 577.4375 516.574219 575.027344 510.207031 572.152344 503.921875 C 569.820312 498.820312 569.648438 498.792969 564.160156 499.539062 C 561.476562 499.902344 558.75 499.90625 556.066406 500.261719 C 551.929688 500.925781 551.851562 496.597656 551.730469 493.710938 C 552.175781 474.21875 550.164062 454.8125 549.757812 435.34375 C 548.808594 412.226562 548.394531 388.878906 545.832031 365.890625 C 544.902344 361.25 544.902344 356.792969 545.878906 352.265625 C 547.339844 340.863281 545.476562 329.296875 547.925781 317.933594 C 547.847656 306.875 547.246094 295.9375 551.351562 285.242188 Z M 505.214844 328.035156 C 504.253906 320.652344 503.988281 313.171875 502.773438 305.808594 C 502.238281 302.566406 504.382812 302.371094 506.546875 302.386719 C 521.164062 302.5 527.390625 307.359375 531.691406 321.273438 C 539.265625 346.242188 543.542969 372.75 543.425781 398.78125 C 546.15625 431.492188 546.523438 462.640625 547.515625 495.035156 C 547.574219 499.785156 547.398438 499.695312 542.894531 500 C 536.679688 500.414062 530.46875 500.917969 524.269531 501.523438 C 521.246094 501.820312 520.179688 500.652344 520.246094 497.667969 C 520.519531 486.042969 520.316406 474.417969 521.890625 462.839844 C 522.3125 417.558594 509.648438 373.023438 505.214844 328.035156 Z M 83.652344 499.230469 C 132.351562 499.65625 180.710938 499.363281 229.425781 499.394531 C 262.402344 500.269531 295.324219 497.523438 328.304688 498.292969 C 354.953125 499.816406 381.511719 498.085938 408.109375 497.082031 C 439.585938 496.832031 471.0625 495.527344 502.234375 490.765625 C 508.128906 490.925781 517.417969 488.921875 516.265625 498.378906 C 516.007812 500.710938 515.53125 502.53125 512.292969 502.847656 C 497.324219 504.3125 482.269531 504.015625 467.300781 505.289062 C 424.660156 508.167969 381.894531 508.25 339.199219 508.597656 C 307.78125 508.757812 276.335938 511.835938 244.90625 510.164062 C 219.417969 508.3125 194.074219 510.636719 168.625 511.265625 C 140.304688 511.457031 111.984375 510.035156 83.753906 508.78125 C 82.855469 505.4375 84.925781 502.460938 83.652344 499.230469 Z M 515.234375 483.828125 C 515.199219 485.347656 514.242188 485.835938 512.785156 486.011719 C 457.476562 493.617188 401.332031 494.285156 345.589844 494.554688 C 323.867188 493.832031 302.167969 493.472656 280.511719 495.464844 C 220.980469 496.832031 161.363281 495.1875 101.882812 496.246094 C 97.453125 496.109375 82.53125 498.457031 83.171875 491.246094 C 81.746094 446.113281 84.082031 400.667969 90.277344 355.945312 C 93.648438 338.042969 96.96875 319.921875 103.230469 302.796875 C 103.40625 302.355469 103.011719 301.679688 102.8125 300.820312 C 100.585938 302.042969 100.0625 303.945312 99.488281 305.972656 C 95.003906 321.769531 90.144531 337.523438 87.941406 353.8125 C 80.882812 391.742188 81.234375 430.328125 78.777344 468.691406 C 78.316406 481.078125 80.152344 493.5 79.628906 505.941406 C 79.738281 508.582031 78.578125 509.230469 76.261719 508.972656 C 70.347656 508.050781 64.289062 506.929688 58.253906 507.480469 C 56.425781 507.863281 55.554688 506.96875 55.417969 505.152344 C 53.84375 493.546875 54.382812 481.953125 54.632812 470.269531 C 53.601562 440.550781 64.84375 412.066406 64.992188 382.40625 C 65.4375 363.757812 69.773438 345.835938 73.105469 327.648438 C 74.25 320.597656 76.941406 314.046875 78.675781 307.203125 C 80.1875 301.222656 83.765625 298.320312 90.046875 298.492188 C 129.476562 296.871094 168.820312 299 208.238281 300.050781 C 277.996094 301.152344 347.832031 301.898438 417.605469 302.316406 C 377.363281 306.617188 337.015625 307.183594 296.570312 306.058594 C 336.464844 310.960938 377.101562 307.414062 417.179688 305.019531 C 442.777344 303.777344 468.40625 304.910156 494 303.621094 C 500.019531 303.28125 499.207031 310.421875 500.128906 314.480469 C 503.410156 363.605469 516.71875 411.636719 517.84375 460.914062 C 517.980469 468.671875 515.40625 476.109375 515.234375 483.824219 Z M 94.074219 295.292969 C 107.375 291.441406 121.566406 292.136719 135.1875 289.804688 C 145.734375 288.433594 155.933594 290.878906 166.222656 292.242188 C 180.183594 294.765625 194.328125 293.300781 208.277344 296.15625 C 185.414062 296.769531 162.949219 296.652344 140.175781 294.933594 C 124.816406 293.570312 109.453125 296.351562 94.078125 295.292969 Z M 211.769531 296.355469 C 213.117188 295.703125 214.382812 295.441406 215.652344 296.53125 C 214.296875 297.292969 213.042969 297.328125 211.769531 296.355469 Z M 511.027344 220.613281 C 511.734375 225.167969 513.144531 229.492188 514.277344 233.90625 C 514.757812 235.761719 516.660156 237.933594 513.902344 239.328125 C 505.988281 242 506.402344 225.429688 504.609375 220.46875 C 504.070312 211.84375 497.890625 196.296875 503.441406 189.375 C 508.085938 194.015625 509.074219 213.132812 511.027344 220.613281 Z M 499.96875 239.367188 C 482.621094 240.179688 466.347656 243.753906 449.015625 246.519531 C 448.019531 240.125 451.019531 235.347656 454.242188 231.058594 C 456.9375 227.480469 460.203125 224.117188 464.511719 222.148438 C 465.425781 221.726562 466.527344 221.136719 466.953125 220.320312 C 473.507812 208.589844 487.269531 208.769531 497.433594 201.546875 C 499.59375 213.179688 501.738281 224.109375 503.597656 235.089844 C 504.296875 239.214844 503.992188 239.464844 499.96875 239.367188 Z M 479.730469 45.074219 C 481.148438 41.59375 480.945312 37.449219 481.996094 33.507812 C 483.597656 39.429688 484.238281 45.605469 487.871094 50.765625 C 491.082031 51.671875 492.875 32.507812 493.792969 29.386719 C 495.265625 22.6875 491.269531 15.386719 497.480469 10.019531 C 497.050781 16.957031 496.683594 23.101562 496.285156 29.246094 C 496.148438 31.296875 495.457031 33.59375 498.1875 34.5 C 501.050781 35.449219 502.273438 33.347656 503.582031 31.390625 C 505.453125 28.59375 505.21875 25.421875 505.238281 22.332031 C 505.273438 16.894531 506.175781 11.660156 508.234375 5.792969 C 516.246094 15.089844 503.519531 26.132812 507.890625 36.992188 C 517.582031 34.71875 514.199219 16.957031 521.125 11.65625 C 520.128906 19.40625 520.957031 26.667969 518.175781 33.515625 C 516.289062 37.378906 520.539062 38.960938 522.550781 35.597656 C 525.523438 32.253906 524.941406 27.480469 529.320312 24.957031 C 530.785156 27.15625 529.949219 29.289062 529.378906 31.308594 C 526.769531 41.570312 522.882812 51.5 521.648438 61.984375 C 520.851562 64.585938 520.464844 67.46875 518.554688 69.375 C 513.046875 74.816406 514.679688 82.097656 511.953125 88.738281 C 507.316406 88.707031 504.1875 85.265625 500.367188 83.511719 C 495.339844 79.621094 489.152344 83.804688 489.609375 77.992188 C 491.8125 64.726562 473.734375 58.550781 479.730469 45.074219 Z M 485.691406 89.90625 C 486.980469 86.679688 489.453125 85.410156 492.601562 85.699219 C 500.5625 86.574219 506.785156 92.464844 513.523438 96.304688 C 519.550781 100.226562 519.550781 100.46875 517.007812 108.117188 C 507.75 101.292969 499.855469 94.429688 487.839844 93.96875 C 484.765625 93.597656 484.511719 92.851562 485.691406 89.90625 Z M 427.664062 181.6875 C 436.667969 179.050781 445.484375 174.066406 450.859375 166.445312 C 458.089844 156.214844 465.570312 160.996094 474.632812 155.558594 C 476.140625 154.699219 477.476562 153.027344 476.75 151.632812 C 474.382812 147.984375 472.746094 154.5 469.46875 152.5625 C 473.410156 135.5625 491.152344 136.535156 486.910156 130.503906 C 481.136719 132.671875 476.199219 136 471.777344 140.191406 C 469.609375 137.929688 479.519531 126.085938 480.519531 121.945312 C 482.828125 115.019531 491.097656 115.058594 490.929688 110.675781 C 486.203125 110.289062 483.628906 113.96875 479.777344 116.835938 C 480.320312 111.78125 483.488281 96.300781 489.589844 98.761719 C 501.078125 100.621094 504.902344 105.128906 513.636719 112.148438 C 522.734375 118.476562 514.363281 127.679688 512.363281 135.71875 C 505.070312 155.910156 505.148438 178.074219 494.878906 197.191406 C 494.0625 194.035156 496.363281 191.058594 494.488281 188.078125 C 489.667969 188.15625 495.882812 199.121094 482.359375 204.34375 C 475.304688 207.230469 468.75 210.707031 464.722656 217.613281 C 454.773438 223.886719 448.589844 232.113281 443.855469 243.769531 C 442.0625 225.804688 428.492188 210.386719 416.171875 199 C 409.515625 191.785156 404.492188 194.910156 401.738281 191.21875 C 398.207031 182.832031 412.136719 187.023438 416.117188 187.9375 C 418.355469 188.339844 420.28125 189.25 422.527344 187.378906 C 424.730469 185.539062 427.820312 187.445312 430.65625 186.507812 C 429.8125 182.597656 426.171875 184.824219 424.140625 183.542969 C 424.824219 181.84375 426.398438 181.953125 427.667969 181.691406 Z M 332.113281 192.074219 C 331.085938 202.015625 318.371094 206.722656 310.941406 211.492188 C 304.480469 214.359375 306.003906 201.945312 299.925781 200.375 C 298.648438 199.792969 299.859375 197.6875 300.011719 196.121094 C 297.546875 190.1875 305.074219 190.898438 298.15625 180.796875 C 293.738281 174.652344 296.585938 166.914062 294.320312 160.164062 C 293.628906 158.230469 294.3125 157.171875 296.113281 156.207031 C 299.542969 154.371094 303.253906 153.203125 306.453125 150.703125 C 314.257812 145.917969 319.910156 161.523438 320.523438 167.488281 C 320.855469 170.378906 321.519531 173.238281 322.851562 175.882812 C 327.859375 183.808594 328.640625 165.378906 335.859375 167.941406 C 341.304688 170.4375 339.664062 179.199219 335.875 182.554688 C 333.144531 185.230469 331.777344 188.257812 332.113281 192.074219 Z M 300.566406 207.878906 C 304.285156 216.375 307.070312 218.316406 315.425781 213.1875 C 320.5625 209.273438 322.277344 217.792969 324.785156 220.78125 C 326.511719 224.113281 326.195312 224.632812 322.996094 226.699219 C 313.570312 232.300781 303.375 236.792969 295.117188 244.222656 C 291.476562 247.636719 288.5625 247.367188 284.875 243.980469 C 279.921875 238.996094 273.632812 235.320312 269.382812 229.746094 C 266.0625 226.355469 266.039062 222.332031 267.058594 218.101562 C 268.71875 211.242188 270.507812 209.960938 277.339844 211.894531 C 282.40625 213.332031 287.707031 212.605469 292.722656 214.160156 C 296.804688 215.082031 297.808594 210.59375 300.566406 207.878906 Z M 324.621094 211.097656 C 327.230469 212.550781 328.300781 213.761719 327.980469 215.90625 C 326.601562 214.921875 325.484375 213.320312 324.621094 211.097656 Z M 321.332031 231.109375 C 330.992188 227.265625 338.359375 219.308594 348.0625 215.308594 C 353.257812 212.558594 358.242188 209.632812 361.933594 204.910156 C 363.6875 202.667969 365.542969 201.421875 368.816406 202.414062 C 381.457031 208.167969 393.8125 183.542969 397.417969 193.8125 C 397.847656 195.175781 399.183594 195.347656 400.480469 195.53125 C 406.238281 196.355469 410.414062 199.554688 414.886719 203.277344 C 426.917969 214.167969 438.261719 227.644531 439.910156 244.359375 C 440.050781 247.402344 439.179688 248.570312 436.292969 248.703125 C 426.320312 249.167969 416.476562 250.726562 406.359375 250.144531 C 378.738281 248.769531 350.996094 249.773438 323.4375 246.804688 C 316.546875 246.207031 309.667969 246.527344 302.785156 246.441406 C 301.371094 246.425781 299.878906 246.621094 298.207031 245.46875 C 304.726562 238.660156 313 234.980469 321.332031 231.109375 Z M 360.367188 200.6875 C 355.476562 211.796875 342.257812 213.699219 333.636719 220.929688 C 332.835938 221.5625 331.832031 222.160156 330.949219 221.011719 C 329.953125 219.617188 331.152344 217.59375 332.082031 216.511719 C 337.867188 211.710938 342.507812 205.75 348.066406 200.734375 C 353.257812 196.046875 353.539062 196.113281 360.367188 200.6875 Z M 358.71875 193.671875 C 367.007812 192.921875 375.265625 193.011719 384.449219 191.5 C 378.765625 199.199219 376.757812 200.0625 369.445312 197.78125 C 365.863281 196.667969 361.976562 196.253906 358.71875 193.671875 Z M 360.625 180.066406 C 381.90625 181.464844 403.03125 178.5 424.1875 178.105469 C 420.554688 182.21875 416.152344 183.199219 411.617188 181.566406 C 395.90625 177.160156 395.835938 194.222656 361.945312 188.90625 C 355.785156 189.566406 352.425781 178.65625 360.625 180.066406 Z M 291.070312 141.367188 C 298.863281 127.792969 315.332031 127.730469 329.183594 127.871094 C 337.304688 127.3125 339.535156 130.867188 345.714844 134.105469 C 354.015625 135.144531 356.179688 141.210938 357.09375 148.183594 C 358.414062 158.21875 356.707031 167.84375 352.8125 177.109375 C 352.300781 178.324219 352.117188 179.339844 352.382812 180.664062 C 353.6875 186.617188 347.636719 188.378906 344.867188 183.257812 C 344.398438 182.570312 343.976562 181.832031 342.976562 181.886719 C 341.058594 188.070312 345.59375 191.777344 353.980469 190.695312 C 353.730469 192.320312 351.945312 191.550781 351.308594 192.578125 C 347.289062 199.035156 340.949219 203.324219 335.90625 208.835938 C 331.578125 213.5625 329.992188 213.496094 324.691406 208.15625 C 326.515625 206.574219 328.144531 204.652344 330.199219 203.484375 C 338.402344 199.039062 333.535156 188.394531 340.128906 182.925781 C 343.769531 178.953125 343.453125 174.59375 341.984375 170.078125 C 340.78125 162.761719 332.492188 161.902344 328.5 167.78125 C 327.886719 168.835938 326.976562 169.71875 325.765625 171.226562 C 323.890625 168.394531 323.203125 166.046875 322.957031 163.5625 C 322.4375 158.386719 319.652344 154.152344 317.066406 149.921875 C 314.667969 146 313.171875 145.5 308.648438 146.980469 C 303.746094 148.589844 298.957031 150.582031 294.203125 152.601562 C 288.59375 155.246094 288.441406 144.464844 291.070312 141.371094 Z M 280.230469 147.3125 C 283.984375 150.308594 288.859375 152.617188 283.679688 157.148438 C 278.339844 163.414062 274.527344 170.460938 272.953125 178.621094 C 272.597656 179.597656 272.820312 180.890625 271.773438 181.4375 C 270.027344 181.457031 268.992188 179.925781 267.636719 179.105469 C 262.007812 175.261719 254.058594 181.464844 255.523438 187.804688 C 257.320312 192.46875 258.203125 199.105469 252.339844 201.058594 C 247.359375 202.730469 244.71875 202.179688 243.378906 197.914062 C 242.449219 194.957031 240.535156 197.359375 239.667969 196.390625 C 229.714844 187.53125 234.300781 183.039062 231.933594 171.910156 C 228.722656 145.65625 264.816406 135.101562 280.230469 147.3125 Z M 228.3125 180.175781 C 228.539062 179.566406 230.414062 180.707031 230.277344 181.722656 C 229.265625 189.117188 233.195312 194.765625 237.164062 200.835938 C 222.59375 211.277344 201.054688 189.296875 222.578125 181.769531 C 224.503906 181.492188 227.035156 183.617188 228.3125 180.175781 Z M 154.761719 178.210938 C 167.265625 178.535156 179.554688 176.054688 191.996094 175.699219 C 201.183594 175.648438 210.238281 178.078125 219.429688 175.882812 C 221.996094 174.945312 223.472656 178.300781 220.699219 179.121094 C 217.421875 180.515625 214.582031 182.707031 211.472656 184.328125 C 189.425781 188.222656 166.144531 186.957031 143.6875 188.839844 C 137.929688 189.238281 135.183594 184.304688 132.34375 179.523438 C 140.203125 178.359375 147.492188 178.019531 154.761719 178.210938 Z M 210 197.9375 C 210.753906 199.09375 209.121094 199.6875 208.222656 199.835938 C 201.691406 200.902344 195.507812 203.503906 188.730469 203.578125 C 179.597656 203.675781 170.460938 203.589844 161.324219 204.371094 C 153.828125 205.898438 143.742188 201.261719 144.210938 191.890625 C 166.074219 191.007812 187.777344 190.128906 209.734375 189.242188 C 210.5625 192.304688 208.179688 195.144531 210 197.933594 Z M 77.769531 91.394531 C 75.867188 89.628906 75.484375 87.375 75.023438 85.15625 C 77.050781 87.554688 81.484375 87.914062 77.769531 91.394531 Z M 71.238281 88.472656 C 77.070312 92.929688 77.5 100.285156 82.550781 89.492188 C 83.074219 97.980469 85.625 106.113281 84.046875 115.257812 C 77.132812 109.4375 77.828125 101.660156 72.742188 95.054688 C 71.425781 93.550781 70.6875 91.003906 71.238281 88.472656 Z M 98.804688 156.878906 C 96.683594 150.550781 92.804688 145.359375 87.476562 141.476562 C 82.164062 136.253906 67.125 128.675781 71.621094 120.105469 C 73.214844 115.5625 70.226562 110.882812 74.066406 106.777344 C 77.046875 107.929688 77.183594 111.003906 78.152344 113.320312 C 79.113281 115.621094 80.453125 117.25 82.675781 118.183594 C 90.855469 121.582031 87.597656 106.472656 88.753906 102.03125 C 89.21875 102.167969 89.835938 102.207031 89.871094 102.371094 C 91.109375 108.378906 93.710938 113.699219 97.382812 118.625 C 100.730469 123.136719 98.808594 129.414062 101.148438 134.261719 C 113.4375 159.757812 127.300781 184.484375 146.863281 205.332031 C 149.066406 207.730469 151.371094 209.40625 154.929688 209.269531 C 173.328125 207.890625 192.390625 210.847656 209.882812 203.777344 C 212.152344 203.058594 213.675781 202.382812 215.800781 204.796875 C 221.292969 210.839844 228.839844 206.828125 235.621094 206.597656 C 235.636719 210.15625 231.875 211.265625 230.675781 214.242188 C 238.074219 215.667969 237.683594 201.664062 243.8125 204.976562 C 254.894531 209.726562 259.078125 196.347656 262.824219 199.363281 C 264.691406 200.558594 265.808594 198.492188 266.691406 197.203125 C 269.148438 192.304688 255.753906 189.691406 261 183.480469 C 262.816406 181.671875 265.097656 182.214844 267.136719 183.9375 C 280.164062 194.566406 275.703125 165.738281 286.941406 158.722656 C 291.109375 155.3125 291.597656 164.898438 291.574219 167.492188 C 291.351562 173.5625 291.535156 179.554688 294.871094 184.996094 C 296 186.839844 296.015625 189.070312 295.605469 191.117188 C 294.777344 195.261719 295.136719 199.28125 295.960938 203.382812 C 296.71875 207.128906 295.539062 208.804688 292.046875 208.683594 C 284.226562 207.8125 273.859375 209.511719 269.210938 201.585938 C 268.78125 200.777344 267.953125 200.410156 267.109375 200.925781 C 263.527344 203.414062 271.753906 204.976562 265.808594 212.242188 C 263.28125 217.054688 260.292969 223.25 263.097656 228.640625 C 266.804688 236.34375 273.429688 240.152344 278.859375 246.496094 C 260.289062 247.902344 242.867188 243.140625 224.769531 240.359375 C 214.964844 238.144531 204.859375 238.871094 195.023438 237.375 C 194.679688 234.386719 200.644531 231.722656 201.699219 227.285156 C 202.777344 225.648438 200.050781 225.210938 199.617188 225.605469 C 196.667969 231.257812 191.121094 229.894531 186.933594 229.210938 C 178.746094 227.878906 170.757812 229.972656 162.65625 229.285156 C 153.964844 228.550781 145.410156 227.113281 137.3125 224.082031 C 133.722656 222.734375 131.996094 218.457031 129.769531 215.214844 C 117.609375 196.769531 108.671875 176.519531 98.804688 156.875 Z M 190.160156 235.582031 C 190.042969 236.578125 189.183594 236.980469 188.371094 237.035156 C 166.609375 237.328125 144.957031 232.679688 123.085938 233.476562 C 119.351562 233.230469 115.59375 233.136719 111.878906 232.691406 C 107.976562 232.226562 107.652344 231.589844 107.78125 227.589844 C 108.59375 223.785156 107.039062 189.617188 114.976562 197.714844 C 119.253906 206.488281 124.300781 214.765625 129.613281 222.964844 C 131.785156 226.878906 135.464844 229.800781 141.082031 230.40625 C 148.675781 231.222656 156.1875 233.058594 163.886719 233.625 C 169.414062 234.988281 187.847656 230.332031 190.160156 235.582031 Z M 105.445312 179.785156 C 107.429688 183.175781 109.507812 185.566406 107.445312 190.28125 C 105.375 195.023438 105.726562 200.824219 105.019531 206.15625 C 104.042969 213.566406 103.113281 220.980469 102.078125 228.378906 C 101.335938 233.683594 100.8125 234.113281 95.144531 235.011719 C 94.160156 224.660156 101.125 186.742188 105.445312 179.78125 Z M 60.765625 267.058594 C 64.886719 238.191406 105.0625 235.648438 128.183594 236.96875 C 149 237.761719 169.757812 240.785156 190.570312 240.90625 C 209.335938 241.382812 227.71875 244.734375 246.066406 248.304688 C 258.503906 249.296875 270.824219 251.988281 283.425781 250.75 C 285.433594 250.550781 287.644531 250.191406 289.480469 251.605469 C 290.234375 252.1875 291.011719 252.15625 291.835938 251.953125 C 304.417969 248.871094 317.003906 250.902344 329.644531 251.542969 C 341.476562 252.140625 353.332031 253.054688 365.222656 252.316406 C 385.542969 251.972656 406.070312 255.234375 426.367188 253.144531 C 463.328125 249.839844 510.585938 229.171875 543.171875 254.699219 C 546.386719 257.527344 548.292969 260.742188 547.910156 265.015625 C 546.625 280.894531 544.121094 296.636719 543.414062 312.546875 C 542.742188 321.316406 543.304688 330.054688 542.871094 338.796875 C 542.832031 339.542969 542.953125 340.429688 541.835938 341.03125 C 537.304688 326.625 530.582031 311.933594 532.675781 296.578125 C 533.890625 283.445312 541.648438 255.53125 517.996094 262.519531 C 518.085938 264.101562 519.253906 263.855469 520.207031 263.734375 C 540.34375 263.160156 528.007812 293.078125 528.386719 305.183594 C 524.9375 304.074219 522.046875 302.261719 519.277344 300.714844 C 510.863281 296.238281 512.046875 301.835938 500.296875 297.574219 C 471.636719 297.179688 443.109375 300.066406 414.449219 297.488281 C 443.695312 291.714844 481.769531 303.765625 503.304688 278.644531 C 500.890625 278.472656 499.546875 280.292969 498.066406 281.414062 C 487.167969 289.660156 474.917969 293.265625 461.292969 293.050781 C 440.851562 292.722656 420.492188 294.363281 400.214844 296.726562 C 383.054688 301.09375 366.128906 297.960938 348.144531 297.960938 C 376.457031 288.410156 405.023438 284.382812 434.589844 283.234375 C 432.894531 281.183594 431.257812 281.546875 429.9375 281.582031 C 394.34375 279.199219 361.824219 295.488281 326.519531 296.730469 C 275.199219 298.757812 224.148438 294.609375 173.0625 290.8125 C 161.285156 289.375 149.734375 285.878906 137.789062 287.570312 C 120.203125 289.804688 101.824219 288.046875 85.617188 296.464844 C 70.46875 302.453125 68.011719 342.234375 64.71875 357.171875 C 64.519531 358.550781 64.964844 360.148438 62.777344 361.21875 C 58.40625 330.289062 53.414062 298.007812 60.765625 267.058594 Z M 12.332031 499.597656 C 14.769531 461.636719 23.464844 424.785156 34.050781 388.371094 C 42.492188 359.621094 45.578125 329.804688 52.316406 300.628906 C 52.699219 300.652344 53.078125 300.675781 53.460938 300.699219 C 54.699219 311.835938 53.921875 323.148438 55.882812 334.1875 C 58.417969 338.777344 55.128906 370.734375 62.671875 365.238281 C 62.292969 409.804688 46.753906 452.804688 51.949219 497.386719 C 53.523438 506.050781 52.71875 506.761719 44.269531 506.511719 C 35.113281 506.238281 25.960938 505.75 16.820312 505.160156 C 12.523438 504.886719 11.878906 503.875 12.332031 499.597656 Z M 6.820312 525.464844 C 7.695312 518.382812 11.101562 508.9375 19.558594 509.003906 C 73.238281 510.484375 126.953125 516.578125 180.660156 514.480469 C 207.949219 512.445312 235.089844 514.859375 262.359375 514.394531 C 312.078125 513.820312 361.757812 511.15625 411.5 511.320312 C 461.648438 510.1875 511.683594 505.40625 561.792969 503.679688 C 564.441406 503.617188 567.125 504.878906 568.085938 507.15625 C 569.4375 510.742188 577.4375 526.78125 570.402344 527.808594 C 519.171875 533.070312 467.796875 536.058594 416.28125 537.914062 C 393.617188 539.730469 371.625 532.792969 349.0625 534.890625 C 282.496094 537.179688 216 540.867188 149.363281 538.085938 C 111.863281 539.535156 74.402344 534.96875 36.980469 534.140625 C 27.917969 534.261719 19.25 531.8125 10.433594 530.304688 C 7.714844 529.835938 6.65625 528.308594 6.820312 525.464844 Z M 53.449219 580.898438 C 53.117188 589.648438 40.109375 587.636719 37.144531 581.347656 C 35.742188 578.949219 34.484375 576.007812 36.324219 573.78125 C 37.996094 571.757812 40.175781 569.183594 43.347656 570.210938 C 50.128906 570.394531 53.738281 574.488281 53.449219 580.898438 Z M 112.078125 635.980469 C 101.132812 637.800781 90.28125 639.054688 79.140625 637.375 C 73.886719 636.585938 71.152344 634.808594 69.945312 629.28125 C 65.914062 610.527344 61.007812 591.726562 62.410156 572.324219 C 63.5625 571.371094 65.011719 571.324219 66.078125 571.589844 C 79.671875 574.980469 93.546875 575.265625 107.421875 575.40625 C 113.859375 575.472656 113.742188 575.339844 114.734375 581.625 C 117.179688 596.058594 115.820312 610.6875 117.222656 625.179688 C 116.761719 629.347656 117.917969 635.527344 112.074219 635.980469 Z M 540.851562 601.542969 C 539.527344 608.917969 540.4375 616.546875 539.199219 623.953125 C 538.167969 631.273438 538.046875 631.574219 530.855469 631.851562 C 526.460938 632.019531 522.144531 632.867188 517.851562 633.457031 C 511.296875 634.359375 504.945312 632.980469 498.503906 633.132812 C 496.128906 633.1875 495.214844 631.800781 495.105469 629.59375 C 493.25 617.894531 493.902344 605.964844 492.503906 594.199219 C 491.5 586.914062 493.597656 579.816406 492.714844 572 C 507.21875 570.628906 520.929688 569.75 534.65625 569.035156 C 537.890625 568.867188 539.632812 569.726562 540.550781 572.996094 C 542.816406 582.242188 541.8125 592.097656 540.851562 601.542969 Z M 602.386719 539.503906 C 601.15625 544.347656 599.972656 549.203125 598.570312 553.992188 C 596.261719 560.753906 581.808594 560.046875 575.179688 561.523438 C 518.722656 566.773438 462.125 571.050781 405.441406 572.863281 C 308.511719 573.09375 211.5625 572.265625 114.65625 571.902344 C 80.273438 572.730469 46.457031 565.050781 12.933594 558.675781 C 7.734375 558.015625 5.101562 555.019531 4.957031 550.03125 C 4.800781 544.566406 2.910156 539.066406 4.859375 533.277344 C 35.875 539.472656 67.449219 539.0625 98.921875 540.632812 C 113.605469 541.894531 128.285156 543.710938 143.023438 542.078125 C 196.96875 542.652344 251.082031 543.90625 304.933594 540.1875 C 351.140625 535.683594 397.308594 543.167969 443.503906 540.261719 C 465.539062 538.570312 487.640625 538.839844 509.671875 537.027344 C 538.03125 535.246094 566.492188 529.667969 594.90625 533.378906 C 598.261719 533.945312 603.722656 534.96875 602.386719 539.503906 Z M 602.386719 539.503906 " fill-opacity="1" fill-rule="nonzero"/></g><path fill="#000000" d="M 88.011719 68.417969 C 88.042969 68.441406 88.070312 68.464844 88.097656 68.492188 C 88.105469 68.492188 88.109375 68.492188 88.117188 68.492188 Z M 88.011719 68.417969 " fill-opacity="1" fill-rule="nonzero"/><path fill="#000000" d="M 76.789062 46.980469 C 76.777344 46.949219 76.765625 46.917969 76.75 46.882812 C 76.742188 46.890625 76.738281 46.898438 76.730469 46.90625 Z M 76.789062 46.980469 " fill-opacity="1" fill-rule="nonzero"/><path fill="#000000" d="M 29.417969 74.433594 C 26.402344 72.328125 22.730469 67.578125 26.609375 64.34375 C 29.078125 62.523438 29.839844 64.867188 31.066406 66.03125 C 32.644531 67.476562 35.90625 70.566406 37.964844 68.878906 C 39.738281 65.933594 43.644531 65.867188 45.714844 63.207031 C 44.59375 62.613281 43.878906 62.980469 43.078125 63.261719 C 39.777344 65.960938 24.515625 58.703125 32.367188 56.914062 C 35.230469 56.070312 33.59375 51.257812 37.457031 51.785156 C 35.808594 45.835938 29.804688 49.144531 36.605469 42.632812 C 26.03125 43.066406 34.039062 51.621094 25.882812 54.398438 C 25.191406 54.632812 24.285156 55.722656 24.78125 56.382812 C 27.878906 60.507812 24.296875 63.085938 22.8125 66.265625 C 20.277344 71.6875 23.128906 75.101562 29.414062 74.433594 Z M 29.417969 74.433594 " fill-opacity="1" fill-rule="nonzero"/><path fill="#000000" d="M 45.707031 56.683594 C 45.902344 57.289062 46.265625 57.8125 46.988281 57.429688 C 48.894531 56.429688 51.636719 57.308594 52.851562 54.722656 C 55.097656 49.652344 48.21875 48.613281 48.339844 40.5625 C 45.820312 32.355469 52.816406 29.203125 57.046875 36.832031 C 60.070312 43.714844 67.535156 40.519531 69.179688 34.484375 C 70.832031 30.96875 66.453125 27.941406 63.324219 29.96875 C 61.277344 30.988281 61.078125 33.265625 59.746094 34.832031 C 57.019531 34.15625 56.527344 32.039062 55.136719 30.847656 C 50.738281 26.796875 46.78125 30.933594 47.085938 35.886719 C 45.640625 40.589844 47.75 45.871094 44.480469 50.34375 C 42.878906 52.535156 45.039062 54.601562 45.707031 56.683594 Z M 64.707031 32.355469 C 71.5 33.164062 62.664062 41.957031 62.414062 35.859375 C 62.578125 34.179688 62.558594 32.476562 64.707031 32.355469 Z M 50.433594 52.851562 C 50.160156 53.59375 49.558594 53.515625 48.996094 53.421875 C 44.042969 52.515625 48.816406 47.570312 50.433594 52.851562 Z M 50.433594 52.851562 " fill-opacity="1" fill-rule="nonzero"/><path fill="#000000" d="M 93.359375 66.386719 C 97.652344 65.023438 99.835938 60.816406 98.15625 56.789062 C 97.535156 58.960938 96.96875 59.941406 95.226562 61.851562 C 94.773438 59.726562 97.09375 57.890625 94.074219 56.582031 C 90.855469 55.085938 90.417969 59.871094 87.683594 60.390625 C 86.503906 58.675781 87.382812 57.246094 88.25 55.785156 C 89.023438 54.484375 91.261719 54.175781 90.871094 51.972656 C 83.292969 56.984375 82.566406 61.21875 88.003906 68.34375 C 89.054688 65.746094 91.554688 66.960938 93.359375 66.386719 Z M 93.410156 60.097656 C 93.292969 60.847656 93.328125 61.75 92.214844 61.675781 C 90.558594 61.171875 92.835938 57.964844 93.410156 60.097656 Z M 93.410156 60.097656 " fill-opacity="1" fill-rule="nonzero"/><path fill="#000000" d="M 87.984375 68.386719 C 88.011719 68.417969 88.117188 68.492188 88.117188 68.492188 C 88.078125 68.445312 88.042969 68.398438 88.003906 68.347656 C 88 68.363281 87.992188 68.371094 87.984375 68.386719 Z M 87.984375 68.386719 " fill-opacity="1" fill-rule="nonzero"/><path fill="#000000" d="M 76.773438 46.96875 C 76.789062 46.980469 76.730469 46.90625 76.730469 46.90625 C 76.710938 46.925781 76.691406 46.941406 76.671875 46.960938 C 76.703125 46.960938 76.738281 46.964844 76.773438 46.96875 Z M 76.773438 46.96875 " fill-opacity="1" fill-rule="nonzero"/><path fill="#000000" d="M 58.160156 51.257812 C 56.308594 56.945312 61.523438 62.519531 65.746094 56.5625 C 66.410156 56.027344 66.707031 55.222656 66.640625 54.332031 C 64.289062 52.140625 62.058594 57.785156 61.1875 52.464844 C 60.203125 45.394531 70.796875 52.535156 76.667969 46.957031 C 71.53125 46.503906 66.1875 47.519531 61.515625 44.3125 C 61.050781 47.234375 59.25 48.734375 58.15625 51.253906 Z M 58.160156 51.257812 " fill-opacity="1" fill-rule="nonzero"/><path fill="#000000" d="M 79.570312 65.769531 C 82.707031 62.71875 83.058594 53.074219 77.535156 52.386719 C 78.949219 55.195312 80.945312 57.96875 77.128906 60.671875 C 75.753906 61.648438 76.304688 63.304688 76.507812 64.734375 C 76.300781 66.425781 78.550781 66.917969 79.570312 65.769531 Z M 79.570312 65.769531 " fill-opacity="1" fill-rule="nonzero"/><path fill="#000000" d="M 71.085938 53.007812 C 69.46875 54.894531 74.679688 58.609375 77.914062 57.050781 C 74.433594 53.925781 74.371094 53.855469 77.273438 52.320312 C 75.027344 50.9375 72.65625 50.386719 71.085938 53.007812 Z M 71.085938 53.007812 " fill-opacity="1" fill-rule="nonzero"/><path fill="#000000" d="M 77.273438 52.320312 C 77.300781 52.335938 77.328125 52.351562 77.351562 52.367188 C 77.351562 52.367188 77.355469 52.363281 77.355469 52.359375 C 77.417969 52.367188 77.476562 52.378906 77.535156 52.386719 C 77.507812 52.332031 77.480469 52.277344 77.453125 52.226562 C 77.390625 52.257812 77.335938 52.289062 77.273438 52.320312 Z M 77.363281 52.351562 C 77.371094 52.34375 77.378906 52.328125 77.394531 52.3125 Z M 77.363281 52.351562 " fill-opacity="1" fill-rule="nonzero"/><path fill="#000000" d="M 41.242188 47.226562 C 44.285156 47.148438 40.808594 43.699219 42.539062 42.808594 C 46.371094 41 43.023438 40.519531 41.996094 40.207031 C 38.089844 39.574219 37.9375 46.175781 41.246094 47.226562 Z M 41.242188 47.226562 " fill-opacity="1" fill-rule="nonzero"/><path fill="#000000" d="M 358.046875 413.996094 C 358.273438 404.617188 346.886719 409.773438 341.234375 409.363281 C 331.867188 409.800781 322.496094 410.375 313.125 410.382812 C 300.691406 410.394531 288.304688 407.183594 275.84375 409.445312 C 270.140625 410.480469 264.636719 408.429688 259.121094 408.875 C 250.203125 409.589844 241.328125 410.746094 232.359375 410.875 C 227.460938 410.53125 228.367188 416.722656 228.21875 420.230469 C 230.085938 429.210938 230.484375 438.402344 230.996094 447.503906 C 231.210938 451.390625 232.640625 451.914062 235.5 452.550781 C 266.484375 457.300781 297.117188 454.148438 328.464844 453.816406 C 372.140625 452.351562 356.375 450.351562 358.046875 413.996094 Z M 348.800781 448.113281 C 331.621094 449.878906 310.707031 450.753906 295.199219 451.117188 C 275.1875 451.269531 258.480469 451.144531 240.929688 449.148438 C 237.605469 448.480469 235.726562 446.855469 235.355469 443.445312 C 234.507812 435.613281 233.441406 427.796875 232.777344 419.949219 C 232.414062 415.636719 233.066406 415.199219 237.097656 414.972656 C 255.21875 413.964844 273.359375 413.0625 291.503906 413.902344 C 300.714844 416.191406 354.960938 409.050781 353.96875 417.371094 C 354.257812 425.472656 354.582031 433.578125 354.65625 441.683594 C 354.695312 446.125 353.433594 447.507812 348.800781 448.113281 Z M 348.800781 448.113281 " fill-opacity="1" fill-rule="nonzero"/><path fill="#000000" d="M 326.039062 464.910156 C 318.707031 460.136719 310.402344 459.617188 302.070312 459.273438 C 295.257812 458.988281 288.5625 460.574219 281.730469 460.695312 C 276.808594 460.785156 272.066406 462.730469 268.71875 466.964844 C 261.261719 476.730469 275.597656 486.835938 284.898438 486.421875 C 288.019531 486.441406 291.140625 486.425781 294.226562 486.425781 C 302.949219 488.699219 311.136719 485.71875 319.4375 484.101562 C 328.351562 482.503906 335.792969 470.878906 326.039062 464.910156 Z M 322.425781 479.085938 C 314.851562 483.160156 306.207031 484.425781 297.648438 483.378906 C 297.648438 483.410156 297.644531 483.4375 297.644531 483.46875 C 289.726562 482.75 280.652344 483.964844 274.597656 477.816406 C 269.175781 473.15625 270.378906 467.269531 277.269531 465.339844 C 288.136719 462.636719 299.542969 461.945312 310.671875 463.644531 C 317.941406 464.011719 333.199219 472.332031 322.425781 479.085938 Z M 322.425781 479.085938 " fill-opacity="1" fill-rule="nonzero"/><path fill="#000000" d="M 469.730469 436.503906 C 455.183594 434.6875 459.375 452 458.859375 461.574219 C 458.339844 466.257812 458.363281 471.664062 458.632812 477.074219 C 458.144531 483.285156 463.105469 482.761719 467.847656 483.113281 C 472.230469 483.460938 473.917969 482.082031 473.929688 477.761719 C 472.84375 468.300781 477.023438 441.527344 469.734375 436.503906 Z M 466.078125 479.445312 C 462.488281 479.113281 463.460938 476.21875 463.453125 474.148438 C 463.417969 464.40625 463.476562 454.660156 463.644531 444.917969 C 463.667969 443.6875 463.183594 441.710938 465.347656 441.460938 C 469.875 441.496094 470.457031 448.277344 469.589844 452.1875 C 471.148438 457.933594 470.609375 464.34375 470.226562 470.753906 C 470.417969 474.453125 470.167969 480.402344 466.074219 479.445312 Z M 466.078125 479.445312 " fill-opacity="1" fill-rule="nonzero"/><path fill="#000000" d="M 448.792969 406.886719 C 450.960938 425.503906 476.351562 425.148438 477.503906 404.265625 C 474.648438 383.726562 449.773438 390.535156 448.792969 406.886719 Z M 472.886719 405.785156 C 472.074219 419.453125 456.097656 418.878906 453.890625 406.933594 C 452.289062 394.566406 474.277344 391.1875 472.886719 405.785156 Z M 472.886719 405.785156 " fill-opacity="1" fill-rule="nonzero"/><path fill="#000000" d="M 118.097656 443.09375 C 114.132812 442.960938 108.84375 443.667969 108.773438 448.84375 C 108.78125 458.242188 106.46875 467.363281 105.21875 476.617188 C 104.503906 481.917969 104.804688 482.300781 109.996094 482.175781 C 114.472656 481.988281 122.726562 483.609375 122.21875 476.808594 C 121.648438 467.277344 122.175781 457.8125 123.351562 448.347656 C 123.890625 443.992188 122.566406 442.832031 118.097656 443.09375 Z M 120 453.144531 C 119.4375 460.863281 118.261719 467.847656 118.109375 474.929688 C 118.035156 478.300781 116.5625 478.800781 111.777344 478.472656 C 108.707031 478.265625 109.335938 476.367188 109.550781 474.519531 C 110.558594 465.871094 111.601562 457.226562 112.546875 448.570312 C 112.738281 446.8125 113.449219 445.707031 115.234375 445.980469 C 120.75 445.785156 120.109375 449.019531 120 453.144531 Z M 120 453.144531 " fill-opacity="1" fill-rule="nonzero"/><path fill="#000000" d="M 121.28125 396.703125 C 105.445312 396.976562 104.933594 418.898438 119.933594 419.945312 C 135.851562 420.132812 136.839844 397.671875 121.28125 396.703125 Z M 121.453125 416.785156 C 111.230469 416.828125 110.257812 400.140625 120.605469 399.503906 C 130.332031 400.632812 133.855469 415.757812 121.453125 416.785156 Z M 121.453125 416.785156 " fill-opacity="1" fill-rule="nonzero"/><path fill="#000000" d="M 71.945312 270.035156 C 79.800781 264.457031 88.585938 260.585938 97.636719 257.714844 C 123.085938 249.390625 150.894531 254.269531 176.601562 258.984375 C 216.308594 265.753906 256.902344 264.867188 297.03125 265.222656 C 325.742188 262.265625 354.582031 262.320312 383.351562 260.28125 C 353.6875 257.191406 323.792969 261.9375 294.0625 262.847656 C 258.445312 261.769531 222.640625 263.375 187.316406 257.683594 C 148.558594 251.304688 102.003906 241.691406 69.804688 270.179688 C 70.933594 270.714844 71.441406 270.390625 71.945312 270.03125 Z M 71.945312 270.035156 " fill-opacity="1" fill-rule="nonzero"/><path fill="#000000" d="M 363.980469 269.03125 C 327.703125 267.679688 291.730469 272.789062 255.863281 277.742188 C 244.269531 279.179688 232.589844 278.296875 220.953125 278.558594 C 218.105469 278.621094 215.019531 278.214844 212.421875 280.164062 C 263.714844 283.902344 313.742188 267.445312 365.195312 270.761719 C 365.1875 269.109375 364.519531 269 363.980469 269.03125 Z M 363.980469 269.03125 " fill-opacity="1" fill-rule="nonzero"/><path fill="#000000" d="M 204.488281 278.484375 C 192.410156 278.269531 180.324219 278.363281 168.257812 277.875 C 156.808594 276.332031 145.441406 278.703125 134.042969 278.25 C 125.976562 277.457031 86.945312 281.261719 84.148438 288.054688 C 125.566406 274.3125 168.308594 282.113281 211.132812 280.167969 C 208.484375 277.910156 206.363281 278.519531 204.484375 278.484375 Z M 204.488281 278.484375 " fill-opacity="1" fill-rule="nonzero"/><path fill="#000000" d="M 501.023438 258.773438 C 466.066406 262.769531 430.894531 264.378906 395.695312 268.546875 C 402.683594 270.144531 493.894531 261.722656 501.023438 258.773438 Z M 501.023438 258.773438 " fill-opacity="1" fill-rule="nonzero"/><path fill="#000000" d="M 370.199219 270.722656 C 377.617188 270.46875 385.035156 270.160156 392.449219 269.863281 C 392.488281 269.441406 392.527344 269.019531 392.566406 268.597656 C 384.34375 267.640625 376.21875 269.214844 367.71875 269.167969 C 368.488281 270.984375 369.449219 270.75 370.199219 270.722656 Z M 370.199219 270.722656 " fill-opacity="1" fill-rule="nonzero"/><path fill="#000000" d="M 576.53125 490.128906 C 589.789062 485.476562 584.375 470.332031 571.625 469.058594 C 553.882812 469.855469 560.203125 495.152344 576.53125 490.128906 Z M 568.320312 473.53125 C 570.441406 470.941406 576.195312 474.972656 578.367188 476.25 C 582.945312 478.949219 579.773438 487.84375 575.042969 486.976562 C 566.851562 487.082031 562.285156 478.714844 568.320312 473.53125 Z M 568.320312 473.53125 " fill-opacity="1" fill-rule="nonzero"/><path fill="#000000" d="M 39.449219 488.867188 C 39.484375 474.011719 16.691406 475.53125 18.285156 490.207031 C 17.476562 503.886719 40.804688 500.429688 39.449219 488.867188 Z M 36.003906 489.375 C 37.363281 498.398438 21.5625 498.714844 21.796875 490.269531 C 21.421875 478.664062 36.007812 477.671875 36.003906 489.375 Z M 36.003906 489.375 " fill-opacity="1" fill-rule="nonzero"/></g></g></g></svg>