<svg xmlns="http://www.w3.org/2000/svg" xmlns:xlink="http://www.w3.org/1999/xlink" width="1080" zoomAndPan="magnify" viewBox="0 0 810 1012.49997" height="1350" preserveAspectRatio="xMidYMid meet" version="1.0"><defs><filter x="0%" y="0%" width="100%" height="100%" id="8af950deb7"><feColorMatrix values="0 0 0 0 1 0 0 0 0 1 0 0 0 0 1 0 0 0 1 0" color-interpolation-filters="sRGB"/></filter><clipPath id="e142d63ec9"><path d="M 0.199219 53 L 809.800781 53 L 809.800781 989 L 0.199219 989 Z M 0.199219 53 " clip-rule="nonzero"/></clipPath><mask id="999c440ab4"><g filter="url(#8af950deb7)"><rect x="-81" width="972" fill="#000000" y="-101.249997" height="1214.999964" fill-opacity="0.16"/></g></mask><clipPath id="2470b77fe9"><path d="M 15 58 L 723 58 L 723 869 L 15 869 Z M 15 58 " clip-rule="nonzero"/></clipPath><clipPath id="3521e72086"><path d="M 658.039062 0.761719 L 809.796875 796.011719 L 82.289062 934.839844 L -69.464844 139.589844 Z M 658.039062 0.761719 " clip-rule="nonzero"/></clipPath><clipPath id="d1023a58e6"><path d="M 658.039062 0.761719 L 809.796875 796.011719 L 82.289062 934.839844 L -69.464844 139.589844 Z M 658.039062 0.761719 " clip-rule="nonzero"/></clipPath><clipPath id="4c2d6509c6"><rect x="0" width="810" y="0" height="936"/></clipPath><clipPath id="e0b1254972"><path d="M 0.199219 224 L 781 224 L 781 882 L 0.199219 882 Z M 0.199219 224 " clip-rule="nonzero"/></clipPath><mask id="6e484dfbc4"><g filter="url(#8af950deb7)"><rect x="-81" width="972" fill="#000000" y="-101.249997" height="1214.999964" fill-opacity="0.32"/></g></mask><clipPath id="8e5463aa1d"><path d="M 0.199219 0.335938 L 779.601562 0.335938 L 779.601562 657 L 0.199219 657 Z M 0.199219 0.335938 " clip-rule="nonzero"/></clipPath><clipPath id="9ab17a9eee"><rect x="0" width="781" y="0" height="658"/></clipPath></defs><g clip-path="url(#e142d63ec9)"><g mask="url(#999c440ab4)"><g transform="matrix(1, 0, 0, 1, 0.000000000000000028, 53)"><g clip-path="url(#4c2d6509c6)"><g clip-path="url(#2470b77fe9)"><g clip-path="url(#3521e72086)"><g clip-path="url(#d1023a58e6)"><path fill="#d9d9d9" d="M 473.785156 859.605469 C 462.253906 862.148438 450.597656 864.03125 438.8125 865.25 C 410.078125 868.5 381.167969 869.039062 352.25 866.832031 C 330.140625 865.214844 308.296875 863.203125 286.578125 858.25 C 261.429688 852.402344 236.046875 847.121094 211.714844 838.371094 C 184.058594 828.371094 157.476562 815.933594 133.523438 798.359375 C 113.941406 783.898438 96.496094 767.144531 80.453125 748.746094 C 65.886719 731.785156 53.449219 713.386719 44.566406 692.933594 C 39.765625 682.175781 36.230469 670.835938 32.527344 659.527344 C 26.792969 642.078125 22.851562 624.121094 20.101562 606.105469 C 18.164062 593.253906 17.253906 580.382812 16.507812 567.476562 C 15.539062 549.808594 15.625 532.28125 16.90625 514.699219 C 18.445312 493.976562 21.933594 473.570312 25.949219 453.234375 C 34.523438 410.910156 46.894531 369.582031 62.5625 329.339844 C 70.851562 308.015625 79.207031 287.023438 88.453125 266.203125 C 100.261719 239.917969 114.402344 215.070312 131.410156 191.742188 C 146.273438 171.566406 163.234375 153.394531 182.09375 137.09375 C 206.554688 115.945312 233.726562 99.085938 262.882812 85.453125 C 276.132812 79.320312 289.933594 74.28125 304.09375 70.207031 C 314.667969 67.160156 325.472656 64.410156 336.304688 62.6875 C 353.324219 60.125 370.566406 58.722656 387.730469 58.710938 C 408.636719 58.5 429.359375 60.039062 450.167969 62.933594 C 480.324219 67.136719 509.625 74.933594 537.496094 86.953125 C 561.777344 97.253906 584.886719 109.496094 606.378906 124.964844 C 623.695312 137.457031 639.011719 152.042969 652.957031 168.4375 C 665.558594 183.199219 676.765625 198.742188 685.839844 215.722656 C 693.84375 230.675781 700.421875 246.242188 705.269531 262.65625 C 710.601562 280.695312 714.90625 298.757812 717.949219 317.402344 C 719.671875 328.234375 720.535156 339.054688 721.234375 349.910156 C 721.953125 361.789062 722.480469 373.53125 722.839844 385.308594 C 723.417969 413.523438 720.855469 441.480469 714.09375 469.035156 C 711.867188 478.042969 709.109375 486.984375 706.320312 495.753906 C 702.882812 506.539062 700.898438 517.734375 698.914062 528.925781 C 695.492188 549.664062 694.511719 570.625 695.617188 591.699219 C 695.996094 597.292969 696.574219 603.019531 697.617188 608.484375 C 698.125 611.136719 699.292969 613.660156 700.261719 616.050781 C 704.105469 626.300781 707.621094 636.617188 710.304688 647.09375 C 713.890625 660.484375 715.625 674.058594 714.476562 687.839844 C 712.355469 714.511719 704.136719 738.910156 687.613281 760.261719 C 674.53125 777.179688 658.632812 791.027344 640.542969 802.375 C 622.78125 813.664062 603.71875 822.621094 583.949219 829.65625 C 569.8125 834.757812 555.484375 839.722656 541.027344 844.027344 C 533.234375 846.371094 525.210938 848.417969 517.160156 850.296875 C 503.308594 853.285156 488.757812 857.089844 473.785156 859.605469 Z M 473.785156 859.605469 " fill-opacity="1" fill-rule="nonzero"/></g></g></g></g></g></g></g><g clip-path="url(#e0b1254972)"><g mask="url(#6e484dfbc4)"><g transform="matrix(1, 0, 0, 1, 0.000000000000000028, 224)"><g clip-path="url(#9ab17a9eee)"><g clip-path="url(#8e5463aa1d)"><path fill="#000000" d="M 384.125 563.058594 C 383.429688 562.855469 383.042969 563.382812 382.574219 563.695312 C 380.847656 564.867188 379.15625 566.09375 377.390625 567.207031 C 372.824219 570.089844 368.066406 570.789062 362.898438 568.753906 C 354.96875 565.632812 346.628906 563.898438 338.375 561.894531 C 337.941406 561.789062 337.511719 561.667969 337.070312 561.585938 C 334.59375 561.121094 333.945312 561.542969 333.308594 564.09375 C 333.054688 565.105469 332.878906 566.136719 332.664062 567.15625 C 329.523438 582.0625 325.535156 596.734375 320.714844 611.179688 C 319.34375 615.28125 317.972656 619.394531 315.585938 623.058594 C 314.804688 624.257812 314.773438 625.488281 314.964844 626.898438 C 315.550781 631.128906 314.378906 632.945312 310.4375 634.359375 C 310.019531 634.511719 309.589844 634.65625 309.152344 634.734375 C 303.378906 635.738281 297.550781 635.722656 291.804688 634.890625 C 287.554688 634.273438 285.808594 631.742188 285.539062 627.402344 C 285.304688 623.632812 285.964844 619.960938 286.785156 616.320312 C 287.636719 612.539062 288.589844 608.777344 289.574219 605.023438 C 291.09375 599.222656 291.929688 593.355469 291.882812 587.335938 C 291.824219 579.878906 291.984375 572.417969 291.976562 564.960938 C 291.972656 559.589844 292.894531 554.253906 292.578125 548.875 C 292.125 541.136719 291.644531 533.402344 291.261719 525.660156 C 291.046875 521.34375 291.03125 517.015625 290.886719 512.691406 C 290.5625 503.007812 290.316406 493.316406 289.84375 483.636719 C 289.414062 474.855469 288.828125 466.078125 288.128906 457.3125 C 287.34375 447.507812 286.488281 437.703125 285.410156 427.929688 C 284.652344 421.082031 282.585938 414.503906 280.34375 408.015625 C 278.492188 402.660156 276.421875 397.378906 274.445312 392.070312 C 274.289062 391.648438 274.101562 391.242188 273.917969 390.832031 C 273.679688 390.292969 273.496094 389.605469 272.839844 389.527344 C 272.136719 389.449219 271.914062 390.128906 271.6875 390.65625 C 271.394531 391.34375 271.144531 392.046875 270.871094 392.738281 C 269.296875 396.789062 267.320312 400.660156 264.839844 404.203125 C 255.3125 417.808594 248.804688 432.792969 244.527344 448.761719 C 238.234375 472.269531 230.347656 495.269531 222.496094 518.28125 C 214.792969 540.863281 206.988281 563.417969 199.035156 585.917969 C 195.503906 595.898438 191.402344 605.671875 187.027344 615.320312 C 186.535156 616.410156 186.078125 617.511719 185.578125 618.59375 C 184.78125 620.3125 184.671875 622 185.527344 623.761719 C 186.320312 625.398438 186.59375 627.164062 186.464844 628.992188 C 186.28125 631.5625 185.164062 633.566406 182.882812 634.8125 C 181.84375 635.382812 180.746094 635.886719 179.617188 636.246094 C 171.703125 638.761719 163.574219 639.46875 155.320312 638.910156 C 152.695312 638.734375 150.304688 637.859375 148.933594 635.410156 C 148.175781 634.058594 147.082031 633.664062 145.679688 633.433594 C 141.691406 632.769531 137.675781 632.65625 133.652344 632.558594 C 122.03125 632.269531 110.390625 632.277344 98.804688 631.5 C 87.625 630.75 76.464844 630.71875 65.292969 630.914062 C 59.195312 631.019531 53.109375 631.671875 47.015625 632.078125 C 44.640625 632.238281 42.265625 632.5 39.886719 632.546875 C 34.671875 632.648438 29.449219 632.777344 24.234375 632.648438 C 15.277344 632.433594 6.375 633.421875 -2.5625 633.699219 C -7.460938 633.855469 -12.335938 634.679688 -17.234375 635.042969 C -24.226562 635.566406 -31.234375 635.480469 -38.238281 635.289062 C -38.652344 635.277344 -39.101562 635.070312 -39.457031 634.839844 C -39.636719 634.71875 -39.679688 634.34375 -39.726562 634.074219 C -39.742188 633.976562 -39.609375 633.808594 -39.5 633.742188 C -39.253906 633.589844 -38.988281 633.394531 -38.71875 633.375 C -37.679688 633.289062 -36.636719 633.21875 -35.597656 633.230469 C -26.347656 633.335938 -17.148438 632.582031 -7.953125 631.6875 C 2.882812 630.628906 13.761719 630.542969 24.644531 630.449219 C 33.28125 630.375 41.941406 630.214844 50.539062 629.496094 C 56.179688 629.027344 61.835938 628.785156 67.472656 628.273438 C 73.246094 627.75 79.082031 627.800781 84.882812 628.402344 C 85.921875 628.507812 86.960938 628.6875 88 628.675781 C 99.628906 628.570312 111.210938 630.0625 122.84375 629.722656 C 131.359375 629.472656 139.800781 630.589844 148.285156 630.90625 C 149.175781 630.9375 150.121094 631.25 150.945312 631.042969 C 156.566406 629.625 162.214844 630.539062 167.855469 630.671875 C 168.601562 630.6875 169.355469 630.628906 170.089844 630.730469 C 174.199219 631.3125 176.824219 629.394531 178.859375 625.980469 C 181.234375 621.984375 181.273438 621.601562 178.046875 618.371094 C 174.644531 614.96875 170.507812 613.109375 165.847656 612.273438 C 164.96875 612.113281 164.066406 612.089844 163.1875 611.921875 C 158.8125 611.089844 157.0625 609.152344 156.851562 604.609375 C 156.6875 601.183594 156.710938 597.757812 157.371094 594.351562 C 158.730469 587.3125 160.277344 580.320312 163.085938 573.691406 C 170.28125 556.722656 174.957031 538.988281 178.929688 521.0625 C 185.421875 491.769531 192.699219 462.707031 202.660156 434.367188 C 206.871094 422.390625 210.339844 410.199219 212.535156 397.679688 C 213.742188 390.78125 214.699219 383.835938 215.71875 376.902344 C 216.875 369.082031 217.882812 361.238281 219.988281 353.597656 C 220.570312 351.496094 220.71875 349.621094 219.128906 347.753906 C 217.359375 345.671875 217.230469 343.078125 217.953125 340.53125 C 218.644531 338.09375 219.390625 335.65625 220.378906 333.328125 C 223.175781 326.742188 225.953125 320.136719 229.019531 313.671875 C 234.15625 302.835938 237.773438 291.492188 240.808594 279.929688 C 243.117188 271.128906 245.671875 262.394531 248.539062 253.757812 C 253.632812 238.429688 257.21875 222.75 259.597656 206.78125 C 259.972656 204.277344 260.214844 201.746094 260.6875 199.257812 C 261.074219 197.238281 260.359375 195.816406 258.875 194.550781 C 255.472656 191.65625 252.199219 188.59375 248.703125 185.808594 C 245.328125 183.117188 241.777344 180.640625 238.238281 178.152344 C 233.355469 174.71875 228.691406 171.019531 224.222656 167.054688 C 219.875 163.199219 215.519531 159.332031 210.960938 155.730469 C 202.414062 148.972656 195.886719 140.511719 189.953125 131.511719 C 185.101562 124.152344 181.207031 116.246094 176.828125 108.617188 C 174.007812 103.703125 171.15625 98.804688 168.324219 93.894531 C 167.730469 92.863281 167.121094 91.835938 166.578125 90.773438 C 165.492188 88.652344 165.859375 86.699219 167.488281 85.03125 C 168.738281 83.753906 170.09375 82.582031 171.417969 81.378906 C 172.160156 80.703125 172.429688 79.894531 172.058594 78.96875 C 170.65625 75.472656 171.054688 71.941406 171.765625 68.390625 C 172 67.222656 172.226562 66.050781 172.429688 64.875 C 173.320312 59.652344 173.304688 54.507812 171.449219 49.433594 C 170.320312 46.351562 169.214844 43.273438 167.734375 40.332031 C 164.027344 32.957031 162.679688 25.078125 163.03125 16.898438 C 163.246094 11.882812 164.960938 7.589844 169.507812 4.824219 C 170.511719 4.214844 171.308594 3.277344 172.242188 2.542969 C 175.023438 0.351562 178.542969 0.453125 181.242188 2.789062 C 182.621094 3.980469 183.605469 5.472656 184.378906 7.101562 C 187.738281 14.167969 190.164062 21.550781 190.59375 29.378906 C 190.804688 33.207031 190.128906 37.101562 189.675781 40.945312 C 188.882812 47.648438 188.597656 54.316406 190.191406 60.957031 C 190.503906 62.257812 190.898438 63.597656 190.875 64.914062 C 190.796875 69.050781 192.558594 72.414062 195.007812 75.523438 C 199.109375 80.730469 201.976562 86.625 204.605469 92.648438 C 206.636719 97.296875 208.570312 101.984375 210.621094 106.621094 C 214.039062 114.347656 218.542969 121.296875 225.101562 126.785156 C 226.351562 127.832031 227.402344 129.121094 228.503906 130.332031 C 232.082031 134.257812 236.21875 137.296875 241.339844 138.957031 C 244.75 140.0625 248.1875 141.078125 251.71875 141.632812 C 261.136719 143.109375 269.71875 146.816406 278.058594 151.21875 C 278.71875 151.566406 279.359375 151.949219 280 152.332031 C 281.457031 153.199219 282.78125 153.179688 284.023438 151.878906 C 284.742188 151.128906 285.539062 150.441406 286.367188 149.808594 C 288.289062 148.351562 290.445312 147.347656 292.773438 146.714844 C 294.417969 146.269531 296.023438 146.386719 297.5625 147.136719 C 299.628906 148.136719 300.148438 150.222656 298.652344 151.925781 C 297.875 152.804688 296.949219 153.632812 295.9375 154.214844 C 292.542969 156.167969 289.039062 157.839844 284.929688 156.9375 C 283.613281 156.644531 282.558594 157.089844 281.742188 158.0625 C 280.398438 159.65625 279.082031 161.28125 277.820312 162.941406 C 271.601562 171.132812 267.25 180.210938 264.953125 190.253906 C 264.722656 191.269531 264.519531 192.296875 264.382812 193.328125 C 264.28125 194.070312 264.292969 194.949219 264.992188 195.351562 C 266.097656 195.988281 266.496094 194.898438 267.066406 194.269531 C 267.5625 193.71875 268.0625 193.164062 268.625 192.691406 C 269.097656 192.296875 269.703125 192.191406 270.300781 192.441406 C 271.089844 192.769531 271.351562 193.460938 271.363281 194.242188 C 271.378906 195.515625 270.878906 196.699219 269.871094 197.355469 C 267.222656 199.078125 266.574219 201.792969 265.84375 204.554688 C 263.84375 212.070312 262.738281 219.746094 261.691406 227.429688 C 260.738281 234.382812 259.53125 241.28125 257.878906 248.097656 C 255 259.988281 251.90625 271.820312 248.503906 283.570312 C 246.886719 289.15625 245.421875 294.785156 243.921875 300.40625 C 241.378906 309.957031 237.726562 319.082031 233.429688 327.964844 C 230.832031 333.332031 227.984375 338.585938 225.832031 344.164062 C 225.351562 345.410156 224.925781 346.6875 224.589844 347.980469 C 224.511719 348.28125 224.839844 348.886719 225.136719 349.027344 C 225.453125 349.179688 226.03125 349.066406 226.351562 348.851562 C 226.832031 348.53125 227.238281 348.058594 227.597656 347.59375 C 235.5625 337.21875 245.304688 328.675781 255.433594 320.535156 C 266.488281 311.648438 275.339844 300.871094 282.808594 288.882812 C 283.847656 287.214844 284.480469 285.414062 284.933594 283.507812 C 285.996094 279.007812 287.085938 274.515625 288.28125 270.050781 C 288.972656 267.457031 289.925781 264.929688 291.367188 262.640625 C 292.074219 261.511719 292.804688 260.265625 294.449219 260.519531 C 295.648438 260.707031 296.195312 262.132812 295.789062 264.316406 C 295.492188 265.921875 295.109375 267.539062 294.523438 269.0625 C 292.808594 273.511719 291.277344 278.074219 289.109375 282.300781 C 286.664062 287.070312 285.71875 292.140625 284.964844 297.292969 C 284.101562 303.195312 283.394531 309.117188 282.691406 315.035156 C 281.683594 323.488281 279.917969 331.804688 278.269531 340.144531 C 277.046875 346.3125 276.476562 352.535156 276.777344 358.828125 C 276.863281 360.621094 277.046875 362.386719 277.464844 364.140625 C 278.371094 367.9375 280.371094 370.964844 283.542969 373.222656 C 287.550781 376.082031 291.664062 378.808594 296.035156 381.070312 C 308.941406 387.746094 322.480469 392.703125 336.773438 395.496094 C 337.796875 395.695312 338.828125 395.902344 339.863281 395.945312 C 343.589844 396.105469 345.171875 394.765625 345.324219 391.101562 C 345.425781 388.722656 345.308594 386.328125 345.125 383.953125 C 344.425781 374.863281 344.46875 365.78125 345.109375 356.691406 C 345.285156 354.164062 345.417969 351.628906 345.417969 349.09375 C 345.398438 325.148438 350.730469 302.375 360.34375 280.53125 C 362.445312 275.75 364.511719 270.957031 366.617188 266.183594 C 367.285156 264.667969 367.746094 263.132812 367.917969 261.46875 C 368.539062 255.511719 369.839844 249.703125 371.851562 244.050781 C 375.304688 234.34375 378.082031 224.441406 380.191406 214.351562 C 380.894531 210.984375 381.925781 207.714844 383.273438 204.546875 C 384.386719 201.921875 385.785156 199.460938 387.503906 197.199219 C 388.3125 196.136719 389.21875 195.121094 390.210938 194.230469 C 391.703125 192.890625 393.175781 192.636719 394.253906 193.398438 C 395.53125 194.296875 395.632812 195.605469 395.378906 197.003906 C 395.273438 197.589844 395.15625 198.175781 394.992188 198.75 C 394.671875 199.898438 394.386719 201.0625 393.964844 202.175781 C 386.714844 221.277344 380.003906 240.585938 372.179688 259.46875 C 370.539062 263.425781 369.824219 267.386719 370.402344 271.679688 C 370.980469 275.957031 370.789062 280.296875 371.398438 284.605469 C 372.230469 290.515625 373.226562 296.390625 374.214844 302.273438 C 375.996094 312.859375 377.8125 323.441406 379.390625 334.0625 C 380.113281 338.917969 380.652344 343.8125 380.644531 348.757812 C 380.640625 353.191406 379.621094 357.015625 375.859375 359.742188 C 374.167969 360.972656 373.460938 362.714844 373.359375 364.765625 C 373.175781 368.539062 373.425781 372.246094 375.328125 375.621094 C 376.203125 377.171875 377.167969 379.152344 379.058594 379.144531 C 381.125 379.140625 381.46875 376.808594 382.257812 375.273438 C 382.585938 374.632812 382.710938 373.867188 382.835938 373.144531 C 382.875 372.929688 382.597656 372.660156 382.460938 372.410156 C 381.386719 372.429688 381.152344 373.527344 380.429688 374.003906 C 379.246094 374.78125 378.074219 374.476562 377.527344 373.15625 C 376.628906 370.992188 376.574219 368.792969 377.496094 366.628906 C 378.449219 364.394531 380.429688 363.640625 382.601562 364.820312 C 383.933594 365.546875 385.082031 366.09375 386.742188 365.914062 C 389.425781 365.625 391.003906 364.421875 392.171875 362.015625 C 395.820312 354.496094 399.027344 346.78125 402.109375 339.023438 C 403.265625 336.105469 403.316406 332.902344 403.585938 329.777344 C 404.042969 324.433594 404.574219 319.09375 405.027344 313.746094 C 405.203125 311.667969 405.351562 309.578125 405.347656 307.496094 C 405.332031 300.191406 405.316406 292.894531 404.78125 285.589844 C 404.261719 278.460938 404.433594 271.273438 404.410156 264.113281 C 404.375 251.433594 404.410156 238.753906 404.4375 226.070312 C 404.449219 220.554688 404.816406 215.050781 405.054688 209.546875 C 405.496094 199.480469 402.902344 190.394531 394.425781 183.773438 C 389.246094 179.726562 384 175.8125 378.363281 172.429688 C 377.21875 171.746094 376.003906 171.164062 374.78125 170.625 C 373.988281 170.277344 373.289062 170.632812 372.921875 171.375 C 372.59375 172.039062 372.425781 172.777344 372.167969 173.476562 C 368.113281 184.542969 364.132812 195.632812 359.964844 206.652344 C 357.804688 212.371094 355.316406 217.949219 352.175781 223.234375 C 348.652344 229.167969 343.914062 233.789062 337.917969 237.089844 C 327.46875 242.839844 316.964844 248.484375 306.476562 254.164062 C 304.488281 255.242188 302.425781 256.152344 300.085938 255.671875 C 298.796875 255.40625 297.789062 255.761719 296.78125 256.546875 C 295.464844 257.574219 293.921875 257.011719 293.304688 255.195312 C 292.972656 254.222656 292.796875 253.167969 292.738281 252.140625 C 292.640625 250.355469 292.625 248.558594 292.679688 246.769531 C 292.867188 240.734375 291.800781 234.886719 290.015625 229.15625 C 288.863281 225.457031 287.660156 221.765625 286.347656 218.117188 C 284.007812 211.609375 282.796875 204.875 282.183594 198.023438 C 281.859375 194.394531 282.636719 190.890625 283.847656 187.492188 C 286.226562 180.808594 289.972656 174.886719 294.410156 169.421875 C 299.683594 162.925781 305.570312 157.007812 311.992188 151.628906 C 312.332031 151.34375 312.652344 151.023438 313 150.746094 C 316.855469 147.636719 319.535156 147.921875 322.410156 151.847656 C 324.449219 154.628906 326.234375 157.59375 326.859375 161.039062 C 327.496094 164.515625 330.335938 165.199219 332.972656 166.140625 C 333.441406 166.304688 334.152344 166.039062 334.65625 165.785156 C 335.585938 165.320312 336.410156 164.652344 337.332031 164.171875 C 341.199219 162.160156 344.820312 162.695312 347.980469 165.699219 C 350.453125 168.046875 352.125 168.148438 354.230469 165.542969 C 357.710938 161.242188 359.136719 156.394531 357.140625 150.933594 C 356.4375 149.007812 355.746094 147.074219 355.042969 145.128906 C 353.566406 145.539062 353.207031 146.804688 352.539062 147.726562 C 346.855469 155.558594 336.070312 157.378906 327.753906 152.269531 C 325.84375 151.09375 324.09375 149.714844 322.464844 148.164062 C 320.015625 145.832031 318.363281 143.074219 317.675781 139.746094 C 316.171875 132.445312 314.4375 125.179688 314.257812 117.675781 C 314.21875 116.089844 313.78125 114.796875 312.449219 113.804688 C 311.085938 112.789062 310.378906 111.273438 309.882812 109.691406 C 308.574219 105.539062 307.785156 101.296875 307.996094 96.921875 C 308.046875 95.882812 308.203125 94.84375 308.390625 93.820312 C 309.242188 89.199219 311.90625 86.367188 316.601562 85.574219 C 317.332031 85.449219 318.0625 85.34375 318.773438 85.230469 C 319.207031 84.210938 318.320312 83.929688 317.867188 83.464844 C 316.828125 82.398438 315.664062 81.441406 314.691406 80.320312 C 312.96875 78.335938 313.511719 76.832031 316.167969 76.1875 C 317.316406 75.910156 318.515625 75.746094 319.699219 75.699219 C 324.917969 75.484375 330.074219 74.710938 335.242188 74.054688 C 339.101562 73.566406 342.992188 73.433594 346.847656 73.808594 C 351.878906 74.292969 356.351562 76.300781 360.078125 79.746094 C 362.914062 82.359375 364.320312 85.511719 362.882812 89.398438 C 362.324219 90.917969 362.53125 92.285156 363.191406 93.707031 C 365.035156 97.660156 364.675781 101.859375 364.402344 106.03125 C 364.355469 106.746094 364.058594 107.484375 363.734375 108.144531 C 362.804688 110.035156 360.683594 110.191406 359.417969 108.4375 C 358.902344 107.722656 358.476562 106.90625 358.191406 106.070312 C 357.707031 104.664062 357.390625 103.199219 356.960938 101.773438 C 356.105469 98.933594 356.203125 96.246094 357.703125 93.570312 C 358.691406 91.8125 358.078125 90.679688 356.140625 90.390625 C 352.582031 89.859375 348.980469 90.027344 345.441406 90.464844 C 340.472656 91.074219 335.636719 90.371094 330.800781 89.511719 C 328.160156 89.042969 325.5625 88.363281 322.925781 87.859375 C 320.707031 87.433594 318.507812 87.53125 316.285156 88.089844 C 312.945312 88.933594 311.199219 91.0625 310.894531 94.390625 C 310.5 98.71875 310.480469 103.046875 311.75 107.261719 C 312.144531 108.574219 311.890625 110.304688 313.6875 110.894531 C 314.609375 109.738281 314.191406 108.347656 314.34375 107.058594 C 314.640625 104.542969 314.855469 102.015625 315.179688 99.5 C 315.386719 97.871094 315.738281 96.265625 316.910156 94.984375 C 317.65625 94.164062 319.03125 94.3125 319.574219 95.269531 C 320.191406 96.359375 320.347656 97.527344 320.132812 98.730469 C 319.609375 101.664062 319.230469 104.640625 318.453125 107.507812 C 316.613281 114.277344 316.542969 121.050781 317.890625 127.886719 C 318.582031 131.398438 319.476562 134.890625 319.890625 138.433594 C 320.828125 146.503906 331.683594 154.675781 341.707031 152.300781 C 345.726562 151.347656 348.660156 148.898438 350.941406 145.667969 C 353.734375 141.726562 355.84375 137.519531 355.359375 132.394531 C 355.121094 129.882812 355.367188 127.328125 355.371094 124.789062 C 355.371094 122.53125 355.800781 120.335938 356.335938 118.164062 C 356.582031 117.15625 356.953125 116.167969 357.394531 115.226562 C 357.941406 114.054688 358.953125 113.480469 359.847656 113.6875 C 360.835938 113.914062 361.347656 114.664062 361.566406 115.550781 C 361.78125 116.410156 361.875 117.3125 361.90625 118.203125 C 362.015625 121.492188 361.875 124.769531 360.964844 127.964844 C 360.476562 129.683594 360.101562 131.453125 359.441406 133.109375 C 357.777344 137.277344 358.019531 141.589844 358.25 145.914062 C 358.363281 148.027344 359.355469 149.4375 361.269531 150.492188 C 364.96875 152.527344 367.871094 155.574219 370.683594 158.664062 C 372.101562 160.226562 373.292969 162.03125 373.394531 164.195312 C 373.5 166.472656 374.839844 167.585938 376.59375 168.648438 C 380.542969 171.042969 384.453125 173.511719 388.296875 176.074219 C 391.648438 178.304688 394.714844 180.910156 397.761719 183.558594 C 403.625 188.65625 406.234375 195.296875 407.367188 202.71875 C 407.457031 203.304688 407.4375 203.910156 407.507812 204.5 C 407.5625 204.9375 407.683594 205.367188 407.769531 205.78125 C 409.070312 206.199219 409.332031 205.078125 409.769531 204.429688 C 414.1875 197.875 418.503906 191.25 422.246094 184.277344 C 423.816406 181.359375 425.730469 178.699219 428.03125 176.355469 C 435.34375 168.902344 442.695312 161.492188 450.078125 154.113281 C 452.820312 151.371094 455.640625 148.695312 459.199219 146.988281 C 460.042969 146.585938 460.617188 145.914062 461.042969 145.101562 C 461.386719 144.445312 461.734375 143.78125 462.0625 143.113281 C 465.570312 135.972656 471.640625 132.746094 479.238281 132 C 486.359375 131.296875 493.214844 132.277344 499.632812 135.636719 C 502.011719 136.882812 504.402344 138.105469 506.816406 139.273438 C 511.488281 141.53125 513.40625 145.472656 513.855469 150.410156 C 514.609375 158.691406 512.21875 166.035156 507.347656 172.652344 C 504.253906 176.851562 501.136719 181.039062 498.003906 185.210938 C 494.945312 189.285156 491.554688 193.035156 487.269531 195.878906 C 486.898438 196.125 486.542969 196.40625 486.21875 196.707031 C 485.359375 197.507812 485.316406 198.503906 486.070312 199.496094 C 486.839844 200.5 487.886719 200.785156 488.78125 200.179688 C 489.273438 199.847656 489.746094 199.46875 490.160156 199.046875 C 493.097656 196.082031 496.058594 193.136719 498.925781 190.105469 C 501.589844 187.289062 504.0625 184.292969 506.761719 181.515625 C 514.917969 173.117188 521.738281 163.796875 527.273438 153.449219 C 533.613281 141.597656 541.144531 130.476562 548.996094 119.574219 C 554.574219 111.828125 560.148438 104.078125 565.511719 96.183594 C 568.523438 91.75 571.140625 87.046875 573.871094 82.425781 C 580.125 71.84375 587.382812 62.046875 596.246094 53.496094 C 597.632812 52.15625 599.15625 50.9375 600.714844 49.796875 C 603.4375 47.808594 606.503906 46.652344 609.914062 46.902344 C 612.898438 47.125 615.40625 46.265625 617.78125 44.460938 C 620.21875 42.605469 623.203125 42.046875 626.183594 41.714844 C 627.058594 41.617188 627.984375 41.695312 628.851562 41.863281 C 634.03125 42.863281 636.175781 47.25 633.8125 52.011719 C 632.71875 54.21875 631.003906 55.894531 628.855469 57.023438 C 626.75 58.132812 624.566406 59.109375 622.351562 59.972656 C 618.738281 61.375 615.105469 62.746094 611.421875 63.941406 C 604.1875 66.285156 599.191406 71.140625 595.652344 77.679688 C 594.734375 79.378906 593.878906 81.144531 593.234375 82.964844 C 590.589844 90.472656 586.597656 97.292969 582.59375 104.113281 C 578.820312 110.550781 574.789062 116.84375 570.3125 122.800781 C 564.886719 130.019531 560.742188 137.917969 557.054688 146.074219 C 554.101562 152.605469 550.835938 158.972656 547.664062 165.386719 C 545.480469 169.796875 543.296875 174.210938 541.214844 178.667969 C 538.230469 185.050781 536.425781 191.835938 534.578125 198.601562 C 533.121094 203.9375 531.332031 209.148438 529.085938 214.203125 C 527.328125 218.15625 525.558594 222.105469 524.769531 226.40625 C 524.71875 226.695312 524.613281 226.980469 524.507812 227.253906 C 524.175781 228.117188 523.105469 228.425781 522.273438 227.902344 C 522.023438 227.746094 521.757812 227.589844 521.546875 227.382812 C 515.707031 221.71875 508.710938 217.695312 501.773438 213.617188 C 497.65625 211.199219 493.648438 208.617188 489.679688 205.972656 C 487.308594 204.394531 485.039062 202.707031 483.394531 200.328125 C 482.550781 199.101562 481.476562 198.691406 479.96875 198.742188 C 473.347656 198.960938 468.3125 195.78125 464.082031 191.023438 C 463.292969 190.140625 462.660156 189.113281 461.917969 188.183594 C 461.527344 187.695312 460.695312 187.835938 460.441406 188.410156 C 460.144531 189.09375 459.902344 189.800781 459.628906 190.492188 C 458.652344 192.992188 457.753906 195.527344 456.671875 197.980469 C 453.535156 205.101562 448.878906 211 442.382812 215.367188 C 437.058594 218.945312 431.820312 222.742188 425.929688 225.28125 C 419.355469 228.109375 416.488281 233.351562 415.6875 239.886719 C 414.523438 249.367188 414.113281 258.90625 415.105469 268.453125 C 415.132812 268.75 415.195312 269.046875 415.195312 269.34375 C 415.261719 281.277344 416.851562 293.152344 416.441406 305.105469 C 416.3125 308.851562 415.820312 312.535156 415.191406 316.207031 C 414.738281 318.875 413.628906 321.328125 412.382812 323.71875 C 410.726562 326.894531 409.175781 330.121094 407.484375 333.277344 C 405.75 336.507812 404.976562 339.972656 404.820312 343.582031 C 404.480469 351.492188 404.394531 359.390625 406.070312 367.199219 C 406.828125 370.726562 406.65625 374.328125 406.605469 377.90625 C 406.59375 378.632812 406.40625 379.378906 406.171875 380.074219 C 405.828125 381.101562 404.53125 381.601562 403.589844 381.066406 C 402.953125 380.707031 402.304688 380.277344 401.828125 379.734375 C 400.84375 378.621094 399.949219 377.421875 399.050781 376.234375 C 398.058594 374.929688 397.214844 373.492188 396.113281 372.292969 C 391.929688 367.738281 391.3125 368.890625 389.085938 372.902344 C 387.785156 375.25 386.382812 377.542969 385.128906 379.914062 C 384.273438 381.53125 384.8125 382.394531 386.699219 382.605469 C 387.734375 382.722656 388.785156 382.699219 389.820312 382.792969 C 392.046875 382.996094 394.269531 383.207031 396.488281 383.457031 C 399.40625 383.785156 401.953125 384.859375 403.859375 387.210938 C 404.117188 387.527344 404.546875 387.703125 404.847656 387.910156 C 405.726562 387.53125 405.953125 386.804688 406.242188 386.125 C 410.140625 376.917969 414.605469 367.980469 419.152344 359.078125 C 424.375 348.847656 429.367188 338.5 433.5 327.769531 C 436.800781 319.210938 438.632812 310.378906 438.726562 301.144531 C 438.808594 293.179688 438.015625 285.367188 436.191406 277.636719 C 435.574219 275.023438 435.167969 272.359375 434.488281 269.765625 C 433.011719 264.101562 433.6875 258.527344 434.96875 252.960938 C 435.101562 252.378906 435.273438 251.804688 435.488281 251.25 C 436.550781 248.503906 438 247.5 440.890625 247.453125 C 442.398438 247.429688 443.851562 247.726562 445.28125 248.175781 C 447.558594 248.894531 449.828125 249.621094 452.101562 250.332031 C 456.53125 251.714844 461.0625 252.519531 465.695312 252.828125 C 470.082031 253.117188 473.957031 251.859375 477.332031 249.113281 C 482.308594 245.066406 487.167969 240.882812 491.304688 235.941406 C 493.507812 233.3125 495.636719 230.621094 497.886719 228.039062 C 501.6875 223.679688 504.125 223.09375 509.257812 225.605469 C 515.464844 228.636719 520.910156 232.828125 525.960938 237.496094 C 528.199219 239.5625 529.292969 242.410156 530.152344 245.296875 C 531.648438 250.308594 532.707031 255.4375 533.402344 260.605469 C 534.519531 268.875 535.226562 277.199219 535.40625 285.554688 C 535.429688 286.746094 535.414062 287.941406 535.390625 289.136719 C 535.316406 292.890625 533.414062 295.324219 529.875 296.390625 C 527.886719 296.992188 525.839844 297.515625 523.78125 297.757812 C 515.433594 298.75 507.40625 300.9375 499.625 304.046875 C 488.691406 308.421875 477.84375 313.015625 466.847656 317.214844 C 462.566406 318.851562 459 320.953125 456.089844 324.625 C 452.390625 329.285156 448 333.386719 444.160156 337.941406 C 437.160156 346.230469 432.351562 355.832031 428.144531 365.75 C 423.367188 377.011719 418.714844 388.320312 413.855469 399.542969 C 411.550781 404.878906 408.953125 410.089844 406.382812 415.308594 C 400.511719 427.214844 394.457031 439.023438 388.78125 451.03125 C 384.511719 460.0625 379.90625 468.933594 374.320312 477.257812 C 370.984375 482.226562 367.269531 486.867188 363.105469 491.164062 C 359.46875 494.917969 355.820312 498.652344 352.3125 502.535156 C 347.863281 507.460938 344.601562 513.105469 341.253906 518.757812 C 338.589844 523.257812 337.410156 527.902344 337.472656 533.183594 C 337.546875 539.582031 336.40625 545.945312 335.46875 552.289062 C 335.269531 553.613281 335.082031 554.945312 334.996094 556.28125 C 334.914062 557.613281 335.511719 558.578125 336.855469 558.972656 C 337.714844 559.222656 338.566406 559.503906 339.4375 559.691406 C 347.890625 561.539062 356.28125 563.632812 364.367188 566.746094 C 368.011719 568.144531 371.34375 567.703125 374.679688 565.972656 C 377.476562 564.523438 380.03125 562.707031 382.40625 560.667969 C 386.828125 556.867188 390.8125 552.742188 393.855469 547.636719 C 403.792969 530.957031 415 515.144531 427.277344 500.101562 C 433.5 492.476562 439.695312 484.832031 446.011719 477.289062 C 448.304688 474.554688 450.886719 472.054688 453.410156 469.519531 C 454.128906 468.796875 455.0625 468.269531 455.960938 467.757812 C 456.492188 467.453125 457.117188 467.566406 457.640625 467.9375 C 458.203125 468.339844 458.34375 468.988281 458.144531 469.53125 C 457.6875 470.78125 457.210938 472.058594 456.507812 473.179688 C 455 475.578125 453.429688 477.945312 451.738281 480.214844 C 439.621094 496.476562 427.605469 512.820312 414.699219 528.476562 C 408.917969 535.492188 403.066406 542.46875 396.941406 549.179688 C 393.160156 553.320312 390.28125 557.957031 387.691406 562.832031 C 385.519531 566.910156 383.421875 571.039062 381.492188 575.238281 C 375.667969 587.914062 368.097656 599.503906 359.839844 610.6875 C 357.273438 614.164062 354.726562 617.664062 352.179688 621.15625 C 350.855469 622.972656 349.714844 624.902344 348.953125 627.019531 C 348.101562 629.390625 348.625 630.96875 350.65625 632.492188 C 351.863281 633.398438 353.25 633.949219 354.679688 634.390625 C 362.097656 636.679688 369.65625 638.320312 377.324219 639.535156 C 382.945312 640.425781 388.59375 640.589844 394.257812 640.585938 C 409.164062 640.582031 424.074219 640.546875 438.980469 640.496094 C 451.253906 640.449219 463.367188 641.820312 475.304688 644.628906 C 486.765625 647.324219 498.210938 650.089844 509.636719 652.929688 C 513.003906 653.765625 516.371094 654.125 519.816406 654.0625 C 522.519531 654.011719 525.144531 653.585938 527.722656 652.753906 C 538.527344 649.269531 549.011719 645.015625 559.097656 639.796875 C 562.289062 638.144531 565.265625 636.167969 568.03125 633.878906 C 569.191406 632.914062 569.636719 631.769531 568.855469 630.328125 C 567.535156 627.890625 567.328125 625.234375 567.265625 622.519531 C 567.175781 618.632812 566.488281 614.8125 565.820312 610.992188 C 565.152344 607.171875 564.292969 603.375 563.859375 599.53125 C 563.234375 594.003906 563.789062 588.5 565.035156 583.089844 C 565.714844 580.132812 565.796875 577.167969 565.386719 574.195312 C 562.46875 552.925781 560.027344 531.589844 556.113281 510.460938 C 554.558594 502.054688 554.445312 493.597656 555.367188 485.070312 C 556.441406 475.125 558.46875 465.332031 559.742188 455.425781 C 561.136719 444.597656 561.585938 433.769531 560.441406 422.863281 C 559.644531 415.273438 558.226562 407.816406 556.617188 400.386719 C 553.96875 388.140625 551.273438 375.90625 548.527344 363.6875 C 545.894531 351.988281 541.625 340.867188 536.5625 330.019531 C 534.484375 325.566406 532.679688 320.976562 530.832031 316.417969 C 530.167969 314.769531 529.546875 313.066406 529.816406 311.207031 C 530.007812 309.898438 531.246094 309.136719 532.453125 309.59375 C 533.605469 310.027344 534.476562 310.839844 535.316406 311.691406 C 537.527344 313.929688 539.335938 316.492188 541.109375 319.070312 C 549.222656 330.871094 554.886719 343.78125 558.550781 357.605469 C 561.457031 368.582031 563.476562 379.726562 564.890625 390.984375 C 566.066406 400.300781 567.183594 409.625 568.199219 418.960938 C 568.730469 423.847656 568.964844 428.769531 569.382812 433.671875 C 569.824219 438.867188 570.277344 444.066406 570.796875 449.253906 C 571.230469 453.558594 571.339844 457.878906 571.746094 462.1875 C 572.398438 469.160156 572.460938 476.183594 572.949219 483.171875 C 574.144531 500.304688 573.886719 517.457031 573.722656 534.609375 C 573.59375 548.210938 572.101562 561.6875 569.3125 575.003906 C 568.816406 577.375 568.664062 579.640625 569.089844 582.070312 C 570.890625 592.355469 573.046875 602.570312 575.328125 612.757812 C 575.554688 613.777344 575.8125 614.789062 575.984375 615.820312 C 576.789062 620.582031 577.144531 625.285156 574.746094 629.792969 C 573.898438 631.390625 574.289062 632.316406 575.960938 632.953125 C 578.042969 633.75 580.171875 634.484375 582.34375 634.964844 C 586.707031 635.933594 591.140625 636.492188 595.597656 636.914062 C 603.15625 637.632812 610.703125 638.496094 618.253906 639.300781 C 624.621094 639.972656 630.988281 640.652344 637.355469 641.324219 C 642.390625 641.851562 647.425781 642.382812 652.464844 642.882812 C 653.796875 643.011719 655.140625 643.089844 656.480469 643.089844 C 670.046875 643.078125 683.613281 643.074219 697.175781 642.988281 C 700.152344 642.96875 703.128906 642.398438 706.09375 642.480469 C 716.0625 642.765625 726.050781 642.828125 735.988281 643.847656 C 736.136719 643.863281 736.285156 643.882812 736.433594 643.890625 C 741.785156 644.203125 747.140625 644.53125 752.492188 644.820312 C 759.074219 645.171875 765.574219 644.238281 772.089844 643.523438 C 774.3125 643.28125 776.519531 642.90625 778.753906 643.324219 C 778.988281 643.371094 779.269531 643.636719 779.359375 643.867188 C 779.558594 644.375 779.199219 644.738281 778.789062 644.902344 C 778.242188 645.113281 777.652344 645.242188 777.066406 645.332031 C 771.910156 646.117188 766.738281 646.851562 761.523438 646.957031 C 753.480469 647.121094 745.449219 647.019531 737.414062 646.230469 C 723.453125 644.855469 709.429688 645.113281 695.421875 645.214844 C 690.0625 645.253906 684.707031 645.402344 679.34375 645.726562 C 672.515625 646.140625 665.65625 646.179688 658.800781 645.492188 C 653.621094 644.976562 648.394531 645.058594 643.207031 644.386719 C 636.5625 643.523438 629.882812 642.941406 623.21875 642.21875 C 619.222656 641.78125 615.238281 641.261719 611.238281 640.851562 C 604.421875 640.15625 597.589844 639.632812 590.789062 638.824219 C 585.019531 638.140625 579.242188 637.300781 573.953125 634.628906 C 572.425781 633.855469 571.195312 634.019531 569.921875 635.21875 C 565.855469 639.042969 561.054688 641.765625 556.035156 644.089844 C 547.375 648.101562 538.578125 651.792969 529.46875 654.683594 C 527.484375 655.316406 525.449219 655.800781 523.421875 656.28125 C 520.175781 657.042969 516.914062 657.042969 513.671875 656.257812 C 509.035156 655.136719 504.40625 653.988281 499.78125 652.835938 C 489.511719 650.277344 479.230469 647.777344 468.84375 645.757812 C 461.375 644.304688 453.867188 643.25 446.222656 643.289062 C 429.972656 643.375 413.722656 643.335938 397.476562 643.363281 C 383.824219 643.386719 370.46875 641.28125 357.316406 637.742188 C 354.71875 637.042969 352.179688 636.164062 349.839844 634.808594 C 346.257812 632.734375 345.25 630.007812 346.636719 626.113281 C 347.601562 623.414062 349.214844 621.074219 350.878906 618.773438 C 354.632812 613.578125 358.367188 608.363281 362.15625 603.191406 C 367.90625 595.351562 372.976562 587.113281 377.167969 578.332031 C 379.226562 574.023438 381.417969 569.785156 383.5 565.488281 C 383.859375 564.75 384.601562 564.042969 384.128906 563.066406 Z M 274.914062 369.355469 C 274.148438 368.253906 273.441406 367.105469 272.597656 366.066406 C 271.992188 365.320312 271.546875 363.925781 270.277344 364.480469 C 269.378906 364.875 269.738281 366.070312 269.726562 366.925781 C 269.671875 370.648438 269.890625 374.375 269.203125 378.078125 C 267.972656 384.71875 266.070312 391.148438 262.917969 397.125 C 259.375 403.847656 255.789062 410.5625 251.90625 417.09375 C 248.371094 423.042969 245.734375 429.335938 243.703125 435.902344 C 240.667969 445.734375 237.800781 455.613281 234.757812 465.441406 C 228.894531 484.382812 222.925781 503.296875 217.65625 522.417969 C 217.480469 523.050781 216.855469 523.707031 217.511719 524.433594 C 218.367188 523.855469 218.398438 522.890625 218.675781 522.070312 C 227.042969 497.195312 235.613281 472.394531 242.492188 447.042969 C 246.617188 431.84375 252.667969 417.453125 261.800781 404.480469 C 265.246094 399.585938 267.882812 394.242188 269.84375 388.558594 C 270.9375 385.394531 271.578125 382.253906 270.804688 378.917969 C 270.246094 376.523438 270.695312 374.167969 271.304688 371.847656 C 271.792969 369.996094 273.011719 369.128906 274.945312 369.320312 C 275.136719 372.75 275.390625 376.203125 274.605469 379.574219 C 273.925781 382.480469 274.367188 385.175781 275.425781 387.882812 C 277.113281 392.1875 278.769531 396.503906 280.390625 400.832031 C 283.113281 408.105469 285.574219 415.457031 287.066406 423.09375 C 288.988281 432.929688 289.335938 442.929688 290.214844 452.875 C 290.710938 458.515625 290.929688 464.179688 291.347656 469.828125 C 292.070312 479.640625 292.707031 489.453125 292.945312 499.296875 C 293.1875 509.28125 293.59375 519.265625 293.925781 529.25 C 293.941406 529.695312 293.941406 530.148438 294.011719 530.589844 C 294.945312 536.367188 294.757812 542.195312 294.765625 548.007812 C 294.773438 559.792969 294.679688 571.578125 294.636719 583.367188 C 294.605469 591.605469 293.800781 599.730469 291.46875 607.675781 C 290.546875 610.824219 289.789062 614.027344 289.160156 617.246094 C 288.589844 620.164062 288.140625 623.128906 287.917969 626.09375 C 287.632812 629.929688 289.246094 631.871094 293.035156 632.71875 C 293.761719 632.878906 294.5 633.019531 295.238281 633.078125 C 299.730469 633.425781 304.164062 632.738281 308.605469 632.277344 C 309.96875 632.136719 311.175781 631.488281 312.097656 630.441406 C 312.597656 629.871094 312.976562 629.164062 312.550781 628.402344 C 312.117188 627.632812 311.378906 627.550781 310.625 627.894531 C 308.320312 628.953125 306.027344 630.035156 303.507812 630.503906 C 301.738281 630.832031 299.960938 631.039062 298.199219 630.488281 C 297.328125 630.21875 296.554688 629.753906 296.3125 628.773438 C 296.066406 627.777344 296.5625 627.03125 297.261719 626.421875 C 297.703125 626.035156 298.214844 625.699219 298.742188 625.429688 C 302.085938 623.726562 305.519531 622.148438 309.378906 622.503906 C 312.226562 622.769531 313.949219 621.535156 314.976562 619.089844 C 316.1875 616.207031 317.4375 613.324219 318.417969 610.355469 C 323.324219 595.46875 327.375 580.347656 330.597656 565.003906 C 331.449219 560.933594 331.097656 560.414062 327.070312 559.484375 C 325.332031 559.082031 323.539062 558.8125 321.875 558.199219 C 318.855469 557.09375 318.097656 555.074219 319.644531 552.175781 C 320.621094 550.347656 321.84375 548.625 323.125 546.984375 C 325.890625 543.433594 328.214844 539.632812 330.082031 535.546875 C 330.890625 533.78125 331.59375 531.945312 332.609375 530.308594 C 334.882812 526.640625 335.058594 522.765625 334.316406 518.664062 C 333.066406 511.769531 331.949219 504.847656 330.742188 497.945312 C 329.007812 488.003906 328.828125 478.09375 330.878906 468.15625 C 333.257812 456.617188 335.5 445.046875 337.769531 433.484375 C 338.976562 427.320312 339.40625 421.09375 339.398438 414.800781 C 339.386719 408.808594 336.75 404.519531 331.796875 401.519531 C 329.125 399.902344 326.34375 398.449219 323.546875 397.050781 C 319.679688 395.117188 315.757812 393.300781 311.855469 391.4375 C 309.167969 390.152344 306.511719 388.785156 303.777344 387.605469 C 298.566406 385.359375 293.550781 382.734375 288.574219 380.027344 C 283.433594 377.226562 278.71875 373.875 274.917969 369.355469 Z M 274.570312 363.867188 C 274.355469 360.855469 274.054688 358.5 274.039062 356.136719 C 274 350.148438 274.984375 344.261719 276.09375 338.394531 C 277.203125 332.535156 278.640625 326.742188 279.378906 320.808594 C 280.375 312.820312 281.453125 304.84375 282.488281 296.863281 C 282.5625 296.3125 282.800781 295.589844 282.003906 295.433594 C 281.707031 295.378906 281.21875 295.789062 280.96875 296.105469 C 280.234375 297.042969 279.574219 298.039062 278.886719 299.015625 C 273.292969 306.992188 266.875 314.183594 259.328125 320.402344 C 253.925781 324.851562 248.355469 329.125 243.421875 334.132812 C 238.609375 339.015625 233.550781 343.664062 229.414062 349.179688 C 228.152344 350.863281 226.695312 352.363281 224.289062 352.332031 C 223.265625 352.316406 222.726562 353.09375 222.472656 354.019531 C 222.113281 355.3125 221.777344 356.613281 221.457031 357.914062 C 219.664062 365.171875 218.90625 372.601562 217.824219 379.976562 C 216.683594 387.796875 215.605469 395.621094 213.980469 403.367188 C 211.714844 414.191406 208.601562 424.773438 204.945312 435.199219 C 194.910156 463.828125 187.652344 493.210938 181.082031 522.785156 C 177.195312 540.28125 172.46875 557.535156 165.550781 574.117188 C 163.011719 580.199219 161.332031 586.539062 160.097656 593 C 159.308594 597.132812 159.507812 601.320312 159.59375 605.492188 C 159.636719 607.542969 160.628906 608.859375 162.691406 609.273438 C 163.859375 609.503906 165.019531 609.808594 166.199219 609.953125 C 170.945312 610.519531 175.019531 612.558594 178.671875 615.546875 C 179.480469 616.207031 180.210938 616.960938 181.015625 617.625 C 181.894531 618.347656 182.746094 618.1875 183.164062 617.136719 C 184.210938 614.503906 185.210938 611.851562 186.175781 609.191406 C 190.859375 596.292969 195.480469 583.371094 200.207031 570.488281 C 204.472656 558.863281 208.410156 547.144531 211.613281 535.160156 C 215.230469 521.617188 219.15625 508.15625 223.148438 494.714844 C 228.710938 475.984375 234.441406 457.308594 240.136719 438.617188 C 241.875 432.90625 243.773438 427.238281 246.441406 421.886719 C 248.035156 418.6875 249.949219 415.648438 251.714844 412.539062 C 255.101562 406.570312 258.664062 400.691406 261.46875 394.421875 C 265.71875 384.90625 268.441406 375.070312 267.125 364.480469 C 267 363.464844 267.078125 362.390625 267.277344 361.382812 C 267.578125 359.855469 269.128906 359.234375 270.375 360.171875 C 271.667969 361.140625 272.816406 362.304688 274.570312 363.863281 Z M 441.410156 292.632812 C 441.410156 294.773438 441.386719 296.546875 441.414062 298.324219 C 441.570312 309.058594 439.496094 319.371094 435.542969 329.328125 C 432.402344 337.230469 428.925781 344.988281 425.160156 352.613281 C 422.191406 358.632812 419.128906 364.605469 416.125 370.609375 C 412.917969 377.011719 409.972656 383.539062 407.261719 390.164062 C 406.410156 392.246094 405.660156 394.375 405.761719 396.660156 C 406.054688 403.210938 402.867188 408.4375 399.257812 413.421875 C 396.84375 416.757812 393.210938 418.222656 389.191406 418.511719 C 385.695312 418.765625 382.78125 417.453125 380.609375 414.625 C 379.894531 413.695312 378.941406 413.503906 377.8125 413.710938 C 375.3125 414.167969 373.117188 413.191406 371.003906 412.058594 C 369.191406 411.089844 368.058594 409.53125 367.765625 407.480469 C 367.601562 406.308594 367.492188 405.09375 367.601562 403.921875 C 368.023438 399.472656 368.519531 395.027344 369.03125 390.585938 C 369.355469 387.800781 370.910156 385.949219 373.53125 384.988281 C 374.644531 384.578125 375.789062 384.246094 376.882812 383.792969 C 377.609375 383.5 377.800781 382.503906 377.332031 381.898438 C 377.152344 381.664062 376.953125 381.4375 376.730469 381.242188 C 373.429688 378.347656 371.886719 374.566406 371.042969 370.355469 C 370.003906 365.175781 370.464844 360.574219 375.117188 357.144531 C 377.03125 355.734375 377.800781 353.648438 377.828125 351.265625 C 377.882812 346.789062 377.941406 342.304688 377.390625 337.855469 C 375.878906 325.71875 373.710938 313.683594 371.582031 301.644531 C 369.890625 292.101562 368.253906 282.546875 367.8125 272.835938 C 367.792969 272.445312 367.589844 272.066406 367.476562 271.695312 C 366.625 271.804688 366.523438 272.445312 366.300781 272.960938 C 364.691406 276.652344 363.054688 280.332031 361.5 284.046875 C 358.507812 291.207031 355.925781 298.496094 353.800781 305.980469 C 349.410156 321.472656 347.964844 337.324219 347.621094 353.304688 C 347.371094 364.789062 347.582031 376.28125 347.574219 387.765625 C 347.574219 389.554688 347.648438 391.359375 347.453125 393.128906 C 347.117188 396.164062 345.566406 397.683594 342.601562 398.0625 C 341.574219 398.195312 340.519531 398.152344 339.476562 398.15625 C 336.617188 398.171875 333.882812 397.359375 331.101562 396.867188 C 330.515625 396.765625 329.804688 396.136719 329.253906 397.09375 C 331.304688 398.402344 333.359375 399.601562 335.292969 400.972656 C 338.460938 403.214844 340.457031 406.285156 341.339844 410.078125 C 341.816406 412.121094 342.0625 414.179688 342.117188 416.28125 C 342.246094 421.234375 341.621094 426.117188 340.703125 430.949219 C 338.46875 442.667969 336.140625 454.371094 333.765625 466.0625 C 331.753906 475.960938 331.5 485.890625 333.035156 495.863281 C 333.738281 500.433594 334.535156 504.984375 335.304688 509.542969 C 335.886719 513.011719 336.484375 516.476562 337.175781 520.511719 C 338.949219 518.335938 339.898438 516.34375 340.964844 514.433594 C 344.09375 508.800781 347.8125 503.605469 352.300781 498.960938 C 356.027344 495.101562 359.609375 491.097656 363.339844 487.242188 C 367.722656 482.710938 371.359375 477.628906 374.628906 472.269531 C 378.589844 465.769531 382.117188 459.03125 385.472656 452.203125 C 392.90625 437.078125 400.367188 421.964844 407.785156 406.832031 C 409.230469 403.886719 410.621094 400.910156 411.90625 397.894531 C 416.6875 386.640625 421.339844 375.328125 426.191406 364.101562 C 430.039062 355.191406 434.335938 346.511719 440.34375 338.785156 C 444.015625 334.058594 448.054688 329.6875 452.285156 325.476562 C 453.980469 323.789062 455.539062 321.992188 456.84375 319.980469 C 457.566406 318.871094 457.632812 317.835938 456.902344 316.660156 C 452.421875 309.4375 448.578125 301.832031 443.820312 294.777344 C 443.339844 294.0625 443.097656 293.121094 441.410156 292.636719 Z M 440.828125 288.234375 C 444.855469 288.496094 444.839844 288.515625 448.039062 291.046875 C 452.167969 294.316406 455.523438 298.300781 458.574219 302.546875 C 460.792969 305.636719 462.183594 309.058594 462.097656 312.957031 C 462.085938 313.550781 462.121094 314.152344 462.234375 314.734375 C 462.40625 315.628906 463.066406 315.9375 463.890625 315.769531 C 464.613281 315.625 465.324219 315.367188 466.015625 315.097656 C 469.894531 313.566406 473.777344 312.039062 477.640625 310.472656 C 485.234375 307.394531 492.804688 304.25 500.410156 301.207031 C 506.097656 298.933594 511.949219 297.195312 518 296.1875 C 520.496094 295.773438 522.992188 295.347656 525.5 295.019531 C 533.113281 294.023438 533.546875 290.410156 533.113281 284.910156 C 532.59375 278.226562 532.128906 271.539062 531.460938 264.867188 C 530.785156 258.183594 529.476562 251.59375 527.5 245.167969 C 526.621094 242.304688 525.285156 239.589844 522.78125 237.726562 C 519.078125 234.964844 515.382812 232.191406 511.570312 229.585938 C 509.992188 228.507812 508.132812 227.832031 506.378906 227.015625 C 504.167969 225.984375 502.320312 226.609375 500.785156 228.382812 C 499.8125 229.511719 498.839844 230.640625 497.933594 231.824219 C 493.105469 238.128906 487.292969 243.492188 481.507812 248.871094 C 479.992188 250.28125 478.203125 251.410156 476.476562 252.574219 C 474.066406 254.195312 471.378906 254.933594 468.464844 255 C 463.671875 255.105469 458.933594 254.832031 454.316406 253.417969 C 451.75 252.632812 449.1875 251.839844 446.613281 251.101562 C 444.894531 250.613281 443.171875 250.105469 441.417969 249.796875 C 439.589844 249.480469 438.382812 250.105469 437.953125 251.824219 C 436.765625 256.585938 435.421875 261.371094 436.410156 266.363281 C 437.851562 273.667969 439.355469 280.960938 440.828125 288.234375 Z M 191.386719 75.859375 C 191.257812 75.910156 191.085938 75.925781 190.984375 76.019531 C 187.632812 79.101562 183.425781 80.164062 179.121094 80.667969 C 175.261719 81.121094 172.65625 83.476562 169.96875 85.808594 C 168.566406 87.019531 168.363281 88.601562 169.164062 90.277344 C 169.417969 90.8125 169.730469 91.324219 170.023438 91.84375 C 173.703125 98.316406 177.371094 104.796875 181.0625 111.265625 C 184.234375 116.828125 187.355469 122.421875 190.625 127.929688 C 196.449219 137.746094 203.671875 146.40625 212.378906 153.804688 C 216.007812 156.890625 219.648438 159.964844 223.257812 163.070312 C 228.789062 167.832031 234.300781 172.613281 240.371094 176.695312 C 246.5625 180.851562 252.460938 185.375 257.890625 190.507812 C 260.910156 193.363281 261.660156 193.152344 262.648438 188.980469 C 265.214844 178.195312 270.292969 168.683594 277 159.964844 C 277.726562 159.019531 278.457031 158.074219 279.105469 157.078125 C 279.96875 155.753906 279.808594 154.929688 278.363281 154.164062 C 270.851562 150.199219 263.324219 146.289062 254.835938 144.726562 C 250.300781 143.890625 245.773438 142.988281 241.390625 141.476562 C 236.246094 139.699219 231.605469 137.1875 227.867188 133.109375 C 225.65625 130.695312 223.300781 128.40625 220.929688 126.148438 C 216.449219 121.890625 213.015625 116.925781 210.246094 111.398438 C 206.765625 104.460938 203.90625 97.261719 200.835938 90.15625 C 198.753906 85.335938 195.898438 80.984375 192.855469 76.742188 C 192.507812 76.261719 192.074219 75.832031 191.386719 75.863281 Z M 619.617188 46.25 C 620.589844 46.972656 621.164062 46.730469 621.726562 46.601562 C 622.890625 46.339844 624.039062 46.015625 625.207031 45.804688 C 625.933594 45.675781 626.691406 45.640625 627.425781 45.691406 C 628.601562 45.769531 629.625 46.589844 629.742188 47.464844 C 629.878906 48.457031 629.40625 49.238281 628.671875 49.785156 C 625.9375 51.824219 622.808594 52.617188 619.433594 52.53125 C 617.746094 52.488281 616.085938 52.140625 614.925781 50.886719 C 613.039062 48.84375 610.699219 48.875 608.308594 49.1875 C 605.105469 49.605469 602.429688 51.109375 600.058594 53.316406 C 591.503906 61.292969 584.121094 70.214844 578.074219 80.246094 C 574.378906 86.371094 570.808594 92.585938 566.824219 98.523438 C 561.507812 106.441406 555.875 114.148438 550.332031 121.914062 C 542.445312 132.964844 535.019531 144.300781 528.507812 156.230469 C 524.789062 163.042969 520.863281 169.808594 515.5 175.445312 C 507.394531 183.96875 500.222656 193.375 491.296875 201.125 C 489.945312 202.300781 490.042969 203.253906 491.640625 204.347656 C 494.34375 206.199219 497.105469 207.964844 499.886719 209.703125 C 506.953125 214.128906 514.425781 217.921875 520.757812 223.464844 C 521.835938 224.410156 522.457031 224.179688 523.027344 222.730469 C 524.179688 219.820312 525.203125 216.855469 526.472656 213.996094 C 528.722656 208.945312 530.734375 203.8125 532.039062 198.4375 C 534.800781 187.066406 539.0625 176.285156 544.550781 165.972656 C 545.460938 164.261719 546.316406 162.523438 547.1875 160.792969 C 549.804688 155.597656 552.390625 150.398438 554.757812 145.082031 C 558.527344 136.621094 563.125 128.65625 568.542969 121.089844 C 577.667969 108.351562 586.074219 95.148438 591.628906 80.351562 C 592.949219 76.828125 595.097656 73.785156 597.367188 70.800781 C 600.152344 67.140625 603.597656 64.429688 607.90625 62.820312 C 612.09375 61.257812 616.300781 59.742188 620.460938 58.105469 C 622.8125 57.183594 625.144531 56.171875 627.375 54.988281 C 629.519531 53.847656 631.203125 52.136719 632.078125 49.792969 C 632.992188 47.335938 631.921875 45.125 629.386719 44.664062 C 626.132812 44.074219 622.894531 44.152344 619.617188 46.25 Z M 406.816406 328.234375 C 409.246094 324.507812 411.429688 321.496094 412.214844 317.839844 C 413.695312 310.972656 414.558594 304.019531 414.097656 296.972656 C 413.652344 290.132812 412.910156 283.300781 412.742188 276.453125 C 412.484375 266.015625 412.585938 255.570312 412.589844 245.128906 C 412.589844 241.679688 413.238281 238.296875 414.257812 235.007812 C 415.722656 230.289062 418.113281 226.285156 422.917969 224.21875 C 423.871094 223.808594 424.734375 223.191406 425.667969 222.726562 C 431.007812 220.039062 436.011719 216.796875 440.9375 213.429688 C 442.40625 212.421875 443.789062 211.273438 445.125 210.089844 C 452.113281 203.902344 455.53125 195.683594 458.054688 186.996094 C 458.851562 184.261719 459.070312 181.5 458.339844 178.617188 C 457.757812 176.308594 458.085938 173.867188 458.519531 171.503906 C 458.925781 169.304688 459.375 167.109375 459.753906 164.90625 C 460.007812 163.40625 460.003906 161.945312 458.910156 160.679688 C 457.386719 158.921875 457.390625 156.890625 457.941406 154.765625 C 458.203125 153.757812 458.378906 152.726562 458.527344 151.695312 C 458.5625 151.457031 458.390625 151.074219 458.191406 150.953125 C 457.988281 150.832031 457.597656 150.863281 457.363281 150.980469 C 456.96875 151.171875 456.605469 151.453125 456.277344 151.75 C 451.414062 156.152344 446.390625 160.398438 442.042969 165.324219 C 438.289062 169.578125 434.300781 173.601562 430.300781 177.609375 C 427.960938 179.949219 425.871094 182.453125 424.378906 185.414062 C 420.941406 192.222656 416.484375 198.410156 412.507812 204.886719 C 411.496094 206.527344 410.519531 208.234375 408.78125 209.277344 C 407.941406 209.78125 407.589844 210.578125 407.5 211.511719 C 406.847656 218.492188 406.238281 225.464844 406.894531 232.492188 C 407.59375 239.929688 407.511719 247.398438 406.964844 254.839844 C 406.523438 260.804688 406.347656 266.78125 406.796875 272.714844 C 407.214844 278.230469 407.320312 283.734375 407.445312 289.25 C 407.515625 292.53125 407.480469 295.816406 407.605469 299.09375 C 407.886719 306.402344 407.625 313.6875 406.796875 320.953125 C 406.550781 323.105469 406.265625 325.28125 406.816406 328.234375 Z M 509.222656 163.617188 C 511.058594 160.054688 511.605469 156.226562 511.585938 152.371094 C 511.554688 147.039062 509.3125 142.992188 504.308594 140.53125 C 499.886719 138.355469 495.480469 136.207031 490.703125 134.9375 C 485.382812 133.523438 480.074219 133.699219 474.824219 135.238281 C 469.988281 136.65625 466.476562 139.660156 464.273438 144.230469 C 463.492188 145.851562 463.179688 147.308594 464.585938 148.722656 C 464.789062 148.929688 464.949219 149.199219 465.070312 149.46875 C 465.675781 150.777344 466.707031 151.007812 468.03125 150.828125 C 471.605469 150.339844 475.0625 149.570312 478.09375 147.453125 C 481.710938 144.917969 485.730469 143.535156 490.140625 143.109375 C 492.109375 142.917969 493.996094 143.097656 495.90625 143.417969 C 497.421875 143.671875 498.878906 143.621094 500.027344 142.34375 C 500.519531 141.796875 501.066406 141.234375 501.929688 141.515625 C 502.5 141.699219 502.464844 142.996094 501.9375 143.949219 C 500.953125 145.734375 499.542969 146.394531 497.484375 146.066406 C 495.582031 145.765625 493.632812 145.726562 491.703125 145.636719 C 488.347656 145.480469 485.15625 146.210938 482.261719 147.882812 C 477.847656 150.429688 473.398438 152.761719 468.164062 153.121094 C 466.734375 153.21875 465.804688 154.257812 465.320312 155.652344 C 464.917969 156.808594 464.746094 157.957031 465.089844 159.15625 C 466.207031 163.058594 465.511719 166.808594 464.246094 170.558594 C 463.441406 172.953125 462.800781 175.414062 462.226562 177.878906 C 461.816406 179.628906 461.75 181.429688 462.425781 183.167969 C 464.898438 189.523438 469.246094 193.925781 475.832031 195.945312 C 476.675781 196.203125 477.578125 196.328125 478.464844 196.378906 C 480.191406 196.488281 481.65625 195.945312 482.785156 194.523438 C 483.613281 193.476562 484.476562 192.414062 485.507812 191.582031 C 489.8125 188.109375 493.460938 183.949219 497.519531 180.226562 C 501.769531 176.332031 504.019531 171.4375 505.617188 166.074219 C 506.867188 161.882812 506.691406 157.847656 504.875 153.871094 C 504.316406 152.652344 503.789062 151.414062 503.320312 150.160156 C 503.058594 149.460938 502.933594 148.640625 503.859375 148.308594 C 504.554688 148.058594 504.957031 148.640625 505.242188 149.160156 C 507.710938 153.648438 509.429688 158.332031 509.222656 163.621094 Z M 342.425781 173.265625 C 343.320312 173.222656 344.230469 173.207031 344.96875 172.617188 C 345.183594 172.445312 345.398438 172.15625 345.4375 171.894531 C 345.5 171.421875 345.210938 170.976562 344.761719 170.917969 C 342.40625 170.605469 340.03125 170.429688 337.6875 170.066406 C 335.628906 169.746094 333.871094 170.128906 332.34375 171.601562 C 331.707031 172.214844 330.953125 172.730469 330.195312 173.191406 C 327.972656 174.542969 326.4375 174.378906 324.625 172.453125 C 323.613281 171.375 322.878906 170.039062 321.894531 168.929688 C 318.40625 164.984375 317.328125 164.167969 313.914062 169.292969 C 310.421875 174.535156 308.128906 180.328125 307.199219 186.65625 C 306.222656 193.304688 306.039062 200.007812 305.578125 206.683594 C 304.808594 217.828125 304.199219 228.972656 302.144531 239.976562 C 302.0625 240.410156 302.03125 240.875 302.097656 241.304688 C 302.132812 241.527344 302.417969 241.734375 302.628906 241.898438 C 302.710938 241.964844 302.945312 241.941406 303.035156 241.867188 C 303.492188 241.492188 303.992188 241.148438 304.347656 240.691406 C 310.042969 233.390625 316.445312 226.742188 323.144531 220.378906 C 328.789062 215.019531 333.664062 209.027344 338.132812 202.683594 C 341.996094 197.207031 345.808594 191.695312 349.707031 186.242188 C 353.605469 180.789062 357.59375 175.402344 362.132812 170.453125 C 364.171875 168.230469 366.386719 166.3125 369.546875 165.804688 C 370.824219 165.597656 371.132812 164.710938 370.644531 163.414062 C 370.382812 162.726562 370.121094 161.992188 369.671875 161.421875 C 367.542969 158.722656 365.007812 156.417969 362.398438 154.195312 C 361.898438 153.765625 361.0625 154.054688 361.011719 154.671875 C 360.894531 156.152344 360.761719 157.640625 360.78125 159.128906 C 360.816406 161.679688 360.515625 164.195312 359.953125 166.664062 C 358.875 171.417969 356.75 175.644531 353.105469 178.960938 C 350.054688 181.738281 346.910156 182.089844 343.765625 179.839844 C 340.996094 177.855469 338.691406 175.269531 335.804688 173.398438 C 335.171875 172.988281 334.960938 172.160156 335.515625 171.4375 C 335.941406 170.878906 336.585938 170.917969 337.136719 171.175781 C 337.800781 171.488281 338.429688 171.902344 339.039062 172.324219 C 340.0625 173.039062 341.214844 173.238281 342.425781 173.265625 Z M 567.117188 568.140625 C 569.621094 560.144531 570.433594 552.011719 570.84375 543.84375 C 571.230469 536.105469 570.804688 528.34375 571.5625 520.609375 C 571.820312 517.953125 571.578125 515.246094 571.484375 512.566406 C 571.386719 509.738281 571.023438 506.910156 571.0625 504.089844 C 571.226562 492.898438 570.21875 481.753906 569.871094 470.582031 C 569.847656 469.839844 569.746094 469.097656 569.6875 468.355469 C 569.207031 462.417969 568.710938 456.480469 568.257812 450.539062 C 567.851562 445.195312 567.585938 439.832031 567.097656 434.496094 C 566.390625 426.78125 565.453125 419.089844 564.773438 411.375 C 563.890625 401.277344 562.578125 391.234375 560.960938 381.230469 C 559.105469 369.742188 556.675781 358.382812 552.773438 347.378906 C 548.90625 336.472656 543.46875 326.417969 536.652344 317.09375 C 536.039062 316.257812 535.339844 315.472656 534.632812 314.714844 C 534.25 314.304688 533.746094 313.765625 533.175781 314.296875 C 532.960938 314.5 532.984375 315.160156 533.132812 315.519531 C 534.820312 319.660156 536.386719 323.859375 538.300781 327.894531 C 544.011719 339.925781 548.601562 352.347656 551.511719 365.351562 C 554.632812 379.3125 557.574219 393.316406 560.640625 407.292969 C 562.46875 415.621094 563.078125 424.089844 563.761719 432.554688 C 564.109375 436.882812 563.359375 441.179688 563.175781 445.492188 C 562.976562 450.269531 562.316406 454.988281 561.632812 459.703125 C 560.589844 466.929688 559.339844 474.125 558.382812 481.363281 C 557.015625 491.761719 556.988281 502.179688 558.945312 512.523438 C 561.832031 527.757812 563.835938 543.121094 565.789062 558.496094 C 566.199219 561.714844 566.671875 564.925781 567.117188 568.140625 Z M 370.324219 169.878906 C 370.257812 168.734375 369.207031 168.203125 368.28125 168.605469 C 366.316406 169.460938 364.851562 170.90625 363.46875 172.503906 C 358.296875 178.484375 353.628906 184.839844 349.117188 191.328125 C 343.507812 199.402344 337.992188 207.542969 331.636719 215.074219 C 328.359375 218.957031 324.667969 222.425781 321.050781 225.960938 C 315.070312 231.800781 309.476562 237.96875 304.371094 244.589844 C 302.8125 246.609375 301.421875 248.703125 300.605469 251.140625 C 300.402344 251.738281 300.476562 252.316406 300.878906 252.816406 C 301.308594 253.347656 301.921875 253.425781 302.496094 253.207031 C 303.605469 252.78125 304.714844 252.332031 305.761719 251.777344 C 309.183594 249.957031 312.570312 248.085938 315.972656 246.238281 C 322.777344 242.539062 329.578125 238.839844 336.386719 235.152344 C 341.871094 232.179688 346.347656 228.167969 349.582031 222.773438 C 351.734375 219.183594 353.652344 215.488281 355.246094 211.628906 C 360.375 199.230469 364.648438 186.511719 369.339844 173.949219 C 369.703125 172.976562 369.984375 171.964844 370.246094 170.957031 C 370.355469 170.535156 370.3125 170.074219 370.328125 169.878906 Z M 295.984375 252.21875 C 296.632812 251.773438 296.8125 251.0625 297.027344 250.382812 C 298.683594 245.109375 299.761719 239.699219 300.597656 234.25 C 302.296875 223.199219 302.640625 212.023438 303.457031 200.890625 C 303.867188 195.25 304.105469 189.585938 305.175781 184.019531 C 306.351562 177.9375 308.839844 172.390625 312.292969 167.269531 C 314.109375 164.574219 316.378906 162.578125 319.84375 162.3125 C 320.851562 162.234375 321.851562 161.800781 322.804688 161.402344 C 323.574219 161.082031 323.894531 160.28125 323.664062 159.535156 C 322.773438 156.65625 321.425781 154.011719 319.144531 151.964844 C 318.144531 151.074219 316.929688 151.007812 315.84375 151.777344 C 314.390625 152.808594 312.921875 153.851562 311.648438 155.085938 C 307.691406 158.921875 303.773438 162.796875 299.9375 166.753906 C 295.023438 171.816406 291.1875 177.636719 287.984375 183.921875 C 284.957031 189.867188 284.226562 196.085938 285.195312 202.597656 C 286.101562 208.660156 287.59375 214.550781 289.777344 220.296875 C 293.398438 229.835938 295.554688 239.691406 295.4375 249.96875 C 295.429688 250.679688 295.289062 251.449219 295.984375 252.21875 Z M 188.03125 30.777344 C 188.292969 27.21875 187.425781 23.453125 186.421875 19.699219 C 185.265625 15.371094 183.738281 11.1875 181.644531 7.21875 C 180.945312 5.890625 180.171875 4.605469 178.78125 3.890625 C 177.675781 3.316406 176.480469 3.199219 175.34375 3.761719 C 174.136719 4.363281 174.367188 5.449219 174.59375 6.492188 C 174.625 6.636719 174.640625 6.789062 174.636719 6.9375 C 174.570312 8.652344 173.554688 9.320312 171.957031 8.621094 C 171.171875 8.28125 170.566406 7.421875 169.542969 7.878906 C 168.691406 8.261719 168.136719 8.949219 167.660156 9.714844 C 166.789062 11.121094 166.253906 12.636719 165.902344 14.265625 C 165.230469 17.375 165.507812 20.453125 165.765625 23.578125 C 166.230469 29.140625 167.480469 34.441406 170.046875 39.410156 C 172.25 43.664062 173.621094 48.226562 175.003906 52.789062 C 175.929688 55.839844 175.933594 58.957031 175.441406 62.074219 C 175.164062 63.835938 174.804688 65.589844 174.429688 67.335938 C 173.925781 69.683594 173.855469 72.058594 173.871094 74.441406 C 173.875 75.179688 173.992188 75.921875 174.136719 76.648438 C 174.285156 77.402344 175.160156 77.886719 175.847656 77.613281 C 176.398438 77.394531 176.953125 77.15625 177.441406 76.832031 C 180.460938 74.835938 183.722656 73.492188 187.304688 72.878906 C 189.21875 72.554688 189.40625 72.242188 189.089844 70.105469 C 188.546875 66.425781 188.003906 62.742188 187.277344 59.101562 C 186.332031 54.382812 186.183594 49.703125 186.746094 44.90625 C 187.277344 40.335938 188.15625 35.78125 188.03125 30.777344 Z M 388.925781 413.175781 C 394.136719 413.539062 400.175781 408.996094 400.976562 404.371094 C 401.503906 401.296875 402.65625 398.320312 403.09375 395.238281 C 403.804688 390.246094 401.535156 386.289062 396.136719 385.761719 C 392 385.355469 387.824219 385.507812 383.691406 384.8125 C 381.574219 384.457031 379.859375 385.589844 379.105469 387.617188 C 377.089844 393.050781 376.460938 398.605469 378.125 404.261719 C 378.328125 404.953125 378.652344 405.789062 379.191406 406.164062 C 380.613281 407.15625 381.445312 408.421875 381.949219 410.054688 C 382.269531 411.082031 383.257812 411.628906 384.179688 412.144531 C 385.65625 412.976562 387.273438 413.152344 388.925781 413.175781 Z M 258.125 228.941406 C 257.945312 229.5 257.710938 230.042969 257.59375 230.613281 C 256.03125 238.367188 253.546875 245.859375 251.207031 253.398438 C 248.558594 261.929688 245.835938 270.441406 243.605469 279.101562 C 240.261719 292.105469 236.09375 304.816406 230.222656 316.949219 C 227.371094 322.839844 224.945312 328.9375 222.363281 334.960938 C 221.777344 336.328125 221.265625 337.738281 220.871094 339.167969 C 220.351562 341.042969 220.066406 342.972656 220.640625 344.894531 C 220.75 345.265625 221.136719 345.722656 221.476562 345.804688 C 221.789062 345.882812 222.296875 345.585938 222.5625 345.308594 C 222.855469 345.003906 223 344.539062 223.164062 344.125 C 225.710938 337.589844 229.054688 331.429688 232.046875 325.105469 C 235.679688 317.417969 238.886719 309.570312 241.101562 301.339844 C 243.65625 291.847656 246.246094 282.367188 248.882812 272.898438 C 251.996094 261.703125 254.933594 250.464844 257.285156 239.085938 C 257.972656 235.765625 258.777344 232.425781 258.125 228.941406 Z M 342.3125 75.863281 C 339.457031 75.632812 336.402344 76.480469 333.296875 76.789062 C 328.269531 77.292969 323.253906 77.953125 318.234375 78.566406 C 317.96875 78.601562 317.640625 78.765625 317.488281 78.972656 C 317.175781 79.410156 317.410156 79.855469 317.742188 80.167969 C 320.820312 83.078125 324.296875 85.371094 328.476562 86.261719 C 331.820312 86.972656 335.210938 87.527344 338.609375 87.894531 C 343.214844 88.394531 347.832031 88.265625 352.355469 87.082031 C 353.644531 86.742188 354.882812 86.203125 356.167969 85.832031 C 357 85.59375 357.613281 85.90625 357.820312 86.824219 C 357.886719 87.109375 357.960938 87.410156 358.097656 87.664062 C 358.402344 88.230469 358.898438 88.570312 359.550781 88.46875 C 360.222656 88.367188 360.523438 87.84375 360.609375 87.222656 C 360.996094 84.410156 359.78125 82.273438 357.621094 80.660156 C 353.179688 77.351562 348.199219 75.640625 342.3125 75.863281 Z M 403.425781 537.917969 C 407.21875 534.066406 410.101562 530.347656 413.054688 526.714844 C 426.273438 510.425781 438.816406 493.621094 451.195312 476.6875 C 451.261719 476.59375 451.261719 476.386719 451.207031 476.277344 C 451.15625 476.179688 450.988281 476.136719 450.871094 476.070312 C 442.304688 483.378906 407.617188 528.382812 403.425781 537.917969 Z M 401.875 348.695312 C 401.582031 348.644531 401.285156 348.59375 400.992188 348.542969 C 400.332031 350.015625 399.679688 351.488281 399.011719 352.953125 C 397.339844 356.609375 395.640625 360.25 393.988281 363.914062 C 393.039062 366.015625 393.0625 366.503906 394.644531 367.800781 C 397.671875 370.285156 400.144531 373.226562 402.28125 376.480469 C 402.523438 376.851562 402.796875 377.21875 403.128906 377.507812 C 403.3125 377.671875 403.683594 377.789062 403.894531 377.710938 C 404.105469 377.636719 404.335938 377.304688 404.359375 377.066406 C 404.566406 374.976562 404.382812 372.90625 404.070312 370.839844 C 403.558594 367.457031 403.164062 364.054688 402.582031 360.683594 C 401.902344 356.714844 401.863281 352.710938 401.875 348.691406 Z M 334.550781 533.945312 C 333.710938 533.835938 333.464844 534.234375 333.300781 534.621094 C 330.824219 540.386719 327.414062 545.570312 323.558594 550.492188 C 322.929688 551.296875 322.425781 552.230469 322.011719 553.171875 C 321.46875 554.398438 321.988281 555.566406 323.261719 556.050781 C 325.488281 556.898438 327.839844 557.25 330.191406 557.539062 C 331.007812 557.640625 331.664062 557.292969 331.945312 556.507812 C 332.246094 555.671875 332.542969 554.816406 332.667969 553.949219 C 333.347656 549.257812 334.054688 544.566406 334.585938 539.859375 C 334.808594 537.882812 335.070312 535.832031 334.550781 533.945312 Z M 372.75 249.464844 C 373.023438 249.507812 373.296875 249.554688 373.570312 249.597656 C 375.824219 243.625 378.101562 237.664062 380.324219 231.683594 C 384.058594 221.648438 387.765625 211.605469 391.453125 201.554688 C 392.011719 200.027344 392.714844 198.519531 392.71875 196.84375 C 392.71875 196.585938 392.550781 196.210938 392.347656 196.101562 C 392.144531 195.988281 391.683594 196.027344 391.53125 196.1875 C 390.726562 197.050781 389.902344 197.914062 389.226562 198.875 C 385.746094 203.828125 383.847656 209.445312 382.449219 215.265625 C 381.234375 220.324219 380.164062 225.425781 378.757812 230.429688 C 377.347656 235.4375 375.59375 240.34375 374.007812 245.300781 C 373.5625 246.679688 373.167969 248.074219 372.75 249.464844 Z M 566.867188 587.238281 C 566.296875 591.371094 565.503906 594.925781 566.269531 598.648438 C 566.929688 601.847656 567.300781 605.097656 567.882812 608.3125 C 568.589844 612.257812 569.304688 616.191406 569.492188 620.21875 C 569.609375 622.730469 570.085938 625.226562 570.472656 627.71875 C 570.53125 628.082031 570.929688 628.539062 571.277344 628.675781 C 571.90625 628.925781 572.394531 628.507812 572.699219 627.960938 C 574.292969 625.113281 574.65625 622.085938 574 618.90625 C 571.933594 608.871094 569.875 598.832031 567.789062 588.800781 C 567.710938 588.417969 567.378906 588.085938 566.871094 587.238281 Z M 369.925781 403.824219 C 369.925781 404.496094 369.917969 404.792969 369.925781 405.089844 C 370.015625 408.730469 371.5625 410.488281 375.199219 411.09375 C 376.671875 411.335938 377.589844 410.414062 377.1875 409.066406 C 377.019531 408.496094 376.78125 407.949219 376.550781 407.402344 C 375.359375 404.625 374.898438 401.722656 374.90625 398.710938 C 374.914062 395.582031 374.984375 392.472656 375.804688 389.425781 C 375.988281 388.742188 376.390625 387.824219 375.703125 387.335938 C 374.851562 386.730469 374.027344 387.429688 373.316406 387.929688 C 372.128906 388.765625 371.765625 390.007812 371.628906 391.402344 C 371.398438 393.765625 371.097656 396.121094 370.773438 398.472656 C 370.511719 400.382812 370.171875 402.28125 369.925781 403.824219 Z M 160.59375 636.757812 C 166.585938 636.78125 172.425781 635.6875 178.210938 634.246094 C 179.523438 633.917969 180.78125 633.46875 181.867188 632.644531 C 184.007812 631.019531 184.675781 628.707031 183.667969 626.335938 C 183.476562 625.886719 182.996094 625.703125 182.613281 626.054688 C 182.183594 626.445312 181.816406 626.945312 181.53125 627.457031 C 179.007812 631.972656 175.175781 633.808594 170.035156 633.558594 C 165.578125 633.34375 161.105469 633.519531 156.636719 633.558594 C 155.453125 633.566406 154.269531 633.683594 153.089844 633.820312 C 152.867188 633.847656 152.601562 634.15625 152.492188 634.398438 C 152.289062 634.839844 152.449219 635.273438 152.820312 635.570312 C 153.785156 636.339844 154.925781 636.695312 156.128906 636.746094 C 157.617188 636.808594 159.105469 636.761719 160.59375 636.761719 Z M 446.398438 293.796875 C 446.652344 294.296875 446.882812 294.8125 447.167969 295.296875 C 450.164062 300.398438 453.167969 305.5 456.167969 310.601562 C 456.765625 311.621094 457.308594 312.679688 457.960938 313.664062 C 458.167969 313.976562 458.636719 314.285156 458.996094 314.292969 C 459.46875 314.304688 459.679688 313.808594 459.75 313.34375 C 459.933594 312.148438 459.746094 310.988281 459.402344 309.839844 C 458.796875 307.84375 457.976562 305.945312 456.796875 304.222656 C 454.035156 300.171875 450.710938 296.636719 446.398438 293.796875 Z M 347.644531 178.554688 C 349.679688 178.59375 351.003906 177.980469 352.054688 176.832031 C 354.292969 174.382812 355.960938 171.59375 356.8125 168.363281 C 356.875 168.121094 356.789062 167.734375 356.621094 167.570312 C 356.476562 167.425781 356.007812 167.382812 355.863281 167.503906 C 353.097656 169.855469 348.992188 170.40625 347.144531 174.039062 C 346.851562 174.621094 345.972656 174.90625 345.359375 175.320312 C 344.769531 175.71875 343.859375 175.953125 344.191406 176.921875 C 344.445312 177.664062 345.199219 177.996094 345.910156 178.210938 C 346.613281 178.417969 347.355469 178.5 347.644531 178.554688 Z M 287.433594 154.480469 C 290.644531 154.53125 293.394531 153.121094 295.9375 151.222656 C 296.207031 151.023438 296.371094 150.382812 296.261719 150.058594 C 296.148438 149.734375 295.660156 149.371094 295.292969 149.320312 C 291.527344 148.789062 288.734375 150.664062 286.230469 153.144531 C 285.890625 153.484375 286.003906 154.003906 286.5 154.25 C 286.757812 154.375 287.066406 154.394531 287.433594 154.480469 Z M 362.386719 102.027344 C 362.445312 100.253906 361.96875 98.226562 361.410156 96.214844 C 361.25 95.640625 360.957031 95.015625 360.25 95.121094 C 359.574219 95.222656 359.417969 95.910156 359.277344 96.488281 C 359.171875 96.917969 359.125 97.367188 359.097656 97.8125 C 358.996094 99.621094 359.386719 101.359375 359.871094 103.089844 C 360.445312 105.152344 361.089844 106.125 361.644531 105.695312 C 362.632812 104.925781 362.261719 103.804688 362.386719 102.8125 C 362.40625 102.667969 362.390625 102.515625 362.390625 102.027344 Z M 299.945312 627.628906 C 303.273438 628.34375 305.46875 627.570312 307.636719 626.703125 C 308.902344 626.195312 309.628906 625.363281 309.207031 625.015625 C 308.554688 624.488281 307.789062 624.640625 307.109375 624.824219 C 304.890625 625.421875 302.640625 625.96875 299.945312 627.628906 Z M 341.507812 167.871094 L 341.507812 167.921875 C 341.804688 167.921875 342.105469 167.960938 342.394531 167.917969 C 343.34375 167.765625 344.550781 168.351562 345.132812 167.117188 C 345.46875 166.402344 344.0625 165.480469 342.457031 165.445312 C 341.582031 165.425781 340.683594 165.503906 339.835938 165.699219 C 339.132812 165.859375 338.109375 166.191406 338.125 166.894531 C 338.152344 168.160156 339.410156 167.703125 340.1875 167.855469 C 340.613281 167.941406 341.070312 167.871094 341.511719 167.871094 Z M 463.238281 152.316406 C 463.089844 151.539062 462.851562 151.148438 462.359375 151.113281 C 462.117188 151.09375 461.722656 151.257812 461.632812 151.449219 C 460.816406 153.1875 460.183594 154.988281 460.328125 156.957031 C 460.34375 157.195312 460.570312 157.539062 460.777344 157.609375 C 460.992188 157.683594 461.417969 157.570312 461.550781 157.390625 C 462.707031 155.789062 463.207031 153.972656 463.238281 152.316406 Z M 358.464844 125.742188 C 359.992188 121.34375 360.007812 121.164062 359.023438 118.671875 C 358.355469 120.757812 358.171875 123.113281 358.464844 125.742188 Z M 330.566406 169.347656 C 330.417969 169.105469 330.261719 168.679688 330.152344 168.691406 C 328.941406 168.820312 328.039062 169.570312 327.152344 170.324219 C 327.085938 170.382812 327.09375 170.664062 327.167969 170.734375 C 327.375 170.917969 327.628906 171.167969 327.875 171.175781 C 329.199219 171.21875 330.046875 170.507812 330.566406 169.347656 Z M 262.898438 205.417969 C 263.5625 203.171875 264.019531 201.691406 264.417969 200.191406 C 264.472656 199.984375 264.222656 199.695312 264.113281 199.445312 C 262.71875 201.6875 262.765625 201.699219 262.898438 205.417969 Z M 388.082031 369.210938 C 387.902344 368.984375 387.753906 368.746094 387.550781 368.570312 C 387.46875 368.5 387.246094 368.523438 387.125 368.582031 C 386.148438 369.054688 385.71875 370.109375 386.070312 371.191406 C 386.1875 371.546875 386.5 371.667969 386.792969 371.445312 C 387.527344 370.886719 387.953125 370.125 388.082031 369.210938 Z M 381.71875 368.082031 C 381.46875 367.707031 381.363281 367.367188 381.148438 367.269531 C 380.933594 367.167969 380.546875 367.21875 380.339844 367.363281 C 379.816406 367.71875 379.675781 368.308594 379.707031 368.90625 C 379.722656 369.167969 379.855469 369.539062 380.050781 369.636719 C 380.226562 369.730469 380.652344 369.605469 380.804688 369.433594 C 381.171875 369.007812 381.445312 368.5 381.71875 368.082031 Z M 463.085938 162.921875 C 462.175781 164.445312 461.949219 165.671875 462.261719 167.589844 C 463.023438 165.855469 463.5625 164.679688 463.085938 162.921875 Z M 185.65625 76.363281 C 185.613281 76.242188 185.589844 76.039062 185.527344 76.027344 C 184.78125 75.878906 184.097656 76.046875 183.507812 76.523438 C 183.425781 76.589844 183.375 76.789062 183.410156 76.886719 C 183.445312 76.992188 183.605469 77.113281 183.714844 77.117188 C 184.46875 77.144531 185.109375 76.867188 185.65625 76.363281 Z M 624.964844 48.914062 C 624.964844 48.773438 625.007812 48.617188 624.953125 48.535156 C 624.886719 48.441406 624.714844 48.335938 624.617188 48.359375 C 624.078125 48.484375 623.535156 48.609375 623.027344 48.816406 C 622.871094 48.882812 622.8125 49.199219 622.707031 49.398438 C 622.832031 49.453125 622.953125 49.550781 623.074219 49.550781 C 623.78125 49.546875 624.472656 49.484375 624.964844 48.910156 Z M 326.816406 166.964844 C 326.589844 166.867188 326.34375 166.65625 326.140625 166.695312 C 325.75 166.765625 325.34375 167.003906 325.636719 167.492188 C 325.714844 167.625 326.164062 167.640625 326.378906 167.550781 C 326.570312 167.46875 326.675781 167.171875 326.816406 166.964844 Z M 353.710938 107.613281 C 354.277344 107.375 354.636719 106.882812 354.542969 106.207031 C 354.445312 105.480469 353.84375 105.25 353.269531 105.167969 C 350.871094 104.824219 348.53125 105.160156 346.257812 105.96875 C 345.292969 106.308594 344.195312 106.5 343.832031 107.679688 C 343.609375 108.394531 344.832031 108.90625 346.757812 108.910156 C 349.160156 108.929688 351.492188 108.535156 353.710938 107.613281 Z M 331.214844 107.984375 C 331.648438 107.9375 332.058594 107.734375 332.164062 107.226562 C 332.265625 106.75 332.09375 106.363281 331.691406 106.109375 C 329.90625 104.976562 327.933594 104.472656 325.835938 104.476562 C 325.40625 104.480469 324.957031 104.597656 324.546875 104.746094 C 323.714844 105.046875 322.792969 105.382812 322.796875 106.453125 C 322.800781 107.574219 323.734375 107.851562 324.621094 107.957031 C 325.785156 108.097656 326.964844 108.113281 328.433594 108.199219 C 329.167969 108.144531 330.195312 108.097656 331.214844 107.984375 Z M 500.011719 165.640625 C 500.835938 165.976562 501.628906 166.394531 502.457031 166.71875 C 503.207031 167.015625 504.007812 166.964844 504.410156 166.210938 C 504.792969 165.484375 504.445312 164.734375 503.863281 164.214844 C 503.316406 163.726562 502.695312 163.304688 502.058594 162.941406 C 498.863281 161.105469 492.035156 163.964844 491.480469 168.3125 C 491.332031 169.492188 491.308594 170.683594 491.214844 171.871094 C 491.011719 174.429688 490.453125 174.800781 488.1875 173.882812 C 487.101562 173.441406 486.128906 172.644531 484.867188 172.753906 C 484.621094 172.773438 484.292969 172.996094 484.183594 173.21875 C 484.070312 173.441406 484.074219 173.835938 484.203125 174.050781 C 484.9375 175.285156 486.285156 175.679688 487.457031 176.28125 C 491.65625 178.445312 493.035156 177.671875 493.394531 172.9375 C 493.519531 171.300781 493.566406 169.660156 494.226562 168.125 C 494.992188 166.347656 496.757812 165.074219 498.589844 165.171875 C 498.890625 165.269531 499.46875 165.417969 500.011719 165.640625 Z M 500.011719 165.640625 " fill-opacity="1" fill-rule="nonzero"/></g></g></g></g></g></svg>