<svg xmlns="http://www.w3.org/2000/svg" xmlns:xlink="http://www.w3.org/1999/xlink" width="1080" zoomAndPan="magnify" viewBox="0 0 810 1012.49997" height="1350" preserveAspectRatio="xMidYMid meet" version="1.0"><defs><filter x="0%" y="0%" width="100%" height="100%" id="70c3ba972f"><feColorMatrix values="0 0 0 0 1 0 0 0 0 1 0 0 0 0 1 0 0 0 1 0" color-interpolation-filters="sRGB"/></filter><clipPath id="9774fb793e"><path d="M 0.199219 395 L 809.800781 395 L 809.800781 479 L 0.199219 479 Z M 0.199219 395 " clip-rule="nonzero"/></clipPath><mask id="36b08602b8"><g filter="url(#70c3ba972f)"><rect x="-81" width="972" fill="#000000" y="-101.249997" height="1214.999964" fill-opacity="0.67"/></g></mask><clipPath id="9a470482d2"><rect x="0" width="810" y="0" height="84"/></clipPath></defs><g clip-path="url(#9774fb793e)"><g mask="url(#36b08602b8)"><g transform="matrix(1, 0, 0, 1, 0.000000000000000028, 395)"><g clip-path="url(#9a470482d2)"><path fill="#303030" d="M 390.03125 54.515625 C 375.929688 48.582031 361.425781 43.882812 346.519531 40.417969 C 341.503906 34.359375 335.699219 29.175781 329.105469 24.871094 C 328.0625 23 326.894531 21.207031 325.601562 19.496094 C 324.308594 17.785156 322.902344 16.171875 321.382812 14.65625 C 319.863281 13.140625 318.246094 11.734375 316.53125 10.441406 C 314.820312 9.152344 313.023438 7.984375 311.144531 6.941406 C 309.269531 5.898438 307.328125 4.988281 305.324219 4.214844 C 303.320312 3.441406 301.269531 2.8125 299.179688 2.320312 C 297.085938 1.832031 294.96875 1.488281 292.828125 1.292969 C 290.691406 1.097656 288.546875 1.050781 286.398438 1.152344 C 284.6875 1.28125 284.671875 3.960938 286.398438 3.828125 C 288.242188 3.785156 290.078125 3.847656 291.910156 4.019531 C 293.746094 4.191406 295.5625 4.46875 297.363281 4.855469 C 299.164062 5.242188 300.933594 5.734375 302.675781 6.328125 C 304.417969 6.925781 306.121094 7.621094 307.78125 8.417969 C 309.441406 9.214844 311.046875 10.105469 312.597656 11.089844 C 314.152344 12.078125 315.644531 13.152344 317.070312 14.3125 C 318.496094 15.476562 319.847656 16.71875 321.125 18.039062 C 322.402344 19.363281 323.597656 20.753906 324.710938 22.214844 C 321.386719 20.351562 317.9375 18.746094 314.367188 17.402344 C 312.746094 16.796875 312.046875 19.386719 313.652344 19.984375 C 316.789062 21.160156 319.824219 22.546875 322.757812 24.148438 C 309.859375 24.644531 292.164062 18.5 289.875 4.824219 C 289.589844 3.125 287 3.847656 287.28125 5.535156 C 290.023438 21.902344 312.394531 28.484375 326.703125 26.457031 C 332.417969 30.09375 337.546875 34.421875 342.089844 39.445312 C 316.488281 34.039062 290.625 32.058594 264.496094 33.496094 C 264.625 33.011719 264.507812 32.59375 264.148438 32.246094 C 263.789062 31.894531 263.367188 31.789062 262.886719 31.929688 C 260.75 32.59375 258.628906 33.300781 256.507812 34.003906 C 244.253906 34.894531 231.917969 36.386719 219.511719 38.480469 C 210.664062 39.972656 201.757812 41.613281 192.816406 43.25 C 186.457031 40.800781 180.023438 38.628906 173.519531 36.738281 C 171.214844 33.839844 168.496094 31.402344 165.367188 29.414062 C 162.238281 27.429688 158.867188 26.007812 155.257812 25.15625 C 145.046875 21.507812 134.523438 19.84375 123.679688 20.167969 C 123.144531 20.460938 122.734375 20.875 122.453125 21.414062 C 122.167969 21.953125 122.058594 22.523438 122.121094 23.125 C 131.085938 40.296875 153.515625 44.238281 170.867188 39.6875 C 171.269531 39.597656 171.550781 39.363281 171.710938 38.980469 L 171.894531 39.039062 C 172.144531 39.257812 172.433594 39.347656 172.761719 39.308594 C 177.75 40.769531 182.683594 42.421875 187.582031 44.203125 C 141.644531 52.5625 94.800781 60.039062 49.800781 46.429688 C 40.824219 29.953125 23.875 23.695312 6.753906 18.628906 C 6.582031 18.585938 6.40625 18.574219 6.230469 18.597656 C 6.054688 18.621094 5.886719 18.675781 5.734375 18.761719 C 5.578125 18.847656 5.445312 18.960938 5.335938 19.101562 C 5.226562 19.242188 5.148438 19.394531 5.097656 19.566406 C 0.0390625 41.316406 31.484375 50.257812 47.679688 48.542969 C 57.019531 51.457031 66.539062 53.558594 76.238281 54.839844 C 69.847656 55.550781 63.613281 56.953125 57.53125 59.039062 C 57.28125 58.742188 56.960938 58.589844 56.570312 58.582031 C 52.355469 58.378906 48.148438 58.5 43.949219 58.945312 C 39.753906 59.390625 35.617188 60.15625 31.539062 61.246094 C 27.460938 62.332031 23.492188 63.726562 19.632812 65.429688 C 15.773438 67.132812 12.070312 69.121094 8.519531 71.398438 C 8.417969 71.460938 8.328125 71.53125 8.25 71.613281 C 8.167969 71.699219 8.097656 71.789062 8.042969 71.890625 C 7.984375 71.992188 7.941406 72.101562 7.914062 72.210938 C 7.882812 72.324219 7.867188 72.4375 7.867188 72.554688 C 7.867188 72.671875 7.882812 72.785156 7.914062 72.898438 C 7.941406 73.011719 7.984375 73.117188 8.042969 73.21875 C 8.097656 73.320312 8.167969 73.414062 8.25 73.496094 C 8.328125 73.578125 8.417969 73.652344 8.519531 73.710938 C 9.546875 74.390625 10.605469 75.015625 11.699219 75.585938 C 12.789062 76.15625 13.90625 76.667969 15.050781 77.125 C 16.199219 77.578125 17.363281 77.972656 18.546875 78.308594 C 19.734375 78.644531 20.933594 78.917969 22.148438 79.128906 C 23.363281 79.339844 24.585938 79.492188 25.816406 79.578125 C 27.042969 79.664062 28.273438 79.6875 29.507812 79.644531 C 30.738281 79.605469 31.964844 79.5 33.1875 79.335938 C 34.40625 79.167969 35.617188 78.9375 36.816406 78.648438 C 38.011719 78.355469 39.191406 78.003906 40.351562 77.59375 C 41.511719 77.179688 42.652344 76.710938 43.761719 76.179688 C 44.875 75.652344 45.957031 75.066406 47.007812 74.425781 C 48.0625 73.785156 49.078125 73.089844 50.058594 72.347656 C 51.035156 71.601562 51.976562 70.808594 52.875 69.964844 C 53.773438 69.125 54.625 68.238281 55.429688 67.308594 C 56.238281 66.378906 56.992188 65.410156 57.699219 64.40625 C 58.40625 63.398438 59.058594 62.355469 59.65625 61.28125 L 59.710938 61.136719 C 68.246094 58.339844 77.007812 56.929688 85.992188 56.910156 C 86.285156 56.917969 86.542969 56.835938 86.777344 56.65625 C 87.007812 56.480469 87.15625 56.25 87.222656 55.96875 C 125.003906 58.84375 163.664062 51.398438 201.015625 44.496094 C 216.386719 41.660156 231.8125 38.988281 247.324219 37.191406 C 240.222656 39.769531 233.203125 42.550781 226.304688 45.648438 C 224.273438 46.5625 222.226562 47.484375 220.230469 48.480469 C 220.089844 48.230469 219.886719 48.050781 219.617188 47.949219 C 219.347656 47.847656 219.074219 47.847656 218.804688 47.941406 C 211.039062 49.902344 203.765625 53.007812 196.988281 57.261719 C 193.917969 59.601562 191.238281 62.316406 188.9375 65.410156 C 186.640625 68.507812 184.820312 71.859375 183.476562 75.464844 C 183.417969 75.570312 183.375 75.675781 183.347656 75.789062 C 183.316406 75.902344 183.304688 76.019531 183.304688 76.136719 C 183.304688 76.25 183.320312 76.367188 183.351562 76.480469 C 183.382812 76.59375 183.425781 76.699219 183.484375 76.800781 C 183.542969 76.902344 183.613281 76.996094 183.695312 77.078125 C 183.777344 77.160156 183.871094 77.234375 183.96875 77.292969 C 184.070312 77.351562 184.179688 77.398438 184.289062 77.429688 C 184.402344 77.464844 184.519531 77.480469 184.636719 77.484375 C 200.296875 77.414062 220.390625 67.457031 222.589844 50.402344 C 223.101562 50.128906 223.585938 49.824219 224.125 49.574219 C 235.441406 44.316406 247.050781 39.804688 258.949219 36.035156 C 270.265625 35.03125 281.597656 34.730469 292.949219 35.128906 C 310.449219 35.851562 327.707031 38.277344 344.722656 42.410156 C 344.867188 42.570312 345.042969 42.675781 345.25 42.730469 C 345.457031 42.78125 345.664062 42.769531 345.867188 42.699219 C 360.511719 46.28125 374.78125 50.992188 388.671875 56.832031 C 390.25 57.492188 391.621094 55.1875 390.03125 54.515625 Z M 125.09375 22.871094 C 132.90625 22.738281 140.585938 23.679688 148.136719 25.695312 C 152 26.449219 155.710938 27.660156 159.273438 29.328125 C 162.835938 30.996094 166.140625 33.070312 169.191406 35.550781 C 163.242188 33.925781 157.238281 32.480469 151.144531 31.3125 C 149.453125 30.984375 148.730469 33.570312 150.429688 33.894531 C 156.078125 34.980469 161.644531 36.316406 167.171875 37.789062 C 165.257812 38.3125 163.316406 38.683594 161.34375 38.910156 C 159.371094 39.136719 157.394531 39.214844 155.410156 39.140625 C 153.425781 39.066406 151.460938 38.839844 149.511719 38.46875 C 147.5625 38.09375 145.652344 37.578125 143.785156 36.914062 C 141.914062 36.25 140.105469 35.449219 138.355469 34.511719 C 136.609375 33.574219 134.945312 32.511719 133.359375 31.320312 C 131.773438 30.128906 130.289062 28.824219 128.902344 27.410156 C 127.515625 25.992188 126.246094 24.480469 125.09375 22.871094 Z M 11.878906 72.554688 C 17.910156 68.910156 24.316406 66.128906 31.097656 64.207031 C 37.878906 62.285156 44.796875 61.289062 51.847656 61.222656 C 47.367188 63.101562 43.0625 65.316406 38.929688 67.867188 C 37.464844 68.773438 38.8125 71.09375 40.285156 70.179688 C 45.113281 67.1875 50.171875 64.671875 55.472656 62.628906 C 54.898438 63.476562 54.285156 64.296875 53.632812 65.085938 C 52.980469 65.875 52.292969 66.632812 51.570312 67.359375 C 50.847656 68.085938 50.089844 68.773438 49.300781 69.429688 C 48.511719 70.085938 47.695312 70.699219 46.847656 71.277344 C 46.003906 71.855469 45.128906 72.394531 44.234375 72.890625 C 43.335938 73.386719 42.417969 73.839844 41.476562 74.25 C 40.535156 74.660156 39.578125 75.027344 38.605469 75.347656 C 37.628906 75.667969 36.640625 75.941406 35.640625 76.167969 C 34.640625 76.394531 33.632812 76.578125 32.613281 76.710938 C 31.597656 76.84375 30.574219 76.929688 29.550781 76.964844 C 28.523438 77.003906 27.5 76.992188 26.476562 76.933594 C 25.449219 76.875 24.429688 76.769531 23.417969 76.613281 C 22.402344 76.460938 21.398438 76.257812 20.402344 76.007812 C 19.40625 75.761719 18.425781 75.464844 17.457031 75.125 C 16.488281 74.785156 15.539062 74.398438 14.609375 73.96875 C 13.675781 73.539062 12.765625 73.070312 11.878906 72.554688 Z M 27.0625 43.695312 C 22.097656 41.988281 17.617188 39.4375 13.621094 36.042969 C 10.925781 33.621094 3.058594 23.0625 10.113281 22.433594 C 13.4375 22.9375 16.582031 23.972656 19.554688 25.542969 C 23.429688 26.953125 27.160156 28.679688 30.738281 30.726562 C 33.804688 32.496094 36.609375 34.601562 39.160156 37.046875 C 41.710938 39.492188 43.933594 42.203125 45.824219 45.183594 C 42.503906 44.085938 39.191406 42.886719 35.894531 41.542969 C 34.292969 40.886719 33.597656 43.480469 35.179688 44.125 C 36.957031 44.851562 38.75 45.445312 40.535156 46.097656 C 35.914062 46.015625 31.421875 45.214844 27.0625 43.695312 Z M 186.773438 74.71875 C 188.140625 71.40625 189.964844 68.363281 192.234375 65.585938 C 194.507812 62.808594 197.132812 60.421875 200.113281 58.417969 C 204.394531 55.839844 208.921875 53.828125 213.707031 52.375 C 213.433594 52.574219 213.140625 52.738281 212.875 52.945312 C 208.699219 57.042969 204.265625 60.835938 199.570312 64.328125 C 199.417969 64.417969 199.292969 64.535156 199.1875 64.675781 C 199.085938 64.816406 199.011719 64.972656 198.96875 65.144531 C 198.925781 65.3125 198.917969 65.484375 198.941406 65.65625 C 198.96875 65.832031 199.023438 65.992188 199.113281 66.144531 C 199.203125 66.296875 199.316406 66.425781 199.453125 66.53125 C 199.59375 66.636719 199.75 66.714844 199.917969 66.761719 C 200.085938 66.808594 200.257812 66.820312 200.433594 66.800781 C 200.609375 66.777344 200.773438 66.726562 200.925781 66.640625 C 207.886719 62.574219 212.976562 56.582031 219.617188 52.183594 C 216.523438 65.871094 199.945312 73.875 186.773438 74.71875 Z M 186.773438 74.71875 " fill-opacity="1" fill-rule="nonzero"/><path fill="#303030" d="M 753.433594 58.589844 C 753.042969 58.597656 752.722656 58.75 752.46875 59.046875 C 746.390625 56.957031 740.152344 55.554688 733.761719 54.84375 C 743.460938 53.5625 752.984375 51.464844 762.320312 48.550781 C 778.519531 50.261719 809.964844 41.324219 804.902344 19.574219 C 804.855469 19.402344 804.773438 19.246094 804.664062 19.109375 C 804.554688 18.96875 804.421875 18.855469 804.269531 18.769531 C 804.113281 18.679688 803.949219 18.625 803.773438 18.601562 C 803.59375 18.578125 803.421875 18.589844 803.25 18.636719 C 786.125 23.703125 769.179688 29.957031 760.199219 46.4375 C 715.207031 60.042969 668.339844 52.582031 622.40625 44.214844 C 627.308594 42.429688 632.25 40.777344 637.238281 39.316406 C 637.566406 39.355469 637.855469 39.261719 638.105469 39.046875 L 638.292969 38.988281 C 638.449219 39.371094 638.730469 39.605469 639.136719 39.695312 C 656.488281 44.242188 678.917969 40.304688 687.878906 23.132812 C 687.945312 22.527344 687.832031 21.957031 687.550781 21.417969 C 687.265625 20.882812 686.855469 20.464844 686.320312 20.175781 C 675.480469 19.851562 664.953125 21.511719 654.742188 25.160156 C 651.132812 26.015625 647.761719 27.433594 644.632812 29.417969 C 641.503906 31.40625 638.785156 33.847656 636.480469 36.746094 C 629.972656 38.648438 623.539062 40.820312 617.175781 43.261719 C 608.238281 41.625 599.335938 39.980469 590.496094 38.488281 C 578.074219 36.386719 565.730469 34.890625 553.46875 34 C 551.355469 33.300781 549.246094 32.597656 547.121094 31.933594 C 546.640625 31.796875 546.21875 31.902344 545.859375 32.246094 C 545.5 32.59375 545.382812 33.011719 545.507812 33.492188 C 519.378906 32.054688 493.515625 34.039062 467.917969 39.441406 C 472.460938 34.425781 477.585938 30.097656 483.304688 26.460938 C 497.625 28.488281 519.980469 21.910156 522.722656 5.539062 C 523.003906 3.855469 520.414062 3.125 520.128906 4.828125 C 517.84375 18.496094 500.144531 24.65625 487.246094 24.152344 C 490.183594 22.550781 493.21875 21.160156 496.351562 19.988281 C 497.957031 19.394531 497.261719 16.796875 495.636719 17.40625 C 492.066406 18.75 488.617188 20.351562 485.292969 22.21875 C 486.40625 20.757812 487.601562 19.367188 488.882812 18.046875 C 490.160156 16.726562 491.515625 15.484375 492.941406 14.324219 C 494.367188 13.164062 495.855469 12.089844 497.410156 11.105469 C 498.964844 10.117188 500.570312 9.226562 502.230469 8.433594 C 503.886719 7.636719 505.589844 6.9375 507.332031 6.34375 C 509.070312 5.746094 510.84375 5.253906 512.644531 4.867188 C 514.441406 4.480469 516.257812 4.199219 518.09375 4.027344 C 519.925781 3.855469 521.761719 3.789062 523.601562 3.832031 C 525.328125 3.960938 525.320312 1.28125 523.601562 1.15625 C 521.457031 1.054688 519.3125 1.101562 517.171875 1.296875 C 515.03125 1.492188 512.917969 1.835938 510.824219 2.324219 C 508.730469 2.8125 506.683594 3.445312 504.679688 4.21875 C 502.675781 4.992188 500.734375 5.898438 498.855469 6.941406 C 496.980469 7.984375 495.183594 9.152344 493.46875 10.445312 C 491.753906 11.738281 490.136719 13.140625 488.621094 14.65625 C 487.101562 16.171875 485.695312 17.785156 484.402344 19.496094 C 483.109375 21.210938 481.941406 23 480.898438 24.875 C 474.304688 29.179688 468.503906 34.359375 463.488281 40.421875 C 448.578125 43.882812 434.070312 48.585938 419.96875 54.519531 C 418.378906 55.1875 419.75 57.492188 421.324219 56.832031 C 435.210938 50.992188 449.472656 46.277344 464.113281 42.695312 C 464.324219 42.773438 464.539062 42.789062 464.757812 42.730469 C 464.976562 42.675781 465.160156 42.5625 465.304688 42.390625 C 481.691406 38.417969 498.308594 36.027344 515.152344 35.214844 C 527.160156 34.710938 539.152344 34.992188 551.125 36.054688 C 563 39.824219 574.585938 44.332031 585.878906 49.585938 C 586.414062 49.839844 586.902344 50.140625 587.414062 50.414062 C 589.617188 67.46875 609.707031 77.425781 625.371094 77.496094 C 625.488281 77.492188 625.601562 77.476562 625.714844 77.441406 C 625.828125 77.410156 625.933594 77.363281 626.035156 77.304688 C 626.136719 77.246094 626.226562 77.171875 626.308594 77.089844 C 626.390625 77.007812 626.460938 76.914062 626.519531 76.8125 C 626.578125 76.710938 626.621094 76.605469 626.652344 76.492188 C 626.683594 76.378906 626.699219 76.265625 626.699219 76.148438 C 626.703125 76.03125 626.6875 75.914062 626.660156 75.800781 C 626.628906 75.6875 626.585938 75.582031 626.53125 75.476562 C 625.179688 71.871094 623.355469 68.523438 621.058594 65.425781 C 618.761719 62.332031 616.082031 59.617188 613.015625 57.273438 C 606.242188 53.011719 598.96875 49.90625 591.199219 47.957031 C 590.929688 47.859375 590.660156 47.863281 590.386719 47.964844 C 590.117188 48.066406 589.914062 48.242188 589.773438 48.492188 C 587.773438 47.503906 585.730469 46.574219 583.699219 45.660156 C 576.824219 42.570312 569.828125 39.792969 562.75 37.222656 C 578.230469 39.015625 593.636719 41.675781 608.988281 44.507812 C 646.34375 51.40625 685 58.851562 722.78125 55.976562 C 722.847656 56.261719 722.996094 56.492188 723.226562 56.667969 C 723.460938 56.847656 723.722656 56.929688 724.011719 56.921875 C 732.996094 56.941406 741.757812 58.347656 750.292969 61.144531 L 750.347656 61.292969 C 750.945312 62.367188 751.597656 63.410156 752.304688 64.417969 C 753.011719 65.425781 753.765625 66.390625 754.574219 67.320312 C 755.378906 68.25 756.230469 69.136719 757.128906 69.976562 C 758.027344 70.820312 758.964844 71.613281 759.945312 72.359375 C 760.925781 73.105469 761.941406 73.796875 762.996094 74.4375 C 764.046875 75.078125 765.128906 75.664062 766.242188 76.191406 C 767.351562 76.722656 768.488281 77.191406 769.652344 77.605469 C 770.8125 78.019531 771.992188 78.371094 773.1875 78.660156 C 774.386719 78.953125 775.597656 79.179688 776.816406 79.347656 C 778.039062 79.515625 779.265625 79.617188 780.496094 79.65625 C 781.730469 79.699219 782.960938 79.675781 784.191406 79.589844 C 785.417969 79.503906 786.640625 79.355469 787.855469 79.144531 C 789.070312 78.929688 790.269531 78.65625 791.457031 78.320312 C 792.640625 77.988281 793.808594 77.589844 794.953125 77.136719 C 796.097656 76.679688 797.214844 76.167969 798.308594 75.597656 C 799.398438 75.027344 800.457031 74.402344 801.484375 73.722656 C 801.585938 73.664062 801.675781 73.589844 801.757812 73.507812 C 801.835938 73.425781 801.90625 73.332031 801.960938 73.230469 C 802.019531 73.128906 802.0625 73.023438 802.09375 72.910156 C 802.121094 72.796875 802.136719 72.683594 802.136719 72.566406 C 802.136719 72.453125 802.121094 72.335938 802.09375 72.226562 C 802.0625 72.113281 802.019531 72.003906 801.960938 71.902344 C 801.90625 71.804688 801.835938 71.710938 801.757812 71.625 C 801.675781 71.542969 801.585938 71.472656 801.484375 71.410156 C 797.9375 69.132812 794.230469 67.144531 790.371094 65.441406 C 786.511719 63.738281 782.542969 62.34375 778.464844 61.253906 C 774.386719 60.167969 770.25 59.398438 766.054688 58.953125 C 761.855469 58.503906 757.648438 58.382812 753.433594 58.589844 Z M 684.921875 22.847656 C 683.765625 24.460938 682.496094 25.972656 681.113281 27.390625 C 679.726562 28.808594 678.242188 30.113281 676.65625 31.308594 C 675.070312 32.5 673.402344 33.566406 671.65625 34.503906 C 669.90625 35.441406 668.097656 36.246094 666.226562 36.90625 C 664.355469 37.570312 662.445312 38.089844 660.496094 38.464844 C 658.546875 38.839844 656.578125 39.0625 654.59375 39.136719 C 652.609375 39.210938 650.632812 39.136719 648.660156 38.910156 C 646.6875 38.683594 644.742188 38.3125 642.828125 37.789062 C 648.351562 36.316406 653.921875 34.980469 659.570312 33.894531 C 661.269531 33.570312 660.550781 30.984375 658.855469 31.3125 C 652.699219 32.492188 646.632812 33.953125 640.621094 35.597656 C 649.824219 24.988281 672.121094 22.765625 684.921875 22.847656 Z M 609.886719 58.417969 C 612.863281 60.421875 615.488281 62.8125 617.757812 65.589844 C 620.027344 68.367188 621.851562 71.410156 623.222656 74.71875 C 610.046875 73.871094 593.46875 65.871094 590.382812 52.183594 C 597.027344 56.585938 602.097656 62.570312 609.074219 66.640625 C 609.226562 66.722656 609.390625 66.773438 609.5625 66.789062 C 609.734375 66.808594 609.90625 66.792969 610.074219 66.746094 C 610.242188 66.699219 610.394531 66.621094 610.53125 66.515625 C 610.667969 66.410156 610.78125 66.28125 610.867188 66.132812 C 610.957031 65.984375 611.011719 65.824219 611.039062 65.652344 C 611.0625 65.480469 611.054688 65.3125 611.015625 65.140625 C 610.972656 64.972656 610.902344 64.820312 610.800781 64.679688 C 610.703125 64.535156 610.578125 64.417969 610.429688 64.328125 C 605.769531 60.882812 601.378906 57.125 597.261719 53.050781 C 596.949219 52.804688 596.605469 52.605469 596.285156 52.371094 C 601.070312 53.824219 605.601562 55.839844 609.886719 58.417969 Z M 778.136719 31.378906 C 782.046875 29.03125 786.148438 27.085938 790.441406 25.542969 C 793.414062 23.972656 796.558594 22.9375 799.882812 22.433594 C 806.9375 23.0625 799.070312 33.621094 796.371094 36.042969 C 793.039062 38.878906 789.332031 41.101562 785.253906 42.710938 C 780.21875 44.820312 774.96875 45.941406 769.507812 46.082031 C 771.277344 45.4375 773.054688 44.847656 774.816406 44.128906 C 776.394531 43.484375 775.703125 40.890625 774.101562 41.542969 C 770.796875 42.890625 767.476562 44.09375 764.148438 45.195312 C 767.742188 39.511719 772.402344 34.90625 778.140625 31.378906 Z M 754.519531 62.625 C 759.820312 64.667969 764.882812 67.1875 769.707031 70.179688 C 771.183594 71.09375 772.535156 68.773438 771.066406 67.863281 C 766.933594 65.316406 762.628906 63.101562 758.148438 61.222656 C 765.199219 61.289062 772.117188 62.28125 778.898438 64.207031 C 785.679688 66.128906 792.085938 68.910156 798.117188 72.550781 C 797.230469 73.066406 796.320312 73.539062 795.386719 73.96875 C 794.457031 74.398438 793.507812 74.78125 792.539062 75.121094 C 791.570312 75.460938 790.589844 75.757812 789.59375 76.003906 C 788.597656 76.253906 787.59375 76.453125 786.578125 76.609375 C 785.566406 76.761719 784.546875 76.867188 783.523438 76.925781 C 782.496094 76.984375 781.472656 76.996094 780.445312 76.957031 C 779.421875 76.921875 778.398438 76.835938 777.382812 76.703125 C 776.363281 76.570312 775.355469 76.390625 774.355469 76.160156 C 773.355469 75.933594 772.367188 75.660156 771.394531 75.339844 C 770.417969 75.019531 769.460938 74.652344 768.523438 74.242188 C 767.582031 73.832031 766.664062 73.378906 765.765625 72.882812 C 764.867188 72.386719 763.996094 71.851562 763.148438 71.273438 C 762.304688 70.695312 761.484375 70.078125 760.695312 69.421875 C 759.910156 68.769531 759.152344 68.078125 758.429688 67.355469 C 757.707031 66.628906 757.019531 65.871094 756.367188 65.082031 C 755.714844 64.289062 755.101562 63.472656 754.527344 62.625 Z M 754.519531 62.625 " fill-opacity="1" fill-rule="nonzero"/></g></g></g></g></svg>